<svg xmlns="http://www.w3.org/2000/svg" width="1509.227" height="541.129" viewBox="0 0 1509.227 541.129">
  <g id="Group_1085" data-name="Group 1085" transform="translate(-178.723 -2365.853)">
    <g id="Group_1060" data-name="Group 1060" transform="translate(1181.848 2469.471)">
      <path id="Path_1530" data-name="Path 1530" d="M2150.438,2755.956s73.541-112.3,105.027-97.6S2150.438,2755.956,2150.438,2755.956Z" transform="translate(-2130.485 -2657.028)" fill="#dfebfd"/>
      <path id="Path_1531" data-name="Path 1531" d="M2145.205,2796.294s157.654-120.243,209.131-88.331-39.762,47.91-74.2,51.074S2145.205,2796.294,2145.205,2796.294Z" transform="translate(-2128.025 -2678.436)" fill="#dfebfd"/>
      <path id="Path_1532" data-name="Path 1532" d="M2118.034,2775.755s-.213-4.628-.608-11.385c-.77-13.181-2.232-34.459-4.152-45.27-2.9-16.351,7.389-30.863,25.5-17.776s-16.3,68.713-16.3,68.713Z" transform="translate(-2112.787 -2675.465)" fill="#dfebfd"/>
    </g>
    <path id="Path_1533" data-name="Path 1533" d="M997.7,3386.629l-71.848-.194a22.692,22.692,0,0,0-6.778-.018l-39.367-.1c-14.033-10.414-16.2-42.048-16.2-42.048,11.8,8.379,37.722,8.846,40.11,4.617s-32.629-15.2-37.619-18.344-10.938-17.124,2.072-36.933,47.465-1,47.465-1,12.443,46.2,19.392,49.482-2.925-41.578-2.925-41.578c14.485,3.241,44.622,32.169,44.622,32.169s-16.8,43.639-9.262,45.107,12.906-39.4,12.906-39.4c12.253,8.53,19.737,28.532,19.737,28.532C1001.926,3374.955,1000.648,3381.435,997.7,3386.629Z" transform="translate(-342.18 -482.509)" fill="#cde0fb"/>
    <path id="Path_1534" data-name="Path 1534" d="M466.428,2529.782c18.041-30.992,71.638-5.38,71.638-5.38s22.572,68.795,33.339,73.183S563.592,2535,563.592,2535c22.15,3.716,70.047,44.97,70.047,44.97s-21.832,67.309-10.316,68.911,16.291-60.584,16.291-60.584c19.206,11.885,32.151,41.5,32.151,41.5,13.7,46.247-46.393,61.451-46.393,61.451s-7.063,23.49.258,54.58h0a83.47,83.47,0,0,1,3.016,15.327l-5.7-1.531c-.055-1.653-.171-3.266-.357-4.837a.032.032,0,0,0,0-.028c0-.023-.006-.046-.009-.068-.153-.985-.377-2.388-.666-4.1l0-.006s0,0,0-.009c-.824-3.874-1.323-6.707-1.578-8.724a.069.069,0,0,1,0-.018c-2.339-12.095-6.1-28.047-10.327-32.316a11.422,11.422,0,0,0,1.922-2.284l-1.922,2.284c-15.367,18.27-65.049,8.644-90.71-4.23s-11.762-17.35,6.2-25.85,47.726,3.016,58.089.575-1.557-10.873-20.037-14.348-32.4,12.2-62.4,7.116-37.488-66.084-37.488-66.084c18.51,11.7,57.717,10.292,60.982,3.7s-50.542-20.312-58.337-24.648S448.388,2560.773,466.428,2529.782Z" transform="translate(-152.345 -120.544)" fill="#dfebfd"/>
    <g id="Group_1061" data-name="Group 1061" transform="translate(833.397 2851.473)">
      <path id="Path_1536" data-name="Path 1536" d="M1490.315,3408.791s-7.6,26.64-6.134,36.991l-28.767-.076c-.6-5.844.811-12.193,5.673-18.695C1461.086,3427.011,1475.793,3411.729,1490.315,3408.791Z" transform="translate(-1455.283 -3392.388)" fill="#dfebfd"/>
      <path id="Path_1537" data-name="Path 1537" d="M1630.542,3431.538l-109.072-.285c4.317-10.99,5.527-40.777,5.527-40.777s38.858-14.485,53.33-11.73c0,0-26.671,36.984-19.049,36.73s37.168-37.44,37.168-37.44,38.807-3.564,42.853,19.613C1644.932,3418.452,1636.494,3428.961,1630.542,3431.538Z" transform="translate(-1486.394 -3377.839)" fill="#dfebfd"/>
    </g>
    <path id="Path_1538" data-name="Path 1538" d="M2067.945,3469.8l-103.242-.272c6.692-2.862,15.428-5.558,24.8-8.762C2013,3452.737,2045.015,3463.8,2067.945,3469.8Z" transform="translate(-861.334 -564.02)" fill="#dfebfd"/>
    <path id="Path_1539" data-name="Path 1539" d="M2048.236,3293.606l-93.453-.25c1.95-4.137-9.973-12.607-27.234-17.921-21.973-6.766-41.042,10.362-76.786.066s-36.454-85.438-36.454-85.438c20.875,16.756,68.7,20.442,73.573,12.883s-58.61-31.621-67.482-37.962-18.34-32.813,7.836-67.982,87.772,3.312,87.772,3.312,17.962,86.679,30.439,93.493-.888-77.107-.888-77.107c26.4,7.559,78.914,64.264,78.914,64.264s-35.775,78.767-22,82.3,28.118-71.36,28.118-71.36c21.7,17.078,33.353,54.835,33.353,54.835C2067.764,3268.339,2059.776,3283.315,2048.236,3293.606Z" transform="translate(-789.166 -387.397)" fill="#dfebfd"/>
    <g id="Group_1068" data-name="Group 1068" transform="translate(254.1 2575.678)">
      <g id="Group_1067" data-name="Group 1067" transform="translate(13.002 0)">
        <g id="Group_1066" data-name="Group 1066">
          <g id="Group_1065" data-name="Group 1065">
            <path id="Path_1540" data-name="Path 1540" d="M593.2,3019.845c0-.194-2.851-6.09-1.944-6.543s2.532-.385,2.721.648S593.2,3019.845,593.2,3019.845Z" transform="translate(-482.776 -2930.572)" fill="#ffb27d"/>
            <path id="Path_1541" data-name="Path 1541" d="M483.7,2877.392s-16.719-20.09-25.57-7.235c0,0-6.6,2.739-8.992,13.979-2.437,11.467,5.189,20.184,9.132,18.03,2.528-1.381,4.443,3.044,4.443,3.044Z" transform="translate(-415.839 -2861.394)" fill="#233862"/>
            <path id="Path_1542" data-name="Path 1542" d="M539.253,3035.758c13.291-4.9,26.093-27.643,26.093-27.643l-4.192-2.934c-3.491,5.107-19.2,14.914-19.2,14.914-.359-4.3-.88-8.208-1.522-11.746-4.36-24.039-14.336-31.159-17.013-32.672a6.222,6.222,0,0,0-.676-.341s.008.177.029.512c.039.723.124,2.181.263,4.179C524.076,2994.909,528.147,3039.853,539.253,3035.758Z" transform="translate(-450.659 -2912.852)" fill="#ffb27d"/>
            <path id="Path_1543" data-name="Path 1543" d="M453.219,2864.158s-2.248-8.992-15.454-6.182c0,0,6.322-.8,8.055,1.639,0,0-5.011-2.295-8.149-.375s-3.653,8.383-3.185,10.35,3.934,7.821,6.229,7.821,5.011-2.014,5.011-2.014Z" transform="translate(-409.104 -2857.433)" fill="#233862"/>
            <path id="Path_1544" data-name="Path 1544" d="M432.549,3041.443c6.566-14.726,9.708-18.89,9.818-23.524.087-3.664-1.72-7.618-5.229-17.312a36.122,36.122,0,0,1-1.748-7.007c-2.775-18.689,8.032-38.892,14.748-40.268,1.869-.494,5.037-7.244,5-18.121l.841.165,14.144,2.8s-.322,4.451-.331,8.644c-.01,3.495.2,6.806.993,7.223,1.019.092,1.619.153,1.619.153s11.793,16.377,12.785,31.61-9.444,21.849.078,52.288C494.986,3069.185,428.921,3049.581,432.549,3041.443Z" transform="translate(-408.196 -2893.992)" fill="#ffb27d"/>
            <path id="Path_1545" data-name="Path 1545" d="M491.028,2938.325s-.322,4.451-.331,8.644c-7.914-.223-12.1-7.443-13.812-11.445Z" transform="translate(-429.103 -2894.139)" fill="#e8945b"/>
            <path id="Path_1546" data-name="Path 1546" d="M469.459,2906.844s-4.147-6.554-5.143-12.157c-.711-4,1.327-18.831,16.229-16.695a20.245,20.245,0,0,1,8.4,3.175c3.235,2.185,7.9,6.9,2.684,19.844l-1.356,4.371Z" transform="translate(-423.138 -2866.999)" fill="#233862"/>
            <path id="Path_1547" data-name="Path 1547" d="M491.753,2920.276s-18.726.309-18.739-11.356-2.438-19.479,9.517-20.17,14.283,3.758,15.234,7.65S496.624,2919.9,491.753,2920.276Z" transform="translate(-427.185 -2872.12)" fill="#ffb27d"/>
            <path id="Path_1548" data-name="Path 1548" d="M485.719,2886.171s-5.127,13.685-13,15.708-11.281-.085-11.281-.085a22.281,22.281,0,0,0,7.288-13.164S481.852,2879.659,485.719,2886.171Z" transform="translate(-421.845 -2869.827)" fill="#233862"/>
            <path id="Path_1549" data-name="Path 1549" d="M504.854,2888.392s3.829,3.055,4.762,6.025,1.354,9.085,3.136,8.877c0,0,3.862-9.3-.479-14.563C507.67,2883.152,504.854,2888.392,504.854,2888.392Z" transform="translate(-442.25 -2870.936)" fill="#233862"/>
            <path id="Path_1550" data-name="Path 1550" d="M460.215,3280.433a185.071,185.071,0,0,0,11.8,33.108l6.175-.428a174.608,174.608,0,0,1-2.854-33.871c.122-13.608,1.805-29.691,7.182-45.046,18.477-52.769,15.491-91.174,15.491-91.174l-34.746,4.064-1.618.19c-.145,15.957-.556,37.623-.917,54.565-.319,15.236-.6,26.65-.6,26.65C453.451,3242.878,455.877,3263.186,460.215,3280.433Z" transform="translate(-419.281 -2991.671)" fill="#09106b"/>
            <path id="Path_1551" data-name="Path 1551" d="M386.724,3072.846l5.621,1.686s18.544-30.769,20.23-38.775c.551-2.606,1.9-7.822,3.472-13.666,3.257-12.1,7.459-26.91,7.459-26.91l1.384-5.995,4.721-20.443s-9.039.924-14.326,3.134c-1.75.731-3.086,1.6-3.552,2.626-3.884,8.54-7.761,30.093-10.487,45.468-1.519,8.569-2.677,15.221-3.282,16.63C396.278,3040.532,391.126,3062.169,386.724,3072.846Z" transform="translate(-386.724 -2909.752)" fill="#ffb27d"/>
            <path id="Path_1552" data-name="Path 1552" d="M425.91,3270.95c2,21.322,10.795,35.109,10.795,35.109l2.95,2.145s2.792-15.022,4.768-32.894c1.883-16.987,4.463-34.961,7.382-40.449,11.588-21.758,15.076-103.9,15.076-103.9l-35.229-1.747c-3.543,5.956-5.087,15.725-5.454,26.833-.927,28.034,5.663,64.588,6.648,69.875a.033.033,0,0,0,0,.013,1.842,1.842,0,0,1-.232,1.181C425.607,3240.993,424.594,3256.866,425.91,3270.95Z" transform="translate(-404.91 -2985.181)" fill="#061095"/>
            <path id="Path_1553" data-name="Path 1553" d="M494.151,2887.938s-3.653,14.33-13.581,18.92c0,0,9.928-8.8,10.771-18.264S494.151,2887.938,494.151,2887.938Z" transform="translate(-430.835 -2870.02)" fill="#233862"/>
            <path id="Path_1554" data-name="Path 1554" d="M417.975,3068.3a8.356,8.356,0,0,0,.218,2.815c.75,2.359,3.324,3.434,9.547,2.79,3.8-.4,5.5-6.771,6.256-12.208q3.427,11.671,9.618,13.064c6.033,1.342,36.468,5.042,38.459-9.425,2.191-15.913-4.37-44.088-4.73-59.279a75.136,75.136,0,0,0,1.1-14.078c-.254-10.822-3.43-16.887-5.872-19.329-.692-.531-1.384-.862-4.16-1.338-1.419-.242-3.385-.521-6.172-.888a10.512,10.512,0,0,0-1.111-.086c.515.92,7.408,11.358,6.871,14.042-.563,2.809-25.009.28-26.7-1.265s-4.354-13.38-4.354-13.38-8.656.946-12.89,4.025l.045.055a3.583,3.583,0,0,0-1.113,1.171c-4.517,8.6-9.029,30.309-12.2,45.793a22.549,22.549,0,0,0,16.495,2.417C424.561,3041.033,418.379,3060.179,417.975,3068.3Z" transform="translate(-398.037 -2910.221)" fill="#fde205"/>
            <path id="Path_1555" data-name="Path 1555" d="M595.154,3018.453c0-.578-.484-8.942,1-10.7s4.529-4.256,5.485-4.179,4.7,5.046,3.571,8.853-5.869,8.96-5.869,8.96Z" transform="translate(-484.658 -2926.124)" fill="#ffb27d"/>
            <g id="Group_1062" data-name="Group 1062" transform="translate(103.147 64.372)">
              <path id="Rectangle_193" data-name="Rectangle 193" d="M1.026,0H9.111a1.025,1.025,0,0,1,1.025,1.025V17.316a1.026,1.026,0,0,1-1.026,1.026H1.025A1.025,1.025,0,0,1,0,17.316V1.026A1.026,1.026,0,0,1,1.026,0Z" transform="translate(9.71 20.479) rotate(-163.318)" fill="#0012ff"/>
              <path id="Path_1556" data-name="Path 1556" d="M585.977,2998l7.862,2.356a.963.963,0,0,0,1.2-.646l4.712-15.722a.965.965,0,0,0-.647-1.2l-7.862-2.356a.965.965,0,0,0-1.2.646l-4.712,15.722A.964.964,0,0,0,585.977,2998Z" transform="translate(-583.205 -2979.599)" fill="#061095"/>
            </g>
            <path id="Path_1557" data-name="Path 1557" d="M426.348,3396.66c2,21.322,10.795,35.109,10.795,35.109l3,2.735s2.738-15.612,4.714-33.483C442.778,3401.172,433.6,3401.507,426.348,3396.66Z" transform="translate(-405.349 -3110.891)" fill="#ffb27d"/>
            <path id="Path_1558" data-name="Path 1558" d="M463.963,3401.252a185.071,185.071,0,0,0,11.8,33.108l6.175-.428a174.6,174.6,0,0,1-2.854-33.871C476.992,3401.117,472.668,3402.188,463.963,3401.252Z" transform="translate(-423.029 -3112.489)" fill="#d9935c"/>
            <g id="Group_1063" data-name="Group 1063" transform="translate(45.975 312.757)">
              <path id="Path_1559" data-name="Path 1559" d="M476.681,3461.876h3.942c1.321-.208,2.3-.59,3.65-.767a3.659,3.659,0,0,1,3.192.767c.025.026.036.04.036.04h16.747c.422-.6.017-2-.379-3.02a2.381,2.381,0,0,0-1.568-1.433c-1.775-.514-5.277-.972-8.483-3.875-1.8-1.629-8.71-5.993-8.71-5.993l-.037-.009c-.152,0-.873.225-4.015,2.877-1.624,1.369-4.392-1.933-4.392-1.933a3.952,3.952,0,0,0-.908,1.23,4.163,4.163,0,0,0-.359,2.572c.25,1.509-.556,4.313-1.2,6.21-.391,1.149-.72,1.964-.72,1.964S473.29,3461.451,476.681,3461.876Z" transform="translate(-473.476 -3447.585)" fill="#233862"/>
              <path id="Path_1560" data-name="Path 1560" d="M477.78,3449.759a12.494,12.494,0,0,0,4.246,2.141c1.779.234,5.105-4.307,5.105-4.307l-.037-.009c-.152,0-.873.225-4.015,2.877-1.624,1.369-4.392-1.933-4.392-1.933A3.951,3.951,0,0,0,477.78,3449.759Z" transform="translate(-475.499 -3447.585)" fill="#466aa5"/>
              <path id="Path_1561" data-name="Path 1561" d="M476.681,3471.593h3.942c1.321-.208,2.3-.59,3.65-.767a3.657,3.657,0,0,1,3.192.767c.025.025.036.039.036.039h16.747c.422-.6.017-2-.379-3.02-.509-.453-.652,1.964-.933,2.348s-13.661.141-14.434-.421a8.081,8.081,0,0,0-6.322-.773c-2.812.672-6.957-1.05-7.982-1.508-.391,1.149-.72,1.964-.72,1.964S473.29,3471.168,476.681,3471.593Z" transform="translate(-473.476 -3457.302)" fill="#466aa5"/>
            </g>
            <g id="Group_1064" data-name="Group 1064" transform="translate(24.938 312.757)">
              <path id="Path_1562" data-name="Path 1562" d="M436.986,3461.876h3.942c1.321-.208,2.3-.59,3.65-.767a3.661,3.661,0,0,1,3.192.767c.025.026.037.04.037.04h16.746c.422-.6.017-2-.379-3.02a2.38,2.38,0,0,0-1.568-1.433c-1.776-.514-5.277-.972-8.483-3.875-1.8-1.629-8.711-5.993-8.711-5.993l-.037-.009c-.152,0-.874.225-4.015,2.877-1.624,1.369-4.392-1.933-4.392-1.933a3.952,3.952,0,0,0-.908,1.23,4.167,4.167,0,0,0-.36,2.572c.25,1.509-.556,4.313-1.2,6.21-.391,1.149-.72,1.964-.72,1.964S433.594,3461.451,436.986,3461.876Z" transform="translate(-433.78 -3447.585)" fill="#233862"/>
              <path id="Path_1563" data-name="Path 1563" d="M438.084,3449.759a12.491,12.491,0,0,0,4.246,2.141c1.779.234,5.106-4.307,5.106-4.307l-.037-.009c-.152,0-.874.225-4.015,2.877-1.624,1.369-4.392-1.933-4.392-1.933A3.952,3.952,0,0,0,438.084,3449.759Z" transform="translate(-435.803 -3447.585)" fill="#466aa5"/>
              <path id="Path_1564" data-name="Path 1564" d="M436.986,3471.593h3.942c1.321-.208,2.3-.59,3.65-.767a3.659,3.659,0,0,1,3.192.767c.025.025.037.039.037.039h16.746c.422-.6.017-2-.379-3.02-.508-.453-.652,1.964-.933,2.348s-13.661.141-14.434-.421a8.08,8.08,0,0,0-6.322-.773c-2.813.672-6.957-1.05-7.983-1.508-.391,1.149-.72,1.964-.72,1.964S433.594,3471.168,436.986,3471.593Z" transform="translate(-433.78 -3457.302)" fill="#466aa5"/>
            </g>
            <path id="Path_1565" data-name="Path 1565" d="M524.929,2974.306s11.679,5.876,15.569,29.593c0,0-3.825,5.243-9.213,6.79a10.75,10.75,0,0,1-2.4.41C522.272,3011.451,524.929,2974.306,524.929,2974.306Z" transform="translate(-451.438 -2912.367)" fill="#fde205"/>
            <path id="Path_1566" data-name="Path 1566" d="M603.814,3000.126s-3.609-5.554-4.491-5.245c-1.259.441,3.273,7.488,3.273,7.488s-3.358-5.266-3.883-4.87c-1.2.9.708,4.212,2.594,6.748,0,0-3.376-3.092-3.487-2.535-.385,1.951,3.707,6.678,3.707,6.678l2.287-5.225Z" transform="translate(-485.936 -2922.033)" fill="#ffb27d"/>
            <path id="Path_1567" data-name="Path 1567" d="M611.861,3003.194c-.174-.679-1.056-13.942-1.432-12.684s-1.275,8.212-1.275,8.212Z" transform="translate(-491.274 -2919.945)" fill="#ffb27d"/>
          </g>
        </g>
        <path id="Path_1568" data-name="Path 1568" d="M501.657,2934.456s.323,1.375,3.743,1.163c0,0,2.871-.177,2.783-1.688A9.239,9.239,0,0,0,501.657,2934.456Z" transform="translate(-440.747 -2893.224)" fill="#fff"/>
      </g>
      <path id="Path_1569" data-name="Path 1569" d="M376.724,3165.179s-6.782,4.508-7.819,6.408-3.455,8.9-3.455,8.9,1.728.259,3.455-2.764,7.429-2.764,9.329-4.406,4.111-6.45,4.111-6.45Z" transform="translate(-363.722 -3002.086)" fill="#ffb27d"/>
      <path id="Path_1570" data-name="Path 1570" d="M389.928,3171.167s-1.128,5.309-2.51,6.864-3.283,4.146-4.06,3.456.864-6.479.864-6.479Z" transform="translate(-372.041 -3004.9)" fill="#ffb27d"/>
      <path id="Path_1571" data-name="Path 1571" d="M368.323,3178.413c-.173.259-6.133,6.594-6.133,6.594s2.16.979,2.764,0S368.323,3178.413,368.323,3178.413Z" transform="translate(-362.19 -3008.306)" fill="#ffb27d"/>
    </g>
    <g id="Group_1069" data-name="Group 1069" transform="translate(715.338 2402.458)">
      <path id="Path_1572" data-name="Path 1572" d="M1299.768,2573.9l55.269,8.579-36.433-25.495-1.967,8-13.494,2.273Z" transform="translate(-1264.127 -2542.988)" fill="#9ec3f6"/>
      <path id="Path_1573" data-name="Path 1573" d="M1323.426,2581.01l-45.781-24.321-45.129-2.827Z" transform="translate(-1232.516 -2541.522)" fill="#fff"/>
      <path id="Path_1574" data-name="Path 1574" d="M1335.31,2544.57l36.433,25.5-27.961-39.489Z" transform="translate(-1280.833 -2530.576)" fill="#fff"/>
    </g>
    <g id="Group_1070" data-name="Group 1070" transform="translate(1514.899 2566.498)">
      <path id="Path_1575" data-name="Path 1575" d="M2786.489,2875.865l-45.255,6.455,30.032-20.469,1.527,6.562,11.005,1.993Z" transform="translate(-2741.233 -2850.329)" fill="#9ec3f6"/>
      <path id="Path_1576" data-name="Path 1576" d="M2741.233,2881.608l37.66-19.417,36.911-1.857Z" transform="translate(-2741.233 -2849.617)" fill="#fff"/>
      <path id="Path_1577" data-name="Path 1577" d="M2771.265,2851.632l-30.032,20.469,23.249-31.991Z" transform="translate(-2741.233 -2840.11)" fill="#fff"/>
    </g>
    <path id="Path_1578" data-name="Path 1578" d="M687.828,2793.669H962.855v72.24H767.292v76.884H939.635v72.238H767.292v139.836H687.828Z" transform="translate(-261.153 -251.783)" fill="#fff"/>
    <path id="Path_1579" data-name="Path 1579" d="M1298.956,2807.173h71.325l150.687,354.114H1440.1l-32.146-78.86H1259.275l-32.146,78.86h-78.859Zm81.37,206.942L1333.613,2900.1,1286.9,3014.115Z" transform="translate(-477.578 -258.13)" fill="#fff"/>
    <path id="Path_1580" data-name="Path 1580" d="M2135.1,3121.374c-29.635,19.087-65.3,30.137-104.477,30.137-108.494,0-186.349-80.869-186.349-181.829,0-99.956,78.859-181.829,187.354-181.829s186.349,80.869,186.349,181.829a177.722,177.722,0,0,1-31.142,100.96L2223,3101.281l-49.224,54.75Zm-57.261-50.731s35.094-18.057,49.727-51.735c6.362-14.641,9.543-30.64,9.543-49.225,0-60.275-44.2-110.5-106.486-110.5s-105.48,49.225-105.48,110.5c0,60.274,44.2,110.5,106.485,110.5A113.312,113.312,0,0,0,2077.839,3070.642Z" transform="translate(-804.728 -249.049)" fill="#fff"/>
    <g id="Group_1074" data-name="Group 1074" transform="translate(1100.326 2654.363)">
      <path id="Path_1581" data-name="Path 1581" d="M2162.014,3121.016s-5.929,8.773-9.31,27.216c-2.961,16.152-5.558,22.115-9.835,25.428s-28.1,13.092-28.1,13.092l1.782,4.174s34.924-4.757,38.847-10.594,18.879-40.323,17.718-48.266S2162.014,3121.016,2162.014,3121.016Z" transform="translate(-2032.195 -3060.012)" fill="#f4a269"/>
      <g id="Group_1071" data-name="Group 1071" transform="translate(0 222.082)">
        <path id="Path_1582" data-name="Path 1582" d="M1991.808,3448.265c-.356,3.4-5.168,3.289-10.609,2.486s-4.031.624-11.679.494-10.2-2.74-10.54-3.844c-.3-.979,3.408-1.681,7.376-2.518.5-.1,1-.214,1.5-.324,4.477-.991,7.521-4.224,11.411-7.008,3.684-2.638,8.634-12.445,8.634-12.445l10.458-.147s-4.674,8.782-6.445,12.577c-1.042,2.231-.715,5.024-.358,7.169A13.422,13.422,0,0,1,1991.808,3448.265Z" transform="translate(-1958.962 -3424.96)" fill="#ffb27d"/>
        <path id="Path_1583" data-name="Path 1583" d="M1981.2,3468.265c-5.44-.8-4.031.624-11.679.494s-10.2-2.739-10.54-3.843c-.3-.979,3.408-1.681,7.376-2.518l.044.073a21.427,21.427,0,0,0,11.155,2.357c5.148-.355,10.449-2.334,14-2.608a13.418,13.418,0,0,1,.252,3.559C1991.452,3469.18,1986.639,3469.068,1981.2,3468.265Z" transform="translate(-1958.962 -3442.473)" fill="#233862"/>
      </g>
      <path id="Path_1584" data-name="Path 1584" d="M2125.4,3248.9s-68.549.334-81.344,8.409-41.923,91.253-41.923,91.253,2.268,2.987,5.087,3.374c4.519.622,7.082-1.142,7.082-1.142s39.033-38.823,41.111-49.426,1.57-20.063,6.3-20.317,63.7,7.169,72.615-8.544,1.546-31.268,1.546-31.268Z" transform="translate(-1979.255 -3116.521)" fill="#d1bb07"/>
      <g id="Group_1072" data-name="Group 1072" transform="translate(36.444 220.045)">
        <path id="Path_1585" data-name="Path 1585" d="M2060.543,3444.887c-.071,3.42-4.876,3.711-10.364,3.366s-3.965.959-11.6,1.469-10.4-1.875-10.825-2.947c-.381-.951,3.255-1.96,7.14-3.126.489-.146.979-.3,1.469-.448,4.377-1.363,7.14-4.839,10.783-7.939,3.451-2.937,7.563-13.124,7.563-13.124l10.408-1.022s-3.922,9.143-5.37,13.072c-.851,2.311-.291,5.065.243,7.174A13.386,13.386,0,0,1,2060.543,3444.887Z" transform="translate(-2027.729 -3421.115)" fill="#ffb27d"/>
        <path id="Path_1586" data-name="Path 1586" d="M2050.179,3466.21c-5.488-.344-3.965.959-11.6,1.469s-10.4-1.875-10.825-2.947c-.381-.951,3.255-1.961,7.14-3.126l.051.069a21.432,21.432,0,0,0,11.313,1.415c5.1-.785,10.217-3.2,13.733-3.771a13.379,13.379,0,0,1,.55,3.525C2060.472,3466.264,2055.667,3466.555,2050.179,3466.21Z" transform="translate(-2027.729 -3439.073)" fill="#233862"/>
      </g>
      <path id="Path_1587" data-name="Path 1587" d="M2168.645,3263.644s-60.376,2.857-72.847,11.425-29.985,80.717-29.985,80.717,2.623,3.472,5.3,4.432c3.4,1.219,7.993-.159,7.993-.159s24.24-29.208,25.9-39.883,4.266-16.166,8.983-16.6,51.053,8.61,72.228-11.365C2199.365,3279.809,2168.645,3263.644,2168.645,3263.644Z" transform="translate(-2009.186 -3127.053)" fill="#fde205"/>
      <path id="Path_1588" data-name="Path 1588" d="M2214.06,3062.078c-1.17-2.055-2.572-5.751-3.583-12.439.132.662,1.856,9.067,5.438,13.651,13.985,7.9,36.076,37.586,35.939,43.186,0,0,13.571-17.969,13.72-18.071,0,0,15.271-22.331-5.315-33.166-10.462-5.507-10.94-13.438-10.979-20.353s-5.177-36.351-24.794-27.251c0,0-3.326-1.221-4.76-.908a3.959,3.959,0,0,1,1.84.727,15.659,15.659,0,0,0-8.348,2.181C2206.115,3014.322,2202.019,3052.393,2214.06,3062.078Z" transform="translate(-2075.271 -3005.906)" fill="#233862"/>
      <path id="Path_1589" data-name="Path 1589" d="M2243.116,3101.736a68.04,68.04,0,0,0-11.245,0,36.163,36.163,0,0,0-9.758,2.449c-5.321,2.225-4.763,11.645,6.4,9.9S2243.9,3104.531,2243.116,3101.736Z" transform="translate(-2081.12 -3050.838)" fill="#ffb27d"/>
      <path id="Path_1590" data-name="Path 1590" d="M2225.542,3096.344c-.065.034-1.593,8.1,5.719,7.782,4.8-.212,15.15-6.019,14.236-10.129-.435-1.953-4.061-7.021-4.791-18.589l-.874.234-14.69,3.939s.651,4.663.955,9.075C2226.354,3092.362,2226.364,3095.892,2225.542,3096.344Z" transform="translate(-2084.077 -3038.574)" fill="#ffb27d"/>
      <path id="Path_1591" data-name="Path 1591" d="M2225.142,3079.789s.651,4.662.955,9.075c8.315-.79,12.211-8.683,13.735-13.015Z" transform="translate(-2084.077 -3038.782)" fill="#f4a269"/>
      <path id="Path_1592" data-name="Path 1592" d="M2231.647,3045.948s3.906-7.189,4.56-13.156c.467-4.261-2.718-19.727-18.252-16.433a21.362,21.362,0,0,0-8.615,3.93c-3.252,2.527-7.835,7.82-1.432,21.074l1.734,4.506Z" transform="translate(-2074.462 -3010.604)" fill="#233862"/>
      <path id="Path_1593" data-name="Path 1593" d="M2213.236,3061.514s19.731-.989,18.926-13.267,1.2-20.675-11.432-20.562-14.77,4.957-15.5,9.121S2208.083,3061.455,2213.236,3061.514Z" transform="translate(-2074.674 -3016.142)" fill="#ffb27d"/>
      <path id="Path_1594" data-name="Path 1594" d="M2217.582,3025.727s6.356,14.044,14.781,15.622,11.868-.882,11.868-.882a23.5,23.5,0,0,1-8.594-13.344S2221.2,3018.6,2217.582,3025.727Z" transform="translate(-2080.524 -3013.886)" fill="#233862"/>
      <path id="Path_1595" data-name="Path 1595" d="M2211.8,3028.4s-3.816,3.485-4.59,6.677-.787,9.657-2.677,9.564c0,0-4.719-9.519-.518-15.362C2208.471,3023.085,2211.8,3028.4,2211.8,3028.4Z" transform="translate(-2073.329 -3015.482)" fill="#233862"/>
      <path id="Path_1596" data-name="Path 1596" d="M2182.829,3184.456c1.6,1.909,6.582,2.5,11.911,3.372,4.193.693,8.6,1.56,11.729,3.4,7.112,4.176,30.35,18.29,37.162,17.648,2.64-.248,2.146-5.29.547-11.978-2.518-10.562-7.788-25.231-7.788-31.609,0-3.481-1.158-11.718-2.7-21.136q-.189-1.139-.383-2.3c-3.06-18.312-7.3-39.9-7.3-39.9s-4.727,10.311-13.935,10.311S2205,3104.4,2205,3104.4s-8.4.989-10.387,3.126-7.02,11.38-8.02,13.9c0,0-.2,3.208,7.738,4.734a104.2,104.2,0,0,0-2.163,14.51c-.17,4.288,2.926,17.706,3.816,26.052.316,2.957.358,5.276-.123,6.329-.614,1.348-2.6,2.69-4.863,4.009C2186.514,3179.671,2180.934,3182.187,2182.829,3184.456Z" transform="translate(-2064.01 -3051.051)" fill="#061095"/>
      <path id="Path_1597" data-name="Path 1597" d="M2197.82,3207.507c-5.1,8.689,13.823,11.3,16.955,13.142,7.113,4.176,28.863,19.316,35.674,18.674,2.64-.249,2.146-5.29.547-11.978-2.518-10.562-7.788-25.232-7.788-31.609,0-3.481-1.158-11.718-2.705-21.137l-8.2-7.871s-8.784,22.7-17.159,26.426a70.366,70.366,0,0,1-12.341,4.017c.316,2.956.358,5.276-.122,6.328C2202.068,3204.846,2200.081,3206.188,2197.82,3207.507Z" transform="translate(-2070.827 -3081.498)" fill="#09106b"/>
      <path id="Path_1598" data-name="Path 1598" d="M2229.968,3113.78s7.009-4.257,13.787,3.818-4.817,65.8-14.86,68.766c-11.155,3.294-43.378-.528-43.378-.528l.62-5.036s34.3-6.577,35.73-8.41S2226.4,3114.711,2229.968,3113.78Z" transform="translate(-2065.452 -3056.084)" fill="#ffb27d"/>
      <path id="Path_1599" data-name="Path 1599" d="M2261.115,3101.947s14.4,1.3,18.576,6.034,5.4,17.565,5.4,17.565-12.677,10.234-27.951,6.262Z" transform="translate(-2099.119 -3051.049)" fill="#2b478b"/>
      <path id="Path_1600" data-name="Path 1600" d="M2174.188,3239.159s-11.169-2.162-12.431-1.621-8.287,6.845-7.567,8.106,3.6,2.161,6.846,1.081,10.269-1.622,11.53-3.243A10.589,10.589,0,0,0,2174.188,3239.159Z" transform="translate(-2050.703 -3114.741)" fill="#ffb27d"/>
      <g id="Group_1073" data-name="Group 1073" transform="translate(62.576 110.797)">
        <rect id="Rectangle_194" data-name="Rectangle 194" width="19.014" height="2.247" transform="translate(70.934 28.206) rotate(180)" fill="#061095"/>
        <path id="Path_1601" data-name="Path 1601" d="M2133,3242.87c-.186-.743-17.479-27.9-17.479-27.9h-38.479l19.3,27.169Z" transform="translate(-2077.039 -3214.972)" fill="#061095"/>
        <path id="Path_1602" data-name="Path 1602" d="M2131.378,3243.178c-.186-.743-17.536-28.206-17.536-28.206h-36.8l18.362,28.206Z" transform="translate(-2077.039 -3214.972)" fill="#09106b"/>
        <path id="Path_1603" data-name="Path 1603" d="M2118.251,3239.989a3.072,3.072,0,0,0,2.678,1.992,1.372,1.372,0,0,0,1.306-1.992,3.073,3.073,0,0,0-2.678-1.993A1.373,1.373,0,0,0,2118.251,3239.989Z" transform="translate(-2096.356 -3225.794)" fill="#061095"/>
      </g>
    </g>
    <g id="Group_1076" data-name="Group 1076" transform="translate(1406.208 2562.921)">
      <path id="Path_1604" data-name="Path 1604" d="M2684.541,3089.981s9.181,5.221,11.75,5.22,12.658-1.95,15.47-.513,7.9,7.218,8.857,9.107c1.717,3.4-6.914,1.9-10.993-1a2.572,2.572,0,0,0-2.038-.421c-2.113.46-6.5,1.259-8.621.474-2.851-1.056-17.864-2.227-17.864-2.227Z" transform="translate(-2604.279 -2953.983)" fill="#ea9963"/>
      <path id="Path_1605" data-name="Path 1605" d="M2555.793,2947.448s9.517,67.64,25.275,73.7c7.775,2.989,42.14,9.766,52.306,10.447,0,0,2.49-2.02,1.883-10.244,0,0-36-13.218-41.119-20.406-7.613-10.7,4.726-43.706-4.826-53.754S2563.672,2932.824,2555.793,2947.448Z" transform="translate(-2545.378 -2882.548)" fill="#061095"/>
      <path id="Path_1606" data-name="Path 1606" d="M2551.068,3189.494a118.506,118.506,0,0,0,9.3,13.3c10.229,12.913,21.363,23.56,23.3,33.624a45.452,45.452,0,0,0,1.8,6.441c.81,2.306,1.811,4.729,2.967,7.235,4.341,9.428,10.832,19.993,17.313,29.6,11.2,16.6,21.738,30.453,21.738,30.453l19.32-.824c-.774-1.936-9.2-24.857-20.473-52.87-4.576-11.371-9.444-23.467-14.14-35.132q-.939-2.336-1.871-4.646c-1.436-3.57-2.848-7.084-4.229-10.505-10.584-26.3-19.014-47.248-19.014-47.248s-42.3-16.025-46.7-5.641C2536.756,3161.841,2539.707,3170.229,2551.068,3189.494Z" transform="translate(-2537.446 -2982.09)" fill="#d1bb07"/>
      <path id="Path_1607" data-name="Path 1607" d="M2707.174,3441.2s.988,15.943,4.072,16.171c.41.031,15.644.031,15.644.031l19.446-.113s-.127-4.686-5.812-5.677-15.2-4.986-18.642-12.5C2718.261,3431.211,2707.174,3441.2,2707.174,3441.2Z" transform="translate(-2616.534 -3116.659)" fill="#233862"/>
      <path id="Path_1608" data-name="Path 1608" d="M2565.619,3351.14s-14.437,6.834-13.505,9.783c.124.392,5.778,14.537,5.778,14.537l7.321,18.016s4.3-1.858,3.114-7.5-1.011-15.963,4.688-21.949C2579.009,3357.728,2565.619,3351.14,2565.619,3351.14Z" transform="translate(-2543.629 -3076.738)" fill="#233862"/>
      <path id="Path_1609" data-name="Path 1609" d="M2564.516,3274.184s-8.11-8.2-9.591-13.633c0,0,27.894-27.109,37.863-33.69,11.443-7.555,18.877-7.6,17.04-9.448-6.016-6.062-56.572-23.751-64.8-36.554a39.672,39.672,0,0,1-5.317-12.259c-1.866-7.813-.391-13.209-.391-13.209l62.883-1.819s46.757,48.5,46.488,66.751C2648.4,3240.054,2564.516,3274.184,2564.516,3274.184Z" transform="translate(-2537.375 -2983.873)" fill="#fde205"/>
      <path id="Path_1610" data-name="Path 1610" d="M2596.01,2921.747c-12.722,3.288-33.81-8.5-33.81-8.5s8.188-5.5,11.223-17.593c.155-.609.292-1.233.417-1.874,1.332-.283,3.845-.816,6.533-1.385l9.716,8.7a83.581,83.581,0,0,1-1.437,9.827q-.314,1.627-.731,3.487A29.967,29.967,0,0,1,2596.01,2921.747Z" transform="translate(-2548.391 -2861.11)" fill="#ffb27d"/>
      <path id="Path_1611" data-name="Path 1611" d="M2536.482,2988.507c1.823,24.507-.575,61.78,1.492,68.235,1.784,5.569,22.11,2.259,30.224.4,3-.689,6.64-1.671,10.4-2.834,10.479-3.245,21.9-7.878,23.122-11.317a3,3,0,0,0,.113-.4,3.14,3.14,0,0,0-.022-1.441c-.408-1.753-1.982-3.651-2.167-7.991-.207-4.847-.176-10.554-.359-16.692-.009-.691-.018-1.445-.093-2.133l0-.251c0-.132-.007-.261-.01-.393-.176-6.844-.534-14.041-.948-21.177-.263-4.483-.569-8.921-.92-13.175-.914-10.978-2.146-20.74-3.775-26.913-2.664-10.061-8.538-16.623-13.884-21.432l-3.867-3.317a22.36,22.36,0,0,1-14.032-1.869c-4.994-2.372-6.719-4.071-7.588-3.43C2542.626,2931.278,2534.331,2958.546,2536.482,2988.507Z" transform="translate(-2536.142 -2875.139)" fill="#061095"/>
      <path id="Path_1612" data-name="Path 1612" d="M2589.8,3087.547c10.479-3.245,21.9-7.878,23.122-11.317a2.984,2.984,0,0,0,.114-.4c-.007-.48-.014-.961-.022-1.442-.409-1.752-1.982-3.65-2.168-7.991-.207-4.847-.176-10.554-.358-16.692-.009-.691-.019-1.445-.094-2.133l0-.251c0-.132-.006-.261-.009-.393l-42.363-53.972S2539.544,3052.259,2589.8,3087.547Z" transform="translate(-2547.349 -2908.379)" fill="#09106b"/>
      <path id="Path_1613" data-name="Path 1613" d="M2600.044,2901.1a83.581,83.581,0,0,1-1.437,9.827c-9.488-3.067-13.791-11.637-15.229-15.272.155-.609.292-1.233.417-1.874,1.332-.283,3.845-.816,6.533-1.385Z" transform="translate(-2558.344 -2861.11)" fill="#ea9963"/>
      <path id="Path_1614" data-name="Path 1614" d="M2600.8,2886.525s-20.692-3.453-18.344-16.306,1.261-21.955,14.571-20.294,14.974,7.034,15.233,11.514S2606.243,2887.093,2600.8,2886.525Z" transform="translate(-2557.824 -2841.055)" fill="#ffb27d"/>
      <g id="Group_1075" data-name="Group 1075" transform="translate(73.542 107.662)">
        <rect id="Rectangle_195" data-name="Rectangle 195" width="1.919" height="50.24" transform="translate(52.707 48.373) rotate(-161.996)" fill="#4a75cb"/>
        <rect id="Rectangle_196" data-name="Rectangle 196" width="52.72" height="3.154" transform="translate(52.708 48.373) rotate(-178.777)" fill="#4a75cb"/>
      </g>
      <path id="Path_1615" data-name="Path 1615" d="M2676.9,3121.913s16.937,4.466,23.287,4,11.633-3.489,12.432-5.067,2.478-4.374-1.846-3.858-10.226,1.436-10.41.605,3.525-.752,3.525-.752,1.121-1.629-.29-1.689-5.528-1.175-7.056-.411-2.941,3.587-4.058,3.47-14.172-5.881-14.172-5.881Z" transform="translate(-2602.304 -2964.487)" fill="#ffb27d"/>
      <path id="Path_1616" data-name="Path 1616" d="M2563.718,2954.075s2,68.276,17,76.035c7.4,3.828,40.806,14.352,50.835,16.149,0,0,2.7-1.734,3-9.973,0,0-34.327-17.106-38.618-24.815-6.387-11.472,9.516-42.917,1.13-53.957S2573.162,2940.409,2563.718,2954.075Z" transform="translate(-2549.104 -2886.399)" fill="#061095"/>
      <path id="Path_1617" data-name="Path 1617" d="M2579.509,2867.908s-.238-4.41,2.484-6.937c0,0-.948-4.421.8-5.15s2.114,2.989,2.915,2.405a17.855,17.855,0,0,0,5.9-7.434c1.531-4.081,15.537.862,17.17,1.6s6.88-1.961,7.9-4.148a30.713,30.713,0,0,1-4.228-4.081c-1.312-1.749-10.495-13.555-23.321-10.2s-14.576,9.474-13.847,14.722S2574.256,2866.147,2579.509,2867.908Z" transform="translate(-2554.476 -2833.361)" fill="#2b478b"/>
    </g>
    <g id="Group_1080" data-name="Group 1080" transform="translate(856.975 2569.318)">
      <g id="man">
        <path id="Path_1618" data-name="Path 1618" d="M1822.364,2979.018c-1.407,3.784-3.847,8.176-6.407,9.268a9.924,9.924,0,0,0-4.113,2.987l-2.343-1.36-2.8-1.627s.066-.311.2-.817.345-1.207.629-1.984a2.71,2.71,0,0,0,.333-2.492,5.783,5.783,0,0,1,.477-4.832c.9-1.3,1.764-4.518,2.3-4.424,1.309.225-.643,4.644-.083,5.464a.967.967,0,0,0,1.258.431l.022-.012c3.673-1.615,8.126-10.32,10.1-9.145C1822.679,2970.916,1822.963,2977.406,1822.364,2979.018Z" transform="translate(-1644.042 -2904.155)" fill="#ffb27d"/>
        <g id="Group_1077" data-name="Group 1077" transform="translate(165.311 62.052)">
          <path id="Path_1619" data-name="Path 1619" d="M1812.011,2980.6l4.6,3.233a.724.724,0,0,0,1.006-.176l11.785-16.768a.724.724,0,0,0-.176-1.006l-4.6-3.232a.724.724,0,0,0-1.006.175l-11.785,16.769A.724.724,0,0,0,1812.011,2980.6Z" transform="translate(-1811.705 -2962.518)" fill="#2b478b"/>
          <path id="Path_1620" data-name="Path 1620" d="M1820.024,2986.212l2.7,1.9a.552.552,0,0,0,.766-.133l11.983-17.052a.552.552,0,0,0-.133-.766l-2.7-1.9a.551.551,0,0,0-.766.134l-11.983,17.05A.552.552,0,0,0,1820.024,2986.212Z" transform="translate(-1815.506 -2965.171)" fill="#233862"/>
        </g>
        <path id="Path_1621" data-name="Path 1621" d="M1676.453,2951.232s23.409,40.829,31.9,48.342l31.139-23.216a11.366,11.366,0,0,1,6.5,5.921s-18.909,38.525-37.527,40.158-44.748-46.176-44.748-46.176Z" transform="translate(-1576.832 -2895.161)" fill="#09106b"/>
        <g id="Group_1078" data-name="Group 1078" transform="translate(22.686 150.422)">
          <path id="Path_1622" data-name="Path 1622" d="M1566.542,3450.879h-13.525c-1.7-.925-3.22-3.041-3.7-6.2-.66-4.357-5.544-6.733-6.6-10.3s4.358-8.579,4.358-8.579l.905-1.167.942-1.211,8.977,2.114s.223,2.138.357,4.862a62.012,62.012,0,0,1,.039,6.227c-.264,4.752,1.329,9.87,5.551,10.795C1566.968,3448.107,1566.828,3449.959,1566.542,3450.879Z" transform="translate(-1542.58 -3267.534)" fill="#233862"/>
          <path id="Path_1623" data-name="Path 1623" d="M1707.587,3461.2h-30.931c-1.488-1.815-.939-8.515-.715-10.7.047-.44.079-.7.079-.7s10.562-8.449,12.013-1.98c.044.2.1.4.156.6,1.828,6.051,10.027,8.8,14.761,9.566C1706.029,3458.482,1707.166,3460.083,1707.587,3461.2Z" transform="translate(-1605.131 -3277.854)" fill="#233862"/>
          <path id="Path_1624" data-name="Path 1624" d="M1685.043,3146.983s-1.6,20.011-3.489,44.064c-2.562,32.674-5.643,72.81-5.948,80.413-.527,13.2-2.641,34.322-2.641,34.322s-5.013,5.018-15.048,2.9c0,0-8.942-30.148-11.5-62.046-.039-.522-.079-1.049-.118-1.576-2.376-32.473-6.071-100.851-6.071-100.851Z" transform="translate(-1588.48 -3136.291)" fill="#fde205"/>
          <path id="Path_1625" data-name="Path 1625" d="M1685.043,3146.983s-1.6,20.011-3.489,44.064l-35.134,55.591c-.039-.522-.079-1.049-.118-1.576-2.376-32.473-6.071-100.851-6.071-100.851Z" transform="translate(-1588.48 -3136.291)" fill="#d1bb07"/>
          <path id="Path_1626" data-name="Path 1626" d="M1635.8,3142.336s-28.909,72.469-47.917,106.526-24.948,43.561-24.948,43.561-10.89-4.356-11.88-7.326c0,0,7.269-65.748,20-81.775,7.193-9.057,15.642-36.235,16.039-45.739s2.573-28.314,2.573-28.314Z" transform="translate(-1546.566 -3129.267)" fill="#fde205"/>
        </g>
        <path id="Path_1627" data-name="Path 1627" d="M1670.033,2927.861c-11.3,3.565-30.843-6.056-30.843-6.056s10.416-7.817,9.87-24.07l8.734,7.04,5.933,4.781a71.183,71.183,0,0,1-.672,7.758c-.171,1.3-.385,2.747-.654,4.331A27.03,27.03,0,0,1,1670.033,2927.861Z" transform="translate(-1565.305 -2870.016)" fill="#ffb27d"/>
        <path id="Path_1628" data-name="Path 1628" d="M1672.449,2915.648a71.15,71.15,0,0,1-.672,7.759c-6.574-1.128-14.032-11.754-14.032-11.754a20.94,20.94,0,0,1,8.771-.785Z" transform="translate(-1574.026 -2876.109)" fill="#ed975d"/>
        <path id="Path_1629" data-name="Path 1629" d="M1672.215,2892.154s-18.66,3.1-20.411-8.55-5.34-19.1,6.5-21.567,14.828,1.625,16.358,5.371S1677.023,2891.047,1672.215,2892.154Z" transform="translate(-1570.337 -2852.882)" fill="#ffb27d"/>
        <path id="Path_1630" data-name="Path 1630" d="M1676.665,3050.158a1.828,1.828,0,0,1-1.187.452c-4.242-.057-16.613,2.3-27.08,1.224-8.824-.847-16.635-3.461-25.021-7.221-1.114-.5-3.677-1.867-3.62-3.112.037-1.363.173-3.341.342-5.83a311.8,311.8,0,0,0,.62-40.727c-.181-3.2-.277-6.372-.288-9.5-.086-23.282,4.53-43.761,13.807-50.692.792-.568,5.657,1.809,10.127,4.014a18.5,18.5,0,0,0,12.161,1.473l3.9,3.449c4.752,4.412,9.957,10.409,12.219,19.516,1.925,7.75,3.054,21.724,3.677,36.206.282,6.562.51,13.181.568,19.461v.224c.055.623.055,1.3.055,1.925C1677.176,3037.146,1676.948,3049.93,1676.665,3050.158Z" transform="translate(-1556.17 -2887.377)" fill="#061095"/>
        <path id="Path_1631" data-name="Path 1631" d="M1620.4,3066.363a311.768,311.768,0,0,0,.62-40.727c-.181-3.2-.277-6.372-.288-9.5,3.864-9.374,7.023-16.173,7.023-16.173h9.741S1644.641,3048.746,1620.4,3066.363Z" transform="translate(-1556.475 -2918.069)" fill="#09106b"/>
        <g id="Group_1079" data-name="Group 1079" transform="translate(0 160.415)">
          <path id="Path_1632" data-name="Path 1632" d="M1518.689,3196.072l41.544,5.92a9.959,9.959,0,0,0,11.231-8.429l2.565-18a9.959,9.959,0,0,0-8.429-11.231l-41.544-5.92a9.958,9.958,0,0,0-11.231,8.429l-2.566,18A9.958,9.958,0,0,0,1518.689,3196.072Z" transform="translate(-1504.656 -3152.91)" fill="#233862"/>
          <path id="Path_1633" data-name="Path 1633" d="M1563.063,3164.907v0a10,10,0,0,0-6.882-6.011h0a.007.007,0,0,1-.007,0c-.313-.075-.632-.14-.959-.186l-8.272-1.177.553-3.885a3.291,3.291,0,0,0-2.792-3.719l-2.157-.308-8.686-1.238-1.566-.222a3.291,3.291,0,0,0-3.719,2.791l-.553,3.885-14.279-2.036a10,10,0,0,0-11.274,8.46l-2.594,18.213a9.995,9.995,0,0,0,8.46,11.272l41.469,5.911a9.708,9.708,0,0,0,2.163.069h.008a9.8,9.8,0,0,0,3.237-.817,9.985,9.985,0,0,0,5.867-7.714l2.6-18.211A9.884,9.884,0,0,0,1563.063,3164.907Zm-32.45-13.67a1.231,1.231,0,0,1,1.02-1.037,1.25,1.25,0,0,1,.37-.005l1.844.262,6.837.977,3.726.531a1.229,1.229,0,0,1,1.042,1.387l-.553,3.885-14.839-2.116Z" transform="translate(-1499.774 -3148.122)" fill="#2b478b"/>
        </g>
        <path id="Path_1634" data-name="Path 1634" d="M1574.677,3125.9s-2.182,2.906-2.268,4.067c-.586,7.87,3.01,8.959-6.3,13.331,0,0-3.975,1.516-4.042-1.57s2.758-3.137,2.242-7.457c-.6-4.982-.536-5.03,2.735-7.632l2.166-3.579Z" transform="translate(-1529.053 -2975.925)" fill="#ffb27d"/>
        <path id="Path_1635" data-name="Path 1635" d="M1571.118,3041.023a31.932,31.932,0,0,0,7.31.407s10.413-32.169,11.754-35.108,30.932-37.719,30.932-37.719l-12.327-30.85s-32.006,53.462-35.256,60.975c-5.37,12.413-7.234,40.245-7.234,40.245A13.41,13.41,0,0,0,1571.118,3041.023Z" transform="translate(-1531.042 -2888.826)" fill="#061095"/>
        <path id="Path_1636" data-name="Path 1636" d="M1649.44,2875.031s1.915-.32,1.606-2.958-.3-6.084,1.839-5.442,2.251,2.359,3.132,1.356.9-5.226,7.277-5.521,8.974,1.926,11.941.623,3.123-5.8,3.123-5.8a5.109,5.109,0,0,1-2.118,2.114s4.95-6.771-.781-11.414-11.575-1.6-14.892-1.4c-7.308.442-12.027.881-14.415,5.682S1644.751,2870.409,1649.44,2875.031Z" transform="translate(-1567.989 -2845.43)" fill="#2b478b"/>
        <path id="Path_1637" data-name="Path 1637" d="M1579.2,3134.944s2.1,2.19,2.234,3.1c.426,2.925,1.4,4.188.913,4.507-1.018.661-2.364-1.5-3.008-3.447A8.887,8.887,0,0,1,1579.2,3134.944Z" transform="translate(-1537.021 -2981.513)" fill="#ffb27d"/>
      </g>
    </g>
    <rect id="Rectangle_197" data-name="Rectangle 197" width="1509.227" height="4.242" rx="2.121" transform="translate(178.723 2902.739)" fill="#2e3552"/>
    <g id="Group_1084" data-name="Group 1084" transform="translate(444.945 2365.853)">
      <path id="Path_1638" data-name="Path 1638" d="M915.318,2759.386a53.77,53.77,0,0,0,14.433,17.317h34.213S910.576,2750.588,915.318,2759.386Z" transform="translate(-812.886 -2600.67)" fill="#09106b"/>
      <g id="Group_1081" data-name="Group 1081" transform="translate(0 0)">
        <path id="Path_1639" data-name="Path 1639" d="M935.929,2902.595a3.156,3.156,0,0,1,.471,3.391.027.027,0,0,1-.009.017c-.876,2.228-3.634,4.667-6.827,7.091-.408.311-.771.6-1.088.858-.083.069-.167.138-.245.208-.064.053-.127.11-.188.161-2.987,2.606-1.907,3.252-7.291,8.559-6.138,6.049-10.251,6.049-11.4,5.45-.976-.509,1.123-3.749,3.451-7.39.113-.175.223-.354.339-.531.31-.484.618-.976.926-1.462,2.731-4.384,2.118-6.494,1.68-13.141-.356-5.4-7.563-30.332-7.563-30.332l11.492-1.659s2.909,19.774,6.622,22.908c1.985,1.671,4.257,1.753,6.175,3q.2.131.4.267A15.042,15.042,0,0,1,935.929,2902.595Z" transform="translate(-809.671 -2655.308)" fill="#ffb27d"/>
        <path id="Path_1640" data-name="Path 1640" d="M936.747,2925.577a3.157,3.157,0,0,1,.471,3.391.028.028,0,0,1-.009.017c-1.058,2.22-3.749,4.649-6.838,7.068-.4.317-.76.608-1.077.882-.083.069-.166.138-.245.207-.064.053-.127.11-.188.161-2.987,2.606-1.907,3.252-7.291,8.559-6.138,6.048-10.251,6.048-11.4,5.451-.976-.509,1.123-3.749,3.451-7.39a25.431,25.431,0,0,0,10.854-7.55c3.719-4.488,6.277-10.316,8.817-13.663q.2.131.4.267A15.041,15.041,0,0,1,936.747,2925.577Z" transform="translate(-810.489 -2678.291)" fill="#233862"/>
        <path id="Path_1641" data-name="Path 1641" d="M756.518,2887.989c-.8,3.511-5.82,2.785-11.405,1.258s-4.293.143-12.272-.961-10.322-4.154-10.533-5.351c-.19-1.061,3.775-1.326,8.029-1.7.535-.046,1.073-.1,1.61-.148,4.805-.471,8.4-3.465,12.815-5.884,4.186-2.292,10.6-11.918,10.6-11.918l10.952,1.169s-6,8.59-8.329,12.333c-1.372,2.2-1.383,5.161-1.281,7.449A14.114,14.114,0,0,1,756.518,2887.989Z" transform="translate(-722.301 -2650.359)" fill="#ffb27d"/>
        <path id="Path_1642" data-name="Path 1642" d="M745.112,2905.168c-5.585-1.527-4.293.143-12.272-.961s-10.322-4.154-10.533-5.351c-.19-1.062,3.775-1.327,8.029-1.7l.037.082a22.573,22.573,0,0,0,11.364,3.875c5.426.28,11.219-1.119,14.967-.957a14.116,14.116,0,0,1-.187,3.752C755.715,2907.421,750.7,2906.7,745.112,2905.168Z" transform="translate(-722.301 -2666.279)" fill="#233862"/>
        <path id="Path_1643" data-name="Path 1643" d="M869.836,2764.4l9.508,27.887,12.412,36.412a21.718,21.718,0,0,0,7.134-.457,30.878,30.878,0,0,0,6.973-3.162s-2.665-38.807-9-61.214c-1.623-5.751-3.49-10.419-5.618-13.075C880.838,2737.786,869.836,2764.4,869.836,2764.4Z" transform="translate(-791.648 -2595.799)" fill="#09106b"/>
        <path id="Path_1644" data-name="Path 1644" d="M835.657,2694.749c6.781-1.984,25.876,1.322,45.03,5.615l4.213-6.54,41.685-2.115s12.9,30.813,4.853,50c-1.182,2.821-3.269,4.074-7.012,4.032h-.742s-24.766.219-32.8,0c-20.687-.564-43.4-15.822-46.376-16.5-4.863-1.111-7.085,8.615-12.255,18.75s-47.2,44.221-47.2,44.221-6.315-.109-8.9-1.158a8.791,8.791,0,0,1-3.765-2.522S820.366,2699.227,835.657,2694.749Z" transform="translate(-745.844 -2569.711)" fill="#061095"/>
        <path id="Path_1645" data-name="Path 1645" d="M978.955,2528.343c14.59,8.559,44.177,26.286,44.337,26.18,0,0,10.931,4.463,17.31.473,10.632-6.651,16.741-25.165-1.92-41.748-9.307-8.271-16.021-10.406-16.7-23.226-.369-6.955-9.231-30.117-25.051-28.428a24.1,24.1,0,0,1-3.98.152,14.753,14.753,0,0,0-8.054,1.848C975.831,2468.663,956.836,2524.582,978.955,2528.343Z" transform="translate(-838.092 -2461.507)" fill="#233862"/>
        <path id="Path_1646" data-name="Path 1646" d="M1010.631,2554.846c-.067.04,7.218,2.751,12.194.708,4.681-1.919,8.393-9.433,8.324-9.439-2.1-.155-4.361-2.057-5.811-14.176l-.9.3-15.213,5.011s.96,4.863,1.541,9.485C1011.25,2550.612,1011.468,2554.322,1010.631,2554.846Z" transform="translate(-857.164 -2494.613)" fill="#ffb27d"/>
        <path id="Path_1647" data-name="Path 1647" d="M1009.22,2537.51s.96,4.863,1.541,9.484c8.7-1.322,12.326-9.85,13.672-14.5Z" transform="translate(-857.164 -2494.876)" fill="#ed975d"/>
        <path id="Path_1648" data-name="Path 1648" d="M995.949,2518.9s20.687-2.2,19.115-15.066.04-21.808-13.234-20.944-15.236,6.085-15.756,10.505S990.528,2519.143,995.949,2518.9Z" transform="translate(-846.267 -2471.531)" fill="#ffb27d"/>
        <path id="Path_1649" data-name="Path 1649" d="M987.886,2485.329s12.884,11.729,21.834,12.891,12.425-1.627,12.425-1.627a35.055,35.055,0,0,1-8.16-11.711,6.312,6.312,0,0,0-5.1-3.862C1002.491,2480.292,990.35,2479.709,987.886,2485.329Z" transform="translate(-847.136 -2470.464)" fill="#233862"/>
        <path id="Path_1650" data-name="Path 1650" d="M993.9,2485.754s-4.531,4.147-6.007,7.275c-1.425,3.018-2.027,10.313-1.037,13.244,0,0-6.513-13.56-2.442-19.951C988.732,2479.545,993.9,2485.754,993.9,2485.754Z" transform="translate(-844.876 -2471.682)" fill="#233862"/>
        <path id="Path_1651" data-name="Path 1651" d="M977.337,2596.841c-.514,41.739-.728,33.008,3.728,37.092,1.074.983,4.15,1.635,8.211,2.015,12.77,1.2,35.317-.3,36.237-2.638,3.174-8.1,1.16-10.7,3.963-23.156.293-1.324.65-2.758,1.065-4.318,2.287-8.546,4.365-11.417-2.541-25.436-6.264-12.7-12.848-23.045-13.475-22.7-17.706,9.869-18.874,1.137-18.874,1.137S977.586,2576.482,977.337,2596.841Z" transform="translate(-842.053 -2506.719)" fill="#fff"/>
        <path id="Path_1652" data-name="Path 1652" d="M887.777,2807.057l12.412,36.412a21.718,21.718,0,0,0,7.134-.457,30.89,30.89,0,0,0,6.973-3.162s-2.665-38.807-9-61.214Z" transform="translate(-800.081 -2610.571)" fill="#061095"/>
        <path id="Path_1653" data-name="Path 1653" d="M979.958,2559.851s-18.012,2.551-20.328,10.213-15.942,52.706-15.942,52.706,9.07,1.886,13.4-2.21,15.716-38.667,15.716-38.667Z" transform="translate(-826.362 -2507.733)" fill="#fff"/>
        <path id="Path_1654" data-name="Path 1654" d="M1000.1,2666.916c12.771,1.2,35.317-.3,36.237-2.638,3.174-8.1,1.16-10.7,3.963-23.156l-5.7-17.543s.493,19.376-5.351,24.311-23.631,9.187-26.52,13.364A15.576,15.576,0,0,0,1000.1,2666.916Z" transform="translate(-852.877 -2537.687)" fill="#ebf3ff"/>
        <path id="Path_1655" data-name="Path 1655" d="M1008.233,2688.7s-12.545-3.154-14.612-2.089-7.156,5.008-7.817,6.41,4.563-.954,6.253-1.358c1.094-.262,3.927.81,5.329,1.32,5.9,2.148,9.581,1.226,9.581,1.226Z" transform="translate(-846.131 -2567.213)" fill="#ffb27d"/>
        <path id="Path_1656" data-name="Path 1656" d="M1036.664,2557.694s16.919,1.506,22.563,9.848c7.945,11.743,22.99,61.279,13.423,67.57-10.775,7.084-48.176.618-48.176.618s-1.09-5.875.725-8.653,30.192-6.572,31.532-7.841-15.607-25.872-15.5-29.783S1036.664,2557.694,1036.664,2557.694Z" transform="translate(-864.181 -2506.719)" fill="#fff"/>
        <path id="Path_1657" data-name="Path 1657" d="M994.792,2693.406s-2.737,3.339-3.615,3.723a2.6,2.6,0,0,1-1.436.267l1.87-3.159Z" transform="translate(-848.008 -2570.509)" fill="#ffb27d"/>
        <path id="Path_1658" data-name="Path 1658" d="M993.7,2686.809l-7.791,3.523a1.371,1.371,0,0,0,1.261.527,18.376,18.376,0,0,0,3.359-.826Z" transform="translate(-846.205 -2567.408)" fill="#ffb27d"/>
      </g>
      <g id="Group_1083" data-name="Group 1083" transform="translate(65.149 84.193)">
        <g id="Group_1082" data-name="Group 1082">
          <path id="Path_1659" data-name="Path 1659" d="M923.109,2668.026l-60.821-1.656-17.057-46,60.727,1.655Z" transform="translate(-845.232 -2620.374)" fill="#fde205"/>
          <path id="Path_1660" data-name="Path 1660" d="M876.162,2703.783l80.314,2.188-.048,1.772-79.6-2.168Z" transform="translate(-859.77 -2659.58)" fill="#d1bb07"/>
        </g>
        <path id="Path_1661" data-name="Path 1661" d="M907.47,2662.509a2.108,2.108,0,0,1,2.145-2.84,4.152,4.152,0,0,1,3.647,3,2.109,2.109,0,0,1-2.144,2.84A4.151,4.151,0,0,1,907.47,2662.509Z" transform="translate(-874.441 -2638.844)" fill="#fff"/>
      </g>
    </g>
  </g>
</svg>
