<svg xmlns="http://www.w3.org/2000/svg" width="198" height="198" viewBox="0 0 198 198">
  <g id="Group_1533" data-name="Group 1533" transform="translate(-302 -909)">
    <circle id="Ellipse_18" data-name="Ellipse 18" cx="99" cy="99" r="99" transform="translate(302 909)" fill="#061095"/>
    <path id="Path_2033" data-name="Path 2033" d="M291,399.967c-13.849-.02-26.585-4.048-38.493-10.875-15.09-8.65-27.534-20.287-37.989-34.115-1.34-1.773-1.458-5.108-.2-6.776,12.359-16.324,27.177-29.735,45.918-38.413a72.393,72.393,0,0,1,32.2-6.964c12.756.258,24.52,4.024,35.538,10.3,12.078,6.885,22.264,16.04,31.45,26.37,2.472,2.78,4.82,5.672,7.176,8.553a6.035,6.035,0,0,1,.135,6.632c-9.553,12.053-20.19,22.978-33.082,31.527-9.121,6.049-18.921,10.562-29.744,12.517-4.247.767-8.582,1.044-12.878,1.545Zm-.438-13.957a34.168,34.168,0,1,0-34.156-34.2A34.139,34.139,0,0,0,290.564,386.009Zm13.186,6.526c.5-.1.994-.183,1.486-.3a75.317,75.317,0,0,0,23.743-10.272c12.436-7.979,22.643-18.355,31.926-29.726.618-.757.323-1.22-.177-1.769-4.648-5.111-9.117-10.4-13.982-15.3A99.237,99.237,0,0,0,321.9,316.77a66.418,66.418,0,0,0-31.323-7.86,67.89,67.89,0,0,0-29.855,7.4c-16.317,8.064-29.406,19.975-40.544,34.2-.629.8-.437,1.307.1,2a125.122,125.122,0,0,0,30.381,28.313,83.08,83.08,0,0,0,23.307,10.712c.5.139,1.026.219,1.539.326l.114-.281a42.077,42.077,0,0,1-22.993-20.86,41.376,41.376,0,0,1-2.664-31.01,42.387,42.387,0,0,1,81.3.2,41.144,41.144,0,0,1-1,26.84C325.427,379.394,316.348,387.751,303.751,392.536Z" transform="translate(114.557 656.189)" fill="#fff"/>
    <path id="Path_2034" data-name="Path 2034" d="M487.824,439.677c0,1.145.029,2.292-.009,3.436-.029.887.3,1.226,1.221,1.207,2.453-.05,4.91.032,7.362-.039.975-.028,1.347.367,1.607,1.235a15.509,15.509,0,1,1-11.565-10.75c1.01.208,1.485.635,1.4,1.722-.085,1.057-.018,2.126-.018,3.189Z" transform="translate(-77.24 556.879)" fill="#fff"/>
  </g>
</svg>
