<svg xmlns="http://www.w3.org/2000/svg" width="446.461" height="97.735" viewBox="0 0 446.461 97.735">
  <g id="Group_1392" data-name="Group 1392" transform="translate(21989.742 10653)">
    <path id="Path_2268" data-name="Path 2268" d="M39.216-190.871l27.5.045a3.626,3.626,0,0,1,1.51.316,4.076,4.076,0,0,1,1.217.834,3.757,3.757,0,0,1,.812,1.217,3.866,3.866,0,0,1,.293,1.51,4.033,4.033,0,0,1-.293,1.533,3.7,3.7,0,0,1-.812,1.24,3.757,3.757,0,0,1-1.217.812,3.866,3.866,0,0,1-1.51.293H34.8a3.808,3.808,0,0,1-2.412-1.24,3.7,3.7,0,0,1-.969-2.592v-50a3.782,3.782,0,0,1,.316-1.533,4,4,0,0,1,.834-1.24,3.756,3.756,0,0,1,1.217-.812,3.865,3.865,0,0,1,1.51-.293,3.858,3.858,0,0,1,2.773,1.1,3.684,3.684,0,0,1,1.15,2.773ZM90.792-214.63l18.845-24.841a3.7,3.7,0,0,1,2.592-1.285,3.716,3.716,0,0,1,2.773.924,3.78,3.78,0,0,1,1.4,2.48,4.141,4.141,0,0,1-.947,3.111L94.714-207.778V-186.9a3.668,3.668,0,0,1-1.127,2.728,3.781,3.781,0,0,1-2.75,1.1,3.781,3.781,0,0,1-2.75-1.1,3.668,3.668,0,0,1-1.127-2.728v-20.874L66-234.2a3.812,3.812,0,0,1-.924-2.84,3.784,3.784,0,0,1,1.375-2.705,3.637,3.637,0,0,1,1.33-.789,3.919,3.919,0,0,1,1.488-.2,3.816,3.816,0,0,1,1.443.383,3.375,3.375,0,0,1,1.195.969Zm29.485-20.784a3.672,3.672,0,0,1-.023-2.953,3.769,3.769,0,0,1,2.141-2.1,3.753,3.753,0,0,1,2.908,0,3.7,3.7,0,0,1,2.1,2.074l17.943,41.838L163.2-238.39a3.8,3.8,0,0,1,2.074-2.051,3.852,3.852,0,0,1,2.976-.023,3.891,3.891,0,0,1,2.074,2.074,3.664,3.664,0,0,1,0,2.976l-21.46,49.953a3.819,3.819,0,0,1-1.578,1.826,3.807,3.807,0,0,1-2.3.564,3.911,3.911,0,0,1-1.916-.7,4.055,4.055,0,0,1-1.375-1.691Zm79.618,20.784,18.845-24.841a3.7,3.7,0,0,1,2.592-1.285,3.716,3.716,0,0,1,2.773.924,3.78,3.78,0,0,1,1.4,2.48,4.141,4.141,0,0,1-.947,3.111l-20.739,26.464V-186.9a3.668,3.668,0,0,1-1.127,2.728,3.781,3.781,0,0,1-2.75,1.1,3.781,3.781,0,0,1-2.75-1.1,3.668,3.668,0,0,1-1.127-2.728v-20.874L175.1-234.2a3.812,3.812,0,0,1-.924-2.84,3.784,3.784,0,0,1,1.375-2.705,3.636,3.636,0,0,1,1.33-.789,3.919,3.919,0,0,1,1.488-.2,3.816,3.816,0,0,1,1.443.383,3.375,3.375,0,0,1,1.195.969Zm56.941-26.6a28.492,28.492,0,0,1,7.8,1.059,30.5,30.5,0,0,1,7.011,2.953,28.391,28.391,0,0,1,5.951,4.6,30.29,30.29,0,0,1,4.6,5.951,29.385,29.385,0,0,1,2.976,7.01,28.738,28.738,0,0,1,1.059,7.822,28.2,28.2,0,0,1-2.322,11.406,30,30,0,0,1-6.312,9.31,29.613,29.613,0,0,1-9.332,6.289,28.6,28.6,0,0,1-11.429,2.3,29.321,29.321,0,0,1-7.822-1.037A28.729,28.729,0,0,1,242-186.521a29.157,29.157,0,0,1-5.906-4.6,29.5,29.5,0,0,1-4.553-5.929,29.365,29.365,0,0,1-2.93-6.988,29.073,29.073,0,0,1-1.037-7.8,29.321,29.321,0,0,1,1.037-7.822,29.273,29.273,0,0,1,2.93-7.01,30.066,30.066,0,0,1,4.553-5.951,28.127,28.127,0,0,1,5.906-4.6,30.054,30.054,0,0,1,6.988-2.953A28.66,28.66,0,0,1,256.836-241.23Zm0,7.8a20.957,20.957,0,0,0-8.386,1.691,21.329,21.329,0,0,0-6.83,4.644,22.253,22.253,0,0,0-4.6,6.875,20.957,20.957,0,0,0-1.691,8.386,21.069,21.069,0,0,0,1.691,8.431,21.7,21.7,0,0,0,4.6,6.83,21.7,21.7,0,0,0,6.83,4.6,20.956,20.956,0,0,0,8.386,1.691,21.118,21.118,0,0,0,8.408-1.691,21.9,21.9,0,0,0,6.875-4.6,21.513,21.513,0,0,0,4.621-6.83,21.069,21.069,0,0,0,1.691-8.431,20.957,20.957,0,0,0-1.691-8.386,22.055,22.055,0,0,0-4.621-6.875,21.527,21.527,0,0,0-6.875-4.644A21.118,21.118,0,0,0,256.836-233.431Z" transform="translate(-21829.512 -10406.471)" fill="#0003c7"/>
    <path id="Path_2269" data-name="Path 2269" d="M20.17-70.359a.816.816,0,0,1,.26.592.837.837,0,0,1-.247.592.846.846,0,0,1-.605.254.761.761,0,0,1-.592-.241,6.834,6.834,0,0,0-2.259-1.523,6.74,6.74,0,0,0-2.571-.508,6.519,6.519,0,0,0-2.623.534,6.875,6.875,0,0,0-2.148,1.452,6.835,6.835,0,0,0-1.452,2.161A6.644,6.644,0,0,0,7.4-64.4a6.634,6.634,0,0,0,.514,2.584,6.928,6.928,0,0,0,1.412,2.161,6.8,6.8,0,0,0,2.129,1.484,6.446,6.446,0,0,0,2.675.553,7.109,7.109,0,0,0,2.565-.469,6.435,6.435,0,0,0,2.252-1.5.86.86,0,0,1,.612-.247.82.82,0,0,1,.586.221A.782.782,0,0,1,20.4-59a.825.825,0,0,1-.241.592,8.2,8.2,0,0,1-2.825,1.881,8.725,8.725,0,0,1-3.2.605,8.158,8.158,0,0,1-2.246-.306,8.709,8.709,0,0,1-2.011-.853A8.238,8.238,0,0,1,8.167-58.4,8.438,8.438,0,0,1,6.852-60.12a8.6,8.6,0,0,1-.846-2.024,8.4,8.4,0,0,1-.3-2.252,8.354,8.354,0,0,1,.286-2.174,8.635,8.635,0,0,1,.814-2,8.685,8.685,0,0,1,1.282-1.731,8.213,8.213,0,0,1,1.7-1.367,8.459,8.459,0,0,1,2.044-.892,8.353,8.353,0,0,1,2.337-.319,8.351,8.351,0,0,1,3.2.638A8.511,8.511,0,0,1,20.17-70.359Zm4.465,8.228a4.335,4.335,0,0,0,.351,1.738,4.623,4.623,0,0,0,.963,1.432,4.539,4.539,0,0,0,1.439.976,4.391,4.391,0,0,0,1.764.358,4.377,4.377,0,0,0,1.771-.358,4.482,4.482,0,0,0,1.426-.976,4.586,4.586,0,0,0,.95-1.432,4.406,4.406,0,0,0,.345-1.738A4.534,4.534,0,0,0,33.3-63.9a4.547,4.547,0,0,0-.95-1.445,4.4,4.4,0,0,0-1.426-.97,4.447,4.447,0,0,0-1.771-.352,4.461,4.461,0,0,0-1.764.352,4.451,4.451,0,0,0-1.439.97,4.582,4.582,0,0,0-.963,1.445A4.461,4.461,0,0,0,24.635-62.132Zm-1.692,0a6.1,6.1,0,0,1,.488-2.428,6.193,6.193,0,0,1,1.334-1.979,6.346,6.346,0,0,1,1.979-1.328,6.02,6.02,0,0,1,2.408-.488,6.006,6.006,0,0,1,2.415.488,6.287,6.287,0,0,1,1.966,1.328,6.247,6.247,0,0,1,1.328,1.979,6.1,6.1,0,0,1,.488,2.428,6.019,6.019,0,0,1-.488,2.408,6.345,6.345,0,0,1-1.328,1.979,6.232,6.232,0,0,1-1.966,1.334,6.005,6.005,0,0,1-2.415.488,6.019,6.019,0,0,1-2.408-.488,6.289,6.289,0,0,1-1.979-1.334,6.29,6.29,0,0,1-1.334-1.979A6.019,6.019,0,0,1,22.943-62.132Zm15.531-5.233a1.121,1.121,0,0,1,.15-.612.562.562,0,0,1,.514-.234.632.632,0,0,1,.527.241,2.115,2.115,0,0,1,.319.618l.1,1.588a5.826,5.826,0,0,1,.82-1.048,5.38,5.38,0,0,1,1.035-.82,4.984,4.984,0,0,1,1.224-.534,5,5,0,0,1,1.386-.189,4.91,4.91,0,0,1,2.174.462,4.569,4.569,0,0,1,1.595,1.269,5.742,5.742,0,0,1,.983,1.888,7.711,7.711,0,0,1,.338,2.317v5.494a.833.833,0,0,1-.234.605.8.8,0,0,1-.6.241.849.849,0,0,1-.605-.241.8.8,0,0,1-.254-.605v-5.442a5.626,5.626,0,0,0-.241-1.666,4.235,4.235,0,0,0-.7-1.367,3.248,3.248,0,0,0-1.139-.924,3.46,3.46,0,0,0-1.556-.338,3.71,3.71,0,0,0-1.647.371,4.233,4.233,0,0,0-1.315.989,4.677,4.677,0,0,0-.872,1.439,4.7,4.7,0,0,0-.319,1.718v5.168a.91.91,0,0,1-.228.631.774.774,0,0,1-.605.254.82.82,0,0,1-.612-.254.869.869,0,0,1-.247-.631Zm14.854,0a1.121,1.121,0,0,1,.15-.612.563.563,0,0,1,.514-.234.632.632,0,0,1,.527.241,2.115,2.115,0,0,1,.319.618l.1,1.588a5.827,5.827,0,0,1,.82-1.048,5.38,5.38,0,0,1,1.035-.82,4.984,4.984,0,0,1,1.224-.534,5,5,0,0,1,1.386-.189,4.91,4.91,0,0,1,2.174.462,4.569,4.569,0,0,1,1.595,1.269,5.742,5.742,0,0,1,.983,1.888,7.711,7.711,0,0,1,.338,2.317v5.494a.833.833,0,0,1-.234.605.8.8,0,0,1-.6.241.849.849,0,0,1-.605-.241.8.8,0,0,1-.254-.605v-5.442a5.626,5.626,0,0,0-.241-1.666,4.234,4.234,0,0,0-.7-1.367,3.248,3.248,0,0,0-1.139-.924,3.46,3.46,0,0,0-1.556-.338,3.71,3.71,0,0,0-1.647.371,4.234,4.234,0,0,0-1.315.989,4.677,4.677,0,0,0-.872,1.439,4.7,4.7,0,0,0-.319,1.718v5.168a.91.91,0,0,1-.228.631.774.774,0,0,1-.605.254.82.82,0,0,1-.612-.254.869.869,0,0,1-.247-.631Zm15.922,6a4.152,4.152,0,0,0,.482,1.491,4.3,4.3,0,0,0,.957,1.185,4.45,4.45,0,0,0,1.321.788,4.336,4.336,0,0,0,1.575.286,4.586,4.586,0,0,0,1.81-.365A3.612,3.612,0,0,0,76.8-59.007a.892.892,0,0,1,.846-.182.728.728,0,0,1,.391.338.855.855,0,0,1,.176.56.776.776,0,0,1-.319.586,5.669,5.669,0,0,1-1.764,1.269,5.841,5.841,0,0,1-2.545.514,6.005,6.005,0,0,1-2.415-.488A6.31,6.31,0,0,1,69.2-57.745a6.289,6.289,0,0,1-1.334-1.979,6.051,6.051,0,0,1-.488-2.421,6.005,6.005,0,0,1,.488-2.415A6.31,6.31,0,0,1,69.2-66.532a6.31,6.31,0,0,1,1.972-1.334,6.006,6.006,0,0,1,2.415-.488,6.09,6.09,0,0,1,2.408.482,6.177,6.177,0,0,1,1.972,1.321A6.38,6.38,0,0,1,79.3-64.586a6.062,6.062,0,0,1,.508,2.4.807.807,0,0,1-.228.586.806.806,0,0,1-.605.234ZM78.063-62.8a4.1,4.1,0,0,0-.475-1.536,4.467,4.467,0,0,0-.976-1.224,4.432,4.432,0,0,0-1.36-.814,4.564,4.564,0,0,0-1.64-.293,4.476,4.476,0,0,0-1.64.3,4.522,4.522,0,0,0-1.354.814,4.2,4.2,0,0,0-.957,1.224A4.294,4.294,0,0,0,69.2-62.8Zm5.676.6-.026.052c0,.009,0,.013.007.013s.007,0,.007.013a.011.011,0,0,0,.013.013,4.341,4.341,0,0,0,.332,1.666,4.592,4.592,0,0,0,.918,1.426,4.6,4.6,0,0,0,1.38,1,4.088,4.088,0,0,0,1.718.391,4.373,4.373,0,0,0,1.6-.267,4.512,4.512,0,0,0,1.419-.866q.13-.1.28-.208a.915.915,0,0,1,.319-.143.743.743,0,0,1,.351.007.977.977,0,0,1,.391.228.746.746,0,0,1,.273.618.979.979,0,0,1-.312.67,5.544,5.544,0,0,1-1.888,1.224,6.115,6.115,0,0,1-2.291.443,6.043,6.043,0,0,1-2.4-.482,6.251,6.251,0,0,1-1.966-1.315,6.228,6.228,0,0,1-1.328-1.953,5.927,5.927,0,0,1-.488-2.4l.026-.078q-.013,0-.013-.026a.012.012,0,0,0-.013-.013,5.959,5.959,0,0,1,.488-2.408,6.308,6.308,0,0,1,1.328-1.959,6.2,6.2,0,0,1,1.966-1.321,6.043,6.043,0,0,1,2.4-.482,6.434,6.434,0,0,1,2.3.417,5.252,5.252,0,0,1,1.881,1.2.985.985,0,0,1,.312.677.753.753,0,0,1-.273.625.906.906,0,0,1-.391.221.8.8,0,0,1-.351,0,.986.986,0,0,1-.319-.137q-.15-.1-.28-.2a4.161,4.161,0,0,0-1.412-.853,4.609,4.609,0,0,0-1.608-.254,4.121,4.121,0,0,0-1.705.384,4.512,4.512,0,0,0-1.38.989,4.714,4.714,0,0,0-.924,1.419A4.253,4.253,0,0,0,83.739-62.2ZM98.71-68.224h1.979a.816.816,0,0,1,.6.247.816.816,0,0,1,.247.6.81.81,0,0,1-.247.605.827.827,0,0,1-.6.241H98.71v9.569a.847.847,0,0,1-.247.625.816.816,0,0,1-.6.247.816.816,0,0,1-.6-.247.847.847,0,0,1-.247-.625v-9.569h-1.5a.831.831,0,0,1-.612-.247.816.816,0,0,1-.247-.6.816.816,0,0,1,.247-.6.831.831,0,0,1,.612-.247h1.5v-2.63a.81.81,0,0,1,.247-.605.843.843,0,0,1,.612-.241.8.8,0,0,1,.6.241.833.833,0,0,1,.234.605Zm5.364-2.656a.986.986,0,0,1,.3-.736.988.988,0,0,1,.716-.293,1,1,0,0,1,.729.293.986.986,0,0,1,.3.736.977.977,0,0,1-.3.716.992.992,0,0,1-.729.3.96.96,0,0,1-.4-.085,1.079,1.079,0,0,1-.325-.221,1.008,1.008,0,0,1-.215-.319A.981.981,0,0,1,104.074-70.88Zm1.862,13.93a.831.831,0,0,1-.247.612.8.8,0,0,1-.586.247.837.837,0,0,1-.605-.247.82.82,0,0,1-.254-.612V-67.339a.805.805,0,0,1,.254-.6.837.837,0,0,1,.605-.247.789.789,0,0,1,.6.247.839.839,0,0,1,.234.6Zm4.14-10.415a1.121,1.121,0,0,1,.15-.612.563.563,0,0,1,.514-.234.632.632,0,0,1,.527.241,2.115,2.115,0,0,1,.319.618l.1,1.588a5.828,5.828,0,0,1,.82-1.048,5.38,5.38,0,0,1,1.035-.82,4.984,4.984,0,0,1,1.224-.534,5,5,0,0,1,1.386-.189,4.911,4.911,0,0,1,2.174.462,4.569,4.569,0,0,1,1.595,1.269,5.742,5.742,0,0,1,.983,1.888,7.711,7.711,0,0,1,.338,2.317v5.494a.833.833,0,0,1-.234.605.8.8,0,0,1-.6.241.849.849,0,0,1-.605-.241.8.8,0,0,1-.254-.605v-5.442a5.626,5.626,0,0,0-.241-1.666,4.234,4.234,0,0,0-.7-1.367,3.248,3.248,0,0,0-1.139-.924,3.459,3.459,0,0,0-1.556-.338,3.71,3.71,0,0,0-1.647.371,4.234,4.234,0,0,0-1.315.989,4.676,4.676,0,0,0-.872,1.439,4.7,4.7,0,0,0-.319,1.718v5.168a.91.91,0,0,1-.228.631.774.774,0,0,1-.605.254.82.82,0,0,1-.612-.254.869.869,0,0,1-.247-.631Zm14.047,5.233a6.1,6.1,0,0,1,.488-2.428,6.193,6.193,0,0,1,1.334-1.979,6.345,6.345,0,0,1,1.979-1.328,6.02,6.02,0,0,1,2.408-.488,6.005,6.005,0,0,1,2.415.488,6.286,6.286,0,0,1,1.966,1.328,6.246,6.246,0,0,1,1.328,1.979,6.1,6.1,0,0,1,.488,2.428,6.051,6.051,0,0,1-.293,1.888,6.375,6.375,0,0,1-.814,1.653,3.482,3.482,0,0,1,.742,1.289,5.121,5.121,0,0,1,.234,1.575,4.734,4.734,0,0,1-.365,1.914,4.208,4.208,0,0,1-.976,1.406,4.225,4.225,0,0,1-1.4.872,4.525,4.525,0,0,1-1.621.3,6.028,6.028,0,0,1-.664-.039q-.351-.039-.716-.085t-.723-.072a6.074,6.074,0,0,0-.683-.013,3.932,3.932,0,0,0-.781.143,2.206,2.206,0,0,0-.755.378.722.722,0,0,1-.605.182.973.973,0,0,1-.553-.273.85.85,0,0,1-.247-.553.842.842,0,0,1,.3-.657,2.446,2.446,0,0,1,.853-.462,7.764,7.764,0,0,1,1.009-.267,6.843,6.843,0,0,1,1.517-.039q.749.065,1.491.065a3.548,3.548,0,0,0,2.369-.729,2.565,2.565,0,0,0,.859-2.07,3.082,3.082,0,0,0-.046-.566,3.079,3.079,0,0,0-.111-.43,1.624,1.624,0,0,0-.15-.325q-.085-.137-.176-.267a5.873,5.873,0,0,1-1.784,1.022,6.151,6.151,0,0,1-2.109.358,6.019,6.019,0,0,1-2.408-.488,6.345,6.345,0,0,1-1.979-1.328,6.212,6.212,0,0,1-1.334-1.972A6.019,6.019,0,0,1,124.122-62.132Zm1.692,0a4.335,4.335,0,0,0,.351,1.738,4.544,4.544,0,0,0,.963,1.426,4.594,4.594,0,0,0,1.439.97,4.391,4.391,0,0,0,1.764.358A4.377,4.377,0,0,0,132.1-58a4.536,4.536,0,0,0,1.426-.97,4.507,4.507,0,0,0,.95-1.426,4.406,4.406,0,0,0,.345-1.738,4.534,4.534,0,0,0-.345-1.764,4.546,4.546,0,0,0-.95-1.445,4.4,4.4,0,0,0-1.426-.97,4.447,4.447,0,0,0-1.771-.352,4.461,4.461,0,0,0-1.764.352,4.451,4.451,0,0,0-1.439.97,4.582,4.582,0,0,0-.963,1.445A4.461,4.461,0,0,0,125.814-62.132Zm27.391-.4L147.828-69.5v12.576a.794.794,0,0,1-.247.592.827.827,0,0,1-.6.241.827.827,0,0,1-.6-.241.794.794,0,0,1-.247-.592v-15a.79.79,0,0,1,.241-.579.838.838,0,0,1,.579-.254h.091a.787.787,0,0,1,.573.273l6.288,8.176,6.262-8.15a.7.7,0,0,1,.495-.286.367.367,0,0,0,.072-.007.366.366,0,0,1,.072-.007.821.821,0,0,1,.605.241.805.805,0,0,1,.241.592v15a.794.794,0,0,1-.247.592.827.827,0,0,1-.6.241.834.834,0,0,1-.592-.241.784.784,0,0,1-.254-.592V-69.513L154.6-62.522l-.117.143-.026.026a.787.787,0,0,1-.43.234.763.763,0,0,1-.345-.026.763.763,0,0,1-.306-.2.023.023,0,0,1-.026-.026ZM165.95-70.88a.986.986,0,0,1,.3-.736.988.988,0,0,1,.716-.293,1,1,0,0,1,.729.293.986.986,0,0,1,.3.736.977.977,0,0,1-.3.716.992.992,0,0,1-.729.3.96.96,0,0,1-.4-.085,1.079,1.079,0,0,1-.325-.221,1.008,1.008,0,0,1-.215-.319A.98.98,0,0,1,165.95-70.88Zm1.862,13.93a.831.831,0,0,1-.247.612.8.8,0,0,1-.586.247.837.837,0,0,1-.605-.247.82.82,0,0,1-.254-.612V-67.339a.805.805,0,0,1,.254-.6.837.837,0,0,1,.605-.247.789.789,0,0,1,.6.247.839.839,0,0,1,.234.6Zm4.14-10.415a1.121,1.121,0,0,1,.15-.612.562.562,0,0,1,.514-.234.632.632,0,0,1,.527.241,2.115,2.115,0,0,1,.319.618l.1,1.588a5.828,5.828,0,0,1,.82-1.048,5.38,5.38,0,0,1,1.035-.82,4.984,4.984,0,0,1,1.224-.534,5,5,0,0,1,1.386-.189,4.91,4.91,0,0,1,2.174.462,4.569,4.569,0,0,1,1.595,1.269,5.743,5.743,0,0,1,.983,1.888,7.711,7.711,0,0,1,.338,2.317v5.494a.833.833,0,0,1-.234.605.8.8,0,0,1-.6.241.849.849,0,0,1-.605-.241.8.8,0,0,1-.254-.605v-5.442a5.626,5.626,0,0,0-.241-1.666,4.235,4.235,0,0,0-.7-1.367,3.248,3.248,0,0,0-1.139-.924,3.46,3.46,0,0,0-1.556-.338,3.71,3.71,0,0,0-1.647.371,4.234,4.234,0,0,0-1.315.989,4.676,4.676,0,0,0-.872,1.439,4.7,4.7,0,0,0-.319,1.718v5.168a.91.91,0,0,1-.228.631.774.774,0,0,1-.605.254.82.82,0,0,1-.612-.254.869.869,0,0,1-.247-.631Zm26.571,10.428a1.161,1.161,0,0,1-.143.612.56.56,0,0,1-.521.234.532.532,0,0,1-.462-.189,1.244,1.244,0,0,1-.176-.306l-.208-1.718a6.312,6.312,0,0,1-2.122,1.738,5.955,5.955,0,0,1-2.747.644,5.983,5.983,0,0,1-2.421-.495,6.3,6.3,0,0,1-1.972-1.341,6.254,6.254,0,0,1-1.321-1.979,6.122,6.122,0,0,1-.482-2.421,6.075,6.075,0,0,1,.482-2.415,6.2,6.2,0,0,1,1.321-1.966,6.267,6.267,0,0,1,1.972-1.328,6.052,6.052,0,0,1,2.421-.488,5.983,5.983,0,0,1,2.617.579,6.323,6.323,0,0,1,2.07,1.569V-72a.9.9,0,0,1,.234-.625.77.77,0,0,1,.6-.26.8.8,0,0,1,.618.26.888.888,0,0,1,.241.625Zm-1.862-5.22a4.414,4.414,0,0,0-.352-1.757,4.523,4.523,0,0,0-.963-1.432,4.5,4.5,0,0,0-1.439-.963,4.461,4.461,0,0,0-1.764-.352,4.447,4.447,0,0,0-1.77.352,4.446,4.446,0,0,0-1.426.963,4.488,4.488,0,0,0-.95,1.432,4.486,4.486,0,0,0-.345,1.757A4.453,4.453,0,0,0,188-60.413a4.565,4.565,0,0,0,.95,1.439,4.571,4.571,0,0,0,1.426.983,4.31,4.31,0,0,0,1.77.365,4.323,4.323,0,0,0,1.764-.365,4.629,4.629,0,0,0,1.439-.983,4.6,4.6,0,0,0,.963-1.439A4.382,4.382,0,0,0,196.66-62.158Zm8.761.417q-.586-.208-1.178-.475a4.873,4.873,0,0,1-1.067-.651,3.152,3.152,0,0,1-.775-.918,2.568,2.568,0,0,1-.3-1.276,2.929,2.929,0,0,1,.332-1.419,3.124,3.124,0,0,1,.892-1.028,4.048,4.048,0,0,1,1.3-.631,5.475,5.475,0,0,1,1.543-.215,6.393,6.393,0,0,1,1.113.1,4.621,4.621,0,0,1,1.035.306,3.563,3.563,0,0,1,.872.534,2.537,2.537,0,0,1,.625.768.882.882,0,0,1,.1.514.684.684,0,0,1-.189.41.774.774,0,0,1-.391.228.621.621,0,0,1-.456-.059,3.5,3.5,0,0,0-1.159-.892,3.5,3.5,0,0,0-1.432-.267,4.948,4.948,0,0,0-.918.085,2.647,2.647,0,0,0-.8.28,1.56,1.56,0,0,0-.56.514,1.41,1.41,0,0,0-.208.788,1.22,1.22,0,0,0,.2.71,1.793,1.793,0,0,0,.553.508,4.035,4.035,0,0,0,.814.371q.462.156.97.312.833.26,1.582.56a5.914,5.914,0,0,1,1.315.716,3.29,3.29,0,0,1,.9,1,2.7,2.7,0,0,1,.339,1.386,3.1,3.1,0,0,1-.325,1.406,3.532,3.532,0,0,1-.9,1.133,4.288,4.288,0,0,1-1.347.755,4.951,4.951,0,0,1-1.66.273,6.689,6.689,0,0,1-1.315-.13,5.733,5.733,0,0,1-1.23-.391,4.075,4.075,0,0,1-1.041-.67,3.231,3.231,0,0,1-.749-.983.963.963,0,0,1-.124-.67.7.7,0,0,1,.306-.443.828.828,0,0,1,.573-.1,1.172,1.172,0,0,1,.651.345,2.714,2.714,0,0,0,1.165,1.035,3.981,3.981,0,0,0,1.764.371,3.356,3.356,0,0,0,.957-.137,2.67,2.67,0,0,0,.814-.391,2,2,0,0,0,.56-.605,1.5,1.5,0,0,0,.208-.781,1.144,1.144,0,0,0-.3-.781,3.021,3.021,0,0,0-.781-.612,6.537,6.537,0,0,0-1.08-.482Q206.021-61.559,205.422-61.741Z" transform="translate(-21778.688 -10504.54)" fill="#0003c7"/>
    <g id="Group_1388" data-name="Group 1388" transform="translate(-21989.742 -10653)">
      <g id="Group_1369" data-name="Group 1369" transform="translate(0 0)">
        <path id="Path_2239" data-name="Path 2239" d="M78.026,28.342h22.351c.357,0,.714-.011,1.071,0,.609.017.9-.26.9-.879-.012-1.026-.006-2.052-.006-3.078,0-.619-.328-.882-.924-.873-.4.006-.8,0-1.2,0q-14.856,0-29.712,0c-2.08,0-1.981.124-1.969-1.955,0-.58,0-1.16.014-1.74a.768.768,0,0,1,.842-.829c.312-.007.624-.005.937-.005H82.367c.357,0,.714-.015,1.071-.011a.728.728,0,0,0,.826-.82c.007-1.026.008-2.052-.005-3.078-.009-.662-.359-.957-1.026-.926-.534.026-1.071,0-1.606,0l-33.727,0c-1.787,0-1.8,0-1.787-1.741.03-3.041-.4-2.612,2.62-2.619,8.3-.019,16.595-.006,24.892-.009,1.711,0,1.791-.081,1.815-1.806.01-.713,0-1.427-.009-2.141a.8.8,0,0,0-.923-.883c-1.026.007-2.052,0-3.078,0q-5.086,0-10.171,0c-1.35,0-1.353-.014-1.369-1.319-.008-.624-.007-1.249,0-1.874C59.9.394,59.906.392,61.2.382Q61.94.376,62.677.377c8.476,0,16.952-.023,25.429-.01a43.733,43.733,0,0,1,19.245,4.393,32.78,32.78,0,0,1,7.944,5.382c1.039.957,1.034.974.2,2.048a35.138,35.138,0,0,0-5.138,9.024,33.427,33.427,0,0,0-2.1,16.768A19.175,19.175,0,0,1,105.943,51a54.249,54.249,0,0,0-3.574,7.155A6.98,6.98,0,0,0,103.8,66.3a7.515,7.515,0,0,0,3.019,1.65,1.449,1.449,0,0,1,1.126,1.567,8.408,8.408,0,0,0,1.388,4.93,2.8,2.8,0,0,1,.378,1.26,9.8,9.8,0,0,0,1.6,4.342,20.848,20.848,0,0,1,1.936,3.339,46.936,46.936,0,0,1,1.4,4.715c.107.38-.1.6-.473.638-.355.031-.713.021-1.069.034-2.225.079-4.456.078-6.673.257-3.96.32-6.032,2.913-6.536,6.277-.1.661-.2,1.323-.271,1.987a.775.775,0,0,1-.869.8c-.268,0-.535.005-.8.005H78.548c-.312,0-.625-.017-.937,0-.645.03-.862-.306-.849-.905.019-.847-.014-1.7.013-2.542.029-.911.1-1,1.007-1.02,1.338-.03,2.677-.008,4.015-.017s1.4-.069,1.418-1.458c.008-.758.022-1.518,0-2.275-.033-.947-.153-1.082-1.1-1.094-1.963-.024-3.926-.009-5.889-.011-.759,0-1.517-.009-2.275,0-.606.007-.907-.262-.9-.882.011-.937.008-1.874,0-2.81a.661.661,0,0,1,.729-.752c.357-.008.714-.014,1.07-.014q7.829,0,15.659,0c1.634,0,1.635-.006,1.648-1.612.006-.714.018-1.428,0-2.141-.028-.962-.1-1.032-1.1-1.071-.579-.023-1.16-.011-1.74-.011q-5.42,0-10.841-.007c-1.328,0-1.345-.026-1.364-1.341-.011-.758,0-1.517,0-2.275,0-.676.33-.954,1-.942q1.739.031,3.48,0c1.121-.018,1.185-.1,1.2-1.245.009-.8.028-1.607,0-2.409-.036-1-.186-1.157-1.2-1.163-3.257-.019-6.513-.009-9.77-.01-1.851,0-1.851,0-1.852-1.813,0-.4-.006-.8,0-1.2.02-1.282.063-1.342,1.39-1.345,4.55-.011,9.1,0,13.651-.007,1.981,0,1.981,0,1.986-2.022,0-.58.019-1.161-.007-1.74-.04-.869-.178-1.012-1.013-1.061-.489-.029-.981-.012-1.472-.012H58.533c-.223,0-.446.006-.669,0-1.1-.03-1.157-.074-1.183-1.118-.021-.847.014-1.7-.007-2.542-.016-.632.272-.894.886-.863.311.016.624,0,.937,0h14.99c.357,0,.714-.01,1.071-.006a.758.758,0,0,0,.844-.824c.028-1.07.031-2.14.018-3.21-.007-.541-.324-.8-.865-.789-.4.006-.8,0-1.2,0H53.542c-.312,0-.624-.007-.937-.008-.508,0-.716-.282-.714-.762,0-.981,0-1.963.005-2.944,0-.537.254-.832.819-.816.312.009.624,0,.937,0q21.748,0,43.5,0c2.769,0,2.36.167,2.379-2.356.021-2.792.176-2.472-2.414-2.475q-13.919-.018-27.838-.007c-1.8,0-1.8,0-1.8-1.752,0-.58.006-1.16,0-1.74a.822.822,0,0,1,.888-.933c.356-.019.713-.021,1.07-.021,3.212,0,6.424,0,9.636-.007,1.361,0,1.422-.075,1.441-1.447.012-.847-.008-1.7,0-2.543a.718.718,0,0,0-.805-.83c-.4,0-.8-.013-1.2-.013H56.012c-.4,0-.8.012-1.2-.01-.883-.049-.978-.119-1.048-1.016s-.066-1.777-.106-2.666a.677.677,0,0,1,.685-.8c.4-.032.8-.03,1.2-.03Q66.783,28.341,78.026,28.342Z" transform="translate(-38.744 -0.362)" fill="#0003c7"/>
        <path id="Path_2240" data-name="Path 2240" d="M200.2,469.527c-.015,2.648.248,2.291-2.249,2.276-2.3-.014-2.339.546-2.353-2.384-.011-2.166-.006-2.166,2.195-2.16.533,0,1.066.016,1.6,0,.572-.02.8.275.809.806C200.206,468.55,200.2,469.038,200.2,469.527Z" transform="translate(-164.365 -392.7)" fill="#0003c7"/>
        <path id="Path_2241" data-name="Path 2241" d="M127.067,238.656c-2.412-.022-2.215.237-2.211-2.232s-.21-2.218,2.218-2.215c2.412,0,2.225-.247,2.221,2.22C129.292,238.8,129.543,238.655,127.067,238.656Z" transform="translate(-104.914 -196.861)" fill="#0003c7"/>
        <path id="Path_2242" data-name="Path 2242" d="M178.205,530.548c-2.322-.013-2.217.2-2.184-2.266.03-2.271-.393-2.208,2.225-2.2,2.642.007,2.3-.14,2.315,2.11C180.573,530.755,180.806,530.546,178.205,530.548Z" transform="translate(-147.904 -442.131)" fill="#0003c7"/>
        <path id="Path_2243" data-name="Path 2243" d="M49.14,177.822c0-.4-.013-.8,0-1.2.037-.946.088-1.017.974-1.044s1.782,0,2.673,0a.712.712,0,0,1,.815.815c-.008.891.032,1.784-.018,2.672-.047.831-.238.995-1.07,1.024-.8.029-1.6-.013-2.405.013-.675.023-.995-.259-.971-.941.016-.445,0-.891,0-1.336Z" transform="translate(-41.289 -147.587)" fill="#0003c7"/>
        <path id="Path_2244" data-name="Path 2244" d="M133.715,121.422c-2.469-.021-2.2.3-2.226-2.177-.025-2.724.044-2.336,2.406-2.347,2.029-.01,2.029,0,2.039,2.073,0,.089,0,.177,0,.266C135.92,121.664,136.211,121.411,133.715,121.422Z" transform="translate(-110.49 -98.278)" fill="#0003c7"/>
        <path id="Path_2245" data-name="Path 2245" d="M28.242,294.755c0-.222.01-.444,0-.665-.093-1.713-.059-1.753,1.6-1.756.576,0,1.153-.015,1.729,0,.939.03,1.022.09,1.055.963s-.01,1.774.02,2.66c.024.708-.315.933-.973.911-.842-.029-1.686.017-2.527-.015-.884-.033-.973-.154-.937-1.04.014-.354.044-.707.067-1.061Z" transform="translate(-23.694 -245.706)" fill="#0003c7"/>
        <path id="Path_2246" data-name="Path 2246" d="M148.176,409.64c2.611-.039,2.2.054,2.214,2.267.015,2.113.23,2.12-2.115,2.093-.535-.006-1.071-.014-1.606,0s-.834-.216-.827-.787c.009-.892.019-1.785,0-2.676-.014-.614.236-.916.864-.9C147.194,409.651,147.685,409.64,148.176,409.64Z" transform="translate(-122.551 -344.28)" fill="#0003c7"/>
        <path id="Path_2247" data-name="Path 2247" d="M2.267,59.313c2.6-.017,2.271-.1,2.282,2.323.01,2.046,0,2.057-2.051,2.044C-.358,63.661.029,64.013.006,61.2c-.016-2.068-.128-1.888,1.86-1.886Z" transform="translate(0 -49.896)" fill="#0003c7"/>
        <path id="Path_2248" data-name="Path 2248" d="M68.949,119.166c-.035-2.55-.079-2.3,2.3-2.29,1.826.006,2.092-.382,2.063,2.012-.035,2.9.282,2.476-2.453,2.5C68.647,121.418,68.965,121.485,68.949,119.166Z" transform="translate(-57.931 -98.254)" fill="#0003c7"/>
      </g>
      <g id="Group_1370" data-name="Group 1370" transform="translate(66.811 0.042)">
        <path id="Path_2249" data-name="Path 2249" d="M474.037.658c5.758,0,10.486,0,15.214,0A3.618,3.618,0,0,1,490.313.7c.234.074.55.365.563.576.063,1.022.045,2.049.036,3.075a.7.7,0,0,1-.762.745c-.267.011-.535.018-.8.018q-6.824,0-13.648,0c-.267,0-.535,0-.8-.023-.433-.03-.7-.292-.59-.7a.975.975,0,0,1,.583-.537,3.019,3.019,0,0,1,.929-.034l12.042-.01c.312,0,.625,0,.936-.015.63-.029.824-.414.818-.987a.725.725,0,0,0-.819-.82c-.312,0-.624-.01-.937-.01-8.608,0-17.216.012-25.825-.007a42.661,42.661,0,0,0-8.054.954,40.553,40.553,0,0,0-6,1.692,32.516,32.516,0,0,0-12.739,8.074c-.68.7-1.306,1.46-1.966,2.183-.469.513-.387.953-.031,1.541q1.549,2.554,2.94,5.2a26.374,26.374,0,0,1,2.031,6.016,24.045,24.045,0,0,1,.679,6.339c-.04,1.854-.413,3.7-.639,5.551a16.487,16.487,0,0,0,.253,7.245,51.509,51.509,0,0,0,3.571,7.716c.811,1.579,1.658,3.141,2.455,4.727a10.7,10.7,0,0,1,.666,1.733,2.2,2.2,0,0,1-1.161,2.8,22.068,22.068,0,0,1-2.822,1.163c-1.225.415-2.167,1.008-2.209,2.47-.024.838-.206,1.68-.148,2.508.106,1.515-.162,2.03-1.609,2.578-.893.338-1.164.634-.715,1.481,1.1,2.07.152,3.481-1.149,5a12.794,12.794,0,0,0-2.7,7.25,1.136,1.136,0,0,0,.871,1.317,4.6,4.6,0,0,0,1.31.161c2.631.021,5.263,0,7.894.038a11.541,11.541,0,0,1,5.175,1.1,8.24,8.24,0,0,1,4.408,6.308c.057.306.081.618.114.928a.818.818,0,0,0,.9.792c.846.031,1.693.088,2.539.085q7.356-.024,14.712-.073c.223,0,.446,0,.669-.011.512-.02.861-.213.836-.8a.794.794,0,0,0-.816-.87c-1.114-.032-2.229-.025-3.344-.035a4.508,4.508,0,0,1-1.064-.039c-.2-.051-.477-.325-.474-.494s.291-.36.473-.518c.055-.047.172-.03.261-.03,1.784,0,3.568,0,5.352-.006.668,0,.966.279.924.975-.046.755-.035,1.516-.013,2.274.016.55-.183.849-.759.841-.267,0-.535.007-.8.007l-18.733,0c-.267,0-.535-.012-.8,0-.549.018-.746-.246-.851-.785a22.82,22.82,0,0,0-.965-4,6.532,6.532,0,0,0-5.432-4.164,46.342,46.342,0,0,0-9.861-.323,5.582,5.582,0,0,1-2.114-.188,3.154,3.154,0,0,1-1.5-1.191,5.314,5.314,0,0,1-.623-2.02,12.705,12.705,0,0,0-1.545-4.912,24.334,24.334,0,0,0-1.69-2.378c-.893-1.115-1.458-2.243-.642-3.654a4.64,4.64,0,0,0,.253-.9.72.72,0,0,0-.478-.957c-.161-.076-.319-.161-.485-.225-1.27-.488-1.527-.944-1.483-2.267.031-.925-.088-1.855-.109-2.783-.033-1.473-1.01-2.051-2.222-2.487a18.766,18.766,0,0,1-2.917-1.254,2.006,2.006,0,0,1-.98-2.913c.95-2.152,2.028-4.248,3.062-6.363,1-2.039,2.045-4.052,3-6.111a13.647,13.647,0,0,0,.719-8.893,26.976,26.976,0,0,1,.026-11.387,31.546,31.546,0,0,1,5.673-12.526A34.073,34.073,0,0,1,444.4,4.727a50.825,50.825,0,0,1,8.3-2.888,41.516,41.516,0,0,1,4.2-.69C462.941.165,469.018.919,474.037.658Z" transform="translate(-418.397 -0.625)" fill="#0003c7"/>
        <path id="Path_2250" data-name="Path 2250" d="M624.332,176.405H647.6c.178,0,.358.013.535,0,.711-.064,1.085.206,1.092.968s.132,1.51.116,2.263c-.017.776-.28,1-1.063,1.078a7.937,7.937,0,0,1-.8.014q-12.3-.007-24.61-.017a3.691,3.691,0,0,1-1.19-.078.969.969,0,0,1-.44-.7c-.019-.126.313-.4.52-.443a6.182,6.182,0,0,1,1.2-.039q11.569,0,23.138,0a8.785,8.785,0,0,0,1.331-.067.682.682,0,0,0,.6-.881,1.118,1.118,0,0,0-.623-.708,5.542,5.542,0,0,0-1.46-.079q-22.4,0-44.806,0a4.259,4.259,0,0,1-1.194-.051.84.84,0,0,1-.486-.633c0-.2.31-.51.537-.571a4.757,4.757,0,0,1,1.2-.044h23.139Z" transform="translate(-570.547 -148.326)" fill="#0003c7"/>
        <path id="Path_2251" data-name="Path 2251" d="M641.222,292.768h22.47c.357,0,.714.015,1.07,0,.537-.022.855.178.854.757,0,.981-.007,1.961,0,2.942,0,.518-.264.715-.749.7-.267-.006-.535.006-.8.006l-21.4,0c-.312,0-.624,0-.936-.013-.449-.013-.789-.146-.771-.692.016-.484.341-.574.725-.586.357-.011.713-.01,1.07-.01l19.527,0c.4,0,.8,0,1.2-.022.516-.025.841-.256.836-.822s-.161-.972-.818-.977c-.535,0-1.07-.012-1.6-.012l-43.6-.006a5.92,5.92,0,0,1-1.066-.037c-.182-.034-.468-.237-.469-.365a.843.843,0,0,1,.3-.662,2.413,2.413,0,0,1,1.028-.2c1.2-.021,2.407-.007,3.611-.007Z" transform="translate(-585.085 -246.113)" fill="#0003c7"/>
        <path id="Path_2252" data-name="Path 2252" d="M732.554,63.966h-17.8c-.312,0-.625.01-.936-.006-.394-.019-.888.028-.852-.569.035-.581.538-.486.922-.507.356-.019.714-.006,1.07-.006h33.858c.4,0,.805.02,1.2-.016a.9.9,0,0,0,.924-1.045c-.027-.579-.389-.752-.895-.759-.446-.006-.892-.012-1.338-.012q-12.713,0-25.427-.01a3.686,3.686,0,0,1-1.059-.055.741.741,0,0,1-.395-.572.753.753,0,0,1,.386-.577,2.584,2.584,0,0,1,.923-.068q13.851,0,27.7,0c.223,0,.446.007.669.008.477,0,.758.212.758.719,0,.892,0,1.784,0,2.676a.683.683,0,0,1-.715.779c-.356.021-.713.017-1.07.017Z" transform="translate(-665.927 -50.314)" fill="#0003c7"/>
        <path id="Path_2253" data-name="Path 2253" d="M616.664,122.434H600.888a3.44,3.44,0,0,1-1.06-.042.628.628,0,0,1,0-1.229,4.38,4.38,0,0,1,1.194-.049l30.215,0c.356,0,.714.009,1.068-.024a.733.733,0,0,0,.757-.766.8.8,0,0,0-.605-.917,6.415,6.415,0,0,0-1.324-.106q-6.083-.009-12.166,0a5.06,5.06,0,0,1-1.063-.054c-.169-.037-.428-.287-.411-.408a.859.859,0,0,1,.384-.582,1.836,1.836,0,0,1,.787-.073q7.086,0,14.171.007c1.425,0,1.486.086,1.5,1.532,0,.535.018,1.07,0,1.6-.039.97-.138,1.086-1.085,1.1-1.247.024-2.5.007-3.743.007Z" transform="translate(-570.438 -99.403)" fill="#0003c7"/>
        <path id="Path_2254" data-name="Path 2254" d="M711.356,355.677q-7.092,0-14.185,0a4.9,4.9,0,0,1-1.187-.112.489.489,0,0,1,.039-.939,11.7,11.7,0,0,1,1.6-.075q13.047,0,26.094,0a12.035,12.035,0,0,0,1.2-.017c.67-.068.912-.4.887-1.071-.022-.6-.4-.732-.9-.728-.446,0-.892,0-1.338,0q-7.36,0-14.72,0a4.76,4.76,0,0,1-1.194-.069.731.731,0,0,1-.38-.574.76.76,0,0,1,.359-.6,2.506,2.506,0,0,1,.923-.069q8.631,0,17.262,0c1.274,0,1.278.011,1.3,1.239.01.624.018,1.249,0,1.873-.029,1.034-.1,1.114-1.178,1.134s-2.141.007-3.212.008H711.356Z" transform="translate(-651.378 -295.394)" fill="#0003c7"/>
        <path id="Path_2255" data-name="Path 2255" d="M633.1,239.348H618a3.95,3.95,0,0,1-.931-.027c-.215-.053-.391-.267-.584-.409.179-.218.322-.565.544-.626a5.066,5.066,0,0,1,1.326-.082q13.167.005,26.335.018c.758,0,1.516.016,2.272-.007a2.219,2.219,0,0,0,1.029-.181,1.081,1.081,0,0,0,.511-.794c-.019-.238-.388-.551-.664-.64a4.013,4.013,0,0,0-1.193-.062c-3.03,0-6.06,0-9.09-.014a5.848,5.848,0,0,1-1.58-.192c-.206-.06-.319-.441-.474-.677a2.95,2.95,0,0,1,.619-.376,2.266,2.266,0,0,1,.664-.019q5.748,0,11.5,0c1.453,0,1.491.045,1.513,1.5.008.535-.014,1.07.008,1.6.028.657-.216,1.018-.922.981-.355-.018-.713,0-1.069,0Z" transform="translate(-584.849 -197.78)" fill="#0003c7"/>
        <path id="Path_2256" data-name="Path 2256" d="M704.659,410.1h7.624c.268,0,.535,0,.8.014.459.026.76.223.759.735q0,1.338,0,2.675c0,.577-.326.781-.851.781-.981,0-1.962,0-2.943,0-2.987,0-5.975.015-8.962-.007-.479,0-1.157.253-1.3-.548-.092-.514.306-.735,1.294-.735,3.121,0,6.242.01,9.363.011.445,0,.892-.011,1.336-.046a.7.7,0,0,0,.728-.781.816.816,0,0,0-.788-.9c-.4-.037-.8.033-1.2.033q-6.755.005-13.51,0a2.31,2.31,0,0,1-.923-.065,1.058,1.058,0,0,1-.492-.659c-.027-.114.3-.4.508-.46a3.357,3.357,0,0,1,.93-.042q3.812,0,7.625,0Z" transform="translate(-651.331 -344.709)" fill="#0003c7"/>
        <path id="Path_2257" data-name="Path 2257" d="M672.9,526.987c2.987,0,5.973-.007,8.96,0,1.186,0,1.225.022,1.2,1.187-.067,3.4.566,2.865-2.856,2.894q-3.677.031-7.355,0c-.447,0-1.139.2-1.155-.527-.016-.75.686-.542,1.128-.545,2.585-.018,5.171-.011,7.756,0,.57,0,1.1-.037,1.169-.772.049-.516-.115-.884-.7-.905-.356-.013-.713-.017-1.069-.017l-15.646-.005c-.357,0-.713-.006-1.07-.01-.384,0-.556-.2-.571-.582-.017-.419.121-.7.584-.708.312-.008.624-.017.935-.017H672.9Z" transform="translate(-623.68 -442.931)" fill="#0003c7"/>
        <path id="Path_2258" data-name="Path 2258" d="M670.995,472.574q-3.341,0-6.683,0a2.475,2.475,0,0,1-.924-.044.858.858,0,0,1-.464-.632.83.83,0,0,1,.509-.59,4.6,4.6,0,0,1,1.2-.048q5.68,0,11.361,0c.4,0,.8,0,1.2-.024.423-.028.831-.147.855-.658a.922.922,0,0,0-.784-1.078c-.747-.087-1.509-.051-2.265-.065-.665-.012-1.331-.017-2-.033-.4-.009-.765-.153-.654-.612a.849.849,0,0,1,.6-.525c1.826-.044,3.652-.027,5.479-.03a.659.659,0,0,1,.738.743c.006.891-.017,1.783.013,2.673.023.7-.3.932-.969.919-1.425-.026-2.851,0-4.277,0Z" transform="translate(-623.877 -393.57)" fill="#0003c7"/>
        <path id="Path_2259" data-name="Path 2259" d="M834.283,414.345c-2.465-.028-2.165.324-2.173-2.223-.006-1.94.024-1.943,2.018-1.967.578-.007,1.157-.009,1.735.009a.612.612,0,0,1,.661.673q0,1.4,0,2.8c0,.507-.294.707-.768.705C835.262,414.344,834.773,414.345,834.283,414.345Zm.832-2.121c-.016-.561-.273-.824-.8-.815a.81.81,0,0,0-.889.9c.04.568.428.715.91.729C834.893,413.055,835.134,412.761,835.115,412.224Z" transform="translate(-766.041 -344.756)" fill="#0003c7"/>
        <path id="Path_2260" data-name="Path 2260" d="M781.854,470.374c.042-2.36-.357-2.207,2.2-2.218,2.616-.012,2.241.09,2.258,2.229.016,2.167.189,2.123-2.075,2.113-.532,0-1.065-.013-1.6,0-.558.015-.816-.23-.792-.8C781.869,471.262,781.854,470.818,781.854,470.374Zm2.1-.9c-.551-.02-.762.293-.75.83.015.633.272.89.9.874s.921-.322.879-.9C784.935,469.72,784.608,469.457,783.949,469.473Z" transform="translate(-723.812 -393.498)" fill="#0003c7"/>
        <path id="Path_2261" data-name="Path 2261" d="M980.29,59.784c2.469.018,2.119-.163,2.127,2.156.007,2.163.286,2.043-2.111,2.047-2.445,0-2.166.017-2.172-2.029C978.125,59.6,977.964,59.8,980.29,59.784Zm.817,2.046a.688.688,0,0,0-.839-.76c-.488.045-.841.255-.841.813a.834.834,0,0,0,.956.844C980.954,62.7,981.111,62.327,981.107,61.83Z" transform="translate(-888.747 -50.337)" fill="#0003c7"/>
        <path id="Path_2262" data-name="Path 2262" d="M933.8,178.6c-.006,2.5.177,2.153-2.111,2.155-2.076,0-2.076-.015-2.1-2.129-.025-2.511-.158-2.181,2.088-2.178C934.072,176.453,933.775,176.178,933.8,178.6Zm-2.148.852c.491.019.774-.263.815-.819.038-.516-.138-.864-.715-.865-.478,0-.88.113-.916.7A.85.85,0,0,0,931.655,179.453Z" transform="translate(-847.957 -148.36)" fill="#0003c7"/>
        <path id="Path_2263" data-name="Path 2263" d="M851.472,120.247c0,2.409.139,2.11-2.166,2.11s-2.016.277-2.016-2.079c0-2.045-.41-2.245,2.267-2.178C851.738,118.155,851.453,118.151,851.472,120.247Zm-1.27.112a.991.991,0,0,0-.844-1.069.934.934,0,0,0-.808,1.016c.02.5.329.688.772.706C849.822,121.033,850.178,120.853,850.2,120.359Z" transform="translate(-778.784 -99.333)" fill="#0003c7"/>
        <path id="Path_2264" data-name="Path 2264" d="M803.983,531.061c-2.5-.009-2.135.173-2.148-2.126-.011-2.12-.243-1.949,1.9-1.967.534,0,1.069.026,1.6,0,.665-.034,1,.2.957.917s.006,1.424-.012,2.136c-.024.937-.079.985-.967,1.04-.044,0-.089,0-.134,0Zm.087-2.759c-.621-.007-.891.206-.9.709a.888.888,0,1,0,1.773.037C804.948,528.455,804.572,528.3,804.07,528.3Z" transform="translate(-740.596 -442.915)" fill="#0003c7"/>
        <path id="Path_2265" data-name="Path 2265" d="M954.791,295c-.007,2.376.194,2.2-2.134,2.184-2.144-.013-1.955.249-1.942-1.921.017-2.9-.346-2.431,2.48-2.48.223,0,.446.009.669,0a.791.791,0,0,1,.926.876C954.8,294.111,954.791,294.557,954.791,295Zm-1.11.013a.84.84,0,0,0-.874-.937c-.531-.015-.854.326-.877.935a.734.734,0,0,0,.8.838A.811.811,0,0,0,953.681,295.015Z" transform="translate(-865.704 -246.131)" fill="#0003c7"/>
        <path id="Path_2266" data-name="Path 2266" d="M856.089,239.4c-2.316-.023-2.089.229-2.092-2.05s-.223-2.041,2.1-2.037,2.088-.254,2.089,2.041S858.409,239.375,856.089,239.4Zm.834-1.828c-.049-.732-.434-1.066-.908-.994-.5.076-.835.323-.759.886.068.51.395.88.888.754C856.482,238.136,856.741,237.737,856.922,237.577Z" transform="translate(-784.433 -197.834)" fill="#0003c7"/>
        <path id="Path_2267" data-name="Path 2267" d="M914.545,120.444c0,2.245.2,1.982-2,1.981-2.3,0-2.1.256-2.087-2.035.009-2.343-.348-2.214,2.205-2.212,2.129,0,1.875-.022,1.878,1.867Q914.545,120.245,914.545,120.444Zm-1.214-.053c-.136-.452-.15-1.012-.807-1.059-.453-.033-.975.592-.925,1.113.056.59.5.672.974.655C913.01,121.085,913.365,120.941,913.331,120.391Z" transform="translate(-831.877 -99.406)" fill="#0003c7"/>
      </g>
    </g>
    <path id="Path_2270" data-name="Path 2270" d="M9.4.282H9.43L10.595,49.6,9.408,97.916h0L8.2,49.6Z" transform="translate(-21819.773 -10653.217)" fill="#0003c7"/>
  </g>
</svg>
