<svg xmlns="http://www.w3.org/2000/svg" width="701.506" height="427.191" viewBox="0 0 701.506 427.191">
  <g id="Group_1377" data-name="Group 1377" transform="translate(-1169.999 -388)">
    <g id="Group_1369" data-name="Group 1369" transform="translate(1169.999 388)">
      <path id="Path_2239" data-name="Path 2239" d="M185.622,122.661q48.846,0,97.692,0c1.56,0,3.121-.05,4.679-.006,2.662.074,3.953-1.137,3.922-3.844-.051-4.484-.027-8.969-.027-13.453,0-2.705-1.432-3.856-4.039-3.816-1.754.027-3.509-.02-5.264-.02q-64.933,0-129.866.008c-9.09,0-8.66.543-8.605-8.544.015-2.534-.011-5.071.061-7.6.067-2.335,1.33-3.569,3.681-3.622,1.364-.03,2.729-.023,4.094-.023q26.324,0,52.648,0c1.56,0,3.12-.064,4.679-.047,2.435.026,3.594-1.244,3.608-3.583.029-4.484.036-8.969-.023-13.453-.038-2.894-1.569-4.185-4.484-4.045-2.335.112-4.679.01-7.019.01q-73.708,0-147.416-.007c-7.813,0-7.887-.015-7.812-7.611.131-13.293-1.752-11.419,11.452-11.449,36.266-.084,72.534-.028,108.8-.039,7.477,0,7.829-.355,7.932-7.9.043-3.118-.008-6.239-.04-9.359-.027-2.646-1.4-3.879-4.034-3.861-4.484.03-8.97.01-13.455.009q-22.229,0-44.457-.012c-5.9-.012-5.913-.06-5.986-5.767-.034-2.729-.029-5.459,0-8.189C106.4.5,106.422.493,112.1.449q3.217-.025,6.435-.024c37.049-.022,74.1-.1,111.146-.044a191.153,191.153,0,0,1,84.12,19.2,143.281,143.281,0,0,1,34.724,23.525c4.54,4.181,4.519,4.255.89,8.951A153.589,153.589,0,0,0,326.954,91.5c-8.976,23.655-12.745,47.913-9.187,73.289,2.788,19.881.643,39.08-10.123,56.9a237.132,237.132,0,0,0-15.622,31.272c-5.366,12.86-3.986,25.131,6.28,35.6,3.7,3.775,8.46,5.524,13.194,7.212,3.464,1.236,4.954,3.128,4.922,6.851-.066,7.72,1.624,15,6.066,21.55a12.252,12.252,0,0,1,1.654,5.506,42.83,42.83,0,0,0,6.973,18.98c3.028,4.745,6.393,9.425,8.46,14.593,2.65,6.627,4.178,13.706,6.126,20.608.468,1.661-.417,2.642-2.067,2.788-1.55.136-3.116.091-4.674.147-9.725.346-19.477.342-29.166,1.124-17.311,1.4-26.365,12.734-28.57,27.438-.433,2.89-.875,5.782-1.185,8.686-.252,2.358-1.442,3.5-3.8,3.487-1.17-.008-2.34.022-3.509.022q-42.412,0-84.823,0c-1.365,0-2.733-.073-4.094-.009-2.82.131-3.77-1.337-3.712-3.957.082-3.7-.061-7.412.055-11.113.125-3.983.456-4.367,4.4-4.457,5.847-.133,11.7-.035,17.549-.075,5.885-.039,6.137-.3,6.2-6.372.034-3.315.1-6.633-.019-9.944-.144-4.141-.669-4.731-4.819-4.782-8.579-.1-17.159-.04-25.739-.046-3.315,0-6.631-.04-9.945,0-2.65.033-3.967-1.147-3.934-3.857.049-4.094.035-8.189.021-12.284-.007-2.16,1.057-3.236,3.188-3.286,1.559-.036,3.119-.061,4.678-.061q34.221-.006,68.443-.009c7.14,0,7.149-.026,7.2-7.047.024-3.12.08-6.242-.011-9.36-.124-4.2-.45-4.511-4.793-4.681-2.532-.1-5.069-.048-7.6-.05q-23.691-.014-47.383-.03c-5.806-.013-5.88-.114-5.961-5.861-.046-3.314.013-6.63-.007-9.945-.019-2.954,1.443-4.17,4.359-4.119q7.6.134,15.209,0c4.9-.08,5.18-.417,5.234-5.443.038-3.51.121-7.024-.007-10.529-.158-4.35-.812-5.059-5.247-5.085-14.234-.084-28.469-.04-42.7-.045-8.092,0-8.092,0-8.094-7.925,0-1.755-.024-3.51,0-5.265.087-5.6.274-5.865,6.074-5.879,19.89-.046,39.779-.022,59.669-.029,8.658,0,8.66-.009,8.681-8.838.006-2.534.085-5.073-.029-7.6-.173-3.8-.778-4.422-4.429-4.638-2.139-.126-4.289-.054-6.434-.054q-56.743,0-113.486,0c-.975,0-1.951.026-2.924,0-4.793-.131-5.057-.324-5.173-4.888-.094-3.7.063-7.411-.029-11.113-.068-2.764,1.19-3.908,3.874-3.773,1.361.068,2.729,0,4.094,0q32.76,0,65.518.006c1.56,0,3.12-.042,4.679-.027,2.441.024,3.629-1.361,3.689-3.6.124-4.675.136-9.355.078-14.032-.029-2.366-1.415-3.486-3.781-3.449-1.755.028-3.51-.02-5.265-.02q-43.289,0-86.577,0c-1.365,0-2.729-.03-4.094-.035-2.219-.008-3.128-1.233-3.123-3.329.009-4.289,0-8.579.024-12.868.014-2.345,1.112-3.636,3.581-3.565,1.364.039,2.729.006,4.094.006q95.059,0,190.119-.021c12.1-.007,10.314.729,10.4-10.3.091-12.2.768-10.8-10.552-10.819q-60.839-.079-121.676-.029c-7.849,0-7.851-.018-7.874-7.656-.008-2.534.027-5.07-.015-7.6-.044-2.666,1.329-3.946,3.882-4.077,1.556-.081,3.118-.091,4.677-.093,14.039-.01,28.08.019,42.119-.029,5.947-.021,6.213-.328,6.3-6.323.054-3.7-.033-7.41,0-11.114.019-2.411-1.114-3.611-3.52-3.629-1.755-.013-3.509-.056-5.264-.056q-49.138,0-98.276,0c-1.755,0-3.514.054-5.264-.043-3.86-.215-4.276-.52-4.581-4.442-.3-3.872-.29-7.768-.463-11.652-.095-2.143.893-3.35,2.992-3.515,1.746-.138,3.505-.131,5.258-.131Q136.484,122.654,185.622,122.661Z" transform="translate(-13.926 -0.362)" fill="#fff"/>
      <path id="Path_2240" data-name="Path 2240" d="M215.721,477.183c-.067,11.575,1.083,10.012-9.831,9.947-10.039-.06-10.223,2.386-10.285-10.421-.047-9.468-.028-9.467,9.593-9.44,2.328.007,4.658.071,6.982-.009,2.5-.086,3.517,1.2,3.537,3.523C215.735,472.916,215.721,475.049,215.721,477.183Z" transform="translate(-59.078 -141.382)" fill="#fff"/>
      <path id="Path_2241" data-name="Path 2241" d="M134.539,253.674c-10.545-.095-9.681,1.034-9.666-9.755s-.916-9.695,9.695-9.68c10.541.015,9.724-1.079,9.709,9.7C144.264,254.3,145.358,253.669,134.539,253.674Z" transform="translate(-37.71 -70.991)" fill="#fff"/>
      <path id="Path_2242" data-name="Path 2242" d="M185.605,545.61c-10.149-.057-9.691.891-9.547-9.9.132-9.929-1.717-9.651,9.725-9.621,11.548.031,10.069-.61,10.118,9.224C195.956,546.518,196.974,545.6,185.605,545.61Z" transform="translate(-53.162 -159.149)" fill="#fff"/>
      <path id="Path_2243" data-name="Path 2243" d="M49.157,185.434c0-1.753-.057-3.507.012-5.257.162-4.134.385-4.446,4.255-4.561,3.891-.115,7.789-.006,11.682-.006,2.386,0,3.588,1.127,3.564,3.562-.036,3.894.14,7.8-.078,11.679-.2,3.631-1.04,4.348-4.675,4.477-3.5.125-7.012-.059-10.513.059-2.952.1-4.348-1.13-4.243-4.112.068-1.945.013-3.894.013-5.841Z" transform="translate(-14.84 -53.28)" fill="#fff"/>
      <path id="Path_2244" data-name="Path 2244" d="M141.229,136.715c-10.791-.092-9.63,1.3-9.73-9.514-.109-11.9.194-10.209,10.517-10.258,8.87-.042,8.87.012,8.914,9.061,0,.387.008.775,0,1.163C150.869,137.771,152.139,136.668,141.229,136.715Z" transform="translate(-39.714 -35.557)" fill="#fff"/>
      <path id="Path_2245" data-name="Path 2245" d="M28.392,302.934c0-.969.045-1.94-.007-2.9-.408-7.489-.259-7.66,6.975-7.674,2.52,0,5.041-.065,7.558.015,4.1.13,4.466.4,4.612,4.208.148,3.871-.043,7.754.089,11.626.106,3.1-1.376,4.079-4.252,3.981-3.678-.126-7.368.073-11.045-.065-3.864-.144-4.254-.671-4.1-4.544.062-1.547.193-3.091.292-4.637Z" transform="translate(-8.516 -88.547)" fill="#fff"/>
      <path id="Path_2246" data-name="Path 2246" d="M156.052,409.66c11.411-.17,9.609.234,9.679,9.908.066,9.238,1.006,9.268-9.244,9.15-2.34-.026-4.681-.06-7.019-.007-2.4.054-3.644-.944-3.617-3.44.041-3.9.082-7.8-.009-11.7-.062-2.684,1.033-4,3.775-3.925C151.761,409.708,153.907,409.66,156.052,409.66Z" transform="translate(-44.049 -123.978)" fill="#fff"/>
      <path id="Path_2247" data-name="Path 2247" d="M9.91,59.329c11.373-.073,9.926-.433,9.976,10.153.042,8.942.007,8.992-8.967,8.933C-1.564,78.331.126,79.87.029,67.572c-.071-9.038-.558-8.251,8.128-8.243Z" transform="translate(0 -18.166)" fill="#fff"/>
      <path id="Path_2248" data-name="Path 2248" d="M68.979,126.952c-.155-11.144-.345-10.041,10.07-10.008,7.981.025,9.146-1.672,9.018,8.8-.155,12.677,1.234,10.822-10.721,10.949C67.658,136.792,69.05,137.089,68.979,126.952Z" transform="translate(-20.822 -35.548)" fill="#fff"/>
    </g>
    <g id="Group_1370" data-name="Group 1370" transform="translate(1462.024 388.184)">
      <path id="Path_2249" data-name="Path 2249" d="M661.591.769c25.17,0,45.835,0,66.5,0,1.559,0,3.218-.262,4.643.191,1.021.325,2.405,1.6,2.462,2.518.274,4.466.2,8.958.156,13.439-.019,2.105-1.251,3.174-3.332,3.258-1.168.047-2.337.08-3.507.08q-29.828,0-59.655-.017c-1.169,0-2.34-.017-3.506-.1-1.893-.132-3.047-1.277-2.58-3.054a4.26,4.26,0,0,1,2.549-2.349,13.2,13.2,0,0,1,4.061-.151q26.318-.025,52.637-.044c1.364,0,2.73,0,4.092-.067,2.752-.127,3.6-1.808,3.576-4.313-.026-2.429-1.2-3.569-3.58-3.585-1.365-.009-2.729-.042-4.094-.042-37.626,0-75.251.052-112.877-.031-11.926-.027-23.531,1.96-35.2,4.17a177.254,177.254,0,0,0-26.217,7.4c-21.224,7.514-39.974,19.039-55.681,35.29-2.973,3.076-5.708,6.381-8.595,9.543-2.049,2.244-1.692,4.164-.133,6.734q6.771,11.164,12.851,22.742c4.338,8.269,6.635,17.238,8.879,26.3a105.107,105.107,0,0,1,2.969,27.708c-.177,8.1-1.807,16.175-2.793,24.262-1.293,10.606-2.305,21.03,1.106,31.665,3.835,11.955,9.949,22.7,15.61,33.724,3.545,6.9,7.248,13.728,10.732,20.661a46.726,46.726,0,0,1,2.909,7.576c1.582,5.287-.158,9.771-5.076,12.244a96.456,96.456,0,0,1-12.336,5.085c-5.353,1.815-9.473,4.407-9.657,10.8-.105,3.661-.9,7.343-.646,10.964.463,6.623-.706,8.873-7.033,11.27-3.9,1.478-5.087,2.77-3.125,6.474,4.793,9.049.666,15.216-5.023,21.852-7.7,8.987-10.571,20.1-11.8,31.689a4.966,4.966,0,0,0,3.807,5.756,20.092,20.092,0,0,0,5.728.706c11.5.091,23.005-.017,34.505.164,7.819.124,15.449,1.166,22.621,4.814,11.408,5.8,17.019,15.472,19.268,27.572.248,1.337.355,2.7.5,4.057.25,2.363,1.672,3.379,3.921,3.461,3.7.134,7.4.385,11.1.372q32.153-.107,64.3-.32c.974,0,1.949-.01,2.923-.049,2.238-.089,3.764-.931,3.655-3.5-.1-2.3-1.256-3.738-3.568-3.8-4.87-.139-9.744-.109-14.617-.155a19.7,19.7,0,0,1-4.649-.17c-.872-.225-2.085-1.421-2.07-2.159.015-.778,1.272-1.573,2.069-2.266.238-.207.752-.129,1.14-.13,7.8-.01,15.6.009,23.393-.026,2.92-.013,4.221,1.22,4.037,4.261-.2,3.3-.154,6.627-.055,9.938.071,2.4-.8,3.711-3.319,3.676-1.169-.017-2.34.029-3.509.03q-40.94.011-81.88.018c-1.169,0-2.34-.053-3.508-.015-2.4.078-3.259-1.074-3.718-3.433-1.146-5.89-2.045-11.957-4.22-17.49-4.167-10.6-12.444-16.353-23.744-18.2-14.333-2.346-28.689-2.136-43.1-1.413-3.084.154-6.42.191-9.242-.823a13.785,13.785,0,0,1-6.562-5.2c-1.6-2.515-2.257-5.792-2.721-8.829-1.15-7.53-2.692-14.915-6.755-21.468a106.348,106.348,0,0,0-7.386-10.393c-3.9-4.872-6.374-9.8-2.8-15.971.659-1.138.687-2.627,1.106-3.923.685-2.116-.3-3.336-2.09-4.185-.7-.334-1.395-.706-2.12-.984-5.552-2.133-6.673-4.125-6.481-9.908.135-4.044-.384-8.106-.475-12.164-.144-6.439-4.416-8.965-9.71-10.871a82.018,82.018,0,0,1-12.75-5.482c-5.39-3.057-6.813-7.005-4.283-12.734,4.154-9.406,8.866-18.568,13.382-27.813,4.353-8.91,8.939-17.711,13.1-26.712,5.782-12.519,6.074-25.665,3.144-38.872-3.692-16.644-3.276-33.088.115-49.77,4.112-20.235,12.707-38.332,24.794-54.752,15.171-20.607,34.681-36.057,57.918-46.932,11.7-5.476,23.93-9.265,36.3-12.623,5.958-1.617,12.244-2.016,18.374-3.016C613.091-1.384,639.654,1.909,661.591.769Z" transform="translate(-418.397 -0.625)" fill="#fff"/>
      <path id="Path_2250" data-name="Path 2250" d="M708.172,176.445h101.72c.78,0,1.564.057,2.337-.013,3.106-.279,4.741.9,4.774,4.231.032,3.3.578,6.6.506,9.893-.074,3.391-1.224,4.366-4.648,4.712a34.7,34.7,0,0,1-3.505.061q-53.784-.03-107.567-.075c-1.749,0-3.622.216-5.2-.341-.934-.329-1.757-1.928-1.924-3.06-.082-.552,1.369-1.755,2.273-1.936a27.049,27.049,0,0,1,5.241-.171q50.569-.006,101.136-.012a38.4,38.4,0,0,0,5.819-.293,2.98,2.98,0,0,0,2.616-3.849,4.884,4.884,0,0,0-2.726-3.1c-2-.558-4.241-.345-6.379-.345q-97.922-.016-195.842-.012c-1.753,0-3.6.263-5.22-.223a3.673,3.673,0,0,1-2.124-2.767c.013-.88,1.356-2.231,2.347-2.494a20.793,20.793,0,0,1,5.229-.193q50.568-.007,101.137,0Z" transform="translate(-473.085 -53.714)" fill="#fff"/>
      <path id="Path_2251" data-name="Path 2251" d="M723.679,292.785h98.214c1.559,0,3.121.064,4.676,0,2.346-.1,3.738.78,3.733,3.309-.01,4.287-.03,8.574.006,12.861.02,2.266-1.156,3.125-3.274,3.076-1.168-.027-2.338.028-3.507.028q-46.769-.006-93.538-.018c-1.364,0-2.728-.015-4.091-.055-1.963-.059-3.449-.639-3.369-3.026.072-2.117,1.489-2.508,3.169-2.562,1.558-.049,3.117-.043,4.676-.043q42.677,0,85.352.01c1.753,0,3.509-.014,5.26-.1,2.255-.107,3.675-1.117,3.652-3.594-.022-2.416-.7-4.249-3.574-4.269-2.338-.016-4.676-.052-7.015-.053q-95.292-.015-190.583-.027a25.882,25.882,0,0,1-4.66-.161c-.8-.147-2.046-1.036-2.049-1.594,0-1,.525-2.5,1.291-2.894a10.557,10.557,0,0,1,4.493-.863c5.259-.091,10.52-.029,15.782-.029Z" transform="translate(-478.31 -88.862)" fill="#fff"/>
      <path id="Path_2252" data-name="Path 2252" d="M798.587,78.156l-77.8,0c-1.365,0-2.732.042-4.094-.026-1.723-.085-3.881.124-3.723-2.489.154-2.54,2.351-2.123,4.028-2.215,1.556-.085,3.119-.027,4.679-.027q73.994,0,147.989,0c1.755,0,3.52.088,5.261-.068,2.874-.257,4.166-1.827,4.04-4.567-.117-2.529-1.7-3.287-3.911-3.317-1.949-.026-3.9-.05-5.849-.051q-55.569-.021-111.138-.042a16.115,16.115,0,0,1-4.63-.239,3.242,3.242,0,0,1-1.725-2.5,3.3,3.3,0,0,1,1.687-2.522,11.3,11.3,0,0,1,4.036-.3q60.542-.008,121.082.008c.975,0,1.949.03,2.924.037,2.086.015,3.315.925,3.314,3.142,0,3.9-.016,7.8.011,11.7.015,2.139-1.03,3.283-3.128,3.4-1.555.091-3.118.076-4.677.076Q837.778,78.16,798.587,78.156Z" transform="translate(-507.368 -18.485)" fill="#fff"/>
      <path id="Path_2253" data-name="Path 2253" d="M675.1,136.8q-34.477,0-68.954,0c-1.557,0-3.228.292-4.634-.182a3.694,3.694,0,0,1-2.177-2.667,3.669,3.669,0,0,1,2.171-2.7c1.624-.473,3.469-.212,5.221-.212q66.033-.007,132.066-.007c1.557,0,3.122.038,4.668-.106,1.973-.184,3.251-1.2,3.308-3.347.052-1.96-.662-3.585-2.646-4.009a28.043,28.043,0,0,0-5.787-.464q-26.588-.041-53.177-.01a22.122,22.122,0,0,1-4.647-.237c-.736-.161-1.868-1.255-1.794-1.783a3.757,3.757,0,0,1,1.679-2.545,8.027,8.027,0,0,1,3.439-.318q30.972-.008,61.942.031c6.229.016,6.5.378,6.541,6.7.017,2.337.078,4.678-.015,7.012-.169,4.24-.605,4.747-4.742,4.828-5.452.107-10.908.03-16.362.031Q703.145,136.8,675.1,136.8Z" transform="translate(-473.046 -36.129)" fill="#fff"/>
      <path id="Path_2254" data-name="Path 2254" d="M764.3,370.067q-31,0-62-.017a21.393,21.393,0,0,1-5.191-.491,2.139,2.139,0,0,1,.172-4.105,51.157,51.157,0,0,1,6.991-.328q57.027-.019,114.055-.006c1.754,0,3.522.1,5.26-.075,2.93-.3,3.985-1.737,3.879-4.683-.1-2.638-1.727-3.2-3.923-3.181-1.949.017-3.9-.015-5.849-.015q-32.169,0-64.339,0a20.8,20.8,0,0,1-5.219-.3,3.2,3.2,0,0,1-1.661-2.507,3.324,3.324,0,0,1,1.569-2.606,10.957,10.957,0,0,1,4.034-.3q37.725-.017,75.451,0c5.567,0,5.584.05,5.672,5.415.044,2.729.078,5.461,0,8.188-.126,4.52-.456,4.867-5.149,4.956s-9.358.032-14.038.033q-24.857,0-49.716,0Z" transform="translate(-502.139 -106.575)" fill="#fff"/>
      <path id="Path_2255" data-name="Path 2255" d="M689.127,253.18q-33.013,0-66.026,0a17.278,17.278,0,0,1-4.07-.116c-.94-.232-1.707-1.167-2.551-1.789.782-.953,1.409-2.469,2.379-2.736a22.159,22.159,0,0,1,5.8-.357q57.552.023,115.106.077c3.311,0,6.624.072,9.932-.033,1.528-.048,3.274-.058,4.5-.791,1.109-.663,2.325-2.341,2.233-3.469-.084-1.041-1.695-2.408-2.9-2.8-1.6-.516-3.465-.267-5.215-.269-13.245-.02-26.489.013-39.732-.063a25.563,25.563,0,0,1-6.9-.839c-.9-.26-1.392-1.93-2.071-2.959A12.913,12.913,0,0,1,702.3,235.4a9.91,9.91,0,0,1,2.9-.083q25.125-.005,50.25,0c6.352.008,6.515.2,6.611,6.552.035,2.337-.061,4.678.036,7.011.12,2.87-.945,4.45-4.031,4.288-1.553-.081-3.115.014-4.673.014Q721.264,253.183,689.127,253.18Z" transform="translate(-478.226 -71.489)" fill="#fff"/>
      <path id="Path_2256" data-name="Path 2256" d="M735.212,410.1q16.662,0,33.326,0c1.169,0,2.34-.006,3.506.061,2.006.115,3.323.974,3.316,3.211q-.018,5.846,0,11.692c.011,2.522-1.427,3.415-3.719,3.416-4.287,0-8.574.015-12.862.019-13.058.008-26.115.064-39.172-.03-2.1-.015-5.059,1.107-5.684-2.393-.4-2.245,1.336-3.211,5.655-3.212,13.642,0,27.283.044,40.925.05,1.947,0,3.9-.05,5.838-.2a3.074,3.074,0,0,0,3.181-3.414c-.02-2.309-1.194-3.742-3.445-3.953-1.727-.163-3.493.144-5.24.146q-29.526.023-59.052.006c-1.361,0-2.889.245-4.032-.285a4.625,4.625,0,0,1-2.152-2.88c-.117-.5,1.307-1.739,2.22-2.011a14.646,14.646,0,0,1,4.064-.182q16.663-.012,33.326,0Z" transform="translate(-502.122 -124.301)" fill="#fff"/>
      <path id="Path_2257" data-name="Path 2257" d="M707.329,527c13.055,0,26.109-.031,39.163.015,5.184.018,5.355.1,5.255,5.19-.292,14.865,2.472,12.522-12.486,12.648q-16.073.135-32.147.013c-1.956-.012-4.98.879-5.048-2.3-.07-3.278,3-2.368,4.93-2.382,11.3-.078,22.6-.047,33.9-.021,2.492.006,4.8-.164,5.108-3.373.215-2.257-.5-3.863-3.077-3.957-1.556-.058-3.116-.075-4.674-.075q-34.194-.016-68.388-.022c-1.558,0-3.117-.029-4.675-.044-1.679-.017-2.432-.9-2.5-2.543-.073-1.831.527-3.038,2.552-3.093,1.363-.037,2.726-.073,4.089-.074q19-.007,37.993,0Z" transform="translate(-492.183 -159.605)" fill="#fff"/>
      <path id="Path_2258" data-name="Path 2258" d="M698.2,487.184q-14.6,0-29.21,0c-1.362,0-2.879.309-4.038-.191a3.752,3.752,0,0,1-2.028-2.763,3.626,3.626,0,0,1,2.226-2.578,20.1,20.1,0,0,1,5.224-.21q24.828,0,49.656.017c1.751,0,3.508.011,5.254-.1,1.847-.121,3.632-.643,3.739-2.876.114-2.374-.952-4.422-3.428-4.711-3.267-.38-6.6-.223-9.9-.284-2.908-.054-5.818-.073-8.726-.142-1.743-.041-3.345-.667-2.858-2.674a3.711,3.711,0,0,1,2.64-2.293c7.979-.191,15.965-.119,23.948-.13,2.172,0,3.211,1.138,3.225,3.248.026,3.894-.073,7.791.057,11.681.1,3.079-1.317,4.072-4.237,4.019-6.229-.115-12.462-.017-18.694-.011Q704.626,487.188,698.2,487.184Z" transform="translate(-492.254 -141.863)" fill="#fff"/>
      <path id="Path_2259" data-name="Path 2259" d="M841.635,428.485c-10.776-.121-9.463,1.417-9.5-9.717-.028-8.482.105-8.491,8.819-8.6,2.528-.031,5.058-.039,7.584.038a2.676,2.676,0,0,1,2.888,2.943q.021,6.127-.013,12.253c-.01,2.217-1.285,3.088-3.359,3.082C845.914,428.48,843.774,428.485,841.635,428.485Zm3.635-9.271c-.07-2.454-1.194-3.6-3.484-3.56-2.535.047-4.054,1.576-3.888,3.939.175,2.485,1.869,3.125,3.977,3.185C844.3,422.848,845.355,421.562,845.27,419.214Z" transform="translate(-543.352 -124.317)" fill="#fff"/>
      <path id="Path_2260" data-name="Path 2260" d="M781.871,477.855c.184-10.317-1.563-9.646,9.626-9.7,11.435-.052,9.8.393,9.868,9.745.072,9.471.824,9.28-9.071,9.235-2.326-.01-4.653-.057-6.977,0-2.437.066-3.565-1.006-3.463-3.476C781.936,481.733,781.871,479.792,781.871,477.855Zm9.159-3.94c-2.409-.088-3.333,1.281-3.278,3.626.066,2.767,1.187,3.888,3.917,3.821s4.027-1.406,3.843-3.941C795.336,474.992,793.908,473.846,791.03,473.915Z" transform="translate(-528.174 -141.837)" fill="#fff"/>
      <path id="Path_2261" data-name="Path 2261" d="M987.583,59.784c10.793.078,9.263-.711,9.3,9.425.031,9.455,1.249,8.928-9.228,8.948-10.688.02-9.466.073-9.5-8.87C978.122,58.984,977.418,59.864,987.583,59.784Zm3.571,8.942c-.077-2.372-1.293-3.542-3.669-3.323-2.132.2-3.678,1.113-3.675,3.554a3.647,3.647,0,0,0,4.179,3.689C990.486,72.51,991.169,70.9,991.154,68.726Z" transform="translate(-587.457 -18.493)" fill="#fff"/>
      <path id="Path_2262" data-name="Path 2262" d="M948.024,185.907c-.027,10.913.775,9.411-9.229,9.421-9.072.008-9.076-.064-9.166-9.3-.108-10.973-.689-9.534,9.126-9.522C949.195,176.516,947.9,175.316,948.024,185.907Zm-9.391,3.724c2.148.085,3.381-1.149,3.563-3.581.168-2.257-.6-3.775-3.126-3.779-2.088,0-3.845.493-4,3.058C934.917,187.788,936.364,189.54,938.633,189.63Z" transform="translate(-572.796 -53.726)" fill="#fff"/>
      <path id="Path_2263" data-name="Path 2263" d="M865.649,127.519c0,10.53.607,9.222-9.468,9.224-10.016,0-8.812,1.209-8.815-9.085,0-8.94-1.794-9.814,9.91-9.522C866.812,118.375,865.565,118.354,865.649,127.519Zm-5.551.489c.022-2.574-1.764-4.681-3.687-4.671-1.956.01-3.626,2.114-3.532,4.442.087,2.167,1.437,3.009,3.376,3.086C858.433,130.952,859.99,130.165,860.1,128.008Z" transform="translate(-547.932 -36.104)" fill="#fff"/>
      <path id="Path_2264" data-name="Path 2264" d="M811.265,544.875c-10.943-.04-9.332.756-9.387-9.295-.05-9.265-1.064-8.519,8.318-8.6,2.334-.02,4.674.114,7,0,2.907-.149,4.364.86,4.183,4.008-.179,3.1.026,6.226-.052,9.337-.1,4.1-.347,4.3-4.227,4.546-.194.012-.389.007-.583.007Zm.38-12.059c-2.714-.032-3.895.9-3.931,3.1-.041,2.523,1.385,4.08,3.812,4.159,2.361.078,3.923-1.5,3.94-4C815.483,533.484,813.84,532.824,811.645,532.817Z" transform="translate(-534.206 -159.599)" fill="#fff"/>
      <path id="Path_2265" data-name="Path 2265" d="M968.563,302.482c-.029,10.384.849,9.6-9.328,9.547-9.372-.054-8.544,1.09-8.489-8.4.074-12.693-1.511-10.626,10.84-10.842.974-.017,1.949.042,2.923.017,2.631-.068,4.015,1.177,4.049,3.828C968.583,298.584,968.563,300.533,968.563,302.482Zm-4.851.056c.018-2.515-1.394-4.027-3.821-4.094-2.319-.064-3.732,1.423-3.834,4.088-.091,2.394,1.205,3.539,3.484,3.662C962.1,306.333,963.7,304.906,963.712,302.538Z" transform="translate(-579.175 -88.868)" fill="#fff"/>
      <path id="Path_2266" data-name="Path 2266" d="M863.163,253.209c-10.124-.1-9.132,1-9.144-8.96-.012-9.937-.976-8.92,9.168-8.9s9.129-1.109,9.131,8.922C872.32,254.246,873.305,253.078,863.163,253.209Zm3.645-7.989c-.216-3.2-1.9-4.661-3.968-4.346-2.175.332-3.648,1.412-3.319,3.874.3,2.229,1.725,3.846,3.881,3.294C864.884,247.664,866.015,245.918,866.808,245.22Z" transform="translate(-549.963 -71.509)" fill="#fff"/>
      <path id="Path_2267" data-name="Path 2267" d="M928.35,128.088c-.014,9.811.859,8.662-8.724,8.661-10.039,0-9.161,1.121-9.122-8.9.04-10.243-1.522-9.677,9.64-9.669,9.306.006,8.193-.094,8.206,8.159Q928.351,127.216,928.35,128.088Zm-5.3-.233c-.6-1.977-.654-4.422-3.526-4.629-1.979-.143-4.262,2.586-4.045,4.866.246,2.58,2.2,2.939,4.257,2.864C921.644,130.887,923.192,130.258,923.046,127.855Z" transform="translate(-567.016 -36.13)" fill="#fff"/>
    </g>
  </g>
</svg>
