<svg xmlns="http://www.w3.org/2000/svg" width="18.206" height="17.359" viewBox="0 0 18.206 17.359">
  <g id="Group_1669" data-name="Group 1669" transform="translate(0 0)">
    <path id="Path_1" data-name="Path 1" d="M564.846,27.2c.082-.484.177-1.048.274-1.612.22-1.277.444-2.554.657-3.832a.322.322,0,0,0-.093-.239q-1.585-1.552-3.179-3.094c-.229-.222-.459-.443-.685-.668a1.113,1.113,0,0,1-.148-.187.481.481,0,0,1,.3-.8c.38-.087.771-.129,1.158-.185,1.456-.208,2.912-.412,4.367-.627a.345.345,0,0,0,.215-.171c.778-1.554,1.547-3.112,2.32-4.668a2.256,2.256,0,0,1,.243-.409.45.45,0,0,1,.732-.019,1.553,1.553,0,0,1,.223.345q1.159,2.347,2.308,4.7a.39.39,0,0,0,.339.244c1.758.243,3.515.5,5.272.746l.043.008c.228.057.464.112.543.374a.608.608,0,0,1-.231.618c-.337.339-.683.67-1.026,1-.957.929-1.916,1.855-2.867,2.79a.365.365,0,0,0-.088.278c.3,1.771.6,3.54.907,5.31a1.122,1.122,0,0,1,.017.173.507.507,0,0,1-.783.512c-.52-.255-1.028-.535-1.54-.8-1.1-.576-2.192-1.151-3.285-1.734a.369.369,0,0,0-.394,0q-2.32,1.236-4.646,2.459a2.083,2.083,0,0,1-.2.094C565.156,27.982,564.839,27.763,564.846,27.2Z" transform="translate(-561.555 -10.504)" fill="#d9d9d9"/>
  </g>
</svg>
