<svg xmlns="http://www.w3.org/2000/svg" width="50.317" height="45.814" viewBox="0 0 50.317 45.814">
  <g id="Group_1763" data-name="Group 1763" transform="translate(-461.427 -137.439)">
    <path id="Path_1" data-name="Path 1" d="M476.788,163.162c.234,1.5.455,2.936.691,4.371.014.082.14.168.233.208a.747.747,0,0,0,.28.008q12.486,0,24.973,0a6.48,6.48,0,0,1,1.188.093,1.751,1.751,0,0,1,1.543,1.692,3.453,3.453,0,0,1-.3,1.778,1.562,1.562,0,0,1-1.264.965,5.29,5.29,0,0,1-.783.05c-8.754,0-17.508-.02-26.262.02a3.65,3.65,0,0,1-3.823-2.551,15.85,15.85,0,0,1-.951-3.575q-2-10.529-4-21.057c-.1-.5-.2-1.007-.283-1.514-.04-.258-.127-.364-.415-.358-1.037.02-2.079-.041-3.113.019a2.707,2.707,0,0,1-2.81-2.008,3.92,3.92,0,0,1-.211-2.072,2.123,2.123,0,0,1,1.978-1.768c.7-.042,1.4-.025,2.106-.024,1.3,0,2.6-.014,3.9.019a2.756,2.756,0,0,1,2.825,2.192c.292,1.131.442,2.3.649,3.452.089.495.182.991.233,1.49.026.259.137.295.359.294,1.971-.008,3.942-.006,5.913-.006q14.232,0,28.464,0a8.025,8.025,0,0,1,1.958.215,2.211,2.211,0,0,1,1.846,1.87,3.375,3.375,0,0,1-.143,1.483q-2.053,5.957-4.176,11.89a4.557,4.557,0,0,1-1.226,1.916,3.578,3.578,0,0,1-2.235.888c-.24.015-.482.015-.723.015H476.788ZM474.322,149.3a2.536,2.536,0,0,0,.02.26q.842,4.35,1.682,8.7c.044.229.141.274.354.274q13.018.018,26.037.054a.422.422,0,0,0,.47-.329q1.6-4.267,3.213-8.528c.036-.1.067-.192.114-.325Z" fill="#616161"/>
    <path id="Path_2" data-name="Path 2" d="M658.531,723.468a4.785,4.785,0,0,1-4.779-4.753,4.77,4.77,0,0,1,9.539.047A4.789,4.789,0,0,1,658.531,723.468Z" transform="translate(-180.227 -540.323)" fill="#616161"/>
    <path id="Path_3" data-name="Path 3" d="M996.577,715.776a4.7,4.7,0,0,1,4.781,4.689,4.771,4.771,0,0,1-9.541-.014A4.7,4.7,0,0,1,996.577,715.776Z" transform="translate(-497.024 -541.956)" fill="#616161"/>
  </g>
</svg>
