<svg xmlns="http://www.w3.org/2000/svg" width="40.742" height="36.629" viewBox="0 0 40.742 36.629">
  <g id="Group_1765" data-name="Group 1765" transform="translate(-822.8 -389.233)">
    <path id="Path_1" data-name="Path 1" d="M850.173,425.862c-.587-.538-1.153-1.055-1.718-1.574q-6.992-6.431-13.98-12.866a14.045,14.045,0,0,1-4.327-7.055,12.738,12.738,0,0,1,4.865-13.246,10.678,10.678,0,0,1,13.706,1.333c.481.492.944,1,1.515,1.609.145-.193.256-.373.4-.525a15.042,15.042,0,0,1,3.028-2.687,10.7,10.7,0,0,1,13.991,2.4,12.664,12.664,0,0,1,2.89,8.4,12.23,12.23,0,0,1-3.44,8.467c-1.606,1.674-3.333,3.234-5.037,4.811q-5.729,5.3-11.49,10.572C850.447,425.623,850.318,425.734,850.173,425.862Zm-.009-29.234c-.142-.15-.244-.255-.342-.361-.792-.859-1.565-1.737-2.377-2.576a8.788,8.788,0,0,0-11.81-.821,10.6,10.6,0,0,0-3.829,10.79,11.574,11.574,0,0,0,3.855,6.452q7.08,6.543,14.2,13.039c.1.094.214.18.322.271.105-.091.177-.15.245-.213,2.935-2.694,5.878-5.379,8.8-8.085,2.182-2.02,4.418-3.99,6.491-6.118a10.985,10.985,0,0,0,.958-14.119,8.93,8.93,0,0,0-14.083-.846C851.809,394.9,851,395.74,850.164,396.628Z" transform="translate(-7)" fill="#616161"/>
  </g>
</svg>
