<svg xmlns="http://www.w3.org/2000/svg" width="18" height="18" viewBox="0 0 18 18">
  <path id="globe-alt" d="M12,21a9,9,0,1,0-9-9A9,9,0,0,0,12,21Zm2.806-2.585a7,7,0,0,0,4.175-5.89A11.53,11.53,0,0,1,15.937,13.6,14.806,14.806,0,0,1,14.806,18.415ZM9.194,5.585a7.016,7.016,0,0,0-3.972,4.659A4.4,4.4,0,0,0,6.448,11a9.928,9.928,0,0,0,1.557.529A15.73,15.73,0,0,1,9.194,5.585Zm.906,8.326a12.451,12.451,0,0,0,.9,3.641,4.123,4.123,0,0,0,.823,1.292.983.983,0,0,0,.178.141.983.983,0,0,0,.178-.141A4.123,4.123,0,0,0,13,17.552a12.451,12.451,0,0,0,.9-3.641c-.612.058-1.248.089-1.9.089S10.713,13.969,10.1,13.911ZM8.063,13.6a14.806,14.806,0,0,0,1.132,4.817,7,7,0,0,1-4.175-5.89A11.53,11.53,0,0,0,8.063,13.6ZM14,11.89A17.837,17.837,0,0,1,12,12a17.838,17.838,0,0,1-2-.11,14.106,14.106,0,0,1,1-5.441,4.124,4.124,0,0,1,.823-1.292A.988.988,0,0,1,12,5.015a.988.988,0,0,1,.178.141A4.124,4.124,0,0,1,13,6.448,14.106,14.106,0,0,1,14,11.89Zm1.995-.36a15.729,15.729,0,0,0-1.189-5.945,7.016,7.016,0,0,1,3.972,4.659A4.394,4.394,0,0,1,17.552,11,9.925,9.925,0,0,1,15.995,11.53Z" transform="translate(-3 -3)" fill="#fff" fill-rule="evenodd"/>
</svg>
