<svg xmlns="http://www.w3.org/2000/svg" width="92.035" height="92.064" viewBox="0 0 92.035 92.064">
  <g id="hand" transform="translate(-0.501)">
    <path id="Path_19" data-name="Path 19" d="M221.794,333.263a1.8,1.8,0,1,0-2.543,0A1.8,1.8,0,0,0,221.794,333.263Zm0,0" transform="translate(-178.984 -270.821)"/>
    <path id="Path_20" data-name="Path 20" d="M188.449,19.774A19.774,19.774,0,1,0,208.223,0,19.8,19.8,0,0,0,188.449,19.774Zm35.953,0A16.179,16.179,0,1,1,208.223,3.6,16.2,16.2,0,0,1,224.4,19.774Zm0,0" transform="translate(-154.153)"/>
    <path id="Path_21" data-name="Path 21" d="M21.207,265.673a1.8,1.8,0,0,0,2.537.015l8.715-8.586a5.432,5.432,0,0,0,1.28-5.578l1.875-1.808a5.361,5.361,0,0,1,3.743-1.512h23.9a16.1,16.1,0,0,0,11.285-4.584c.125-.122-.949,1.143,16.3-19.476A7.191,7.191,0,0,0,79.9,214.81l-10.607,10.9a7.224,7.224,0,0,0-5.589-2.676H43.658a23.192,23.192,0,0,0-9-1.8c-8.656,0-16.215,4-20.271,11.494a5.37,5.37,0,0,0-4.808,1.49L1.026,242.8a1.8,1.8,0,0,0,0,2.536Zm13.449-40.839a19.623,19.623,0,0,1,7.914,1.647,1.8,1.8,0,0,0,.721.151H63.7a3.6,3.6,0,1,1,0,7.19H49.037a1.8,1.8,0,0,0,0,3.595H63.7a7.179,7.179,0,0,0,7.127-8.13c10.261-10.548,11.708-12.03,11.77-12.1a3.6,3.6,0,1,1,5.49,4.646L71.967,241.1a12.517,12.517,0,0,1-8.713,3.5h-23.9a8.937,8.937,0,0,0-6.24,2.52L31.589,248.6,17.506,234.521c3.291-6.175,9.468-9.687,17.15-9.687ZM12.121,236.764a1.793,1.793,0,0,1,2.226-.253c.311.19-.582-.624,15.57,15.506a1.8,1.8,0,0,1,.01,2.534l-7.43,7.32-17.663-17.8Zm0,0" transform="translate(0 -174.141)"/>
    <path id="Path_22" data-name="Path 22" d="M269.5,41.786v2.106a5.393,5.393,0,0,0,1.8,10.477,1.8,1.8,0,1,1,0,3.595,3.251,3.251,0,0,1-2.334-1.36,1.8,1.8,0,0,0-2.752,2.314,7.456,7.456,0,0,0,3.289,2.341v2.1a1.8,1.8,0,0,0,3.595,0V61.251a5.393,5.393,0,0,0-1.8-10.477,1.8,1.8,0,0,1,0-3.6,2.886,2.886,0,0,1,1.944.94,1.8,1.8,0,1,0,2.5-2.583,6.945,6.945,0,0,0-2.647-1.655V41.786a1.8,1.8,0,1,0-3.595,0Zm0,0" transform="translate(-217.584 -32.798)"/>
  </g>
</svg>
