<svg xmlns="http://www.w3.org/2000/svg" width="97" height="66" viewBox="0 0 97 66">
  <g id="paypal-light-large" transform="translate(0 -0.355)">
    <rect id="card_bg" width="97" height="66" rx="4" transform="translate(0 0.355)" fill="#dfe3e8"/>
    <g id="paypal" transform="translate(31.55 12.593)">
      <path id="Path" d="M8.252,37.427l.7-4.417H0L5.14.361A.422.422,0,0,1,5.281.1.482.482,0,0,1,5.562,0H18.031c4.156,0,7.008.863,8.513,2.57A5.522,5.522,0,0,1,27.89,5.12a8.875,8.875,0,0,1,0,3.514v1l.7.4A5,5,0,0,1,30.018,11.1a5.2,5.2,0,0,1,1.145,2.59A11.505,11.505,0,0,1,31,17.429a13.011,13.011,0,0,1-1.546,4.237,8.634,8.634,0,0,1-2.43,2.671A10.16,10.16,0,0,1,23.753,25.8a15.882,15.882,0,0,1-4.016.482h-.984a2.952,2.952,0,0,0-1.887.683,2.851,2.851,0,0,0-.984,1.767v.4l-1.225,7.791v.3a.3.3,0,0,1,0,.161h-.12Z" transform="translate(1.418 1.365)" fill="#253d80"/>
      <path id="Path-2" data-name="Path" d="M22.439,0l-.12.743C20.672,9.176,15.03,12.108,7.841,12.108H4.187A1.787,1.787,0,0,0,2.42,13.614L.553,25.5.011,28.874a.944.944,0,0,0,.924,1.084H7.44a1.566,1.566,0,0,0,1.546-1.325v-.321l1.225-7.771v-.422a1.546,1.546,0,0,1,1.526-1.325H12.8c6.285,0,11.224-2.55,12.65-10.039a8.513,8.513,0,0,0-1.285-7.489A6.486,6.486,0,0,0,22.439,0Z" transform="translate(8.234 10.2)" fill="#189bd7"/>
      <path id="Path-3" data-name="Path" d="M18.151.584l-.763-.2L16.545.222A20.2,20.2,0,0,0,13.332,0h-9.8a1.446,1.446,0,0,0-.663.141,1.526,1.526,0,0,0-.863,1.165L0,14.5v.382a1.787,1.787,0,0,1,1.767-1.506H5.421c7.188,0,12.83-2.932,14.477-11.365l.12-.743A9,9,0,0,0,18.673.7Z" transform="translate(10.794 8.934)" fill="#242e65"/>
      <path id="Path-4" data-name="Path" d="M12.8,10.24a1.526,1.526,0,0,1,.863-1.165,1.446,1.446,0,0,1,.663-.141h9.8a20.2,20.2,0,0,1,3.213.221l.843.161.763.2.382.12a9,9,0,0,1,1.345.562,8.032,8.032,0,0,0-1.606-7.168C27.058.9,23.765,0,19.468,0H6.979A1.787,1.787,0,0,0,5.212,1.506l-5.2,32.95A1.084,1.084,0,0,0,1.076,35.7h7.71l2.008-12.268Z" transform="translate(0 0)" fill="#253d80"/>
    </g>
  </g>
</svg>
