<svg xmlns="http://www.w3.org/2000/svg" width="28.92" height="28.973" viewBox="0 0 28.92 28.973">
  <path id="phone" d="M28.529,21.818V25.8a2.657,2.657,0,0,1-2.9,2.657A26.287,26.287,0,0,1,14.17,24.382a25.9,25.9,0,0,1-7.97-7.97A26.287,26.287,0,0,1,2.123,4.9,2.657,2.657,0,0,1,4.766,2H8.751a2.657,2.657,0,0,1,2.657,2.285,17.055,17.055,0,0,0,.93,3.732,2.657,2.657,0,0,1-.6,2.8l-1.687,1.687a21.253,21.253,0,0,0,7.97,7.97l1.687-1.687a2.657,2.657,0,0,1,2.8-.6,17.055,17.055,0,0,0,3.732.93,2.657,2.657,0,0,1,2.285,2.7Z" transform="translate(-0.861 -0.75)" fill="none" stroke="#434343" stroke-linecap="square" stroke-width="2.5"/>
</svg>
