<svg id="settings" xmlns="http://www.w3.org/2000/svg" width="98.162" height="98.162" viewBox="0 0 98.162 98.162">
  <g id="Group_23" data-name="Group 23">
    <g id="Group_22" data-name="Group 22">
      <path id="Path_26" data-name="Path 26" d="M93.786,39.6c-1.846-.276-3.741-.542-5.633-.788a.557.557,0,0,1-.473-.4,39.841,39.841,0,0,0-3.765-9.086.559.559,0,0,1,.052-.618c1.163-1.512,2.316-3.04,3.427-4.542a5.175,5.175,0,0,0-.506-6.694l-6.205-6.205a5.175,5.175,0,0,0-6.695-.506c-1.5,1.109-3.027,2.262-4.542,3.427a.559.559,0,0,1-.618.053,39.842,39.842,0,0,0-9.086-3.765.557.557,0,0,1-.4-.473c-.247-1.894-.512-3.789-.788-5.632A5.175,5.175,0,0,0,53.469,0H44.693A5.174,5.174,0,0,0,39.6,4.376c-.276,1.843-.541,3.738-.788,5.633a.557.557,0,0,1-.4.473,39.855,39.855,0,0,0-9.085,3.765.561.561,0,0,1-.618-.053c-1.515-1.165-3.043-2.319-4.542-3.427a5.175,5.175,0,0,0-6.694.506l-6.205,6.205a5.174,5.174,0,0,0-.506,6.695c1.113,1.5,2.266,3.032,3.427,4.542a.56.56,0,0,1,.053.618,39.845,39.845,0,0,0-3.765,9.086.557.557,0,0,1-.473.4c-1.89.247-3.785.512-5.632.788A5.174,5.174,0,0,0,0,44.693v8.776A5.174,5.174,0,0,0,4.376,58.56c1.847.276,3.742.541,5.633.788a.557.557,0,0,1,.473.4,39.846,39.846,0,0,0,3.765,9.086.56.56,0,0,1-.053.618c-1.164,1.513-2.317,3.041-3.427,4.542a5.175,5.175,0,0,0,.506,6.695l6.205,6.205a5.174,5.174,0,0,0,6.695.506c1.5-1.109,3.027-2.262,4.542-3.427a.56.56,0,0,1,.618-.053,39.849,39.849,0,0,0,9.086,3.765.557.557,0,0,1,.4.473c.247,1.894.512,3.789.788,5.632a5.174,5.174,0,0,0,5.091,4.376h8.776a5.174,5.174,0,0,0,5.091-4.376c.276-1.845.541-3.74.788-5.632a.557.557,0,0,1,.4-.473,39.86,39.86,0,0,0,9.085-3.765.562.562,0,0,1,.618.053c1.515,1.165,3.043,2.319,4.542,3.427a5.175,5.175,0,0,0,6.695-.506l6.205-6.205a5.175,5.175,0,0,0,.506-6.695c-1.111-1.5-2.264-3.03-3.427-4.542a.559.559,0,0,1-.052-.618,39.849,39.849,0,0,0,3.765-9.085.558.558,0,0,1,.473-.4c1.891-.247,3.786-.512,5.632-.788a5.174,5.174,0,0,0,4.376-5.091V44.692A5.174,5.174,0,0,0,93.786,39.6Zm-.208,13.868a.563.563,0,0,1-.47.558c-1.818.272-3.684.533-5.547.776a5.131,5.131,0,0,0-4.3,3.723,35.267,35.267,0,0,1-3.331,8.039,5.134,5.134,0,0,0,.4,5.677c1.146,1.489,2.281,2.994,3.375,4.473a.563.563,0,0,1-.062.727l-6.206,6.205a.563.563,0,0,1-.727.062c-1.476-1.092-2.981-2.227-4.473-3.375a5.133,5.133,0,0,0-5.677-.405,35.274,35.274,0,0,1-8.04,3.332,5.132,5.132,0,0,0-3.723,4.3c-.243,1.864-.5,3.73-.776,5.547a.563.563,0,0,1-.558.47H44.693a.563.563,0,0,1-.558-.47c-.271-1.815-.533-3.681-.776-5.547a5.131,5.131,0,0,0-3.723-4.3A35.258,35.258,0,0,1,31.6,79.93a5.131,5.131,0,0,0-5.677.406c-1.492,1.148-3,2.283-4.473,3.375a.563.563,0,0,1-.727-.062l-6.206-6.205a.562.562,0,0,1-.062-.727c1.093-1.478,2.228-2.982,3.375-4.473a5.134,5.134,0,0,0,.405-5.677,35.264,35.264,0,0,1-3.332-8.04A5.131,5.131,0,0,0,10.6,54.8c-1.862-.243-3.728-.5-5.547-.776a.563.563,0,0,1-.47-.558V44.694a.563.563,0,0,1,.47-.558c1.819-.272,3.685-.533,5.547-.776a5.13,5.13,0,0,0,4.3-3.723,35.25,35.25,0,0,1,3.332-8.04,5.134,5.134,0,0,0-.405-5.677c-1.144-1.487-2.279-2.992-3.375-4.473a.563.563,0,0,1,.062-.727l6.205-6.206a.563.563,0,0,1,.727-.062c1.476,1.092,2.981,2.227,4.473,3.375a5.134,5.134,0,0,0,5.677.4A35.263,35.263,0,0,1,39.636,14.9a5.131,5.131,0,0,0,3.724-4.3c.243-1.866.5-3.732.776-5.547a.563.563,0,0,1,.558-.47h8.776a.563.563,0,0,1,.558.47c.272,1.815.533,3.681.776,5.547a5.131,5.131,0,0,0,3.723,4.3,35.277,35.277,0,0,1,8.04,3.332,5.134,5.134,0,0,0,5.677-.405c1.492-1.148,3-2.283,4.473-3.375a.562.562,0,0,1,.727.062l6.205,6.205a.563.563,0,0,1,.062.727c-1.094,1.479-2.229,2.984-3.375,4.473a5.134,5.134,0,0,0-.4,5.677,35.263,35.263,0,0,1,3.332,8.04,5.131,5.131,0,0,0,4.3,3.723c1.863.243,3.729.5,5.547.776a.563.563,0,0,1,.47.558v8.776Z"/>
    </g>
  </g>
  <g id="Group_25" data-name="Group 25" transform="translate(27.774 27.774)">
    <g id="Group_24" data-name="Group 24">
      <path id="Path_27" data-name="Path 27" d="M166.173,144.866a21.307,21.307,0,1,0,21.307,21.307A21.331,21.331,0,0,0,166.173,144.866Zm0,38.03A16.723,16.723,0,1,1,182.9,166.173,16.742,16.742,0,0,1,166.173,182.9Z" transform="translate(-144.866 -144.866)"/>
    </g>
  </g>
</svg>
