<svg xmlns="http://www.w3.org/2000/svg" width="97" height="66" viewBox="0 0 97 66">
  <g id="visa-light-large" transform="translate(0 -0.355)">
    <rect id="card_bg" width="97" height="66" rx="4" transform="translate(0 0.355)" fill="#dfe3e8"/>
    <path id="visa-logo" d="M34.162,19.116a14.311,14.311,0,0,1-5.228-.985l.864-4.015a10.077,10.077,0,0,0,4.772,1.206H34.7c1.429-.021,2.871-.593,2.871-1.827.019-.786-.655-1.412-2.49-2.309-1.8-.881-4.2-2.362-4.2-5.04,0-3.618,3.3-6.144,8.031-6.144a12.878,12.878,0,0,1,4.5.824l-.842,4.015a9.06,9.06,0,0,0-3.855-.868c-.294,0-.592.015-.885.044-1.387.184-2.008.909-2.008,1.547,0,.778.995,1.3,2.254,1.959,2,1.046,4.485,2.349,4.472,5.411l.1-.161c-.02,3.855-3.308,6.345-8.372,6.345Zm13.305-.16H42.407L49.616,1.747A2.182,2.182,0,0,1,51.624.381h4.015l3.894,18.571-4.456,0-.582-2.77H48.45l-.983,2.77ZM52.245,5.4l-2.53,6.966h4ZM25.5,18.9h-4.82L24.7.322h4.818L25.5,18.894Zm-10.541-.061H9.719L5.884,4A2.019,2.019,0,0,0,4.738,2.369,19.912,19.912,0,0,0,0,.8L.121.26H8.293a2.245,2.245,0,0,1,2.228,1.888L12.529,12.89l5-12.63H22.75L14.96,18.832Z" transform="translate(18.635 23.094)" fill="#2a2a6c"/>
  </g>
</svg>
