<svg xmlns="http://www.w3.org/2000/svg" xmlns:xlink="http://www.w3.org/1999/xlink" width="53" height="54" viewBox="0 0 53 54">
  <defs>
    <filter id="Oval" x="0" y="0" width="53" height="54" filterUnits="userSpaceOnUse">
      <feOffset dy="4" input="SourceAlpha"/>
      <feGaussianBlur stdDeviation="4" result="blur"/>
      <feFlood flood-opacity="0.102"/>
      <feComposite operator="in" in2="blur"/>
      <feComposite in="SourceGraphic"/>
    </filter>
  </defs>
  <g id="Instagram" transform="translate(11.658 8.225)">
    <g transform="matrix(1, 0, 0, 1, -11.66, -8.23)" filter="url(#Oval)">
      <ellipse id="Oval-2" data-name="Oval" cx="14.5" cy="15" rx="14.5" ry="15" transform="translate(12 8)" fill="#f1f1f1"/>
    </g>
    <path id="Instagram-2" data-name="Instagram" d="M8.833,12.581H3.748A3.752,3.752,0,0,1,0,8.833V3.748A3.752,3.752,0,0,1,3.748,0H8.833a3.752,3.752,0,0,1,3.748,3.748V8.833A3.752,3.752,0,0,1,8.833,12.581ZM3.748,1.266A2.485,2.485,0,0,0,1.266,3.748V8.833a2.485,2.485,0,0,0,2.482,2.482H8.833a2.485,2.485,0,0,0,2.482-2.482V3.748A2.485,2.485,0,0,0,8.833,1.266ZM6.291,9.544A3.254,3.254,0,1,1,9.545,6.291,3.258,3.258,0,0,1,6.291,9.544Zm0-5.242A1.988,1.988,0,1,0,8.279,6.291,1.99,1.99,0,0,0,6.291,4.3Zm3.26-.462a.78.78,0,1,1,.78-.78A.781.781,0,0,1,9.551,3.841Z" transform="translate(8.484 8.484)" fill="#061095"/>
  </g>
</svg>
