<svg id="mail" xmlns="http://www.w3.org/2000/svg" width="25" height="18" viewBox="0 0 25 18">
  <path id="mail-2" data-name="mail" d="M3.014,6.095A1.328,1.328,0,0,1,4.4,4.838H26.611A1.328,1.328,0,0,1,28,6.095v14.23a2.655,2.655,0,0,1-2.778,2.513H5.778A2.655,2.655,0,0,1,3,20.325V6.5a1.148,1.148,0,0,1,.014-.176ZM5.778,8.889V20.325H25.222V8.889l-6.776,6.13a4.483,4.483,0,0,1-5.893,0ZM7.962,7.31H23.039l-6.557,5.932a1.494,1.494,0,0,1-1.964,0Z" transform="translate(-3 -4.838)" fill="#fff" fill-rule="evenodd"/>
</svg>
