<svg xmlns="http://www.w3.org/2000/svg" width="198" height="198" viewBox="0 0 198 198">
  <g id="Group_1534" data-name="Group 1534" transform="translate(-862 -909)">
    <circle id="Ellipse_19" data-name="Ellipse 19" cx="99" cy="99" r="99" transform="translate(862 909)" fill="#061095"/>
    <g id="Group_1262" data-name="Group 1262" transform="translate(-747.756 755.123)">
      <path id="Path_2035" data-name="Path 2035" d="M1737.28,218.331c-2.57-1.838-4.94-3.77-7.527-5.346-27.993-17.049-64.445-.487-70.078,31.8a46.57,46.57,0,0,0,91.612,16.768,45.594,45.594,0,0,0,.027-17.439c-.147-.768.066-1.037.75-1.3a21.813,21.813,0,0,1,9.408-1.371c.638.041.861.3.957.914,3.414,21.9-3.086,40.391-19.973,54.652-29.624,25.016-75.257,13.693-90.222-22.073-13.19-31.524,3.843-67.849,36.7-77.453,20.161-5.893,38.507-1.715,54.687,11.758a1.1,1.1,0,0,1,.323,1.648A20.7,20.7,0,0,1,1737.28,218.331Z" transform="translate(0 0)" fill="#fff"/>
      <path id="Path_2036" data-name="Path 2036" d="M1797.984,296.468c-1.891,1.062-3.751,2.107-5.611,3.15-1.6.9-3.221,1.774-4.806,2.7a1.648,1.648,0,0,1-1.6.13,23.737,23.737,0,1,0,14.847,25.461,1.329,1.329,0,0,1,.5-.868c3.455-1.97,6.932-3.9,10.406-5.839a2.281,2.281,0,0,1,.382-.106,33.805,33.805,0,0,1-2.1,15.875,34.462,34.462,0,0,1-16.756,18.691,34.986,34.986,0,0,1-37.877-58.414C1769.4,286.037,1787.661,288.284,1797.984,296.468Z" transform="translate(-71.694 -71.853)" fill="#fff"/>
      <path id="Path_2037" data-name="Path 2037" d="M1922.713,199.053l-4.63,17.978,17.493,4.937c-.445.274-.686.435-.938.576q-12.148,6.8-24.311,13.581a2.7,2.7,0,0,1-1.685.251,29.065,29.065,0,0,0-19.979,3c-9.065,4.969-18.054,10.076-27.083,15.111a1.159,1.159,0,0,0-.657,1.143,12.336,12.336,0,1,1-5.952-10.72,1.451,1.451,0,0,0,1.7.008c8.776-4.933,17.578-9.819,26.342-14.772a29.364,29.364,0,0,0,13.4-15.795,2.163,2.163,0,0,1,.837-1.08q12.326-6.953,24.685-13.845C1922.117,199.324,1922.31,199.245,1922.713,199.053Z" transform="translate(-143.034 -3.169)" fill="#fff"/>
    </g>
  </g>
</svg>
