<svg id="phone" xmlns="http://www.w3.org/2000/svg" width="18" height="18" viewBox="0 0 18 18">
  <path id="Path_971" data-name="Path 971" d="M22,12A10,10,0,0,0,12,2V4a8,8,0,0,1,8,8Z" transform="translate(-4 -2)" fill="#fff"/>
  <path id="Path_972" data-name="Path 972" d="M2,9.333V4.889A.889.889,0,0,1,2.889,4H7.333a.889.889,0,0,1,.889.889V8.444a.889.889,0,0,1-.889.889H5.556a7.111,7.111,0,0,0,7.111,7.111V14.667a.889.889,0,0,1,.889-.889h3.556a.889.889,0,0,1,.889.889v4.444a.889.889,0,0,1-.889.889H12.667A10.667,10.667,0,0,1,2,9.333Z" transform="translate(-2 -2)" fill="#fff"/>
  <path id="Path_973" data-name="Path 973" d="M17.543,9.7A6,6,0,0,1,18,12H16.2A4.2,4.2,0,0,0,12,7.8V6a6,6,0,0,1,5.543,3.7Z" transform="translate(-3.429 -2.571)" fill="#fff"/>
</svg>
