<svg xmlns="http://www.w3.org/2000/svg" xmlns:xlink="http://www.w3.org/1999/xlink" width="110" height="110" viewBox="0 0 110 110">
  <defs>
    <filter id="Oval" x="-4" y="-1" width="118" height="118" filterUnits="userSpaceOnUse">
      <feOffset dy="3" input="SourceAlpha"/>
      <feGaussianBlur stdDeviation="3" result="blur"/>
      <feFlood flood-opacity="0.161"/>
      <feComposite operator="in" in2="blur"/>
      <feComposite in="SourceGraphic"/>
    </filter>
    <clipPath id="clip-SNAP">
      <rect width="110" height="110"/>
    </clipPath>
  </defs>
  <g id="SNAP" clip-path="url(#clip-SNAP)">
    <rect width="110" height="110" fill="#fff"/>
    <g id="Group_1534" data-name="Group 1534" transform="translate(19414.084 12326.229)">
      <g transform="matrix(1, 0, 0, 1, -19414.08, -12326.23)" filter="url(#Oval)">
        <circle id="Oval-2" data-name="Oval" cx="50" cy="50" r="50" transform="translate(5 5)" fill="#fff"/>
      </g>
      <g id="Snapchat" transform="translate(-19381.738 -12292.563)">
        <path id="Shape" d="M43.569,32.38c-5.641-1-8.165-6.845-8.461-7.537v-.077a1.835,1.835,0,0,1-.223-1.461c.3-.692,1.559-1.154,2.375-1.384a5.006,5.006,0,0,0,.594-.231c1.559-.692,2.375-1.538,2.375-2.538a2.08,2.08,0,0,0-1.484-1.846,2.3,2.3,0,0,0-1.039-.231,2.819,2.819,0,0,0-.965.231,5.45,5.45,0,0,1-1.781.538.912.912,0,0,1-.445-.077A2.454,2.454,0,0,0,34.588,17v-.154c.148-3.153.445-7.076-.594-9.383A12.076,12.076,0,0,0,22.786,0H21.9A11.932,11.932,0,0,0,10.762,7.46c-1.039,2.307-.816,6.23-.594,9.383a3.878,3.878,0,0,1,.074.923c-.148,0-.371.077-.594.077a4.077,4.077,0,0,1-1.93-.538c-1.039-.461-3.043.231-3.266,1.615-.148.769.148,1.846,2.375,2.769a3.37,3.37,0,0,0,.668.231c.742.231,2,.692,2.3,1.384a1.862,1.862,0,0,1-.223,1.461c-.148.231-2.746,6.461-8.61,7.46A1.312,1.312,0,0,0,0,33.533a1.14,1.14,0,0,0,.148.538c.445,1.231,2.375,2,5.864,2.615.074.231.148.692.223.923.074.308.148.692.223,1.077a1.282,1.282,0,0,0,1.336,1,5.628,5.628,0,0,0,1.039-.154,8.833,8.833,0,0,1,2.3-.308,6.516,6.516,0,0,1,1.707.231,7.355,7.355,0,0,1,3.043,1.615,8.593,8.593,0,0,0,5.864,2h.52a11.653,11.653,0,0,0,6.68-2,8.385,8.385,0,0,1,3.043-1.615,11.728,11.728,0,0,1,1.633-.154,10.155,10.155,0,0,1,2.3.231,7.469,7.469,0,0,0,1.113.154,1.281,1.281,0,0,0,1.262-1c.074-.385.148-.692.223-1.077.074-.154.148-.615.223-.846,3.489-.538,5.2-1.384,5.715-2.538a1.466,1.466,0,0,0,.148-.538A1.312,1.312,0,0,0,43.569,32.38Z" transform="translate(0 0)" fill="#061095"/>
        <path id="Path" d="M36.518,33.687c-.891.077-1.039,1-1.262,2-.074.231-.148.538-.223.846a3.294,3.294,0,0,1-.742-.077,12.112,12.112,0,0,0-2.6-.308,16.368,16.368,0,0,0-1.856.154A8.825,8.825,0,0,0,26.2,38.225a9.079,9.079,0,0,1-5.715,1.769h-.371a7.59,7.59,0,0,1-5.047-1.769A8.391,8.391,0,0,0,11.43,36.3a15.1,15.1,0,0,0-1.856-.154,10.5,10.5,0,0,0-2.6.308,3.167,3.167,0,0,1-.742.154l-.223-.923c-.223-1-.371-1.923-1.262-2.077C1.484,33.149.371,32.456,0,32.149c6.086-1.308,8.907-7.46,9.278-8.306A3.489,3.489,0,0,0,9.5,21.15c-.594-1.384-2.227-1.923-3.266-2.23a1.044,1.044,0,0,1-.52-.154c-1.262-.538-1.485-1-1.485-1.077,0-.231.52-.538.965-.538h.223a5.67,5.67,0,0,0,2.524.692A2.544,2.544,0,0,0,9.8,17.151a.71.71,0,0,0,.223-.538c0-.461-.074-.923-.074-1.384-.223-3-.445-6.691.445-8.691A10.476,10.476,0,0,1,20.188,0H21a10.675,10.675,0,0,1,9.872,6.384c.816,2,.594,5.691.445,8.691v.154c0,.461-.074.846-.074,1.231a.892.892,0,0,0,.223.615,2.651,2.651,0,0,0,1.781.692,8.045,8.045,0,0,0,2.375-.692,1.057,1.057,0,0,1,.816.077c.371.154.52.385.52.461,0,.154-.3.615-1.484,1.077a5.006,5.006,0,0,1-.594.231c-.965.308-2.6.846-3.192,2.23a3.191,3.191,0,0,0,.223,2.692c.3.769,3.043,7.076,9.2,8.383C40.748,32.533,39.709,33.149,36.518,33.687Z" transform="translate(1.781 1.538)" fill="#061095"/>
      </g>
    </g>
  </g>
</svg>
