<svg xmlns="http://www.w3.org/2000/svg" xmlns:xlink="http://www.w3.org/1999/xlink" width="47.55" height="47.55" viewBox="0 0 47.55 47.55">
  <defs>
    <filter id="Oval" x="0" y="0" width="47.55" height="47.55" filterUnits="userSpaceOnUse">
      <feOffset dy="3" input="SourceAlpha"/>
      <feGaussianBlur stdDeviation="3" result="blur"/>
      <feFlood flood-opacity="0.161"/>
      <feComposite operator="in" in2="blur"/>
      <feComposite in="SourceGraphic"/>
    </filter>
  </defs>
  <g id="Snapchat" transform="translate(9 6)">
    <g transform="matrix(1, 0, 0, 1, -9, -6)" filter="url(#Oval)">
      <circle id="Oval-2" data-name="Oval" cx="14.775" cy="14.775" r="14.775" transform="translate(9 6)" fill="#f1f1f1"/>
    </g>
    <g id="Snapchat-2" data-name="Snapchat" transform="translate(8.11 8.5)">
      <path id="Shape" d="M12.816,9.525a3.707,3.707,0,0,1-2.489-2.217V7.285a.54.54,0,0,1-.065-.43c.087-.2.458-.339.7-.407a1.472,1.472,0,0,0,.175-.068c.458-.2.7-.452.7-.747A.612.612,0,0,0,11.4,5.09a.677.677,0,0,0-.306-.068.829.829,0,0,0-.284.068,1.6,1.6,0,0,1-.524.158.268.268,0,0,1-.131-.023A.722.722,0,0,0,10.174,5V4.955A7.04,7.04,0,0,0,10,2.195,3.552,3.552,0,0,0,6.7,0H6.441A3.51,3.51,0,0,0,3.166,2.195a6.651,6.651,0,0,0-.175,2.76,1.141,1.141,0,0,1,.022.271c-.044,0-.109.023-.175.023a1.2,1.2,0,0,1-.568-.158.757.757,0,0,0-.961.475c-.044.226.044.543.7.814a.991.991,0,0,0,.2.068c.218.068.589.2.677.407a.548.548,0,0,1-.065.43A3.831,3.831,0,0,1,.284,9.479.386.386,0,0,0,0,9.864a.335.335,0,0,0,.044.158c.131.362.7.588,1.725.769.022.068.044.2.065.271.022.09.044.2.065.317a.377.377,0,0,0,.393.294,1.655,1.655,0,0,0,.306-.045,2.6,2.6,0,0,1,.677-.09,1.917,1.917,0,0,1,.5.068,2.163,2.163,0,0,1,.9.475,2.528,2.528,0,0,0,1.725.588H6.55a3.428,3.428,0,0,0,1.965-.588,2.466,2.466,0,0,1,.9-.475,3.45,3.45,0,0,1,.48-.045,2.987,2.987,0,0,1,.677.068,2.2,2.2,0,0,0,.327.045.377.377,0,0,0,.371-.294c.022-.113.044-.2.066-.317.022-.045.044-.181.065-.249,1.026-.158,1.528-.407,1.681-.747a.431.431,0,0,0,.044-.158A.386.386,0,0,0,12.816,9.525Z" transform="translate(0 0)" fill="#061095"/>
      <path id="Path" d="M10.742,9.909c-.262.023-.306.294-.371.588-.022.068-.044.158-.065.249a.969.969,0,0,1-.218-.023,3.563,3.563,0,0,0-.764-.09,4.815,4.815,0,0,0-.546.045,2.6,2.6,0,0,0-1.07.566,2.671,2.671,0,0,1-1.681.52H5.917a2.233,2.233,0,0,1-1.485-.52,2.468,2.468,0,0,0-1.07-.566,4.441,4.441,0,0,0-.546-.045,3.087,3.087,0,0,0-.764.09.932.932,0,0,1-.218.045L1.768,10.5C1.7,10.2,1.659,9.932,1.4,9.887A2.876,2.876,0,0,1,0,9.457,4.274,4.274,0,0,0,2.729,7.013a1.026,1.026,0,0,0,.065-.792,1.405,1.405,0,0,0-.961-.656.307.307,0,0,1-.153-.045c-.371-.158-.437-.294-.437-.317,0-.068.153-.158.284-.158h.065a1.668,1.668,0,0,0,.742.2.748.748,0,0,0,.546-.2.209.209,0,0,0,.065-.158c0-.136-.022-.271-.022-.407a6.408,6.408,0,0,1,.131-2.557A3.081,3.081,0,0,1,5.939,0h.24a3.14,3.14,0,0,1,2.9,1.878,7.325,7.325,0,0,1,.131,2.557V4.48c0,.136-.022.249-.022.362a.262.262,0,0,0,.066.181.78.78,0,0,0,.524.2,2.367,2.367,0,0,0,.7-.2.311.311,0,0,1,.24.023c.109.045.153.113.153.136,0,.045-.087.181-.437.317a1.472,1.472,0,0,1-.175.068,1.413,1.413,0,0,0-.939.656.939.939,0,0,0,.066.792A4.166,4.166,0,0,0,12.1,9.479,3,3,0,0,1,10.742,9.909Z" transform="translate(0.524 0.452)" fill="#061095"/>
    </g>
  </g>
</svg>
