<svg xmlns="http://www.w3.org/2000/svg" width="49" height="78.9" viewBox="0 0 49 78.9">
  <g id="Group_1405" data-name="Group 1405" transform="translate(-1826 1)">
    <g id="Group_44" data-name="Group 44" transform="translate(439 -95)">
      <path id="Path_1527" data-name="Path 1527" d="M0,0H49V55.99L24.484,78.9,0,55.99Z" transform="translate(1387 94)" fill="#fde205"/>
    </g>
    <path id="Path_2272" data-name="Path 2272" d="M39.128,12.48a.6.6,0,0,1,.033-.071c-.15-.354-.3-.709-.475-1.055-.042,0-.113.05-.163-.029s-.063-.159-.083-.171a.821.821,0,0,0-.254-.092.772.772,0,0,1-.263-.075s-.012-.117-.046-.121a1.172,1.172,0,0,1-.2-.142,1.876,1.876,0,0,0-.15-.129c-.017-.008,0,.008-.075-.054a.813.813,0,0,1-.15-.15.568.568,0,0,1-.092-.15c0-.033-.058-.113-.054-.171s-.017-.129-.046-.142-.154-.054-.183-.063-.109.029-.142.012-.062-.075-.1-.062-.05-.029-.108,0-.088-.017-.129.012a.84.84,0,0,0-.1.1c-.029.033-.029.021-.058.033s-.012-.075-.1-.008v0c-.092.075-.129.1-.146.134s0-.046-.1.046a1.3,1.3,0,0,1-.271.2c-.037,0-.213-.05-.242-.05s-.113.008-.138-.017-.033-.084-.1-.092-.158-.008-.2-.008-.075-.05-.129-.025-.188.054-.2.083-.125.121-.15.171-.05.038-.025.113a.9.9,0,0,0,.029.1c.017.054.033.1.042.116.008.038.025.029-.012.088a.319.319,0,0,1-.1.108c-.037.029-.05-.075-.133.021a1.194,1.194,0,0,1-.175.159s-.1.025-.133.037-.121.013-.142.033l-.138.088a.607.607,0,0,0-.117.05c-.021.017-.138.071-.138.092s-.067.067-.063.083a2.6,2.6,0,0,1-.121.267c-.021.046-.058.05-.058.1s-.029.063-.021.138a.185.185,0,0,0,.058.125c.038.025.083.025.1.083a.1.1,0,0,1-.017.1,1.314,1.314,0,0,1-.138.075c-.025.017-.042.009-.075.054s-.042.071-.075.117-.067.058-.088.092-.033.017-.054.054-.179.088-.179.088a.354.354,0,0,0-.092.075c-.025.033-.142.146-.142.146-.025.012-.054.025-.083.042s-.054.029-.079.042c0,0-.146-.033-.163-.017a.369.369,0,0,1-.1.037.221.221,0,0,0-.088-.037c-.037,0-.129.025-.163.029a.253.253,0,0,1-.113,0,.143.143,0,0,0-.1,0,.548.548,0,0,1-.221.084c-.021,0-.054.05-.092.083s-.1.088-.117.079-.146-.046-.15-.067-.129-.154-.137-.171,0-.125-.033-.142-.142-.046-.167-.059-.042-.042-.092-.021a.311.311,0,0,1-.063,0,.06.06,0,0,0-.063.017c-.038.038-.012.038-.079.046a.271.271,0,0,1-.1,0l-.125-.046a.129.129,0,0,0-.117,0,.42.42,0,0,1-.1.033s-.058,0-.037-.05.017-.133.046-.171a.324.324,0,0,0,.058-.167.257.257,0,0,0-.029-.121.6.6,0,0,1-.046-.1c-.075-.012-.125,0-.129-.033s.008-.117-.008-.133a.065.065,0,0,1-.029-.067c0-.05-.025-.042.042-.121s.079-.063.092-.142.188-.467.183-.492a.91.91,0,0,1-.012-.15.754.754,0,0,0-.012-.15.228.228,0,0,1-.042-.1.321.321,0,0,1-.008-.142c0-.008,0-.017.008-.025a.454.454,0,0,0,.008-.121c0-.029,0,0-.029-.079s-.037-.092-.062-.1-.063-.033-.05-.071.037-.092.092-.108.142-.058.159-.046a.148.148,0,0,0,.129-.017.9.9,0,0,0,.083-.121c.025-.021.058-.067.113-.063a.189.189,0,0,1,.125.058c.033.033.054.021.079.046s.021.013.1.008a1.188,1.188,0,0,0,.125-.025c.012,0,.234-.05.242-.029s.113.021.121.042.075,0,.129.012a1.527,1.527,0,0,0,.179.038s.046,0,.109-.017.159-.042.159-.042-.017-.021.079,0,.1.046.171.05.15-.046.184-.025.054.012.1.017a.694.694,0,0,1,.134.017c.046.012.029-.021.113-.008s.054.029.108-.025c0,0,.008,0,.017-.013.071-.067.084-.046.1-.108s.088-.367.092-.421a1.5,1.5,0,0,0-.017-.234c.012-.042.025-.079.042-.121a.319.319,0,0,0,.012-.1,1,1,0,0,1-.029-.129c0-.029.021-.075-.05-.083s-.084-.071-.117-.092a.29.29,0,0,1-.092-.1c-.037-.059-.083-.1-.083-.121s.025-.054.021-.079a.1.1,0,0,0-.063-.075c-.029-.009-.012-.071-.067-.071s-.063-.017-.1-.017-.033-.067-.1-.042A.127.127,0,0,1,32.15,8.3c-.025-.025-.063-.071-.083-.067s0-.025-.075-.012-.163.008-.192-.025-.063-.054-.054-.113-.079-.129-.038-.167a.958.958,0,0,1,.175-.137c.021-.009.029.025.1,0s.113.012.138,0a.351.351,0,0,1,.092-.054c.042-.008.046.008.075.017s.071-.029.1.017.037.05.1.063.134-.042.183-.008.092,0,.134.017.109.062.092,0,.017-.154-.037-.167-.054-.1-.071-.137-.017-.071-.042-.1-.067-.062-.012-.071a.81.81,0,0,1,.225.021c.042.021.138.042.158.084s.092.029.125.05.213-.033.229-.016.121.021.129-.029.029-.067.025-.113.046-.075.046-.075a.583.583,0,0,1,.121-.033.621.621,0,0,0,.146-.054l.175-.109a.6.6,0,0,1-.021-.167c.012-.025-.012-.088.038-.121s.158-.134.175-.121.025-.021.067-.008a.174.174,0,0,0,.058-.008.209.209,0,0,0,.1-.054c.017-.017.146-.1.146-.1.033-.029.067-.054.1-.079a1.217,1.217,0,0,0,.171-.079c.013-.009.083-.088.125-.129A20.413,20.413,0,0,0,27,1.105c-.021.021-.029.017-.029.042s.05.037.1.062.046.012.058.033.054.05.054.075a.191.191,0,0,1-.021.1c-.017.025-.017.008-.017.042l-.017.113s-.046.092-.058.109-.046.017-.058.033-.058,0-.042.038.042.033.054.071-.021.05-.05.075-.054,0-.067.025a.233.233,0,0,0-.021.113c-.008.075.025.067.008.117s0-.008-.067.037-.071.021-.079.067.033,0-.008.046-.088,0-.138.025-.113-.025-.075.025.05.046.088.071.071,0,.05.037a.223.223,0,0,1-.071.079c-.017.017-.033-.025-.071-.008s-.05.008-.042.05-.071.059-.071.059,0-.084,0-.084a.347.347,0,0,1-.092-.017c-.009,0,.012-.05-.038-.033a.783.783,0,0,0-.134.071c-.029.021-.067-.021-.063-.05a.5.5,0,0,1,.033-.088c.012,0,.05-.054.012-.046s-.071.033-.083,0,.012-.1.012-.1l-.121.029c-.037,0-.117-.012-.108-.042a.324.324,0,0,1,.042-.075.3.3,0,0,1,.058-.042c.008-.008.063-.088.063-.088,0-.033-.008-.067-.012-.1,0,0-.109.088-.117.092S25.8,2.04,25.8,2.04s0-.033,0-.05,0-.079-.046-.017a.15.15,0,0,0-.042.092c-.012.042-.1.046-.113.05s-.05.008-.058.025a.209.209,0,0,1-.113.058c-.021,0-.1.025-.1,0s.012-.058-.008-.058a.317.317,0,0,0-.079.021c-.021.008-.042.059-.067.079s-.008,0-.054.025,0,.033-.067.012S25,2.248,25,2.248c0-.058-.008-.117-.008-.175a.39.39,0,0,1,.042-.021.13.13,0,0,1,.042-.021s0-.021-.012-.021h-.033V1.948s-.008-.033-.017-.029-.025.029-.025.029a.431.431,0,0,0-.046.038.245.245,0,0,1-.046.021.179.179,0,0,1-.038-.021c-.008,0-.029-.017-.025-.029s0-.017.008-.029l.029-.029c0-.008.013-.029,0-.033s-.021-.033-.033-.038S24.805,1.8,24.8,1.8s-.012-.017-.029-.008-.025,0-.025,0-.008-.029,0-.042a.127.127,0,0,1,.013-.025c0-.008.012-.038,0-.034s-.033,0-.038-.016-.025-.008,0-.025.017-.017.025-.017a.159.159,0,0,0,.046-.021s.017-.025,0-.025-.029-.033-.042-.025-.025,0-.021-.017.079-.058,0-.033a.524.524,0,0,0-.108.05s-.008,0-.012,0a.246.246,0,0,1-.054-.021s-.012-.029-.021-.033-.008-.021,0-.033a.109.109,0,0,0,.017-.042l-.012-.021a.013.013,0,0,0-.017-.008c-.008,0-.008,0-.025,0s0-.017-.021-.025a.152.152,0,0,0-.042,0c-.021,0-.025.008-.038,0a.182.182,0,0,1-.021-.033c-.008,0-.012-.025-.008-.042s.012-.046.012-.046a.161.161,0,0,1,.042-.033l.042-.029c0-.008.025-.05.021-.05l-.021-.042s-.008-.017,0-.025a.152.152,0,0,0,.033-.037c0-.008.017-.046.013-.046s-.046,0-.058.016a.082.082,0,0,1-.092,0,.436.436,0,0,0-.1-.067c.033-.013.054-.025.083-.038a.062.062,0,0,0-.033,0,.15.15,0,0,1-.079-.012.071.071,0,0,1-.05-.017S24.238.8,24.234.8L24.188.759l.029-.042A.313.313,0,0,0,24.238.68s.008-.034-.025-.029-.038-.025-.067,0a.121.121,0,0,1-.071.029s-.008-.021-.021-.029.054-.108.054-.1.012-.021.012-.021A.03.03,0,0,0,24.129.5a.192.192,0,0,1,.054,0c.009,0,.029-.021.033-.012s.012-.008.021-.017S24.271.4,24.271.4a.122.122,0,0,1,.037-.008c-.121-.025-.242-.046-.363-.067a.054.054,0,0,1-.029.012S23.9.325,23.9.313A21.066,21.066,0,0,0,20.317,0c-.146,0-.292.008-.442.012a.391.391,0,0,1-.042.063c-.008.033-.067.084-.088.079S19.716.113,19.708.1s-.05,0-.071-.008-.071,0-.063-.046a.044.044,0,0,0-.008-.025c-.033,0-.067,0-.1.008-.013,0-.021.008-.025,0a.09.09,0,0,0-.037,0c-.255.012-.5.029-.763.05.017-.012,0,.054,0,.071s-.013.113.008.1.054.008.088-.009.025.013.071.029c.017,0,0,.038.025.046s.029.013.058-.008a.521.521,0,0,1,.067-.054c.038-.025.017.029.025.042s.012.05.033.038.05.058.092.063-.021.075-.021.092-.017.067-.033.067-.009.042,0,.05.008.05.033.046.021.038.062.029.021.046.025.079,0,.021,0,.038-.008.058.012.054.021.067.029.058,0,.088,0,.088a.306.306,0,0,1-.029.088c-.012.012-.054.012-.054.012-.025.012-.046.021-.067.033,0,0,0,.042.017.033s.008.071.008.071a.266.266,0,0,1-.05.113c-.012.009-.058-.05-.058-.058s-.038.025-.046.037a.044.044,0,0,0,.025.054.147.147,0,0,1,.029.029s.008.042.029.037.017.046.017.046a.651.651,0,0,0-.054.088c-.008.016.012-.021-.017-.067-.008-.017-.037.008-.037,0a.424.424,0,0,0-.038-.042c0-.017-.008-.037-.013-.054a.09.09,0,0,1-.05-.029c-.012-.017-.063,0-.063,0s.008-.054.008-.067c-.017-.1-.025-.008-.092-.008s-.067.016-.092,0-.075-.05-.071-.092-.088-.021-.088-.021A1.282,1.282,0,0,1,18.3,1.13a1.577,1.577,0,0,1-.2-.108C18.081.988,18.052,1,18.052.984s-.071-.017-.079-.042S17.915.93,17.9.918A.137.137,0,0,0,17.839.9c-.017-.008-.071.029-.071.029a.1.1,0,0,0,.009.054c.012.021.008.037.021.041s.012.029.058.063.017.025.05.05,0,.063.012.071.025.038.213.1.038.05.075.067a.089.089,0,0,1,.037.083.926.926,0,0,0,.229.184c.079.046.025.025.033.046s-.017.067,0,.079,0,.025,0,.063-.012.05-.029.059-.038.017-.054.029-.042-.012-.05-.025a.394.394,0,0,0-.083-.021.46.46,0,0,1-.1-.071c-.029-.037-.05.013-.1.008s-.046-.025-.058-.033a.337.337,0,0,0-.1.012c-.029,0-.029,0-.05-.008s-.042,0-.071-.017-.067,0-.079-.012a.308.308,0,0,0-.121-.025c-.033,0-.058-.025-.079-.067s-.025,0-.046-.029-.058-.017-.063-.029-.037-.025-.033-.042-.046-.012-.1-.083-.054.012-.075.008a.21.21,0,0,0-.063.021s-.029.046-.033.054-.021.025-.033.046-.1.029-.117-.008-.038-.012-.012-.05-.054-.029-.058-.042.012-.017.063-.05-.037-.05-.042-.071-.008-.042-.038-.058-.054.008-.071,0-.058.008-.1-.05c0-.012-.054-.046-.079-.075s-.009-.025.033-.071.054,0,.113-.021a.172.172,0,0,0,.088-.042c.029-.033-.021-.025-.042-.063s-.054-.016-.075-.025-.1,0-.1-.009-.079,0-.1.012-.083.046-.1.038S16.413,1,16.425.968s.042-.025.046-.088c0-.012-.071-.012-.1-.021s-.037,0-.033-.042.109-.012.1-.037-.042,0-.071,0-.058-.017-.1-.079-.017-.017,0-.084S16.25.592,16.25.576s-.088,0-.109-.021-.037,0-.05-.021-.012.025-.029.046S16.008.667,16,.663a.122.122,0,0,1-.021-.092c0-.038-.021-.021-.013-.063s-.008-.033-.021-.042C15.9.48,15.854.488,15.808.5A.045.045,0,0,0,15.829.5c.038,0,.012.05.017.063s-.033.05-.033.05-.075.025-.088.012-.05.021-.075.021-.054.021-.058.009A.374.374,0,0,0,15.516.6a.437.437,0,0,0-.058-.021c-.025,0-.046.021-.054.042A.345.345,0,0,1,15.37.68.307.307,0,0,1,15.3.726a.8.8,0,0,1-.163.033c-.154.021-.038,0-.063-.029-.025,0-.046,0-.071,0a.421.421,0,0,1-.109.033.236.236,0,0,0-.075.021L14.795.751c-.371.1-.738.213-1.1.334.021.1,0,.071-.075.142a.233.233,0,0,1-.246.067A.689.689,0,0,1,13.2,1.26,20.283,20.283,0,0,0,8.1,4c.033-.017.067-.033.1-.05s.042.008.108.029a.267.267,0,0,1,.15.067c.092.063.021.029.029.067s-.021.084.013.133.017.1.025.134a.3.3,0,0,0,.042.137c.042.075.033.067.033.088s-.025.041-.092.1-.05.05-.071.079.05.021.088.021a.551.551,0,0,0,.15-.034.86.86,0,0,0,.2-.083c.067-.029.083,0,.3-.05s.046,0,.1,0,.046.021.088.05.013.067.05.1.054,0,.121-.021.062.029.113.025.037.046.125.079a.647.647,0,0,0,.088.017.879.879,0,0,1,.1.038c.021.017.088.025.1.054s0,.033.117.079.008.063.079.159c.021.029.058.012.1,0s.054-.008.229.037.042.071.125.1c.029.012.029.017.142.008s.05.037.142.2a.848.848,0,0,0,.088-.042c.088-.046.067-.021.154-.029a1.128,1.128,0,0,1,.163-.017c.071,0,.025.054.058.075a.438.438,0,0,0,.209,0c.071-.009.121-.021.171-.029a.214.214,0,0,1,.163.042c.046.033.008,0,0,.046.008.008.012.021.025.038.092.146.025.083.013.117a.245.245,0,0,1-.079.092c-.029.021-.042.1-.05.129s.054.075.054.075c-.009.025-.012.054-.021.083a.2.2,0,0,0,.029.154c.046.05-.008.05-.017.092a.352.352,0,0,1-.033.117c-.029.079-.033.046-.046.071s0,.029.033.059,0,.071.054.075.017.034.062.038.021.037.117.1c.008,0,.012,0,.008,0,.05.037.017.021,0,.008a.448.448,0,0,0-.1.092c-.088.1,0,0,.1,0,.033,0,.042.063.146.088s.012.041.046.062.058.054.092.058,0,.037-.008.109,0,0-.042.062a.414.414,0,0,1-.075.079.287.287,0,0,0-.071.062c.038-.029.075-.029.2-.1a.213.213,0,0,1,.184,0c.062.037.15.2.125.129s-.067-.046-.058-.121,0-.033.075-.1.054-.033.129,0c.025.009.088.042.1.075s.092-.079.113-.117-.017-.058-.079-.125c-.021-.021.012-.046.042-.079s.054-.079.083-.1.071-.008.088-.038-.033-.071-.029-.142-.079-.016-.088-.05a.371.371,0,0,1-.012-.2c.025-.084-.017-.1.012-.167s-.008-.063.042-.117-.054-.071-.067-.109a.282.282,0,0,1-.008-.133c.008-.1.008-.083.021-.1s-.121-.1-.113-.159.012-.054.1-.113.05.046.117.021a1.425,1.425,0,0,1,.184-.025.7.7,0,0,0,.158-.079c.038-.025,0,0,.079-.058s.108-.092.159-.138a1.016,1.016,0,0,1,.242-.125c.125-.058.109-.129.138-.146s.05-.092.05-.092,0-.071-.008-.125a.454.454,0,0,1,.046-.171c.1-.184.046-.134.054-.209s0-.041.008-.083-.017-.042-.025-.1-.058-.092-.079-.167-.067-.067-.063-.1-.134-.008-.209-.083a.488.488,0,0,0-.267-.092c-.058,0,.079-.108.113-.142a.357.357,0,0,0,.058-.088.368.368,0,0,0,.146-.092c.079-.071.063-.071.108-.188.017-.041.121-.029.154-.054s.025-.117.025-.146-.05-.071-.033-.108,0-.054.017-.109-.042-.1-.071-.159-.029-.054,0-.1a1.038,1.038,0,0,1,.063-.113c.033-.046,0-.129.083-.217s0,0-.012-.063A.377.377,0,0,1,14.3,2.09c0-.092-.071-.041-.046-.15s.025-.063.075-.121.121-.041.188-.083a.631.631,0,0,1,.154-.063c.071-.025.071.05.1.075s.058.029.213-.033.05.029.1.033,0,.037.021.092.025.046.1-.012.029.012.071-.012.058,0,.1,0,.029.029.075.075,0,0,.079-.037.063-.033.121-.059a.338.338,0,0,1,.25,0s-.012-.033.142-.046.058.067.121.1.038.075.05.1-.021.1,0,.088.092.021.15.017.05.067.088.079,0,.037,0,.133a.273.273,0,0,0,.042.092.263.263,0,0,1,.154.054.218.218,0,0,0,.071.012,1.68,1.68,0,0,0,.167-.038c.025-.008-.058.079.05.071s.088-.046.146-.046.029.008.125.033a.61.61,0,0,1-.154.217c-.142.154-.025.088-.033.133s.025.037.008.125-.058.1-.063.125a.612.612,0,0,1,0,.1c0,.058.067.033.067.2s.021-.071.033.05c0,.046,0,.062,0,.067s0-.008-.012,0c-.012.042-.042.021-.083.038s-.063-.013-.117-.029-.042.1.05.171,0,0,.113-.067a.98.98,0,0,1,.3-.1c.088,0,0,0,.046.046s0,.154.029.163-.029.046-.088.125-.009.121.067.079,0,0,.108-.088.033-.038.088-.029-.042.15.063.084c.046-.071,0,0,.138-.059.05-.021.1,0,.1-.058,0-.017,0-.025-.008-.025a.157.157,0,0,0,.046-.042c.071-.079,0,0,.1-.071s0,0,.067-.037.038.125.125.142c.054,0,0-.121.163-.238s-.021-.029-.033-.058.062-.059.083-.146.063,0,.1-.033,0-.05-.017-.1-.042-.054-.025-.109.121.013.154-.092,0,0,.05-.058a.865.865,0,0,1,.192-.209c.037-.037.017.038.021.1s-.017.1.033.1.025.1.058.15a.247.247,0,0,0,.1.067c.021.012.008.046.008.075s-.1-.134.029.071c.033.059.054.084.062.1a.082.082,0,0,0,.038.025c.021,0-.046.175-.012.225s.05.025.092.021.029.033.062.088-.025.088.021.092.042.029.1.063a.952.952,0,0,1,.158.108c.058.046-.054.075-.075.083s-.033.063.008.1.042.083.088.1.021.146.063.146-.042.113-.042.113-.062.016-.171.037,0,.067,0,.067.021.079.079.062.038.071.071.071.033.117.071.121.05.1.083.1-.063-.058.042-.046,0,0,.046.012,0,0,.033.046a.869.869,0,0,1,.05.084s0,.179.029.163.058.021.088.021.113.021.108.042a.671.671,0,0,1-.058.113.173.173,0,0,0,.125-.05.769.769,0,0,1,.109-.1c.046-.05.067.046.088.067s-.008.063.025.117.042.017.117-.017a.605.605,0,0,1,.208-.046c.084-.008,0,.079.046.158a.663.663,0,0,0,.154.067c-.042.021-.079.041-.121.058s-.092.033-.133.05a.615.615,0,0,0-.154.042.279.279,0,0,1-.192.017c-.021-.017-.067.017-.1.054s-.067.037-.079.058-.117.059-.129.1-.2.021-.25.029-.054.059-.017.1A.162.162,0,0,0,20,6.14c.021,0,.142-.071.234-.117s.1-.075.1-.075c.042-.021.088-.042.129-.059,0,0,.125-.075.167-.092a1.134,1.134,0,0,1,.234-.046c.067,0,.1-.013.1.125s-.067.2,0,.183.033-.079.042-.1.058-.088.113-.083a1.5,1.5,0,0,1,.217.033,1.815,1.815,0,0,1,.209.117c.063.038-.012.071-.025.134s.025.083.025.15-.088.088-.142.188a.824.824,0,0,1,.029.1c.033.037.067.075.1.113a.977.977,0,0,1-.071.113c-.05.038-.1.075-.15.117,0,0-.209.084-.23.067a.47.47,0,0,0-.2.059.731.731,0,0,1-.234.042c-.042.008-.133.012-.154.033s-.142.1-.146.154-.25.133-.309.2a.208.208,0,0,1-.154.05,1.458,1.458,0,0,1-.3.125.585.585,0,0,0-.171.037c-.1,0-.2,0-.3,0a.857.857,0,0,1-.075-.054,1.028,1.028,0,0,1-.242.021c-.033-.017-.117.017-.138,0a.508.508,0,0,1-.05-.033c-.021-.012-.046-.033-.058-.042s-.15.033-.221.042-.1.029-.129.029-.45.025-.45.025c-.042.012-.075.021-.113.033,0,0-.192.084-.217.092a1.24,1.24,0,0,0-.167.154c-.038.033-.071.075-.108.113,0,0-.15.079-.175.1a.306.306,0,0,1-.121.012.355.355,0,0,0-.071.017s-.092.046-.117.062a1.133,1.133,0,0,0-.125.146.38.38,0,0,1-.183.088c-.054.016-.042.033-.075.083a.647.647,0,0,1-.1.109,1.7,1.7,0,0,1-.154.142l-.2.125a1.563,1.563,0,0,0-.088.175s.1-.079.292-.225.067-.038.133-.088.171-.146.309-.23.079-.062.158-.1a1.177,1.177,0,0,0,.238-.138c.05-.038.067-.017.184-.05a1.631,1.631,0,0,1,.171-.046.973.973,0,0,0,.146-.063.488.488,0,0,0,.092-.042c.025-.016.217-.054.25-.071a.285.285,0,0,1,.125,0s.183.012.225.054a.76.76,0,0,1,.113.121c.029.042.142.058.129.108s-.1.1-.158.146-.108.058-.163.1a1.291,1.291,0,0,1-.35.038.8.8,0,0,0,.075.067c.021.016.046.042.033.071s.2-.079.238-.058a.151.151,0,0,1,.058.1c.008.046-.184.184-.184.184l.067.117c.012.025.067.1.092.1s.029.071.029.071-.013.063,0,.083a.382.382,0,0,0,.067.062.35.35,0,0,1,.125.046.176.176,0,0,0,.121.1c.05,0,.1,0,.15-.012,0,0,.029.129.088.121a2.6,2.6,0,0,1,.259-.067c.058,0,.058.092.083.058s.063-.046.158-.088.129.012.184,0-.021.084,0,.117.1.088.1.088l-.142.012a.581.581,0,0,0-.117.088.874.874,0,0,1-.284.113c-.075.021-.2.054-.259.067s-.208.058-.292.071a.827.827,0,0,0-.188.067c-.033,0-.079.058-.1.117s-.2.155-.234.192-.171.058-.234.079-.113-.033-.175-.029-.054-.05-.021-.113-.046-.079.017-.116.067-.1.15-.163a2.03,2.03,0,0,1,.229-.175c.117-.071.058-.008.109-.017s.008.033.217-.058.071,0,.163,0,.071-.033.083-.071-.05-.062-.079-.071a.589.589,0,0,0-.184.042c-.063.016-.075-.017-.038-.071,0,0,.021-.088-.029-.075s0,0-.033,0-.033.079-.063.088-.121.038-.158.042a.727.727,0,0,0-.183.063c-.025.017-.1-.067-.1-.067l-.088.1c-.042.042-.146.025-.221.012,0,0-.008,0-.008.017.033-.012.05-.017.008.129-.008.079-.1.033-.117.008s-.063.05-.075.075-.054.029-.054.029l-.217.067s-.134.021-.154.021a.142.142,0,0,0-.146.054.5.5,0,0,0-.067.121c0,.029-.1.016-.163.042s.042-.05-.133-.008-.025.033-.117.1-.075.1-.158.146-.092.088-.1.175-.008.046-.071.146,0,0,.038.083-.012.058.017.117a.961.961,0,0,0,.058.1c.012.033-.1.071-.142.1a.123.123,0,0,1-.088.029.672.672,0,0,1-.1.117c-.046.033,0,0-.084.025a.328.328,0,0,0-.275.042c-.163.1-.046.025-.1.017s-.113.012-.167,0-.071.054-.125.071a.146.146,0,0,0-.067.037c-.046.033-.088.063-.129.088.012-.05.021-.1.029-.154a.428.428,0,0,0-.109.05.222.222,0,0,0-.054.137c0,.063.092.033.117.079s-.033.092-.042.146-.067.083-.033.138-.179.184-.238.221-.042.012-.071.017a.469.469,0,0,0-.1.008c-.033,0-.075-.042-.092-.079a.941.941,0,0,0,0,.1c0,.092.033.029.029.075s.054.071.067.133-.033.1-.037.117-.025.042-.088.079-.037.071-.054.134-.075.1-.158.038.054-.092.05-.154-.067-.046-.1-.125,0,0,0-.121.092-.3.029-.275-.012.1-.154.329-.029.008-.117.033.013.054.017.2a.2.2,0,0,0,.063.117.111.111,0,0,1,.05.1c0,.058-.083,0-.142.017s.025.037.092.083.042.063.121.054.071.029.071.067a.612.612,0,0,0,0,.159c.009.079-.054.063-.054.063a.2.2,0,0,0-.021.1c.008.054.033.017.154.071,0,0-.017.054-.025.084s-.1.071-.188.129c-.037.021-.033-.008-.134,0s-.029.033-.062.063,0,.054.163.121c.017.008-.054.058-.117.088s-.058.008-.071-.012-.15.054-.163.088a1.1,1.1,0,0,0-.2.179c-.133.146-.062.071-.092.079a.368.368,0,0,1-.188-.009c-.092-.033-.058.017-.129.063s-.071.083-.108.133a.422.422,0,0,1-.1.092.869.869,0,0,1-.179.125c-.046.033-.188.138-.3.225s-.067.058-.092.125-.088.117-.138.2-.017.038-.008.159.058.05-.008.142,0,.071.008.142a.623.623,0,0,0,.033.163c.025.092.113.1.129.129a.511.511,0,0,1,.1.125c.017.046-.008.054-.046.125s0,.054.05.234,0,0,.025.075,0,.1.058.125.017.071.071.117.033.033.054.079,0,.033-.008.067a.28.28,0,0,0,0,.159c.021.108,0,.116.029.125s-.008.109-.008.109a1.221,1.221,0,0,0-.075.113.518.518,0,0,0-.029.1c-.029.029-.067.063-.1.092,0-.029-.071-.029-.1-.042s-.071-.021-.079-.046a.8.8,0,0,1-.05-.171c-.013-.063-.063-.037-.1-.029a.347.347,0,0,1-.071,0c-.046-.042-.083-.083-.125-.125-.038.029.017-.054.017-.1a.317.317,0,0,0-.046-.113.6.6,0,0,0-.042-.079.226.226,0,0,0-.1-.108c-.067-.025-.025-.054-.142-.155-.013-.016.008-.079.008-.125a.338.338,0,0,1,.05-.208.473.473,0,0,1-.008-.079.86.86,0,0,1-.067-.108c-.009-.021-.063-.075-.088-.121s-.075-.033-.1-.079-.088-.059-.138-.083-.037-.025-.075-.063,0-.033-.134.008c0,0-.092.046-.121.054s-.113.029-.2.042c0,0-.121-.037-.109-.067s-.092-.092-.092-.092a.71.71,0,0,0-.037-.079c-.054-.008-.109-.021-.167-.029,0,0-.175-.012-.2-.012a.5.5,0,0,0-.142-.012.162.162,0,0,0-.113.054c-.025.033-.109.033-.184-.067-.021-.033-.067.029-.075.058a.178.178,0,0,1-.033.063.894.894,0,0,1-.217-.083c-.067-.046-.042,0-.129.021s-.058.025-.1.008-.121.025-.158,0-.021-.05-.15.033c-.05.033.121.021.188.025s.05.058.05.058l.088.037v.084a.18.18,0,0,0,.079.125c.046.021,0,.062-.067.092s-.071-.009-.088-.071-.092-.037-.092-.037c.029.025-.042.1-.163.1s-.008-.063-.008-.063l-.046.008c-.054.009,0,0-.071.033s-.075.012-.134-.021-.008-.037-.054-.083-.046-.009-.125-.046a.34.34,0,0,0-.221-.029c-.033,0-.079.025-.1.025a.632.632,0,0,1-.175-.025c-.146-.029-.088-.008-.134-.038a.284.284,0,0,0-.113-.054.444.444,0,0,0-.292.129.388.388,0,0,1-.167-.008c-.088-.021-.108-.021-.1.038s0,0-.008.079-.067.042-.129.088-.054.046-.054.071-.158.058-.246.084-.042-.008-.129,0c-.046,0-.058.075-.088.083a.557.557,0,0,1-.1.021c-.054.008-.025.092-.092.175a.6.6,0,0,0-.1.067c-.038.029-.042.092-.067.146s.033.058.1.137.042.1.063.192a.839.839,0,0,1,.012.179.293.293,0,0,1,0,.088.448.448,0,0,0-.021.1c0,.029-.129.142-.154.163s.088.229.1.259-.117.108-.117.108c-.017.025.013.075.029.1a.254.254,0,0,1,.029.146c-.008.054-.029.054-.05.108a.673.673,0,0,0,.008.255.292.292,0,0,0,.088.167c.029.042.038-.05.179.209s0,0,.058.129.092.092.158.154.075.113.117.109.042.146.083.159.1.159.1.183.012.033.108.079a.526.526,0,0,0,.163.042c.1.017,0,0,.083,0s.046.071.121.1.05.075.1.084.071,0,.146-.054,0,0,.108-.042.088.025.125.017a.616.616,0,0,0,.2-.017c.092-.029.079-.021.079-.021a1.507,1.507,0,0,1,.2-.092c.092-.037.029.042.083.025s.046.062.158.025c.067-.021,0-.054.063-.075.038-.012.058-.046.117-.092s0-.059.025-.121.013-.029.054-.067.021-.033.021-.3,0-.067.1-.179,0,0,.046-.067.063-.025.158-.017a.4.4,0,0,0,.292-.1c.029-.025.088,0,.125,0a1.371,1.371,0,0,0,.267.05.684.684,0,0,0,.134-.067c.1-.054.083-.008.163,0s.054.046.138.125,0,.046-.029.129-.033.033-.163.154-.058.075-.088.129-.008.1.017.192a.162.162,0,0,1,0,.117c0,.05-.021.038-.033.088a.236.236,0,0,0,0,.134c.013.025-.05.113-.05.113,0-.029-.05-.146-.058-.2s-.042-.008-.079.025.021.092.033.137c0,.025.042.059.05.088s0,.059-.071.067c-.137.017.017.067.029.137a2.07,2.07,0,0,1,.029.213.81.81,0,0,0,0,.1c0,.042-.071.071-.083.092a.307.307,0,0,0-.1.192v.029c.008.138.129.033.192-.021.046-.042.062-.021.108-.025a.424.424,0,0,0,.054-.017c.083-.037.05.008.146-.012s.071.033.158.017.129.067.221.05.084-.029.167-.042.2-.025.259-.042.1.029.188.042.046.054.067.075.217.084.3.18c.021.025.046.062.1.121a0,0,0,0,0,0,0c.042.063.063.046.092.088s.05.054.054.1-.046.146-.042.167a1.078,1.078,0,0,0-.033.225c0,.1-.021.054-.042.092a.277.277,0,0,0,0,.184c.017.079-.017.088,0,.163a.568.568,0,0,0,.017.163c.025.046-.025.125,0,.142s.029.042.158.167l.042.033a.7.7,0,0,1,.054.1.916.916,0,0,0,.092.146.337.337,0,0,0,.113.1.545.545,0,0,1,.083.088.893.893,0,0,0,.167.088.287.287,0,0,0,.217.075c.142,0,.158-.017.158-.017a.844.844,0,0,0,.109-.012.324.324,0,0,0,.183-.008c.109-.042.129-.025.167-.054s0,0,.021-.1.046.042.108-.058.067.025.1.017.067.025.171.067a.049.049,0,0,0,.029.008l0,0c.008-.025,0-.021.017-.058s.017-.021.046-.042.033-.067.067-.117.038-.017.067-.017.025,0,.046-.029,0-.1.009-.163-.017-.029.008-.059.033-.058.063-.075.05-.013.129-.017.012.037.092-.05,0,0,.042-.021.038.016.1.025,0,0,.046,0,0,0,.042-.029a.215.215,0,0,1,.079-.05c.054-.025.046-.037.054-.058a.126.126,0,0,1,.075-.071.175.175,0,0,1,.108-.025.183.183,0,0,1,.1,0c.046,0,.037.037.046.063s.017.029,0,.033a.055.055,0,0,1-.033,0l-.021-.021c.021.021-.025.054-.042.075s-.063,0-.1,0-.029.009-.033.046v0c0,.033.033.025.042.038A.268.268,0,0,1,14,23.17c-.067.088-.013.063,0,.1a.24.24,0,0,0,.1.121c.033.012.05.042.1,0s0-.029,0-.108-.025-.042-.029-.1-.092-.063-.1-.1a.127.127,0,0,1,0-.067c.008-.025.017-.029.071-.054s.088-.009.138-.046,0-.025,0-.05a.486.486,0,0,1,.058-.113c.033-.046.042,0,.088,0s.017.054.042.083,0,.05.029.058.046.025.079.025.1.021.146.025.033.058.033.058a.388.388,0,0,1,.063.083v0s.012-.008.021,0c.042,0,0,0,.071.037s.029,0,.15-.033.033,0,.084,0a.186.186,0,0,0,.088-.012c.046-.021.025.021.067.033s.013.033.071.046.075.033.1.025a.419.419,0,0,1,.121.012l.063-.071c.071-.067.058-.012.121-.025a.111.111,0,0,1,.071,0c.025.008.1,0,.1-.012s.071,0,.125,0c-.021.008-.046.025-.083.046-.092.05,0,0-.013.021s-.008.029,0,.062.088-.008.088-.008a.2.2,0,0,0,.008.062c.008.013.042.017.071,0s.05-.05.071-.042,0,.029.008.05.017.033.058.021.038,0,.067,0,.021.025.083.075a.3.3,0,0,1-.05.075.183.183,0,0,0-.033.062c-.013.025.017.021.1-.025.025-.012.05,0,.1,0s.058.033.092.046.021.046.037.046a.056.056,0,0,1,.025.008c.017,0,.033.017.058.025a.175.175,0,0,1,.075.046c.012.021.021.029.063.038s.037.033.054.058.042.033.05.071a.424.424,0,0,1,.017.075c.008.033.054.008.092,0s.037.021.042.017a.556.556,0,0,1,.146.1.332.332,0,0,0,.1.088.044.044,0,0,1,.025.021c.008.009.012.012.029,0s.021.008.079-.017.042.021.063.017.008-.025.042-.042.042,0,.1,0,.029.029.054.012.058.033.1.017.033,0,.054-.009.063,0,.088,0h.013c.029,0,.021.033.05.029s.012.025.054.025.012.046.058.037.05.029.088.046.063.029.092.038.117.083.146.1a.371.371,0,0,1,.063.071.129.129,0,0,1,.021.029.107.107,0,0,1,.1.054c.05.058,0,.042.029.079s.008.054.046.092.025.054.029.079a.36.36,0,0,0,0,.067c.008.021.008.063.029.058s.054.033.071.033.058.042.075.046a.058.058,0,0,1,.029.05.234.234,0,0,0,.012.067c.038.117.008.021-.012.05s0,.046-.008.075-.025.025-.058.05-.025.017-.092.042-.021.012-.037.046a.215.215,0,0,0-.033.054c-.021.029,0,.025.046.1.008.021.042.042.042.05s.025.038.046.042.008-.042,0-.1-.029-.029-.033-.05.029-.025.079-.067.021,0,.092.012.071.025.1.013.046,0,.071.008.079,0,.125,0,.025.033.025.054a.52.52,0,0,1-.008.079.308.308,0,0,0,0,.062.052.052,0,0,1-.017.042.43.43,0,0,1-.1.046c-.033,0-.046,0-.117,0a.345.345,0,0,0-.062,0c-.025,0-.155-.054-.1-.008.033.025.033.033.054.033s.075.05.075.05a.61.61,0,0,0,.1-.025c.042-.008.042.084.042.084v-.029c0-.037,0,0,.029-.025s.021,0,.033-.037,0,0,.046-.046.05-.017.083-.071a.459.459,0,0,0,.046-.092c.021-.05.025-.012.046-.041s.054.008.079,0,.017.029.038,0,.029-.009.058-.012.025.05.054.042.033.041.058.033.042.037.067.033.063.037.083.025a.093.093,0,0,1,.079.021c.017.021.033.012.054.029s.063.021.083.033.042,0,.079.029.05.021.071.1c0,.021,0,.017-.025.067s-.008.063.037.063,0-.021.025-.05,0,0,.054,0a.212.212,0,0,0,.1-.038c.054-.029,0,0,.042-.029s.029,0,.088.017.046.046.067.05a.089.089,0,0,0,.075.012c.046-.008.067.046.113.05s.038.029.084.016.042.009.083-.016.05-.009.092-.021a.132.132,0,0,1,.1.016c.029.008.046.008.058.029s.083,0,.1.012.071.037.1.054a.616.616,0,0,0,.075.046.853.853,0,0,0,.1.075.555.555,0,0,1,.063.05.645.645,0,0,1,.1.033c.037.021.05.075.063.113s.038.046.083.079.05.017.05.017.067,0,.1,0,.029.017.063.025a1.021,1.021,0,0,0,.113,0c.038-.008.025.021.134.192a.25.25,0,0,0,.029.05.141.141,0,0,1,.012.025c.013.017.009.012,0,0a.267.267,0,0,0,.017.067.088.088,0,0,1-.012.092c-.013.021.008.063.021.1a.2.2,0,0,0,.017.054c0,.013,0,.067.012.092a.172.172,0,0,1-.025.083c-.012.025-.012.058-.021.075s-.021.021-.046.058a.424.424,0,0,0-.046.084c-.017.046-.033.021-.067.062a2.176,2.176,0,0,0-.192.2c-.033.05-.046.042-.058.046s0,.054-.008.067a.227.227,0,0,0,0,.046.345.345,0,0,1-.021.042.265.265,0,0,0-.029.088c0,.042-.038.05-.079.075s0,0-.042-.008-.017,0-.071,0-.037.017-.037.017a.512.512,0,0,0,.079.033c.058.021.017,0-.033.017a.221.221,0,0,0-.046.012c-.05.012,0,.029.029.083s.008.046.017.067a.3.3,0,0,0,.021.1c.012.05-.008.067.008.1s-.008.092,0,.137.042.1.054.134,0,.033-.013.1a.118.118,0,0,0,.013.088c.025.033,0,.1.012.121a.541.541,0,0,1-.021.088c0,.012-.012.029-.05.041s-.017.038-.025.063,0,.021.017.063,0,.025.017.184,0,.033-.029.054,0,.033-.042.109-.054.071-.058.113-.038.058-.063.088.008.088.012.117,0,.033-.075.109-.029.017-.083.054a.218.218,0,0,0-.025.079c0,.033-.038.042-.05.029s-.037,0-.054-.012-.033.012-.058.029a.055.055,0,0,1-.075-.012c-.021-.021-.038.008-.05-.008s-.033.016-.054.008-.067.017-.1.012-.042.008-.062-.029,0,0,0,.05-.029.025-.075.059-.05-.008-.088.029.058.063.058.063l-.083.012c-.033,0-.021.021-.046,0a.236.236,0,0,0-.058-.038.228.228,0,0,1-.071.021.3.3,0,0,0-.058.017c-.017,0,0,.021-.037.067a.493.493,0,0,0-.146.121c-.029.033-.037.046-.037.05h0a.127.127,0,0,1-.038.017c-.025.008-.079-.008-.113,0s.012.033.046.092-.008.025-.033.046,0,.034.033.067,0,.037.029.062a.227.227,0,0,1,.046.067s-.008.062.008.083,0,.1.008.125a.252.252,0,0,1,0,.1c-.009.021-.017.016-.025.05s-.071.159-.071.159c-.075.058-.062.1-.092.137s-.008.042-.012.113-.012.046-.025.058-.017.038,0,.079a.091.091,0,0,1-.042.092c-.013.016-.029.042-.042.046s-.033.033-.063.05a.087.087,0,0,0-.046.058.6.6,0,0,1-.092.059c.017.058-.021,0-.033.012s-.009.029-.017.05a.208.208,0,0,0,0,.088.133.133,0,0,1-.008.079.64.64,0,0,0-.067.062.243.243,0,0,0-.05.088.374.374,0,0,1-.033.059c-.017.008-.025.067-.046.113s-.037.042-.05.046-.046.059-.046.059a.227.227,0,0,1-.158,0c-.021-.008-.042,0-.083-.012s-.025.008-.05.017-.05,0-.075,0-.012,0-.063-.017a.571.571,0,0,1-.1-.025.166.166,0,0,1-.083-.067c-.012-.033-.046,0-.108-.033-.033-.021-.021,0-.05.008s-.079-.063-.1-.075,0-.029.008-.1a.759.759,0,0,0-.025-.138c-.008-.033,0-.037-.008-.083a.564.564,0,0,0-.046-.133.185.185,0,0,0,.021.083c.021.05.008.05-.012.071s0,.017,0,.05.008.042.025.054-.021.038.008.121-.012.025-.008.063a.112.112,0,0,0,.029.071.143.143,0,0,0,.054.046c.029.009.142.071.183.063s.042.058.063.062.012.059.029.1c.013.025-.012.037.008.1s0,0,.017.021.025.05.071.063.029.017.05.075,0,.017.013.083.012.038.012.054,0,.033-.017.046a.071.071,0,0,0-.025.046.292.292,0,0,1-.037.1.241.241,0,0,1-.033.033c-.021.012-.017.025-.025.037s-.038.042-.054.033-.033.046-.042.034-.042.008-.042.008-.05.009-.067.009-.246.05-.321.058a.2.2,0,0,1-.1,0,.481.481,0,0,1-.092,0c-.062,0,0,0-.046-.008s-.046-.029-.129,0c-.012.012.029.042.067.1s.008.05.017.075-.008.042-.008.129c0,0-.038.038-.038.058s.008.033.092.067-.029.037-.042.058-.05.029-.058.033a.441.441,0,0,1-.075,0,.882.882,0,0,0-.1,0,.077.077,0,0,1-.071-.075c0-.033-.062-.016-.142-.041s-.058-.025-.067.008.058.063.058.092a.285.285,0,0,0,.008.067.545.545,0,0,0,0,.084c0,.037.021.029.042.088a.3.3,0,0,0,.108.054.313.313,0,0,1,.029-.084c.021-.033.063.025.113.029s.025.029.029.167-.033.008-.067.012-.012-.033-.079-.1c-.029-.029-.025,0-.05-.008s-.033.008-.029.029a.747.747,0,0,0,.092.1s-.008.029-.067.05c-.021,0-.008.113-.008.113-.008.017-.012.038-.021.054.017.017.029.033.046.05a.854.854,0,0,1,.008.167c0,.1-.058.021-.071,0s-.058.054-.113.088-.05,0-.05,0-.046.033-.063.042,0,.021,0,.042a.273.273,0,0,1-.008.1.161.161,0,0,0,0,.117c.017.05.058.063.079.1s.075.042.092.046a.254.254,0,0,0,.1,0,.368.368,0,0,1,.067.017c.021,0,.025.029.054.083s.013.037-.008.054-.042.062.012.075.042.021.058.038,0,.042,0,.067-.046.042-.079.092-.075.046-.1.063-.063.017-.071.05-.025.167-.029.183.042.1.042.113-.042.012-.075,0-.046.025-.075.075,0,.092-.033.083.012.046.025.079.021.092.033.1a.734.734,0,0,0,.075.1,1.307,1.307,0,0,0,.125.134c.033.017.025.046-.008.046a.219.219,0,0,1-.113-.037c-.046-.025-.075-.033-.092-.025s-.017.012-.013.021a.1.1,0,0,0,0,.029c.012.025.029.033.083.05s.063.058.084.067a.085.085,0,0,0,.062-.021c.033-.021.054.046.079.054s.017.029.021.075.021.042.038.054a1,1,0,0,0,.113.117c.021.008.058.037.084.025s.033.042.05.075.021.021.063.046a.582.582,0,0,1,.083.075.232.232,0,0,0,.1.025c.046,0,.1.033.146.033s.029.046.029.046a.2.2,0,0,0,.029.025.46.46,0,0,0-.083.046c-.017.012-.088,0-.083-.016s-.05,0-.05,0a.192.192,0,0,1-.071,0c-.029-.008-.042.017-.067,0a.358.358,0,0,1-.109-.037c-.021-.012-.079.016-.1,0s-.025.008-.092-.012a.075.075,0,0,1-.021-.009c-.1-.025-.029-.008-.042,0s-.058,0-.088-.025a.19.19,0,0,1-.046-.046h-.083c-.021,0-.071-.008-.079,0s-.108-.046-.129-.038-.038-.042-.017-.067.05-.017.054-.029.137.013.137.013a.1.1,0,0,0,.083.008c.042-.008-.008-.016-.017-.037s-.092-.038-.1-.075-.021-.042-.033-.092.058,0,.058,0a.13.13,0,0,0,.008-.054c0-.025-.046-.012-.058-.021a.463.463,0,0,1-.113-.025c-.025-.017.017-.084.083-.109s.009-.054.009-.054h0a.163.163,0,0,0-.088-.017c-.054.013-.013.038-.013.038s-.025.021-.033.033a.234.234,0,0,0-.033.025s-.033.054-.012.084a.334.334,0,0,1,.038.092c.012.025-.021.071-.042.063s-.079-.012-.134-.033-.025-.025-.046-.067-.025-.012-.033-.058.012-.017.033-.05.071.025.1.017-.029-.05-.033-.067a.255.255,0,0,1-.046-.071c-.021-.042-.046-.021-.075-.042s-.058-.012-.1-.058-.079.071-.084.008-.025,0-.033-.042-.033-.021-.029-.046.058,0,.05-.033-.017-.067-.021-.092-.017.012-.029.021-.042-.021-.058-.033-.05,0-.058-.013,0,.021,0,.067-.025.012-.038.017-.038-.012-.058-.05,0-.025-.021-.067-.046-.058-.088-.108-.012.008-.054,0a.209.209,0,0,1-.121-.05c-.05-.042-.037-.017-.017-.042s.033.008.079-.033c.025-.021.017-.029.021-.046s-.079-.054-.092-.071a.1.1,0,0,1-.025-.079c.008-.037.033,0,.038-.029s-.029-.033-.029-.033a.229.229,0,0,1,.008-.1c.012-.033-.075-.075-.1-.117s-.079-.042-.079-.042a.572.572,0,0,0,.042-.092c-.012-.017-.012-.029-.012-.067s.054,0,.054,0a.18.18,0,0,0,.113-.017c.017-.008-.058-.042-.1-.071s-.017-.008-.054.012,0-.021-.008-.046-.054.021-.092-.017-.046-.037-.046-.071.071,0,.063-.05l0-.046c-.008-.054-.017-.021-.021-.054s-.054.058-.079.041-.017-.021-.017-.041-.054-.025-.054-.025a.455.455,0,0,1-.05.063c-.012.008-.075-.029-.113-.067s.058-.021.083-.042.029-.012.029-.037-.017-.025-.029-.046,0-.033.05-.075c.017-.017.083.054.083.054-.029,0,.012.042.075.059.033.008.029.037.029.067s.033-.012.033-.012,0,0,.029-.071A.141.141,0,0,0,16.3,35.5c-.008-.033-.038-.054-.046-.071s0-.029.025-.067.046.029.067.029-.054-.079-.071-.079,0,0-.021-.108c0-.042.058-.025.058-.025.008-.021.025-.042-.033-.088a.177.177,0,0,1-.058-.054c-.012-.033,0-.021-.012-.037a.215.215,0,0,1-.008-.071.59.59,0,0,0-.025-.1c-.021-.108,0,0,0-.025s0,0,0-.033a.159.159,0,0,0-.017-.063c0-.025.042-.021.025-.041s-.029-.029-.017-.059,0,0,0-.046-.021-.021-.046-.071.021-.008.033-.037-.012-.029-.054-.05-.033,0-.054.008-.025.012-.083-.012a.171.171,0,0,1-.063-.029.327.327,0,0,1-.054-.054.286.286,0,0,1-.042-.088c-.008-.037,0,0,.017-.042a.219.219,0,0,0,.017-.079.152.152,0,0,0-.017-.1l0-.033c0-.037,0,0,.017-.042s.008-.033.008-.046-.021-.046-.021-.046-.025-.079-.033-.1a.25.25,0,0,0-.067-.1c-.05-.05,0,0-.033-.075s-.021-.025-.038-.092-.037-.063.013-.158a.109.109,0,0,0,.029-.071c0-.042.021-.012.033-.05s0-.033,0-.092-.021-.071-.012-.1a.449.449,0,0,0,.033-.117c.012-.05.029-.029.025-.088s-.029-.046-.046-.092,0-.025.012-.067.029-.05.029-.1-.017-.021-.013-.042a.215.215,0,0,0,.017-.088.539.539,0,0,0,.008-.075c0-.037-.017-.046-.029-.092s-.033-.046-.042-.088a.842.842,0,0,0-.033-.129c-.021-.042,0-.092-.037-.221l.012-.071c0-.025.009-.033.013-.088s-.017-.033-.042-.084a.284.284,0,0,1-.038-.146v0s.009,0,.012-.012c.021-.054,0,0,0-.083a.309.309,0,0,1,0-.108c.008-.079,0,0,0-.042s-.008-.05-.008-.117,0,0,0-.05-.013-.05,0-.1-.029-.054-.038-.1.008-.05.021-.092a1.414,1.414,0,0,0-.05-.38.917.917,0,0,0-.042-.129c-.009-.038,0,0,.012-.121s0-.029-.012-.083,0-.025,0-.117a.39.39,0,0,1,.017-.071c.008-.029,0-.037-.029-.113s-.021-.021-.037-.054-.013-.029-.021-.058a.454.454,0,0,1-.008-.079c0-.037,0-.037-.012-.058a.413.413,0,0,0-.029-.067.932.932,0,0,0-.042-.108.122.122,0,0,1-.008-.084c.008-.008,0,0-.042-.046a.248.248,0,0,0-.033-.033c-.079-.083,0,0-.075-.05a.253.253,0,0,1-.1-.1.907.907,0,0,0-.079-.1.266.266,0,0,0-.1-.063.443.443,0,0,0-.062-.017c-.021-.012-.038-.008-.058-.021s-.05-.029-.079-.054-.046,0-.079-.009-.046-.033-.075-.042a.8.8,0,0,1-.184-.117c-.021-.021-.046-.012-.113-.046-.017-.008-.042-.021-.046-.042s-.042-.042-.05-.054-.067,0-.083-.033-.017,0-.046-.029a.083.083,0,0,1-.029-.067c-.033-.025-.067-.046-.1-.067s-.033-.021-.042-.046-.008-.012-.012-.037.008-.029.008-.063-.017-.029-.025-.046a.668.668,0,0,1-.038-.075c-.008-.029-.033-.025-.071-.063s-.021-.033-.046-.079-.038-.033-.046-.046-.042-.038-.058-.063-.021-.05-.033-.075-.033-.029-.058-.05a.576.576,0,0,1-.079-.1c-.012-.021-.012-.008-.021-.029s-.046-.071-.075-.125a.806.806,0,0,1-.05-.092c-.012-.034-.029-.054-.038-.079s-.025-.025-.037-.042-.029-.012-.042-.025a.332.332,0,0,0-.033-.025c-.008-.012-.017-.021-.029-.038a.315.315,0,0,0-.038-.046c-.012-.016-.008-.016-.017-.033a.429.429,0,0,1-.067-.1c0-.021-.042-.042-.046-.05a.319.319,0,0,0-.042-.05c0-.017-.008-.025-.012-.046s-.038-.033-.054-.05-.05-.037-.05-.05-.033-.013-.05-.017-.012,0-.017,0a.192.192,0,0,1-.1-.042c-.037-.033-.062-.033-.062-.05s0-.013,0-.038,0,0,.025-.021,0-.008,0-.033-.008-.016-.025-.05-.017-.017-.046-.029-.012-.021-.033-.05a.1.1,0,0,1-.029-.063c-.013-.046-.008-.016-.008-.037a.1.1,0,0,1,.017-.054.284.284,0,0,1,.008-.083c.008-.017.025-.025.058-.054s.012,0,.029-.025.042-.017.054-.025.029-.017.033-.025h0a.216.216,0,0,0,.067-.071c.008-.033-.012-.033-.012-.033s.017-.088,0-.113-.021.042-.029.063-.017.033-.021.054-.046,0-.046,0a.074.074,0,0,1-.029-.042c0-.025-.033-.025-.058-.041s-.025-.021-.021-.034.008-.012.021-.021-.033-.021-.054-.046,0,0,.012-.021-.012-.021-.017-.046,0-.012.008-.037a.238.238,0,0,1,.038-.059c.008-.008,0-.067,0-.088s-.008-.021-.012-.042-.013-.016-.008-.037.021-.021.054-.05.017,0,.017-.025,0-.012-.012-.021a.066.066,0,0,0-.025-.042c-.021-.017,0-.029-.008-.05s0-.012.021-.029.017,0,.025,0,.046,0,.054-.008.012-.012.021-.017A.194.194,0,0,1,12.617,25c.017,0,.033,0,.05,0s.033,0,.033-.012-.021-.033-.021-.05a.021.021,0,0,1,0-.012.131.131,0,0,1,.008-.029c0-.008-.008-.033.008-.033s.012,0,.012-.017a.435.435,0,0,0,0-.075c0-.025.033-.038.054-.046s.013,0,.029-.008.037.008.071-.012,0,0,.012-.025,0,0,.025-.012.012-.008.021-.029a.441.441,0,0,0,.017-.042.189.189,0,0,1,.021-.042.147.147,0,0,0,.042-.063c.017-.033,0-.009,0-.021a.176.176,0,0,1-.033-.1.341.341,0,0,0,0-.067.353.353,0,0,0,0-.071c0-.021-.017-.033-.037-.063s-.021-.017-.029-.042.021-.05.017-.067a.639.639,0,0,0-.021-.083c0-.017-.013-.029,0-.062s-.017-.029-.017-.046-.029-.016-.042-.046-.017-.016-.017-.033,0-.016,0-.016l-.017-.008a.1.1,0,0,1-.021.012c-.029.017-.05.05-.079.025s-.033-.071-.042-.1-.067.029-.067.029a.218.218,0,0,0-.029.025c-.025.017-.012.033-.017.054s-.008.021-.017.063-.038.054-.05.046-.117.05-.113.063.029.071.038.088a.438.438,0,0,0,.075.079c.012.013,0,.038-.038.109a.247.247,0,0,1-.05.021l-.067.021a.453.453,0,0,1-.117-.025.057.057,0,0,1,0-.046c0-.012-.067-.079-.079-.1s-.037-.013-.05-.008a.137.137,0,0,1-.054.008c-.012-.008-.058,0-.058-.029a.156.156,0,0,0-.021-.067s-.046,0-.05-.012-.054-.042-.071-.063a.254.254,0,0,0-.1-.033c-.033-.008-.108-.012-.225-.029a.312.312,0,0,0-.1-.054c-.067-.021-.033-.009-.054-.021s-.013.021-.021.038-.054,0-.083.008,0-.037-.042-.058c-.012-.009-.05,0-.058-.029s-.021-.016-.029-.037-.029-.017-.025-.046.012-.017.012-.054-.017-.021-.021-.029-.058-.038-.058-.067-.05-.017-.067-.038-.058-.016-.075-.029-.038,0-.054.008-.046-.029-.05-.046-.033,0-.046-.012a.061.061,0,0,1-.033-.037c-.012-.008-.021-.033-.037-.079,0-.017-.1-.083-.079-.042s.054.059.054.071,0,.071,0,.071l-.008.025c0,.029-.071-.029-.079-.038a.7.7,0,0,0-.1-.058l-.046-.012s-.042-.017-.058-.012-.05-.046-.071-.067a.178.178,0,0,1-.029-.084.635.635,0,0,0-.012-.083c-.009-.017-.017-.133,0-.146v-.012c0-.013-.021-.033-.021-.05s-.05-.046-.054-.058a.555.555,0,0,0-.05-.05c-.008-.012-.079-.025-.121-.058s-.042-.029-.05-.042a.374.374,0,0,1-.088-.092c-.017-.046-.05-.042-.042-.05s-.071-.067-.079-.092-.121-.071-.146-.092a.335.335,0,0,1-.046-.033c-.008-.008-.025-.025-.021-.038a.555.555,0,0,0,0-.092c0-.033-.054-.017-.071-.025a.816.816,0,0,0-.213-.013.956.956,0,0,1-.163-.021c-.012,0-.129-.012-.129-.012a.745.745,0,0,1-.142-.046c-.029-.025-.067,0-.088-.016a.551.551,0,0,1-.163-.071c-.058-.042-.054-.025-.083-.046h0a.383.383,0,0,0-.121-.042.192.192,0,0,0-.113.012c-.009.012-.058-.025-.058-.025a3.363,3.363,0,0,0-.38-.129.109.109,0,0,1-.071-.038.05.05,0,0,1-.021-.033c0-.021-.054-.075-.058-.092s-.054-.058-.1-.129-.033,0-.088-.025-.042-.025-.054-.042a.857.857,0,0,0-.079-.054,1.012,1.012,0,0,0-.088-.054c-.017,0-.15-.109-.175-.117s-.088-.029-.154-.058c0,0-.1-.038-.15-.05a.153.153,0,0,0-.088-.009c-.046,0-.017.009-.033.025s-.05.021-.054.025a.727.727,0,0,0-.146.058.313.313,0,0,1-.138.046c-.033.012-.025.008-.042.021a.543.543,0,0,1-.108.016.876.876,0,0,1-.1-.021c-.017-.008-.113-.042-.134-.025s-.125-.017-.125-.017-.313-.108-.363-.133-.067-.017-.1-.033a.418.418,0,0,0-.088-.029.08.08,0,0,1-.058-.042c-.009-.021-.063-.025-.063-.025s-.083-.025-.1-.033-.075.008-.113-.008a.234.234,0,0,0-.042-.017c-.025-.012-.054-.021-.083-.033s-.067,0-.1,0A.563.563,0,0,0,4.6,20.78a.365.365,0,0,0-.138-.058c-.1-.017-.071-.029-.092-.042a.133.133,0,0,0-.05-.017s-.1-.05-.1-.067-.075-.046-.083-.063-.088-.058-.1-.079-.088-.009-.088-.009a1.058,1.058,0,0,1-.108-.05c-.012-.012-.142.025-.2-.008a.43.43,0,0,0-.1-.054c-.037-.012-.037,0-.058-.012a.279.279,0,0,1-.1-.05c-.025-.021-.038-.025-.05-.05s-.042-.021-.046-.038-.071-.063-.1-.075a.289.289,0,0,1-.083-.071.531.531,0,0,0-.1-.029c-.025-.008-.058.017-.075.012s-.058-.054-.079-.067-.075-.063-.092-.071S2.7,19.8,2.69,19.767s-.084-.092-.092-.113a.571.571,0,0,1-.058-.1c-.021-.038,0-.017.021-.038a.27.27,0,0,0,.063-.083c.017-.029,0-.029-.009-.042a.222.222,0,0,1-.008-.1c0-.038,0-.017.017-.038s-.009-.046-.013-.058a.535.535,0,0,1-.029-.054c0-.021-.042-.046-.067-.075s-.025-.008,0-.037.008-.025.008-.05-.038-.063-.042-.121-.05-.054-.062-.067a.331.331,0,0,1-.038-.079c0-.016-.179-.113-.179-.125s-.079-.088-.071-.1-.067-.071-.158-.108-.033-.033-.05-.067-.042-.025-.058-.062-.054-.025-.084-.046-.05-.017-.058-.029-.046-.012-.054-.029-.088-.046-.1-.071-.05-.042-.054-.063-.008-.021,0-.05a.081.081,0,0,0,0-.063c0-.021-.025-.029-.046-.046s-.062,0-.062,0c-.017,0-.033,0-.046-.009a.96.96,0,0,1-.079-.088.1.1,0,0,0-.054-.016s-.071-.034-.084-.042a.48.48,0,0,1-.062-.025.287.287,0,0,0-.067-.037s-.046-.05-.046-.075,0-.025.021-.05a.4.4,0,0,0,.037-.083c.025-.042-.012-.038-.021-.058s-.042-.017-.042-.017a.433.433,0,0,1-.117-.079.123.123,0,0,1-.063-.062c-.029-.05-.054-.046-.058-.054s-.05,0-.062-.025-.038,0-.046,0-.05-.012-.054-.025a.741.741,0,0,1-.021-.138c0-.012-.033-.05-.033-.05L.463,16.9s-.079-.025-.108-.037.029,0-.029-.033S.254,16.809.242,16.8c-.029.15-.042.3-.063.455l0,0c.046.012.037.05.083.092a.2.2,0,0,1,.058.084c.021.033-.037,0-.037,0a.9.9,0,0,1,.125.125c0,.021-.025.012-.092.046s-.017.025.033.046.033.037.075.046.008.058.008.058.046.059.063.063a.113.113,0,0,1,.058.058c0,.017.021.046-.029.088-.017.013,0,.025-.012.05s.008.042.033.079.046.033.054.029a.256.256,0,0,1,.083.058c.013.017.092.017.113.017s.063-.012.083.029.013.017.037.062,0,.025.013.058a.069.069,0,0,0,.033.054c.017.016.038.05.05.063l.033.046a.269.269,0,0,1,0,.058.566.566,0,0,1-.1.071.24.24,0,0,1-.117-.009c-.017,0-.025-.029-.033-.1s-.017-.025-.05-.054S.713,18.461.7,18.436a.4.4,0,0,0-.071-.054c-.009-.016-.071-.029-.092-.033S.5,18.294.492,18.277.359,18.2.321,18.165A.309.309,0,0,0,.2,18.085a.451.451,0,0,0-.109-.042C.033,18.636,0,19.233,0,19.837A20.087,20.087,0,0,0,20.317,39.679,20.387,20.387,0,0,0,38.144,29.36v-.008a.758.758,0,0,1-.017-.121V29.16a.387.387,0,0,0-.1-.263s-.008-.008-.012-.008c-.108-.084-.192-.259-.242-.267-.029,0-.046-.017-.088-.071-.025-.033-.062-.092-.129-.175a1.963,1.963,0,0,0-.4-.463c-.025.017-.067-.146-.117-.15s-.129-.2-.146-.234-.008-.154-.017-.229-.017-.2.025-.25.142-.054.125-.171a2.1,2.1,0,0,1,0-.225,1.039,1.039,0,0,0-.021-.192.131.131,0,0,1,.021-.133c0-.009,0-.012.012-.021.033-.05.1-.154.079-.154s0-.229-.038-.25-.088-.209-.109-.217-.054-.125-.1-.108-.1.062-.129.054-.067-.071-.1-.1a.188.188,0,0,1-.058-.084.174.174,0,0,1,0-.05c.008-.063.071-.1.013-.088a2.092,2.092,0,0,0-.213.084c-.05.025-.129.05-.171.067a.246.246,0,0,1-.167,0,.965.965,0,0,0-.359-.012c-.021.025-.054-.038-.117-.067a.242.242,0,0,1-.117-.163c-.017-.054.029-.154-.012-.171s-.029-.146-.117-.134-.1-.079-.162-.088-.054-.088-.142-.117a.744.744,0,0,0-.271,0c-.05,0-.092.008-.125.008l-.046.008s-.021-.092-.1-.033a.784.784,0,0,1-.313.075.87.87,0,0,1-.084.025.015.015,0,0,1-.012,0,.535.535,0,0,0-.117.037.515.515,0,0,1-.192.071.147.147,0,0,0-.113.054s-.012.012-.017.012a.729.729,0,0,1-.113.059c-.046.017-.046,0-.138.021s-.108,0-.138.013-.033.017-.088.067a.579.579,0,0,1-.2.1.965.965,0,0,0-.192.113.04.04,0,0,1-.062,0c-.029-.038-.029-.138-.146-.155-.071-.012-.129-.021-.179-.033a.611.611,0,0,1-.071-.017.278.278,0,0,0-.167-.012c-.088.017-.321-.012-.375.012s-.108-.033-.208.009-.142,0-.217.046-.158.046-.2.067-.046-.029-.1.037a.709.709,0,0,1-.246.15s-.012,0-.017,0l-.138-.017a1.319,1.319,0,0,1-.2-.083c-.029-.017-.146-.037-.167-.054s-.109-.079-.125-.092-.092-.05-.1-.075-.1-.075-.1-.075-.088-.029-.1-.063a.526.526,0,0,0-.121-.113,1.088,1.088,0,0,1-.167-.159.572.572,0,0,0-.23-.129s-.083-.029-.146-.054c-.008-.008-.017-.008-.025-.017-.05-.033-.092-.142-.113-.15s-.117-.063-.138-.071-.012-.059-.042-.059-.1-.008-.1-.008a.538.538,0,0,1-.038-.067.885.885,0,0,0,0-.108.656.656,0,0,0-.092-.188,1.023,1.023,0,0,0-.092-.109l0,0a.644.644,0,0,0-.079-.121,2.465,2.465,0,0,0-.3-.33s-.054-.029-.088-.05-.079-.079-.108-.1a.658.658,0,0,1-.067-.1.261.261,0,0,1-.033-.029c-.046-.038-.079-.088-.092-.083s-.046-.033-.05-.05,0-.079,0-.079c0-.029,0-.063,0-.092,0,0-.063-.067-.092-.063s-.092-.038-.121-.012-.054.008-.075.016-.071-.012-.088-.033-.008-.075-.029-.075a.335.335,0,0,1-.079-.021s-.017-.033-.033-.058a.051.051,0,0,0-.017-.025c-.008-.008,0-.063,0-.063-.008-.038-.012-.079-.021-.121,0,0-.033-.046-.021-.079a.24.24,0,0,1,.042-.1c.029-.034.063-.059.046-.054s-.017-.129-.017-.129-.092-.125-.129-.121-.033-.071-.058-.088-.054-.109-.075-.117-.017-.079.021-.108a1.069,1.069,0,0,0,.138-.138c.013-.017-.017-.079.025-.109s.058-.188.058-.188A.477.477,0,0,1,27.208,21c.008-.017.012-.037.021-.042s.012-.054.012-.171a.36.36,0,0,1,.083-.208s.058-.092.054-.108-.054-.192-.054-.192c-.017-.05-.029-.1-.046-.155a.3.3,0,0,0-.042-.083.452.452,0,0,1-.058-.084.1.1,0,0,1,.029-.092c.042-.029.083-.088.075-.108a1.012,1.012,0,0,0-.129-.25c-.025,0-.1-.188-.163-.15s-.063.033-.079.029-.042-.062-.008-.154a.2.2,0,0,0,.012-.054h0a1.165,1.165,0,0,0,.05-.188c0-.029.029-.067.046-.1a.656.656,0,0,1,.113-.125.872.872,0,0,0,.154-.271c.012-.033.025-.1.038-.146a.279.279,0,0,1,.021-.1.667.667,0,0,1,.071-.117c.025-.025.067-.063.083-.075s.075-.088.092-.1.1-.125.1-.125.058-.133.067-.15a.926.926,0,0,0,.042-.133s.008-.125.029-.134a.644.644,0,0,0,.121-.1s.1-.067.121-.075a.944.944,0,0,0,.129-.1c.017-.033.038-.067.054-.1a.773.773,0,0,1,.05-.184v0c.029-.033.1-.125.125-.129s.388-.138.4-.134a.317.317,0,0,0,.142-.058c.038-.025.079-.067.109-.084a.472.472,0,0,0,.079-.075l.042-.067a.1.1,0,0,1,.054-.054c.042-.017.079-.012.113-.058s.058-.075.079-.092a.545.545,0,0,0,.079-.1,1.067,1.067,0,0,0,.079-.113c.021-.025.038-.042.033-.067s.008-.146-.012-.146-.029-.054-.025-.1.1-.467.1-.467,0-.071.013-.092.088-.121.1-.138a.446.446,0,0,1,.088-.117,1.4,1.4,0,0,1,.117-.121c.062-.054.1-.129.125-.129s.083-.062.1-.046.146-.042.146-.042a1.238,1.238,0,0,0,.175-.062s.071-.1.092-.084.075-.075.1-.079a.357.357,0,0,0,.054-.088.744.744,0,0,1,.042-.088l.038-.075s.088-.171.1-.213-.008-.038.021-.088a.369.369,0,0,1,.075-.1c.012-.008.05-.058.05-.046s.071.021.075.054.05.029.05.067.179.054.192.1.154.008.154.029.092.046.121.046.158-.021.158-.021c.021-.012.046-.021.067-.033a.192.192,0,0,1,.083-.012c.033,0,.063-.046.1-.008a.2.2,0,0,1,.046.063c.025.033.117-.025.125,0s.05,0,.062.046.025,0,.071.021.088,0,.1,0,.079-.016.079-.016c.029-.021.058-.042.088-.067,0,0,.058-.067.075-.088a.639.639,0,0,1,.084-.067c.025-.012.062-.067.079-.063s.3-.092.3-.092-.008.042.021.046.125-.075.154-.088a.652.652,0,0,0,.1-.063c.029-.016.054-.071.083-.067s.067-.071.146-.058a3.279,3.279,0,0,0,.384-.017c.029,0,.138-.058.184-.067s.1-.067.121-.054,0,0,.058-.012a.748.748,0,0,1,.175-.012.577.577,0,0,0,.158-.017c.108.009.217.021.325.029a.536.536,0,0,0,.046.054.38.38,0,0,0,.071.054c.088.012.238-.1.238-.1a.4.4,0,0,1,.083-.063c.021,0,.071-.037.1-.037s.1,0,.121.029.046,0,.071.012.108-.029.129-.012.054-.033.067-.017.042-.054.079.017.083.037.113.058.1-.021.125-.012a.036.036,0,0,0,.029,0c.079-.017.313-.1.313-.1a.421.421,0,0,1,.071-.046c.017-.008.1-.071.117-.058s.038-.037.088.008.121.037.125.075.017.1.025.137-.071.054,0,.038.167-.1.179-.113.075.033.075.033c-.021.092-.067.108-.088.163s-.05.058-.067.1-.046.033-.046.075.038.063.067.088a1.151,1.151,0,0,1,.142.221v.083a.124.124,0,0,1-.012.079.477.477,0,0,1-.071.125c-.033.029-.092.058-.108.075s-.092.033-.1.063a.207.207,0,0,1-.062.083c-.025.029-.063,0-.038.05s.046.038.083.088a.152.152,0,0,0,.1.059c.033.012.067-.046.067-.046s.075-.012.1.008.046.079.067.1a.833.833,0,0,0,.088.088.463.463,0,0,0,.046.029.614.614,0,0,0,.092.046c.029.017.067.008.1.046a.538.538,0,0,0,.088.062.117.117,0,0,0,.071.017c.05,0,.113-.038.125-.012s.238-.025.238-.025c.079.017.159.033.234.046a2.537,2.537,0,0,0,.242.15c.033.008.113-.025.142-.012a.152.152,0,0,1,.063.063c.012.025.008.029.038.092s.083.1.088.154-.021.1.021.117.109-.012.117.025.008.037.063.037.154-.046.158-.021a1.386,1.386,0,0,0,.267.067s.088,0,.1.021.113.013.154.058.088.033.117.054.054.037.083.058a19.275,19.275,0,0,0-.98-3.124c-.033.008-.058.012-.058,0m-26.29-10.7a.689.689,0,0,1-.25.192c-.125.054-.113.075-.229.012s-.1-.05-.088-.113.117-.1.175-.171.134-.025.171-.067a2.262,2.262,0,0,1,.283-.071c.109-.029.054,0,.121.079s-.1.063-.184.138m.951.238a1.344,1.344,0,0,1-.154.246c-.075.088-.046.017-.1-.05s-.037-.075-.029-.179.037-.117.108-.15c.117-.063.2-.075.242-.042s-.017.088-.071.175m.792-.642c-.029.075-.021.017-.075.012s-.058-.021-.154-.033-.05-.067,0-.108a.511.511,0,0,1,.158-.054c.042-.008.058.017.1.042s0,.062-.033.142m.313-.129c-.063.033-.2-.042-.158-.113a.31.31,0,0,1,.121-.067c.046-.012.067.017.117.092s-.021.058-.079.088m3.262,8.125c-.067-.025-.05-.079-.071-.113s.063-.1.113-.108c.017-.008.042.042.025.067s.017.041.029.079.046.092.033.133-.067-.033-.129-.058m-3.512,9.585c.042-.016.075-.029.113.017s-.017.037-.017.037a.384.384,0,0,1-.109,0c-.033-.013-.017-.046.012-.059m-.242.434c.063-.021.288.025.242.059s0,0-.029.037-.088.033-.138.029-.071-.017-.092-.042a.05.05,0,0,1,.017-.083m-.238-.555c.2-.033.125.121.125.121a.1.1,0,0,1-.067.109c-.071.033-.029,0-.021-.063s.054-.046.042-.092-.129-.067-.079-.075m-.3-.279c.046.008.021.042.037.083a.078.078,0,0,1-.017.1c-.021.016-.025-.021-.075-.071s-.017-.041-.067-.058-.017-.063,0-.083.067.025.121.033m-.238-.429c.029-.017.054.033.092.054s.008.025.012.071-.012.1-.046.1,0-.025,0-.083-.013-.067-.042-.083-.038-.046-.012-.063m-.092.413c0,.029-.038.008-.079-.012s0,0,.008-.038c0,0,.088,0,.071.05m-.184-.7c.046,0,.046.046.075.079a.138.138,0,0,1,.038.1c0,.054-.017.033-.063.025s-.033-.079-.05-.117-.146-.038-.133-.067c.025-.067.083-.029.133-.025m-.442-.484c.1-.029.138-.025.154.008s0,.025,0,.071a.221.221,0,0,1,0,.117c-.021.042-.067.071-.067.1s-.046-.063-.017-.109,0-.071,0-.1-.125-.075-.075-.088m.017.963c.054-.012.021.042-.063.125-.033.037-.046-.029-.058-.088,0,0,.071-.021.121-.038m-.084-.225c.025.05.025.063,0,.154s-.037.025-.083-.012-.017-.033-.088-.054,0-.059-.008-.121a.277.277,0,0,1,.033-.175c.021.017.042.037.063.054,0,0,.063.109.088.154m-.371-.738c.029-.088.125-.029.184-.038s.108.038.075.05-.075-.012-.134.025-.138.092-.158.046c-.008-.025,0,0,.033-.083m-1.477,1.918c-.083.008-.054-.016-.088-.062s-.029-.1.042-.121.154.079.158.154-.029.025-.113.029m2.536,1.293a1.185,1.185,0,0,1-.225.034c-.063.008-.054-.034-.134,0s-.063.084-.134.046-.088-.033-.15-.079-.121-.071-.134-.15c0-.021.154-.067.225-.067a.52.52,0,0,1,.263.033c.108.05.075-.029.183.071s.179.075.1.109m.521-.667a.683.683,0,0,0-.121-.05s-.1.121-.129.071a.176.176,0,0,0-.146-.063c-.05,0-.234.025-.279.025a.74.74,0,0,0-.221.013c-.125.033-.225,0-.188-.025a.431.431,0,0,0,.138-.137c.025-.054-.025-.088-.058-.1s-.142-.008-.179-.021a1.1,1.1,0,0,1-.213-.154c-.021-.029-.05-.146-.121-.171s-.067-.054-.167-.033-.042.125-.179-.016-.125-.15-.213-.142a1.979,1.979,0,0,1-.35-.025.524.524,0,0,1-.2-.063c-.063-.025-.113.025-.1-.041s.029-.1-.012-.121a.2.2,0,0,0-.179-.029c-.084.029-.117,0-.146.067s-.1.079-.155.092c-.183.042-.2-.054-.267.021a.512.512,0,0,1-.138.121c-.025-.046-.088-.192-.058-.2s.038-.054.138-.088.1-.067.154-.088.05-.05.121-.042.1-.021.146-.012.1-.013.175-.013.042-.008.109-.008.046-.033.159-.021.167.008.221.016.167.025.242.046.146-.029.25,0,.083.025.113.079a.216.216,0,0,0,.088.108c.038.017.092,0,.129.021a.689.689,0,0,0,.142.012c.079.088.117.054.163.121s.1-.025.15.008.084.054.175.113.1.017.179.071.113.033.142.088-.025.029.075.046a1.185,1.185,0,0,1,.171.05c.033,0,.1-.025.117.025s-.012.121.042.133.067-.041.146,0,.113.017.167.063.017.025.079.088.067-.029.067.063-.15.134-.171.109m2.173.48a1.015,1.015,0,0,0-.234.017c-.054.012-.158,0-.2.016s-.133-.008-.154.012c0,0-.154-.008-.175.017s-.1.058-.1.125.071.138,0,.1-.15-.075-.192-.1-.021-.037-.083-.05a.635.635,0,0,0-.175-.008.946.946,0,0,1-.163-.008c-.05,0-.133.029-.192,0s-.071-.042-.108,0a.1.1,0,0,1-.088.042c-.029-.025-.054-.05-.083-.071-.038-.042-.1-.1-.054-.129s.2-.083.263-.05.179.05.229.071a.18.18,0,0,0,.138.037c.067-.008.167-.008.133-.054s-.1-.034-.138-.1-.088-.063-.067-.117a.125.125,0,0,0-.037-.129c-.029-.017-.1.008-.113-.037s-.1-.075-.046-.113.092-.1.2-.067.117.1.2.117.109.012.158.029.054,0,.167-.012.109-.033.175-.008.171-.059.209.017a.229.229,0,0,0,.1.121c.008,0,.012,0,.017.008s-.029-.025.154.046c.254.109.363.121.367.171.017.121-.033.1-.108.1m1.2.2c-.067.029-.1,0-.129.017s-.05,0-.142.033a.41.41,0,0,1-.167.021c-.021,0-.075-.067-.075-.067-.025-.054-.1-.117-.021-.142a.99.99,0,0,1,.292-.021c.088.012.1,0,.175.012s.067,0,.1.059.042.067-.029.088m.48.338c0,.025-.067.008-.121,0s0-.042.033-.067a.193.193,0,0,1,.1.017c.025.021-.008.025-.008.046m.6-.167c0,.033-.021.05-.062.05s-.029-.071-.012-.1.079,0,.079,0a.444.444,0,0,1,0,.05m.084.313c-.029-.017-.067-.054-.025-.075s.117.025.109.063-.054.025-.083.012m.279-11.675c.025.025-.025.033-.071.1s-.042.054-.083.075-.084.017-.1-.016a.107.107,0,0,0-.108-.021.153.153,0,0,1-.155-.054.069.069,0,0,1,.012-.108c.029-.021.3.025.43,0s.058.008.079.033m.221-1.176a.535.535,0,0,1-.179-.029.577.577,0,0,1-.184-.05,1.419,1.419,0,0,1-.154-.088.438.438,0,0,0-.217-.1.193.193,0,0,1-.146-.108c.046-.046.229-.042.317-.034a.968.968,0,0,0,.171.025.462.462,0,0,1,.192.058c.038.021.238.158.288.175s0,.1,0,.1a.169.169,0,0,1-.083.054m.271,1.343c-.084.025-.071.037-.125.025s-.1-.033-.092-.067c0,0,0-.012.017-.042a1.793,1.793,0,0,1,.25-.259c.058-.033.071-.129.125-.042s.129.025.058.146a.494.494,0,0,1-.234.238m-.021,12.8c-.063,0-.054-.129-.012-.142.146-.038.071.146.012.142m0,.183c-.017.025-.1-.021-.054-.054s.071.029.054.054m0-.6a.154.154,0,0,1,.062.134c-.012.058-.058.025-.1,0s-.05-.054-.05-.138a.163.163,0,0,1,.092,0m-.3-.45c.013-.038.013-.092.025-.125v.033c.025-.008.029-.029.063-.017a.234.234,0,0,1-.029.108h-.058m.1,1.477c-.046,0-.042-.138-.008-.113.079.067.058.113.008.113m0-1.168a.142.142,0,0,1-.012-.129v0c.021,0,.033-.012.063,0s.046.042.042.071,0,.054-.029.063a.082.082,0,0,1-.063,0m.213,1.835c-.083,0-.067,0-.129,0s-.012-.042.013-.088.042-.129.1-.163c.088-.042.117.05.117.167s-.017.075-.1.079M19.7,9.61a1.074,1.074,0,0,0-.146.083c-.05.038-.121.042-.125.008s-.021-.037.008-.075.013-.134.113-.158.154-.092.175,0,.054.1-.025.142m2.753-.726c-.017.042-.042.017-.058.071a.805.805,0,0,0-.042.108c-.012.042.037.013-.033.079a.25.25,0,0,1-.146.062c-.029-.05-.058-.1-.088-.158-.054.025-.108.046-.163.067a.7.7,0,0,1,0-.188l.008-.05c-.121-.033-.179-.058-.167-.021s-.054.075-.113.1a.262.262,0,0,0-.133.1.151.151,0,0,1-.117.071.222.222,0,0,1-.1,0c-.042-.008-.092,0-.075-.029s.029-.041.092-.067a.345.345,0,0,0,.092-.058.249.249,0,0,0-.054-.092c-.033-.025-.042-.017-.038-.063s.046-.1-.008-.1-.063.025-.154.059a.86.86,0,0,1-.158.05,1.158,1.158,0,0,1-.138.008c-.1,0-.037-.025-.154-.012s-.254.012-.3.017a.742.742,0,0,0-.221-.025.275.275,0,0,1-.15,0,.215.215,0,0,1,.046-.129.559.559,0,0,1,.1-.088.987.987,0,0,0,.092-.063s.079-.084.012-.084a.335.335,0,0,1-.117-.012.378.378,0,0,1,.083-.079c.046-.025.088-.033.109-.083s.033-.042.042-.1.017-.079.05-.088c.033-.029.058-.063.092-.1s.067-.058.1-.092a.211.211,0,0,0,.021-.1c-.013-.042,0-.063.029-.1a1.97,1.97,0,0,0,.138-.192c.046-.058.084-.083.108-.125s.142-.071.175-.129.046-.159.113-.192.067-.058.134-.067.025,0,.125-.009.046-.033.1-.012c-.017-.05,0-.046.008-.029-.012-.017-.025-.021-.008.029.029.1.033.079-.05.113s-.138,0-.109.059.088.029.038.125a.683.683,0,0,1-.221.2c-.067.058-.1.071-.109.129a.849.849,0,0,1-.029.113c0,.029,0,0-.05.088a.359.359,0,0,0-.05.113,1.2,1.2,0,0,1,.163-.154c.1-.084.054-.079.1-.084s.05.025.1.029.109-.008.133,0c0,0,.029.029-.05.088s-.054.025-.079.058a.317.317,0,0,0-.05.088c-.012.033.033.029.088.029s.129-.021.138,0a.285.285,0,0,1,.038.163.165.165,0,0,0,.075-.025c.029-.017.033-.071.075-.1a.543.543,0,0,0,.092-.079s.075-.088.075-.058a.1.1,0,0,0,.129.092c.025-.017.033.017.071.021s.142.038.138.079-.042.046-.063.088-.063-.008-.1.046c-.067.1-.017.075-.012.133s.083-.008,0,.054-.017.033-.017.033.075.046.121.029.079-.063.113-.075.121-.063.113-.025,0,.017-.083.092-.121.059-.167.1c-.125.137-.138.129-.129.171,0,0,.054.088.109.054s.063-.113.113-.146a.435.435,0,0,1,.121-.05c.025.1.008.146-.021.179a.158.158,0,0,0-.042.063c.054-.021.109-.038.163-.054a.214.214,0,0,1,0,.121M18.628,37.4a.1.1,0,0,0,.013.05.1.1,0,0,1-.013-.05M9.126,27.17c-.021.038-.092.038-.134.038a.133.133,0,0,1-.129-.1c-.025-.067.054-.025.063-.054a.09.09,0,0,0-.038-.088.9.9,0,0,1-.088-.038c-.025-.017.05-.088.071-.1a.14.14,0,0,0,.05-.021c.013-.017.088.054.1.075s.017.042.025.079.075.092.1.121,0,.054-.025.088m.021-.263s.042-.008.033.046c.008-.054-.033-.046-.033-.046m.2.221c-.021.029-.029.008-.067,0s-.046-.084-.046-.113.021-.008.046-.017.042-.008.088.033-.008.067-.021.1m.271.054c-.038-.012-.046-.054-.008-.071s.088.042.088.067-.042.017-.079,0" transform="translate(1830.286 7.752)" fill="#fff"/>
  </g>
</svg>
