<svg xmlns="http://www.w3.org/2000/svg" xmlns:xlink="http://www.w3.org/1999/xlink" width="110" height="110" viewBox="0 0 110 110">
  <defs>
    <filter id="Oval" x="-4" y="-1" width="118" height="118" filterUnits="userSpaceOnUse">
      <feOffset dy="3" input="SourceAlpha"/>
      <feGaussianBlur stdDeviation="3" result="blur"/>
      <feFlood flood-opacity="0.161"/>
      <feComposite operator="in" in2="blur"/>
      <feComposite in="SourceGraphic"/>
    </filter>
    <clipPath id="clip-TW">
      <rect width="110" height="110"/>
    </clipPath>
  </defs>
  <g id="TW" clip-path="url(#clip-TW)">
    <rect width="110" height="110" fill="#fff"/>
    <g id="Group_1532" data-name="Group 1532" transform="translate(19688 12304)">
      <g transform="matrix(1, 0, 0, 1, -19688, -12304)" filter="url(#Oval)">
        <circle id="Oval-2" data-name="Oval" cx="50" cy="50" r="50" transform="translate(5 5)" fill="#fff"/>
      </g>
      <path id="Twitter" d="M45.592,4.385a18.763,18.763,0,0,1-5.372,1.474A9.381,9.381,0,0,0,44.331.685,18.693,18.693,0,0,1,38.39,2.953a9.359,9.359,0,0,0-16.182,6.4,9.457,9.457,0,0,0,.244,2.133A26.552,26.552,0,0,1,3.176,1.712,9.361,9.361,0,0,0,6.07,14.2a9.276,9.276,0,0,1-4.235-1.17v.119a9.355,9.355,0,0,0,7.5,9.169,9.339,9.339,0,0,1-2.465.328,9.2,9.2,0,0,1-1.76-.169,9.368,9.368,0,0,0,8.739,6.5,18.791,18.791,0,0,1-11.619,4A18.852,18.852,0,0,1,0,32.841a26.469,26.469,0,0,0,14.339,4.2c17.2,0,26.613-14.249,26.613-26.607,0-.408-.011-.807-.027-1.209a19.011,19.011,0,0,0,4.667-4.84v0Z" transform="translate(-19655 -12268)" fill="#061095"/>
    </g>
  </g>
</svg>
