<svg xmlns="http://www.w3.org/2000/svg" width="198" height="198" viewBox="0 0 198 198">
  <g id="Group_1535" data-name="Group 1535" transform="translate(-1420 -909)">
    <circle id="Ellipse_20" data-name="Ellipse 20" cx="99" cy="99" r="99" transform="translate(1420 909)" fill="#061095"/>
    <g id="Group_1260" data-name="Group 1260" transform="translate(487.406 764.721)">
      <path id="Path_2032" data-name="Path 2032" d="M1003.15,280.111c-1.462.2-2.92.351-4.357.619-.265.049-.542.522-.649.852a9.21,9.21,0,0,1-7.023,6.634,9.037,9.037,0,0,1-9.165-3,8.546,8.546,0,0,1-2.263-5.685,1.258,1.258,0,0,0-.785-1.259c-6.636-3.445-9.435-9.485-7.908-16.85a38.671,38.671,0,0,1,6.771-14.453c1.14-1.613,2.38-3.155,3.53-4.671-1.576-2.286-3.2-4.487-4.658-6.792a35.074,35.074,0,0,1-5.217-12.92c-1.322-7.782,2.259-14.147,9.621-16.946a33.528,33.528,0,0,1,14.734-1.716c2.645.206,5.277.6,7.942.907l2.456-5.864a6.693,6.693,0,0,1-.808-.607,9.249,9.249,0,0,1-.794-12.548,9.4,9.4,0,0,1,12.624-1.877,1.206,1.206,0,0,0,1.454.164c5.539-2.914,10.817-2.235,15.777,1.366,4.282,3.109,7.16,7.379,9.513,12.025.954,1.885,1.812,3.825,2.59,5.789.328.83.684,1.071,1.555.9a54.079,54.079,0,0,1,12.329-1.016,27.413,27.413,0,0,1,12.34,2.939,14.578,14.578,0,0,1,7.583,15.6c-1,6.294-4.046,11.619-7.747,16.638-1.235,1.675-2.584,3.264-3.924,4.945,1.105,1.431,2.213,2.894,3.367,4.319a.973.973,0,0,0,.79.129c6.39-1.364,11.841,3.04,11.678,9.513a8.425,8.425,0,0,1-3.762,6.941,2.022,2.022,0,0,0-.914,2.118,13.937,13.937,0,0,1-3.572,10.968,18.3,18.3,0,0,1-10.318,5.26,45.706,45.706,0,0,1-17.008-.319c-1.539-.275-1.535-.291-2.088,1.144-2.1,5.453-4.7,10.619-8.7,14.968-2.638,2.874-5.693,5.145-9.6,5.942-5.21,1.063-9.624-.689-13.48-4.11-4.095-3.633-6.844-8.219-9.069-13.143C1004.988,284.779,1004.121,282.479,1003.15,280.111Zm-1.521-37.344c.234,4.362.456,8.318.653,12.276a2.6,2.6,0,0,0,1.167,2.2,137.247,137.247,0,0,0,19.518,11.841,1.81,1.81,0,0,0,1.713.037,134.179,134.179,0,0,0,22.505-12.577,3.58,3.58,0,0,0,1.788-3.006,129.8,129.8,0,0,0-.281-22.414,1.963,1.963,0,0,0-.7-1.229,126.531,126.531,0,0,0-22.986-13.57,1.649,1.649,0,0,0-1.225,0,121.381,121.381,0,0,0-20.535,11.9,2.035,2.035,0,0,0-.735,1.333C1002.171,234.087,1001.9,238.621,1001.629,242.767Zm64.227-2.59c4.318-5.1,8.161-10.329,9.946-16.781a13.793,13.793,0,0,0,.261-7.181c-.99-3.891-3.773-6.055-7.353-7.339-5.583-2-11.328-1.833-17.1-1.119-1.069.132-2.131.329-3.253.5.249.831.457,1.514.658,2.2a112.717,112.717,0,0,1,3.457,16.926,1.7,1.7,0,0,0,.483,1.044A115.427,115.427,0,0,1,1065.856,240.177Zm-58.563,39.105c.452,1.19.858,2.341,1.323,3.469,2.1,5.081,4.6,9.91,8.6,13.81,5.324,5.193,11.6,5.27,16.833,0a40.1,40.1,0,0,0,4.793-6.1,42.612,42.612,0,0,0,4.433-9.3,2.467,2.467,0,0,0-.429-.221,110.046,110.046,0,0,1-18.571-6.642,1.991,1.991,0,0,0-1.333.016c-2.033.7-4.02,1.531-6.068,2.173C1013.756,277.462,1010.6,278.323,1007.293,279.282Zm-23.15-40.2a5.718,5.718,0,0,0,.448-.362,111.522,111.522,0,0,1,13.691-12.032,1.753,1.753,0,0,0,.546-1.007c.7-3.583,1.313-7.182,2.049-10.756.41-1.992,1-3.946,1.561-6.091-2.245-.3-4.394-.665-6.559-.86a30.473,30.473,0,0,0-12.662,1.142c-5.923,2-8.795,6.68-7.765,12.7C976.58,228.431,980.133,233.826,984.143,239.085Zm91.681,27.182a9.559,9.559,0,0,1-8.435-4.082,9.359,9.359,0,0,1,.575-11.412c.25-.3.533-.943.393-1.144-.788-1.137-1.7-2.188-2.613-3.32-.345.32-.585.555-.838.776-3.728,3.254-7.431,6.538-11.21,9.732a3.189,3.189,0,0,0-1.161,2.109q-1.267,7.356-2.647,14.693c-.275,1.456-.74,2.875-1.142,4.4,5.452,1,10.785,1.576,16.178.54a15.225,15.225,0,0,0,7.732-3.5C1075.21,272.711,1076.034,269.73,1075.824,266.267Zm-73.855,9.814a5.871,5.871,0,0,0-.085-.591,118.333,118.333,0,0,1-3.242-15.933,2.576,2.576,0,0,0-.809-1.4c-3.788-3.445-7.621-6.84-11.415-10.278-.8-.726-1.495-1.571-2.241-2.365-3.652,3.954-7.695,10.629-8.847,15.379a14.992,14.992,0,0,0-.354,6.69,9.936,9.936,0,0,0,5.709,7.055c.272-.38.491-.68.7-.985a9.2,9.2,0,0,1,5.548-3.776,9.381,9.381,0,0,1,11.018,5.98c.114.3.505.746.735.727C999.766,276.495,1000.83,276.269,1001.969,276.081Zm5.8-70.336a5.136,5.136,0,0,0,.536.22,109.913,109.913,0,0,1,15.4,5.227,2.172,2.172,0,0,0,1.516-.053,114.754,114.754,0,0,1,15.557-5.4c.684-.181,1.368-.36,2.058-.542-1.946-5.656-5.748-12.178-9.569-15.433a12.481,12.481,0,0,0-7.108-3.34,9.328,9.328,0,0,0-5.569,1.28,25.507,25.507,0,0,1,.723,3.42,9.341,9.341,0,0,1-10.682,9.893c-.642-.088-.939.043-1.165.615C1008.922,202.991,1008.347,204.338,1007.765,205.745Zm21.36,66.169a92.56,92.56,0,0,0,15.541,5.225,93.7,93.7,0,0,0,3.453-15.918Zm15.171-62.787c-4.349.865-13.416,3.858-14.468,4.674l18.056,10.587A92.575,92.575,0,0,0,1044.3,209.127Zm-46.4,23.086a95.678,95.678,0,0,0-11.026,10.11A93.063,93.063,0,0,0,997.9,252.881Zm8.484-22.682-3.03,13.328,15.909-9.188Zm56.87,33.638-10-9.4v18.322Zm-74.2,30.538a5.328,5.328,0,0,0-.01,10.657,5.329,5.329,0,1,0,.01-10.657Zm17.53-82a5.375,5.375,0,0,0,5.412,5.3,5.569,5.569,0,0,0,5.267-5.389,5.468,5.468,0,0,0-5.284-5.234A5.411,5.411,0,0,0,1006.582,191.7Zm68.508,70.413a5.385,5.385,0,0,0,5.361-5.317,5.33,5.33,0,0,0-5.3-5.251,5.408,5.408,0,0,0-5.374,5.309A5.352,5.352,0,0,0,1075.09,262.117Zm-71.965.155,2.825,13.166,12.547-3.79Z" transform="translate(0 0)" fill="#fff"/>
    </g>
  </g>
</svg>
