<svg xmlns="http://www.w3.org/2000/svg" width="316.584" height="69.304" viewBox="0 0 316.584 69.304">
  <g id="Group_1532" data-name="Group 1532" transform="translate(21989.742 10653)">
    <path id="Path_2268" data-name="Path 2268" d="M36.947-205.521l19.5.032a2.571,2.571,0,0,1,1.071.224,2.89,2.89,0,0,1,.863.591,2.664,2.664,0,0,1,.575.863,2.741,2.741,0,0,1,.208,1.071,2.86,2.86,0,0,1-.208,1.087,2.623,2.623,0,0,1-.575.879,2.664,2.664,0,0,1-.863.575,2.741,2.741,0,0,1-1.071.208H33.814a2.7,2.7,0,0,1-1.71-.879,2.624,2.624,0,0,1-.687-1.838v-35.454a2.682,2.682,0,0,1,.224-1.087,2.835,2.835,0,0,1,.591-.879,2.664,2.664,0,0,1,.863-.575,2.741,2.741,0,0,1,1.071-.208,2.735,2.735,0,0,1,1.966.783,2.613,2.613,0,0,1,.815,1.966Zm36.572-16.848,13.363-17.615a2.621,2.621,0,0,1,1.838-.911,2.635,2.635,0,0,1,1.966.655,2.68,2.68,0,0,1,.991,1.758,2.936,2.936,0,0,1-.671,2.206L76.3-217.509v14.8a2.6,2.6,0,0,1-.8,1.934,2.681,2.681,0,0,1-1.95.783,2.681,2.681,0,0,1-1.95-.783,2.6,2.6,0,0,1-.8-1.934v-14.8L55.936-236.243a2.7,2.7,0,0,1-.655-2.014,2.683,2.683,0,0,1,.975-1.918,2.579,2.579,0,0,1,.943-.559,2.779,2.779,0,0,1,1.055-.144,2.706,2.706,0,0,1,1.023.272,2.393,2.393,0,0,1,.847.687Zm20.908-14.738a2.6,2.6,0,0,1-.016-2.094,2.672,2.672,0,0,1,1.519-1.487,2.661,2.661,0,0,1,2.062,0,2.62,2.62,0,0,1,1.487,1.471L112.2-209.549l12.66-29.667a2.7,2.7,0,0,1,1.471-1.455,2.732,2.732,0,0,1,2.11-.016,2.759,2.759,0,0,1,1.471,1.471,2.6,2.6,0,0,1,0,2.11L114.7-201.684a2.708,2.708,0,0,1-1.119,1.295,2.7,2.7,0,0,1-1.63.4,2.773,2.773,0,0,1-1.359-.5,2.876,2.876,0,0,1-.975-1.2Zm56.457,14.738,13.363-17.615a2.621,2.621,0,0,1,1.838-.911,2.635,2.635,0,0,1,1.966.655,2.68,2.68,0,0,1,.991,1.758,2.936,2.936,0,0,1-.671,2.206l-14.706,18.766v14.8a2.6,2.6,0,0,1-.8,1.934,2.681,2.681,0,0,1-1.95.783,2.681,2.681,0,0,1-1.95-.783,2.6,2.6,0,0,1-.8-1.934v-14.8L133.3-236.243a2.7,2.7,0,0,1-.655-2.014,2.683,2.683,0,0,1,.975-1.918,2.578,2.578,0,0,1,.943-.559,2.779,2.779,0,0,1,1.055-.144,2.706,2.706,0,0,1,1.023.272,2.393,2.393,0,0,1,.847.687Zm40.377-18.862a20.2,20.2,0,0,1,5.531.751,21.625,21.625,0,0,1,4.971,2.094,20.132,20.132,0,0,1,4.22,3.261,21.48,21.48,0,0,1,3.261,4.22,20.836,20.836,0,0,1,2.11,4.971,20.377,20.377,0,0,1,.751,5.547,20,20,0,0,1-1.646,8.088,21.275,21.275,0,0,1-4.476,6.6,21,21,0,0,1-6.618,4.46,20.28,20.28,0,0,1-8.1,1.63,20.791,20.791,0,0,1-5.547-.735,20.372,20.372,0,0,1-4.971-2.094,20.675,20.675,0,0,1-4.188-3.261,20.916,20.916,0,0,1-3.229-4.2,20.822,20.822,0,0,1-2.078-4.955,20.616,20.616,0,0,1-.735-5.531,20.792,20.792,0,0,1,.735-5.547,20.757,20.757,0,0,1,2.078-4.971,21.32,21.32,0,0,1,3.229-4.22,19.945,19.945,0,0,1,4.188-3.261,21.31,21.31,0,0,1,4.955-2.094A20.323,20.323,0,0,1,191.261-241.23Zm0,5.531a14.86,14.86,0,0,0-5.946,1.2,15.125,15.125,0,0,0-4.843,3.293,15.779,15.779,0,0,0-3.261,4.875,14.861,14.861,0,0,0-1.2,5.946,14.94,14.94,0,0,0,1.2,5.978,15.389,15.389,0,0,0,3.261,4.843,15.388,15.388,0,0,0,4.843,3.261,14.86,14.86,0,0,0,5.946,1.2,14.975,14.975,0,0,0,5.962-1.2,15.532,15.532,0,0,0,4.875-3.261,15.254,15.254,0,0,0,3.277-4.843,14.939,14.939,0,0,0,1.2-5.978,14.861,14.861,0,0,0-1.2-5.946,15.638,15.638,0,0,0-3.277-4.875,15.264,15.264,0,0,0-4.875-3.293A14.975,14.975,0,0,0,191.261-235.7Z" transform="translate(-21885.262 -10408.012)" fill="#fff"/>
    <path id="Path_2269" data-name="Path 2269" d="M15.962-71.094a.579.579,0,0,1,.185.42.593.593,0,0,1-.175.42.6.6,0,0,1-.429.18.539.539,0,0,1-.42-.171,4.846,4.846,0,0,0-1.6-1.08,4.779,4.779,0,0,0-1.823-.36,4.623,4.623,0,0,0-1.86.378,4.875,4.875,0,0,0-1.523,1.029,4.847,4.847,0,0,0-1.029,1.532,4.711,4.711,0,0,0-.378,1.879,4.7,4.7,0,0,0,.365,1.832,4.912,4.912,0,0,0,1,1.532,4.822,4.822,0,0,0,1.509,1.052,4.571,4.571,0,0,0,1.9.392,5.041,5.041,0,0,0,1.819-.332,4.563,4.563,0,0,0,1.6-1.062.609.609,0,0,1,.434-.175.581.581,0,0,1,.415.157.554.554,0,0,1,.18.429.585.585,0,0,1-.171.42,5.816,5.816,0,0,1-2,1.334,6.187,6.187,0,0,1-2.271.429,5.785,5.785,0,0,1-1.592-.217,6.175,6.175,0,0,1-1.426-.6,5.841,5.841,0,0,1-1.209-.937,5.983,5.983,0,0,1-.932-1.219,6.1,6.1,0,0,1-.6-1.435,5.953,5.953,0,0,1-.212-1.6,5.924,5.924,0,0,1,.2-1.542,6.123,6.123,0,0,1,.577-1.422A6.158,6.158,0,0,1,7.4-71.057a5.824,5.824,0,0,1,1.2-.969,6,6,0,0,1,1.449-.632,5.923,5.923,0,0,1,1.657-.226,5.921,5.921,0,0,1,2.266.452A6.035,6.035,0,0,1,15.962-71.094Zm3.166,5.834a3.074,3.074,0,0,0,.249,1.232,3.278,3.278,0,0,0,.683,1.015,3.219,3.219,0,0,0,1.02.692,3.113,3.113,0,0,0,1.251.254,3.1,3.1,0,0,0,1.255-.254,3.178,3.178,0,0,0,1.011-.692,3.252,3.252,0,0,0,.674-1.015,3.124,3.124,0,0,0,.245-1.232,3.215,3.215,0,0,0-.245-1.251,3.224,3.224,0,0,0-.674-1.025,3.117,3.117,0,0,0-1.011-.688,3.153,3.153,0,0,0-1.255-.249,3.163,3.163,0,0,0-1.251.249,3.156,3.156,0,0,0-1.02.688,3.249,3.249,0,0,0-.683,1.025A3.163,3.163,0,0,0,19.129-65.26Zm-1.2,0a4.324,4.324,0,0,1,.346-1.722,4.391,4.391,0,0,1,.946-1.4,4.5,4.5,0,0,1,1.4-.942,4.268,4.268,0,0,1,1.708-.346,4.258,4.258,0,0,1,1.712.346,4.458,4.458,0,0,1,1.394.942,4.43,4.43,0,0,1,.942,1.4,4.324,4.324,0,0,1,.346,1.722,4.268,4.268,0,0,1-.346,1.708,4.5,4.5,0,0,1-.942,1.4,4.419,4.419,0,0,1-1.394.946,4.258,4.258,0,0,1-1.712.346,4.268,4.268,0,0,1-1.708-.346,4.46,4.46,0,0,1-1.4-.946,4.46,4.46,0,0,1-.946-1.4A4.268,4.268,0,0,1,17.929-65.26Zm11.013-3.711a.8.8,0,0,1,.106-.434.4.4,0,0,1,.365-.166.448.448,0,0,1,.374.171,1.5,1.5,0,0,1,.226.438l.074,1.126a4.132,4.132,0,0,1,.582-.743,3.815,3.815,0,0,1,.734-.582,3.534,3.534,0,0,1,.868-.378,3.545,3.545,0,0,1,.983-.134,3.482,3.482,0,0,1,1.542.328,3.24,3.24,0,0,1,1.131.9,4.072,4.072,0,0,1,.7,1.339,5.468,5.468,0,0,1,.24,1.643v3.9a.591.591,0,0,1-.166.429.567.567,0,0,1-.425.171.6.6,0,0,1-.429-.171.567.567,0,0,1-.18-.429v-3.859a3.99,3.99,0,0,0-.171-1.182A3,3,0,0,0,35-67.577a2.3,2.3,0,0,0-.808-.655,2.453,2.453,0,0,0-1.1-.24,2.631,2.631,0,0,0-1.168.263,3,3,0,0,0-.932.7,3.316,3.316,0,0,0-.618,1.02,3.332,3.332,0,0,0-.226,1.219V-61.6a.646.646,0,0,1-.162.448.549.549,0,0,1-.429.18.582.582,0,0,1-.434-.18.616.616,0,0,1-.175-.448Zm10.533,0a.8.8,0,0,1,.106-.434.4.4,0,0,1,.365-.166.448.448,0,0,1,.374.171,1.5,1.5,0,0,1,.226.438l.074,1.126a4.132,4.132,0,0,1,.582-.743,3.815,3.815,0,0,1,.734-.582,3.534,3.534,0,0,1,.868-.378,3.545,3.545,0,0,1,.983-.134,3.482,3.482,0,0,1,1.542.328,3.24,3.24,0,0,1,1.131.9,4.072,4.072,0,0,1,.7,1.339,5.468,5.468,0,0,1,.24,1.643v3.9a.591.591,0,0,1-.166.429.567.567,0,0,1-.425.171.6.6,0,0,1-.429-.171.567.567,0,0,1-.18-.429v-3.859a3.989,3.989,0,0,0-.171-1.182,3,3,0,0,0-.494-.969,2.3,2.3,0,0,0-.808-.655,2.453,2.453,0,0,0-1.1-.24,2.631,2.631,0,0,0-1.168.263,3,3,0,0,0-.932.7,3.316,3.316,0,0,0-.618,1.02,3.333,3.333,0,0,0-.226,1.219V-61.6a.646.646,0,0,1-.162.448.549.549,0,0,1-.429.18.582.582,0,0,1-.434-.18.616.616,0,0,1-.175-.448Zm11.29,4.256a2.944,2.944,0,0,0,.342,1.057,3.052,3.052,0,0,0,.679.84,3.156,3.156,0,0,0,.937.558,3.075,3.075,0,0,0,1.117.2,3.252,3.252,0,0,0,1.283-.258,2.561,2.561,0,0,0,1-.729.633.633,0,0,1,.6-.129.516.516,0,0,1,.277.24.607.607,0,0,1,.125.4.551.551,0,0,1-.226.415,4.02,4.02,0,0,1-1.251.9,4.142,4.142,0,0,1-1.8.365,4.258,4.258,0,0,1-1.712-.346,4.475,4.475,0,0,1-1.4-.946,4.46,4.46,0,0,1-.946-1.4,4.291,4.291,0,0,1-.346-1.717,4.258,4.258,0,0,1,.346-1.712,4.475,4.475,0,0,1,.946-1.4,4.475,4.475,0,0,1,1.4-.946,4.258,4.258,0,0,1,1.712-.346,4.318,4.318,0,0,1,1.708.342,4.38,4.38,0,0,1,1.4.937A4.524,4.524,0,0,1,57.891-67a4.3,4.3,0,0,1,.36,1.7.572.572,0,0,1-.162.415.571.571,0,0,1-.429.166Zm6.25-1.015a2.908,2.908,0,0,0-.337-1.089,3.167,3.167,0,0,0-.692-.868,3.143,3.143,0,0,0-.965-.577,3.236,3.236,0,0,0-1.163-.208,3.174,3.174,0,0,0-1.163.212,3.206,3.206,0,0,0-.96.577,2.981,2.981,0,0,0-.679.868,3.045,3.045,0,0,0-.328,1.085Zm4.025.425-.018.037c0,.006,0,.009,0,.009s0,0,0,.009a.008.008,0,0,0,.009.009,3.078,3.078,0,0,0,.235,1.182,3.256,3.256,0,0,0,.651,1.011,3.265,3.265,0,0,0,.979.706,2.9,2.9,0,0,0,1.219.277,3.1,3.1,0,0,0,1.135-.189,3.2,3.2,0,0,0,1.006-.614q.092-.074.2-.148a.649.649,0,0,1,.226-.1.527.527,0,0,1,.249,0,.693.693,0,0,1,.277.162.529.529,0,0,1,.194.438.694.694,0,0,1-.222.475,3.931,3.931,0,0,1-1.339.868,4.336,4.336,0,0,1-1.625.314,4.285,4.285,0,0,1-1.7-.342,4.433,4.433,0,0,1-1.394-.932,4.417,4.417,0,0,1-.942-1.385,4.2,4.2,0,0,1-.346-1.7l.018-.055q-.009,0-.009-.018a.008.008,0,0,0-.009-.009A4.226,4.226,0,0,1,60.185-67a4.473,4.473,0,0,1,.942-1.389,4.394,4.394,0,0,1,1.394-.937,4.285,4.285,0,0,1,1.7-.342,4.562,4.562,0,0,1,1.629.3,3.724,3.724,0,0,1,1.334.849.7.7,0,0,1,.222.48.534.534,0,0,1-.194.443.643.643,0,0,1-.277.157.568.568,0,0,1-.249,0,.7.7,0,0,1-.226-.1q-.106-.069-.2-.143a2.951,2.951,0,0,0-1-.6,3.268,3.268,0,0,0-1.14-.18,2.922,2.922,0,0,0-1.209.272,3.2,3.2,0,0,0-.979.7,3.342,3.342,0,0,0-.655,1.006A3.016,3.016,0,0,0,61.039-65.306ZM71.655-69.58h1.4a.578.578,0,0,1,.425.175.578.578,0,0,1,.175.425.574.574,0,0,1-.175.429.586.586,0,0,1-.425.171h-1.4V-61.6a.6.6,0,0,1-.175.443.578.578,0,0,1-.425.175.578.578,0,0,1-.425-.175.6.6,0,0,1-.175-.443V-68.38H69.393a.589.589,0,0,1-.434-.175.578.578,0,0,1-.175-.425.578.578,0,0,1,.175-.425.589.589,0,0,1,.434-.175h1.062v-1.865a.574.574,0,0,1,.175-.429.6.6,0,0,1,.434-.171.567.567,0,0,1,.425.171.591.591,0,0,1,.166.429Zm3.8-1.883a.7.7,0,0,1,.212-.522.7.7,0,0,1,.508-.208.712.712,0,0,1,.517.208.7.7,0,0,1,.212.522.693.693,0,0,1-.212.508.7.7,0,0,1-.517.212.681.681,0,0,1-.282-.06.765.765,0,0,1-.231-.157.715.715,0,0,1-.152-.226A.7.7,0,0,1,75.458-71.463Zm1.32,9.878a.589.589,0,0,1-.175.434.568.568,0,0,1-.415.175.594.594,0,0,1-.429-.175.582.582,0,0,1-.18-.434v-7.367a.571.571,0,0,1,.18-.425.594.594,0,0,1,.429-.175.559.559,0,0,1,.425.175.6.6,0,0,1,.166.425Zm2.936-7.385a.8.8,0,0,1,.106-.434.4.4,0,0,1,.365-.166.448.448,0,0,1,.374.171,1.5,1.5,0,0,1,.226.438l.074,1.126a4.133,4.133,0,0,1,.582-.743,3.815,3.815,0,0,1,.734-.582,3.534,3.534,0,0,1,.868-.378,3.545,3.545,0,0,1,.983-.134,3.482,3.482,0,0,1,1.542.328,3.24,3.24,0,0,1,1.131.9,4.072,4.072,0,0,1,.7,1.339,5.468,5.468,0,0,1,.24,1.643v3.9a.591.591,0,0,1-.166.429.567.567,0,0,1-.425.171.6.6,0,0,1-.429-.171.567.567,0,0,1-.18-.429v-3.859a3.989,3.989,0,0,0-.171-1.182,3,3,0,0,0-.494-.969,2.3,2.3,0,0,0-.808-.655,2.453,2.453,0,0,0-1.1-.24,2.631,2.631,0,0,0-1.168.263,3,3,0,0,0-.932.7,3.316,3.316,0,0,0-.618,1.02,3.332,3.332,0,0,0-.226,1.219V-61.6a.646.646,0,0,1-.162.448.549.549,0,0,1-.429.18.582.582,0,0,1-.434-.18.616.616,0,0,1-.175-.448Zm9.961,3.711a4.324,4.324,0,0,1,.346-1.722,4.391,4.391,0,0,1,.946-1.4,4.5,4.5,0,0,1,1.4-.942,4.268,4.268,0,0,1,1.708-.346,4.258,4.258,0,0,1,1.712.346,4.458,4.458,0,0,1,1.394.942,4.429,4.429,0,0,1,.942,1.4,4.324,4.324,0,0,1,.346,1.722,4.291,4.291,0,0,1-.208,1.339,4.521,4.521,0,0,1-.577,1.172,2.469,2.469,0,0,1,.526.914,3.631,3.631,0,0,1,.166,1.117,3.357,3.357,0,0,1-.258,1.357,2.984,2.984,0,0,1-.692,1,3,3,0,0,1-.992.618,3.209,3.209,0,0,1-1.149.212,4.273,4.273,0,0,1-.471-.028q-.249-.028-.508-.06t-.512-.051a4.311,4.311,0,0,0-.485-.009,2.788,2.788,0,0,0-.554.1,1.564,1.564,0,0,0-.535.268.512.512,0,0,1-.429.129.69.69,0,0,1-.392-.194.6.6,0,0,1-.175-.392.6.6,0,0,1,.212-.466,1.734,1.734,0,0,1,.6-.328,5.5,5.5,0,0,1,.715-.189,4.853,4.853,0,0,1,1.075-.028q.531.046,1.057.046a2.516,2.516,0,0,0,1.68-.517,1.819,1.819,0,0,0,.609-1.468,2.184,2.184,0,0,0-.032-.4,2.182,2.182,0,0,0-.078-.3,1.152,1.152,0,0,0-.106-.231q-.06-.1-.125-.189a4.165,4.165,0,0,1-1.265.725,4.362,4.362,0,0,1-1.5.254,4.268,4.268,0,0,1-1.708-.346,4.5,4.5,0,0,1-1.4-.942,4.4,4.4,0,0,1-.946-1.4A4.268,4.268,0,0,1,89.675-65.26Zm1.2,0a3.074,3.074,0,0,0,.249,1.232,3.222,3.222,0,0,0,.683,1.011,3.258,3.258,0,0,0,1.02.688,3.113,3.113,0,0,0,1.251.254,3.1,3.1,0,0,0,1.255-.254,3.216,3.216,0,0,0,1.011-.688,3.2,3.2,0,0,0,.674-1.011,3.124,3.124,0,0,0,.245-1.232,3.215,3.215,0,0,0-.245-1.251,3.224,3.224,0,0,0-.674-1.025,3.117,3.117,0,0,0-1.011-.688,3.153,3.153,0,0,0-1.255-.249,3.163,3.163,0,0,0-1.251.249,3.157,3.157,0,0,0-1.02.688,3.249,3.249,0,0,0-.683,1.025A3.163,3.163,0,0,0,90.875-65.26Zm19.423-.286-3.813-4.939v8.917a.563.563,0,0,1-.175.42.586.586,0,0,1-.425.171.586.586,0,0,1-.425-.171.563.563,0,0,1-.175-.42V-72.2a.56.56,0,0,1,.171-.411.594.594,0,0,1,.411-.18h.065a.558.558,0,0,1,.406.194l4.459,5.8,4.44-5.779a.494.494,0,0,1,.351-.2.259.259,0,0,0,.051,0,.26.26,0,0,1,.051,0,.582.582,0,0,1,.429.171.571.571,0,0,1,.171.42v10.634a.563.563,0,0,1-.175.42.586.586,0,0,1-.425.171.591.591,0,0,1-.42-.171.556.556,0,0,1-.18-.42v-8.927l-3.8,4.957-.083.1-.018.018a.558.558,0,0,1-.3.166.541.541,0,0,1-.245-.018.541.541,0,0,1-.217-.138.016.016,0,0,1-.018-.018Zm9.037-5.917a.7.7,0,0,1,.212-.522.7.7,0,0,1,.508-.208.712.712,0,0,1,.517.208.7.7,0,0,1,.212.522.693.693,0,0,1-.212.508.7.7,0,0,1-.517.212.681.681,0,0,1-.282-.06.765.765,0,0,1-.231-.157.715.715,0,0,1-.152-.226A.7.7,0,0,1,119.335-71.463Zm1.32,9.878a.589.589,0,0,1-.175.434.568.568,0,0,1-.415.175.594.594,0,0,1-.429-.175.582.582,0,0,1-.18-.434v-7.367a.571.571,0,0,1,.18-.425.594.594,0,0,1,.429-.175.559.559,0,0,1,.425.175.6.6,0,0,1,.166.425Zm2.936-7.385a.8.8,0,0,1,.106-.434.4.4,0,0,1,.365-.166.448.448,0,0,1,.374.171,1.5,1.5,0,0,1,.226.438l.074,1.126a4.133,4.133,0,0,1,.582-.743,3.816,3.816,0,0,1,.734-.582,3.534,3.534,0,0,1,.868-.378,3.545,3.545,0,0,1,.983-.134,3.482,3.482,0,0,1,1.542.328,3.24,3.24,0,0,1,1.131.9,4.072,4.072,0,0,1,.7,1.339,5.468,5.468,0,0,1,.24,1.643v3.9a.591.591,0,0,1-.166.429.567.567,0,0,1-.425.171.6.6,0,0,1-.429-.171.567.567,0,0,1-.18-.429v-3.859a3.99,3.99,0,0,0-.171-1.182,3,3,0,0,0-.494-.969,2.3,2.3,0,0,0-.808-.655,2.453,2.453,0,0,0-1.1-.24,2.63,2.63,0,0,0-1.168.263,3,3,0,0,0-.932.7,3.316,3.316,0,0,0-.618,1.02,3.332,3.332,0,0,0-.226,1.219V-61.6a.646.646,0,0,1-.162.448.549.549,0,0,1-.429.18.582.582,0,0,1-.434-.18.616.616,0,0,1-.175-.448Zm18.841,7.394a.823.823,0,0,1-.1.434.4.4,0,0,1-.369.166.377.377,0,0,1-.328-.134.882.882,0,0,1-.125-.217l-.148-1.219a4.476,4.476,0,0,1-1.5,1.232,4.223,4.223,0,0,1-1.948.457,4.242,4.242,0,0,1-1.717-.351,4.469,4.469,0,0,1-1.4-.951,4.435,4.435,0,0,1-.937-1.4,4.341,4.341,0,0,1-.342-1.717,4.308,4.308,0,0,1,.342-1.712,4.394,4.394,0,0,1,.937-1.394,4.444,4.444,0,0,1,1.4-.942,4.291,4.291,0,0,1,1.717-.346,4.243,4.243,0,0,1,1.855.411,4.484,4.484,0,0,1,1.468,1.112v-4.108a.64.64,0,0,1,.166-.443.546.546,0,0,1,.425-.185.571.571,0,0,1,.438.185.63.63,0,0,1,.171.443Zm-1.32-3.7a3.13,3.13,0,0,0-.249-1.246,3.207,3.207,0,0,0-.683-1.015,3.194,3.194,0,0,0-1.02-.683,3.163,3.163,0,0,0-1.251-.249,3.153,3.153,0,0,0-1.255.249,3.153,3.153,0,0,0-1.011.683,3.182,3.182,0,0,0-.674,1.015,3.181,3.181,0,0,0-.245,1.246,3.158,3.158,0,0,0,.245,1.237,3.237,3.237,0,0,0,.674,1.02,3.241,3.241,0,0,0,1.011.7,3.056,3.056,0,0,0,1.255.258,3.066,3.066,0,0,0,1.251-.258,3.282,3.282,0,0,0,1.02-.7,3.263,3.263,0,0,0,.683-1.02A3.107,3.107,0,0,0,141.111-65.278Zm6.213.3q-.415-.148-.835-.337a3.455,3.455,0,0,1-.757-.462,2.235,2.235,0,0,1-.549-.651,1.821,1.821,0,0,1-.212-.9,2.077,2.077,0,0,1,.235-1.006,2.216,2.216,0,0,1,.632-.729,2.871,2.871,0,0,1,.919-.448,3.883,3.883,0,0,1,1.094-.152,4.533,4.533,0,0,1,.789.069,3.277,3.277,0,0,1,.734.217,2.526,2.526,0,0,1,.618.378,1.8,1.8,0,0,1,.443.545.626.626,0,0,1,.069.365.485.485,0,0,1-.134.291.549.549,0,0,1-.277.162.441.441,0,0,1-.323-.042,2.482,2.482,0,0,0-.822-.632,2.482,2.482,0,0,0-1.015-.189,3.508,3.508,0,0,0-.651.06,1.876,1.876,0,0,0-.568.2,1.106,1.106,0,0,0-.4.365,1,1,0,0,0-.148.558.865.865,0,0,0,.143.5,1.272,1.272,0,0,0,.392.36,2.862,2.862,0,0,0,.577.263q.328.111.688.222.591.185,1.122.4a4.193,4.193,0,0,1,.932.508,2.333,2.333,0,0,1,.642.706,1.916,1.916,0,0,1,.24.983,2.2,2.2,0,0,1-.231,1,2.5,2.5,0,0,1-.637.8,3.04,3.04,0,0,1-.955.535,3.511,3.511,0,0,1-1.177.194,4.743,4.743,0,0,1-.932-.092,4.065,4.065,0,0,1-.872-.277,2.89,2.89,0,0,1-.739-.475,2.291,2.291,0,0,1-.531-.7.683.683,0,0,1-.088-.475.5.5,0,0,1,.217-.314.587.587,0,0,1,.406-.074.831.831,0,0,1,.462.245,1.925,1.925,0,0,0,.826.734,2.823,2.823,0,0,0,1.251.263,2.38,2.38,0,0,0,.679-.1,1.893,1.893,0,0,0,.577-.277,1.421,1.421,0,0,0,.4-.429,1.066,1.066,0,0,0,.148-.554.811.811,0,0,0-.212-.554,2.142,2.142,0,0,0-.554-.434,4.634,4.634,0,0,0-.766-.342Q147.749-64.854,147.324-64.983Z" transform="translate(-21841.744 -10526.523)" fill="#fff"/>
    <g id="Group_1388" data-name="Group 1388" transform="translate(-21989.742 -10653)">
      <g id="Group_1369" data-name="Group 1369" transform="translate(0 0)">
        <path id="Path_2239" data-name="Path 2239" d="M68.74,20.2H84.589c.253,0,.506-.008.759,0,.432.012.641-.184.636-.624-.008-.727,0-1.455,0-2.183,0-.439-.232-.625-.655-.619-.285,0-.569,0-.854,0q-10.534,0-21.068,0c-1.475,0-1.4.088-1.4-1.386,0-.411,0-.823.01-1.234a.545.545,0,0,1,.6-.588c.221,0,.443,0,.664,0h8.541c.253,0,.506-.01.759-.008a.516.516,0,0,0,.585-.581c0-.728.006-1.455,0-2.182-.006-.469-.255-.679-.727-.656-.379.018-.759,0-1.139,0H47.378c-1.268,0-1.28,0-1.267-1.235.021-2.156-.284-1.852,1.858-1.857,5.883-.014,11.767,0,17.651-.006,1.213,0,1.27-.058,1.287-1.281.007-.506,0-1.012-.006-1.518a.566.566,0,0,0-.654-.626c-.728,0-1.455,0-2.183,0q-3.606,0-7.212,0c-.957,0-.959-.01-.971-.936-.006-.443,0-.886,0-1.329.01-.963.013-.964.933-.971q.522,0,1.044,0c6.01,0,12.021-.016,18.031-.007A31.011,31.011,0,0,1,89.535,3.48,23.245,23.245,0,0,1,95.168,7.3c.737.678.733.69.144,1.452a24.917,24.917,0,0,0-3.644,6.4,23.7,23.7,0,0,0-1.49,11.89,13.6,13.6,0,0,1-1.642,9.232A38.469,38.469,0,0,0,86,41.343a4.949,4.949,0,0,0,1.019,5.775,5.329,5.329,0,0,0,2.141,1.17,1.027,1.027,0,0,1,.8,1.111,5.962,5.962,0,0,0,.984,3.5,1.988,1.988,0,0,1,.268.893,6.948,6.948,0,0,0,1.131,3.079,14.783,14.783,0,0,1,1.372,2.367,33.284,33.284,0,0,1,.994,3.343c.076.269-.068.429-.335.452-.251.022-.505.015-.758.024-1.578.056-3.16.055-4.732.182a4.837,4.837,0,0,0-4.635,4.451c-.07.469-.142.938-.192,1.409a.55.55,0,0,1-.616.566c-.19,0-.38,0-.569,0H69.111c-.221,0-.443-.012-.664,0-.458.021-.612-.217-.6-.642.013-.6-.01-1.2.009-1.8.02-.646.074-.708.714-.723.949-.022,1.9-.006,2.847-.012s1-.049,1.006-1.034c.006-.538.016-1.076,0-1.613-.023-.672-.108-.768-.782-.776-1.392-.017-2.784-.006-4.176-.007-.538,0-1.076-.006-1.613,0-.43.005-.643-.186-.638-.626.008-.664.006-1.329,0-1.993a.469.469,0,0,1,.517-.533c.253-.006.506-.01.759-.01q5.552,0,11.1,0c1.158,0,1.16,0,1.169-1.143,0-.506.013-1.013,0-1.518-.02-.682-.073-.732-.778-.759-.411-.016-.822-.008-1.234-.008q-3.843,0-7.687,0c-.942,0-.954-.018-.967-.951-.007-.538,0-1.076,0-1.613,0-.479.234-.677.707-.668q1.233.022,2.467,0c.795-.013.84-.068.849-.883.006-.569.02-1.139,0-1.708-.026-.706-.132-.821-.851-.825-2.309-.014-4.619-.006-6.928-.007-1.313,0-1.313,0-1.313-1.286,0-.285,0-.569,0-.854.014-.909.044-.951.985-.954,3.227-.007,6.453,0,9.68,0,1.4,0,1.4,0,1.408-1.434,0-.411.014-.823,0-1.234-.028-.616-.126-.717-.719-.752-.347-.02-.7-.009-1.044-.009H54.918c-.158,0-.316,0-.474,0-.778-.021-.82-.053-.839-.793-.015-.6.01-1.2,0-1.8-.011-.448.193-.634.628-.612.221.011.443,0,.664,0H65.521c.253,0,.506-.007.759,0a.538.538,0,0,0,.6-.584c.02-.758.022-1.518.013-2.276,0-.384-.23-.566-.613-.56-.285,0-.569,0-.854,0H51.379c-.221,0-.443,0-.664-.006-.36,0-.507-.2-.507-.54,0-.7,0-1.392,0-2.088,0-.38.18-.59.581-.578.221.006.443,0,.664,0q15.422,0,30.843,0c1.964,0,1.673.118,1.687-1.67C84,29.776,84.112,30,82.275,30q-9.87-.013-19.74,0c-1.273,0-1.274,0-1.277-1.242,0-.411,0-.823,0-1.234a.583.583,0,0,1,.63-.661c.253-.013.506-.015.759-.015,2.278,0,4.555,0,6.833,0,.965,0,1.008-.053,1.022-1.026.009-.6-.005-1.2,0-1.8a.509.509,0,0,0-.571-.589c-.285,0-.569-.009-.854-.009H53.13c-.285,0-.57.009-.854-.007-.626-.035-.694-.084-.743-.721s-.047-1.26-.075-1.89a.48.48,0,0,1,.485-.57c.283-.022.569-.021.853-.021Z" transform="translate(-40.886 -0.362)" fill="#fff"/>
        <path id="Path_2240" data-name="Path 2240" d="M198.863,468.866c-.011,1.878.176,1.624-1.595,1.614-1.629-.01-1.659.387-1.669-1.691-.008-1.536,0-1.536,1.556-1.531.378,0,.756.012,1.133,0,.406-.014.571.195.574.572C198.866,468.174,198.863,468.52,198.863,468.866Z" transform="translate(-173.451 -414.388)" fill="#fff"/>
        <path id="Path_2241" data-name="Path 2241" d="M126.422,237.36c-1.711-.015-1.571.168-1.568-1.583s-.149-1.573,1.573-1.57,1.578-.175,1.575,1.574C128,237.461,128.178,237.359,126.422,237.36Z" transform="translate(-110.714 -207.723)" fill="#fff"/>
        <path id="Path_2242" data-name="Path 2242" d="M177.566,529.248c-1.646-.009-1.572.145-1.549-1.607.021-1.611-.279-1.566,1.578-1.561,1.873.005,1.633-.1,1.641,1.5C179.246,529.4,179.411,529.246,177.566,529.248Z" transform="translate(-156.08 -466.552)" fill="#fff"/>
        <path id="Path_2243" data-name="Path 2243" d="M49.138,177.165c0-.284-.009-.569,0-.853.026-.671.062-.721.69-.74s1.264,0,1.9,0a.5.5,0,0,1,.578.578c-.006.632.023,1.265-.013,1.895-.033.589-.169.705-.758.726-.568.02-1.138-.01-1.705.01-.479.016-.705-.183-.688-.667.011-.316,0-.632,0-.948Z" transform="translate(-43.571 -155.725)" fill="#fff"/>
        <path id="Path_2244" data-name="Path 2244" d="M133.066,120.1c-1.751-.015-1.562.212-1.578-1.543-.018-1.931.031-1.656,1.706-1.664,1.439-.007,1.439,0,1.446,1.47,0,.063,0,.126,0,.189C134.63,120.273,134.836,120.094,133.066,120.1Z" transform="translate(-116.597 -103.691)" fill="#fff"/>
        <path id="Path_2245" data-name="Path 2245" d="M28.229,294.049c0-.157.007-.315,0-.471-.066-1.215-.042-1.243,1.132-1.245.409,0,.818-.011,1.226,0,.666.021.725.064.748.683s-.007,1.258.014,1.886c.017.5-.223.662-.69.646-.6-.02-1.2.012-1.792-.011-.627-.023-.69-.109-.665-.737.01-.251.031-.5.047-.752Z" transform="translate(-25.004 -259.269)" fill="#fff"/>
        <path id="Path_2246" data-name="Path 2246" d="M147.5,409.638c1.851-.028,1.559.038,1.57,1.607.011,1.5.163,1.5-1.5,1.484-.38,0-.759-.01-1.139,0s-.591-.153-.587-.558c.007-.633.013-1.266,0-1.9-.01-.435.168-.649.612-.637C146.8,409.646,147.148,409.638,147.5,409.638Z" transform="translate(-129.326 -363.292)" fill="#fff"/>
        <path id="Path_2247" data-name="Path 2247" d="M1.607,59.312c1.845-.012,1.61-.07,1.618,1.647.007,1.451,0,1.459-1.455,1.449C-.254,62.395.02,62.645,0,60.649c-.012-1.466-.091-1.339,1.319-1.337Z" transform="translate(0 -52.634)" fill="#fff"/>
        <path id="Path_2248" data-name="Path 2248" d="M68.946,118.494c-.025-1.808-.056-1.629,1.634-1.624,1.295,0,1.484-.271,1.463,1.427-.025,2.057.2,1.756-1.739,1.776C68.732,120.091,68.958,120.139,68.946,118.494Z" transform="translate(-61.134 -103.666)" fill="#fff"/>
      </g>
      <g id="Group_1370" data-name="Group 1370" transform="translate(47.376 0.03)">
        <path id="Path_2249" data-name="Path 2249" d="M457.851.648h10.788a2.565,2.565,0,0,1,.753.031c.166.053.39.259.4.409.044.725.032,1.453.025,2.18a.5.5,0,0,1-.541.529c-.189.008-.379.013-.569.013l-9.678,0c-.19,0-.38,0-.569-.016-.307-.021-.494-.207-.419-.5a.691.691,0,0,1,.414-.381,2.141,2.141,0,0,1,.659-.024l8.539-.007c.221,0,.443,0,.664-.011.446-.021.584-.293.58-.7a.514.514,0,0,0-.581-.582c-.221,0-.443-.007-.664-.007-6.1,0-12.208.008-18.312,0a30.251,30.251,0,0,0-5.711.677,28.757,28.757,0,0,0-4.253,1.2,23.057,23.057,0,0,0-9.033,5.725c-.482.5-.926,1.035-1.394,1.548-.332.364-.275.676-.022,1.092q1.1,1.811,2.085,3.69a18.7,18.7,0,0,1,1.44,4.266,17.049,17.049,0,0,1,.482,4.5c-.029,1.315-.293,2.624-.453,3.936a11.691,11.691,0,0,0,.179,5.137,36.53,36.53,0,0,0,2.532,5.471c.575,1.12,1.176,2.227,1.741,3.352a7.584,7.584,0,0,1,.472,1.229,1.557,1.557,0,0,1-.824,1.986,15.645,15.645,0,0,1-2,.825c-.868.295-1.537.715-1.567,1.751-.017.594-.146,1.191-.1,1.779.075,1.074-.115,1.44-1.141,1.828-.633.24-.825.449-.507,1.05.778,1.468.108,2.468-.815,3.545a9.072,9.072,0,0,0-1.914,5.141.806.806,0,0,0,.618.934,3.259,3.259,0,0,0,.929.114c1.866.015,3.732,0,5.6.027a8.184,8.184,0,0,1,3.67.781,5.843,5.843,0,0,1,3.126,4.473c.04.217.058.438.081.658a.58.58,0,0,0,.636.561c.6.022,1.2.062,1.8.06q5.216-.017,10.432-.052c.158,0,.316,0,.474-.008.363-.014.611-.151.593-.567a.563.563,0,0,0-.579-.617c-.79-.023-1.581-.018-2.371-.025a3.2,3.2,0,0,1-.754-.028c-.141-.036-.338-.231-.336-.35s.206-.255.336-.368c.039-.034.122-.021.185-.021,1.265,0,2.53,0,3.8,0,.474,0,.685.2.655.691-.033.536-.025,1.075-.009,1.612.012.39-.13.6-.538.6-.19,0-.38,0-.569,0l-13.284,0c-.19,0-.38-.009-.569,0-.389.013-.529-.174-.6-.557a16.182,16.182,0,0,0-.685-2.837,4.632,4.632,0,0,0-3.852-2.953,32.861,32.861,0,0,0-6.992-.229,3.958,3.958,0,0,1-1.5-.134,2.237,2.237,0,0,1-1.065-.844,3.768,3.768,0,0,1-.441-1.432,9.01,9.01,0,0,0-1.1-3.483,17.256,17.256,0,0,0-1.2-1.686,2.106,2.106,0,0,1-.455-2.591,3.29,3.29,0,0,0,.179-.636.51.51,0,0,0-.339-.679c-.114-.054-.226-.114-.344-.16-.9-.346-1.083-.669-1.051-1.607.022-.656-.062-1.315-.077-1.973-.023-1.045-.716-1.454-1.575-1.764a13.3,13.3,0,0,1-2.069-.889,1.422,1.422,0,0,1-.695-2.066c.674-1.526,1.438-3.012,2.171-4.512.706-1.446,1.45-2.873,2.124-4.333a9.677,9.677,0,0,0,.51-6.306,19.129,19.129,0,0,1,.019-8.074,22.37,22.37,0,0,1,4.022-8.882,24.161,24.161,0,0,1,9.4-7.614,36.04,36.04,0,0,1,5.889-2.048A29.439,29.439,0,0,1,445.707,1C449.983.3,454.292.833,457.851.648Z" transform="translate(-418.397 -0.625)" fill="#fff"/>
        <path id="Path_2250" data-name="Path 2250" d="M617.1,176.4h16.5c.126,0,.254.009.379,0,.5-.045.769.146.775.686s.094,1.071.082,1.6c-.012.55-.2.708-.754.764a5.63,5.63,0,0,1-.569.01q-8.725,0-17.451-.012a2.616,2.616,0,0,1-.844-.055.687.687,0,0,1-.312-.5c-.013-.09.222-.285.369-.314a4.386,4.386,0,0,1,.85-.028q8.2,0,16.407,0a6.225,6.225,0,0,0,.944-.048.483.483,0,0,0,.424-.624.792.792,0,0,0-.442-.5,3.929,3.929,0,0,0-1.035-.056q-15.886,0-31.772,0a3.019,3.019,0,0,1-.847-.036.6.6,0,0,1-.345-.449c0-.143.22-.362.381-.4a3.373,3.373,0,0,1,.848-.031H617.1Z" transform="translate(-578.958 -156.491)" fill="#fff"/>
        <path id="Path_2251" data-name="Path 2251" d="M634.106,292.766h15.933c.253,0,.506.01.759,0,.38-.016.606.127.606.537,0,.7,0,1.391,0,2.086,0,.368-.188.507-.531.5-.19,0-.379,0-.569,0l-15.175,0c-.221,0-.443,0-.664-.009-.318-.01-.56-.1-.547-.491.012-.343.242-.407.514-.416.253-.008.506-.007.759-.007l13.847,0c.284,0,.569,0,.853-.016.366-.017.6-.181.593-.583s-.114-.689-.58-.693c-.379,0-.759-.009-1.138-.009l-30.918,0a4.2,4.2,0,0,1-.756-.026c-.129-.024-.332-.168-.332-.259a.6.6,0,0,1,.209-.469,1.712,1.712,0,0,1,.729-.14c.853-.015,1.707,0,2.56,0Z" transform="translate(-594.299 -259.684)" fill="#fff"/>
        <path id="Path_2252" data-name="Path 2252" d="M726.856,62.742H714.234c-.221,0-.443.007-.664,0-.279-.014-.63.02-.6-.4s.381-.344.654-.359c.252-.014.506,0,.759,0h24.008c.285,0,.571.014.854-.011a.635.635,0,0,0,.655-.741c-.019-.41-.276-.533-.634-.538-.316,0-.633-.008-.949-.008l-18.03-.007a2.614,2.614,0,0,1-.751-.039.526.526,0,0,1-.28-.406.534.534,0,0,1,.274-.409,1.833,1.833,0,0,1,.655-.048q9.822,0,19.643,0c.158,0,.316,0,.474.006.338,0,.538.15.538.51,0,.633,0,1.265,0,1.9a.484.484,0,0,1-.507.552c-.252.015-.506.012-.759.012Z" transform="translate(-679.611 -53.061)" fill="#fff"/>
        <path id="Path_2253" data-name="Path 2253" d="M611.621,121.195H600.435a2.439,2.439,0,0,1-.752-.03.445.445,0,0,1,0-.871,3.105,3.105,0,0,1,.847-.034h21.425c.253,0,.507.006.757-.017a.52.52,0,0,0,.537-.543.567.567,0,0,0-.429-.65,4.549,4.549,0,0,0-.939-.075q-4.313-.007-8.627,0a3.588,3.588,0,0,1-.754-.038c-.12-.026-.3-.2-.291-.289a.609.609,0,0,1,.272-.413,1.3,1.3,0,0,1,.558-.052q5.025,0,10.049,0c1.01,0,1.054.061,1.061,1.086,0,.379.013.759,0,1.138-.027.688-.1.77-.769.783-.884.017-1.77,0-2.654,0Z" transform="translate(-578.843 -104.863)" fill="#fff"/>
        <path id="Path_2254" data-name="Path 2254" d="M706.788,354.435q-5.029,0-10.058,0a3.47,3.47,0,0,1-.842-.08.347.347,0,0,1,.028-.666,8.3,8.3,0,0,1,1.134-.053q9.252,0,18.5,0a8.531,8.531,0,0,0,.853-.012c.475-.048.647-.282.629-.76-.016-.428-.28-.519-.636-.516-.316,0-.633,0-.949,0q-5.219,0-10.438,0a3.375,3.375,0,0,1-.847-.049.519.519,0,0,1-.27-.407.539.539,0,0,1,.255-.423,1.777,1.777,0,0,1,.654-.049q6.12,0,12.24,0c.9,0,.906.008.92.878.007.443.013.886,0,1.328-.02.733-.074.79-.835.8s-1.518.005-2.277.005h-8.065Z" transform="translate(-664.257 -311.689)" fill="#fff"/>
        <path id="Path_2255" data-name="Path 2255" d="M628.266,238.155H617.554a2.8,2.8,0,0,1-.66-.019c-.153-.038-.277-.189-.414-.29.127-.155.229-.4.386-.444a3.594,3.594,0,0,1,.94-.058q9.337,0,18.674.012c.537,0,1.075.012,1.611-.005a1.573,1.573,0,0,0,.73-.128.766.766,0,0,0,.362-.563c-.014-.169-.275-.391-.471-.454a2.848,2.848,0,0,0-.846-.044c-2.149,0-4.3,0-6.446-.01a4.147,4.147,0,0,1-1.12-.136c-.146-.042-.226-.313-.336-.48a2.093,2.093,0,0,1,.439-.266,1.607,1.607,0,0,1,.471-.013q4.076,0,8.152,0c1.031,0,1.057.032,1.073,1.063.006.379-.01.759.006,1.137.019.466-.153.722-.654.7-.252-.013-.505,0-.758,0Z" transform="translate(-594.051 -208.679)" fill="#fff"/>
        <path id="Path_2256" data-name="Path 2256" d="M702.022,410.1h5.406c.19,0,.38,0,.569.01.325.019.539.158.538.521q0,.948,0,1.9c0,.409-.231.554-.6.554l-2.087,0c-2.118,0-4.237.01-6.355,0-.34,0-.821.18-.922-.388-.065-.364.217-.521.917-.521,2.213,0,4.426.007,6.639.008.316,0,.633-.008.947-.033a.5.5,0,0,0,.516-.554.579.579,0,0,0-.559-.641c-.28-.026-.567.023-.85.024q-4.79,0-9.58,0a1.639,1.639,0,0,1-.654-.046.75.75,0,0,1-.349-.467c-.019-.081.212-.282.36-.326a2.378,2.378,0,0,1,.659-.03q2.7,0,5.407,0Z" transform="translate(-664.208 -363.73)" fill="#fff"/>
        <path id="Path_2257" data-name="Path 2257" d="M669.932,526.985c2.118,0,4.236-.005,6.353,0,.841,0,.869.016.852.842-.047,2.412.4,2.031-2.026,2.052q-2.608.022-5.215,0c-.317,0-.808.143-.819-.373-.011-.532.486-.384.8-.386,1.833-.013,3.667-.008,5.5,0,.4,0,.779-.027.829-.547.035-.366-.081-.627-.5-.642-.253-.009-.506-.012-.758-.012l-11.095,0c-.253,0-.506,0-.758-.007-.272,0-.394-.145-.405-.413-.012-.3.086-.493.414-.5.221-.006.442-.012.663-.012h6.164Z" transform="translate(-635.028 -467.382)" fill="#fff"/>
        <path id="Path_2258" data-name="Path 2258" d="M668.647,471.314q-2.369,0-4.739,0a1.755,1.755,0,0,1-.655-.031.609.609,0,0,1-.329-.448.588.588,0,0,1,.361-.418,3.261,3.261,0,0,1,.848-.034l8.056,0c.284,0,.569,0,.852-.017.3-.02.589-.1.607-.467a.653.653,0,0,0-.556-.764c-.53-.062-1.07-.036-1.606-.046-.472-.009-.944-.012-1.416-.023-.283-.007-.543-.108-.464-.434a.6.6,0,0,1,.428-.372c1.294-.031,2.59-.019,3.885-.021a.467.467,0,0,1,.523.527c0,.632-.012,1.264.009,1.9.017.5-.214.661-.687.652-1.011-.019-2.022,0-3.033,0Z" transform="translate(-635.236 -415.292)" fill="#fff"/>
        <path id="Path_2259" data-name="Path 2259" d="M833.649,413.125c-1.748-.02-1.535.23-1.541-1.576,0-1.376.017-1.378,1.431-1.395.41,0,.821-.006,1.23.006a.434.434,0,0,1,.469.477q0,.994,0,1.988c0,.36-.208.5-.545.5S834,413.125,833.649,413.125Zm.59-1.5c-.011-.4-.194-.585-.565-.578a.574.574,0,0,0-.631.639c.028.4.3.507.645.517C834.081,412.21,834.252,412,834.238,411.621Z" transform="translate(-785.258 -363.779)" fill="#fff"/>
        <path id="Path_2260" data-name="Path 2260" d="M781.853,469.729c.03-1.674-.253-1.565,1.562-1.573,1.855-.008,1.589.064,1.6,1.581.012,1.536.134,1.505-1.472,1.5-.377,0-.755-.009-1.132,0-.4.011-.578-.163-.562-.564C781.863,470.358,781.853,470.043,781.853,469.729Zm1.486-.639c-.391-.014-.541.208-.532.588.011.449.193.631.636.62s.653-.228.623-.639C784.037,469.265,783.805,469.079,783.338,469.09Z" transform="translate(-740.695 -415.216)" fill="#fff"/>
        <path id="Path_2261" data-name="Path 2261" d="M979.661,59.784c1.751.013,1.5-.115,1.508,1.529.005,1.534.2,1.448-1.5,1.452-1.734,0-1.536.012-1.54-1.439C978.126,59.654,978.012,59.8,979.661,59.784Zm.579,1.451c-.013-.385-.21-.575-.6-.539-.346.032-.6.18-.6.577a.592.592,0,0,0,.678.6C980.132,61.849,980.242,61.587,980.24,61.235Z" transform="translate(-914.748 -53.085)" fill="#fff"/>
        <path id="Path_2262" data-name="Path 2262" d="M932.576,177.971c0,1.77.126,1.527-1.5,1.528-1.472,0-1.472-.01-1.487-1.509-.018-1.78-.112-1.547,1.48-1.545C932.766,176.447,932.556,176.252,932.576,177.971Zm-1.523.6c.348.014.549-.186.578-.581.027-.366-.1-.612-.507-.613-.339,0-.624.08-.649.5A.6.6,0,0,0,931.053,178.575Z" transform="translate(-871.703 -156.527)" fill="#fff"/>
        <path id="Path_2263" data-name="Path 2263" d="M850.249,119.62c0,1.708.1,1.5-1.536,1.5s-1.43.2-1.43-1.474c0-1.45-.291-1.592,1.608-1.545C850.438,118.136,850.235,118.133,850.249,119.62Zm-.9.079a.7.7,0,0,0-.6-.758.662.662,0,0,0-.573.721c.014.352.233.488.548.5C849.078,120.177,849.331,120.049,849.349,119.7Z" transform="translate(-798.705 -104.79)" fill="#fff"/>
        <path id="Path_2264" data-name="Path 2264" d="M803.355,529.869c-1.775-.006-1.514.123-1.523-1.508-.008-1.5-.173-1.382,1.349-1.4.379,0,.758.019,1.136,0,.472-.024.708.14.679.65s0,1.01-.008,1.515c-.017.665-.056.7-.686.738-.032,0-.063,0-.095,0Zm.062-1.956c-.44-.005-.632.146-.638.5a.63.63,0,1,0,1.258.026C804.039,528.021,803.773,527.914,803.416,527.913Z" transform="translate(-758.407 -467.365)" fill="#fff"/>
        <path id="Path_2265" data-name="Path 2265" d="M953.6,294.357c0,1.685.138,1.558-1.513,1.549-1.521-.009-1.386.177-1.377-1.362.012-2.059-.245-1.724,1.759-1.759.158,0,.316.007.474,0a.561.561,0,0,1,.657.621C953.605,293.725,953.6,294.041,953.6,294.357Zm-.787.009a.6.6,0,0,0-.62-.664c-.376-.01-.605.231-.622.663a.521.521,0,0,0,.565.594A.575.575,0,0,0,952.815,294.366Z" transform="translate(-890.431 -259.702)" fill="#fff"/>
        <path id="Path_2266" data-name="Path 2266" d="M855.478,238.213c-1.642-.017-1.481.162-1.483-1.454s-.158-1.447,1.487-1.444,1.481-.18,1.481,1.447S857.123,238.192,855.478,238.213Zm.591-1.3c-.035-.519-.308-.756-.644-.705-.353.054-.592.229-.538.629.048.362.28.624.63.534C855.757,237.314,855.941,237.031,856.069,236.917Z" transform="translate(-804.667 -208.736)" fill="#fff"/>
        <path id="Path_2267" data-name="Path 2267" d="M913.354,119.785c0,1.592.139,1.405-1.415,1.405-1.629,0-1.486.182-1.48-1.443.006-1.662-.247-1.57,1.564-1.569,1.51,0,1.329-.015,1.331,1.324Q913.354,119.643,913.354,119.785Zm-.861-.038c-.1-.321-.106-.717-.572-.751-.321-.023-.691.42-.656.789.04.419.357.477.691.465C912.266,120.239,912.517,120.137,912.493,119.747Z" transform="translate(-854.734 -104.866)" fill="#fff"/>
      </g>
    </g>
    <path id="Path_2270" data-name="Path 2270" d="M9.052.282h.02L9.9,35.255,9.056,69.514h0L8.2,35.255Z" transform="translate(-21871.604 -10653.236)" fill="#fff"/>
  </g>
</svg>
