<svg xmlns="http://www.w3.org/2000/svg" width="386.935" height="84.704" viewBox="0 0 386.935 84.704">
  <g id="Group_1391" data-name="Group 1391" transform="translate(21989.742 10653)">
    <path id="Path_2268" data-name="Path 2268" d="M38.176-197.585l23.835.039a3.142,3.142,0,0,1,1.309.274,3.532,3.532,0,0,1,1.055.723,3.256,3.256,0,0,1,.7,1.055,3.35,3.35,0,0,1,.254,1.309,3.5,3.5,0,0,1-.254,1.328,3.206,3.206,0,0,1-.7,1.075,3.256,3.256,0,0,1-1.055.7,3.351,3.351,0,0,1-1.309.254H34.346a3.3,3.3,0,0,1-2.09-1.075,3.207,3.207,0,0,1-.84-2.247v-43.332a3.278,3.278,0,0,1,.274-1.328,3.466,3.466,0,0,1,.723-1.074,3.255,3.255,0,0,1,1.055-.7,3.35,3.35,0,0,1,1.309-.254,3.343,3.343,0,0,1,2.4.957,3.193,3.193,0,0,1,1,2.4Zm44.7-20.591,16.333-21.529a3.2,3.2,0,0,1,2.247-1.114,3.221,3.221,0,0,1,2.4.8,3.276,3.276,0,0,1,1.211,2.149,3.589,3.589,0,0,1-.821,2.7L86.275-212.238v18.091a3.179,3.179,0,0,1-.977,2.364,3.277,3.277,0,0,1-2.383.957,3.277,3.277,0,0,1-2.383-.957,3.179,3.179,0,0,1-.977-2.364v-18.091l-18.169-22.9a3.3,3.3,0,0,1-.8-2.462,3.279,3.279,0,0,1,1.192-2.344,3.152,3.152,0,0,1,1.153-.684,3.4,3.4,0,0,1,1.289-.176,3.307,3.307,0,0,1,1.25.332,2.924,2.924,0,0,1,1.035.84Zm25.554-18.013a3.183,3.183,0,0,1-.02-2.559,3.266,3.266,0,0,1,1.856-1.817,3.253,3.253,0,0,1,2.52,0,3.2,3.2,0,0,1,1.817,1.8l15.551,36.26,15.473-36.26a3.3,3.3,0,0,1,1.8-1.778,3.339,3.339,0,0,1,2.579-.02,3.372,3.372,0,0,1,1.8,1.8,3.175,3.175,0,0,1,0,2.579L133.2-192.9a3.31,3.31,0,0,1-1.368,1.582,3.3,3.3,0,0,1-1.993.488,3.389,3.389,0,0,1-1.661-.606,3.514,3.514,0,0,1-1.192-1.465Zm69,18.013,16.333-21.529a3.2,3.2,0,0,1,2.247-1.114,3.22,3.22,0,0,1,2.4.8,3.276,3.276,0,0,1,1.211,2.149,3.589,3.589,0,0,1-.821,2.7l-17.974,22.936v18.091a3.179,3.179,0,0,1-.977,2.364,3.277,3.277,0,0,1-2.383.957,3.277,3.277,0,0,1-2.383-.957,3.179,3.179,0,0,1-.977-2.364v-18.091l-18.169-22.9a3.3,3.3,0,0,1-.8-2.462,3.279,3.279,0,0,1,1.192-2.344,3.152,3.152,0,0,1,1.153-.684,3.4,3.4,0,0,1,1.289-.176,3.307,3.307,0,0,1,1.25.332,2.925,2.925,0,0,1,1.035.84Zm49.349-23.053a24.694,24.694,0,0,1,6.76.918,26.431,26.431,0,0,1,6.076,2.559,24.606,24.606,0,0,1,5.158,3.985,26.253,26.253,0,0,1,3.985,5.158,25.468,25.468,0,0,1,2.579,6.076,24.9,24.9,0,0,1,.918,6.779,24.442,24.442,0,0,1-2.012,9.885,26,26,0,0,1-5.47,8.069,25.665,25.665,0,0,1-8.088,5.451,24.787,24.787,0,0,1-9.905,1.993,25.411,25.411,0,0,1-6.779-.9,24.9,24.9,0,0,1-6.076-2.559,25.269,25.269,0,0,1-5.119-3.985,25.565,25.565,0,0,1-3.946-5.138,25.449,25.449,0,0,1-2.54-6.056,25.2,25.2,0,0,1-.9-6.76,25.412,25.412,0,0,1,.9-6.779,25.369,25.369,0,0,1,2.54-6.076,26.058,26.058,0,0,1,3.946-5.158,24.377,24.377,0,0,1,5.119-3.985,26.046,26.046,0,0,1,6.056-2.559A24.839,24.839,0,0,1,226.781-241.23Zm0,6.76a18.163,18.163,0,0,0-7.268,1.465,18.485,18.485,0,0,0-5.92,4.025,19.286,19.286,0,0,0-3.985,5.959,18.163,18.163,0,0,0-1.465,7.268,18.26,18.26,0,0,0,1.465,7.307,18.808,18.808,0,0,0,3.985,5.92,18.807,18.807,0,0,0,5.92,3.985,18.163,18.163,0,0,0,7.268,1.465,18.3,18.3,0,0,0,7.287-1.465,18.983,18.983,0,0,0,5.959-3.985,18.644,18.644,0,0,0,4-5.92,18.26,18.26,0,0,0,1.465-7.307,18.164,18.164,0,0,0-1.465-7.268,19.114,19.114,0,0,0-4-5.959,18.656,18.656,0,0,0-5.959-4.025A18.3,18.3,0,0,0,226.781-234.47Z" transform="translate(-21855.064 -10407.177)" fill="#fff"/>
    <path id="Path_2269" data-name="Path 2269" d="M18.242-70.7a.707.707,0,0,1,.226.513.725.725,0,0,1-.214.513.734.734,0,0,1-.525.22.659.659,0,0,1-.513-.209,5.923,5.923,0,0,0-1.958-1.32,5.841,5.841,0,0,0-2.228-.44,5.65,5.65,0,0,0-2.273.463A5.959,5.959,0,0,0,8.894-69.7a5.924,5.924,0,0,0-1.258,1.873,5.758,5.758,0,0,0-.463,2.3,5.75,5.75,0,0,0,.446,2.24,6,6,0,0,0,1.224,1.873,5.894,5.894,0,0,0,1.845,1.286,5.587,5.587,0,0,0,2.319.48,6.162,6.162,0,0,0,2.223-.406,5.577,5.577,0,0,0,1.952-1.3.745.745,0,0,1,.53-.214.711.711,0,0,1,.508.192.678.678,0,0,1,.22.525.715.715,0,0,1-.209.513,7.109,7.109,0,0,1-2.448,1.63,7.561,7.561,0,0,1-2.776.525,7.07,7.07,0,0,1-1.946-.265,7.548,7.548,0,0,1-1.743-.739,7.139,7.139,0,0,1-1.478-1.145A7.312,7.312,0,0,1,6.7-61.822a7.456,7.456,0,0,1-.733-1.754,7.276,7.276,0,0,1-.26-1.952,7.24,7.24,0,0,1,.248-1.884A7.484,7.484,0,0,1,6.66-69.15a7.526,7.526,0,0,1,1.111-1.5,7.118,7.118,0,0,1,1.472-1.185,7.332,7.332,0,0,1,1.771-.773,7.239,7.239,0,0,1,2.025-.276,7.237,7.237,0,0,1,2.77.553A7.376,7.376,0,0,1,18.242-70.7Zm3.87,7.131a3.757,3.757,0,0,0,.3,1.506,4.007,4.007,0,0,0,.835,1.241,3.934,3.934,0,0,0,1.247.846,3.805,3.805,0,0,0,1.529.31,3.793,3.793,0,0,0,1.534-.31,3.884,3.884,0,0,0,1.235-.846,3.975,3.975,0,0,0,.824-1.241,3.818,3.818,0,0,0,.3-1.506,3.929,3.929,0,0,0-.3-1.529,3.94,3.94,0,0,0-.824-1.252,3.81,3.81,0,0,0-1.235-.841,3.854,3.854,0,0,0-1.534-.3,3.866,3.866,0,0,0-1.529.3,3.858,3.858,0,0,0-1.247.841,3.971,3.971,0,0,0-.835,1.252A3.866,3.866,0,0,0,22.112-63.566Zm-1.467,0a5.285,5.285,0,0,1,.423-2.1,5.367,5.367,0,0,1,1.156-1.715,5.5,5.5,0,0,1,1.715-1.151,5.217,5.217,0,0,1,2.087-.423,5.2,5.2,0,0,1,2.093.423,5.449,5.449,0,0,1,1.7,1.151,5.414,5.414,0,0,1,1.151,1.715,5.285,5.285,0,0,1,.423,2.1,5.217,5.217,0,0,1-.423,2.087,5.5,5.5,0,0,1-1.151,1.715,5.4,5.4,0,0,1-1.7,1.156,5.2,5.2,0,0,1-2.093.423,5.217,5.217,0,0,1-2.087-.423,5.451,5.451,0,0,1-1.715-1.156,5.451,5.451,0,0,1-1.156-1.715A5.217,5.217,0,0,1,20.645-63.566ZM34.105-68.1a.971.971,0,0,1,.13-.53.488.488,0,0,1,.446-.2.548.548,0,0,1,.457.209,1.833,1.833,0,0,1,.276.536l.09,1.376a5.05,5.05,0,0,1,.711-.908,4.663,4.663,0,0,1,.9-.711,4.319,4.319,0,0,1,1.061-.463,4.333,4.333,0,0,1,1.2-.164,4.256,4.256,0,0,1,1.884.4,3.959,3.959,0,0,1,1.382,1.1,4.976,4.976,0,0,1,.852,1.636,6.683,6.683,0,0,1,.293,2.008v4.761a.722.722,0,0,1-.2.525.693.693,0,0,1-.519.209.736.736,0,0,1-.525-.209.693.693,0,0,1-.22-.525v-4.716a4.876,4.876,0,0,0-.209-1.444,3.67,3.67,0,0,0-.6-1.185,2.815,2.815,0,0,0-.987-.8,3,3,0,0,0-1.348-.293,3.215,3.215,0,0,0-1.427.322,3.669,3.669,0,0,0-1.14.857,4.053,4.053,0,0,0-.756,1.247,4.073,4.073,0,0,0-.276,1.489V-59.1a.789.789,0,0,1-.2.547.671.671,0,0,1-.525.22.711.711,0,0,1-.53-.22.753.753,0,0,1-.214-.547Zm12.874,0a.971.971,0,0,1,.13-.53.488.488,0,0,1,.446-.2.548.548,0,0,1,.457.209,1.833,1.833,0,0,1,.276.536l.09,1.376a5.051,5.051,0,0,1,.711-.908,4.663,4.663,0,0,1,.9-.711,4.319,4.319,0,0,1,1.061-.463,4.333,4.333,0,0,1,1.2-.164,4.256,4.256,0,0,1,1.884.4,3.96,3.96,0,0,1,1.382,1.1,4.976,4.976,0,0,1,.852,1.636,6.683,6.683,0,0,1,.293,2.008v4.761a.722.722,0,0,1-.2.525.693.693,0,0,1-.519.209.736.736,0,0,1-.525-.209.693.693,0,0,1-.22-.525v-4.716a4.876,4.876,0,0,0-.209-1.444,3.67,3.67,0,0,0-.6-1.185,2.815,2.815,0,0,0-.987-.8,3,3,0,0,0-1.348-.293,3.215,3.215,0,0,0-1.427.322,3.669,3.669,0,0,0-1.14.857,4.053,4.053,0,0,0-.756,1.247,4.073,4.073,0,0,0-.276,1.489V-59.1a.789.789,0,0,1-.2.547.671.671,0,0,1-.525.22.711.711,0,0,1-.53-.22.753.753,0,0,1-.214-.547Zm13.8,5.2a3.6,3.6,0,0,0,.417,1.292,3.731,3.731,0,0,0,.829,1.027,3.857,3.857,0,0,0,1.145.683,3.758,3.758,0,0,0,1.365.248,3.974,3.974,0,0,0,1.568-.316,3.131,3.131,0,0,0,1.219-.891.773.773,0,0,1,.733-.158.631.631,0,0,1,.338.293.741.741,0,0,1,.152.485.673.673,0,0,1-.276.508,4.913,4.913,0,0,1-1.529,1.1,5.062,5.062,0,0,1-2.206.446,5.2,5.2,0,0,1-2.093-.423,5.469,5.469,0,0,1-1.709-1.156,5.451,5.451,0,0,1-1.156-1.715,5.245,5.245,0,0,1-.423-2.1,5.2,5.2,0,0,1,.423-2.093,5.469,5.469,0,0,1,1.156-1.709,5.469,5.469,0,0,1,1.709-1.156,5.2,5.2,0,0,1,2.093-.423,5.277,5.277,0,0,1,2.087.417A5.354,5.354,0,0,1,68.331-67.4a5.529,5.529,0,0,1,1.156,1.7,5.254,5.254,0,0,1,.44,2.082.7.7,0,0,1-.2.508.7.7,0,0,1-.525.2Zm7.638-1.241A3.554,3.554,0,0,0,68-65.472a3.871,3.871,0,0,0-.846-1.061,3.841,3.841,0,0,0-1.179-.705,3.956,3.956,0,0,0-1.422-.254,3.879,3.879,0,0,0-1.422.259,3.919,3.919,0,0,0-1.173.705,3.643,3.643,0,0,0-.829,1.061,3.721,3.721,0,0,0-.4,1.326Zm4.919.519-.023.045q0,.011.006.011s.006,0,.006.011a.01.01,0,0,0,.011.011,3.762,3.762,0,0,0,.288,1.444,3.98,3.98,0,0,0,.8,1.235,3.991,3.991,0,0,0,1.2.863,3.543,3.543,0,0,0,1.489.338,3.79,3.79,0,0,0,1.388-.231,3.91,3.91,0,0,0,1.23-.75q.113-.09.243-.181a.793.793,0,0,1,.276-.124.644.644,0,0,1,.3.006.847.847,0,0,1,.338.2.647.647,0,0,1,.237.536.848.848,0,0,1-.271.581,4.8,4.8,0,0,1-1.636,1.061,5.3,5.3,0,0,1-1.986.384,5.237,5.237,0,0,1-2.082-.417,5.418,5.418,0,0,1-1.7-1.14,5.4,5.4,0,0,1-1.151-1.692,5.137,5.137,0,0,1-.423-2.076l.023-.068q-.011,0-.011-.023a.01.01,0,0,0-.011-.011,5.165,5.165,0,0,1,.423-2.087,5.467,5.467,0,0,1,1.151-1.7,5.37,5.37,0,0,1,1.7-1.145,5.237,5.237,0,0,1,2.082-.417,5.576,5.576,0,0,1,1.991.361,4.552,4.552,0,0,1,1.63,1.038.854.854,0,0,1,.271.587.653.653,0,0,1-.237.542.785.785,0,0,1-.338.192.694.694,0,0,1-.3,0,.855.855,0,0,1-.276-.118q-.13-.085-.243-.175a3.606,3.606,0,0,0-1.224-.739,3.994,3.994,0,0,0-1.393-.22,3.571,3.571,0,0,0-1.478.333,3.91,3.91,0,0,0-1.2.857,4.085,4.085,0,0,0-.8,1.23A3.686,3.686,0,0,0,73.335-63.622ZM86.31-68.846h1.715a.707.707,0,0,1,.519.214.707.707,0,0,1,.214.519.7.7,0,0,1-.214.525.717.717,0,0,1-.519.209H86.31v8.293a.734.734,0,0,1-.214.542.707.707,0,0,1-.519.214.707.707,0,0,1-.519-.214.734.734,0,0,1-.214-.542v-8.293h-1.3a.72.72,0,0,1-.53-.214.707.707,0,0,1-.214-.519.707.707,0,0,1,.214-.519.72.72,0,0,1,.53-.214h1.3v-2.279a.7.7,0,0,1,.214-.525.73.73,0,0,1,.53-.209.693.693,0,0,1,.519.209.722.722,0,0,1,.2.525Zm4.648-2.3a.855.855,0,0,1,.259-.637.856.856,0,0,1,.621-.254.87.87,0,0,1,.632.254.855.855,0,0,1,.259.637.847.847,0,0,1-.259.621.86.86,0,0,1-.632.259.832.832,0,0,1-.344-.073.935.935,0,0,1-.282-.192.874.874,0,0,1-.186-.276A.85.85,0,0,1,90.958-71.147Zm1.613,12.072a.72.72,0,0,1-.214.53.694.694,0,0,1-.508.214.726.726,0,0,1-.525-.214.711.711,0,0,1-.22-.53v-9a.7.7,0,0,1,.22-.519.726.726,0,0,1,.525-.214.684.684,0,0,1,.519.214.727.727,0,0,1,.2.519ZM96.16-68.1a.971.971,0,0,1,.13-.53.487.487,0,0,1,.446-.2.548.548,0,0,1,.457.209,1.833,1.833,0,0,1,.276.536l.09,1.376a5.051,5.051,0,0,1,.711-.908,4.663,4.663,0,0,1,.9-.711,4.319,4.319,0,0,1,1.061-.463,4.333,4.333,0,0,1,1.2-.164,4.256,4.256,0,0,1,1.884.4,3.959,3.959,0,0,1,1.382,1.1,4.977,4.977,0,0,1,.852,1.636,6.683,6.683,0,0,1,.293,2.008v4.761a.722.722,0,0,1-.2.525.693.693,0,0,1-.519.209.736.736,0,0,1-.525-.209.693.693,0,0,1-.22-.525v-4.716a4.876,4.876,0,0,0-.209-1.444,3.67,3.67,0,0,0-.6-1.185,2.815,2.815,0,0,0-.987-.8,3,3,0,0,0-1.348-.293,3.215,3.215,0,0,0-1.427.322,3.669,3.669,0,0,0-1.14.857,4.054,4.054,0,0,0-.756,1.247,4.073,4.073,0,0,0-.276,1.489V-59.1a.789.789,0,0,1-.2.547.671.671,0,0,1-.525.22.711.711,0,0,1-.53-.22.753.753,0,0,1-.214-.547Zm12.174,4.536a5.285,5.285,0,0,1,.423-2.1,5.367,5.367,0,0,1,1.156-1.715,5.5,5.5,0,0,1,1.715-1.151,5.217,5.217,0,0,1,2.087-.423,5.2,5.2,0,0,1,2.093.423,5.449,5.449,0,0,1,1.7,1.151,5.414,5.414,0,0,1,1.151,1.715,5.285,5.285,0,0,1,.423,2.1,5.244,5.244,0,0,1-.254,1.636,5.526,5.526,0,0,1-.705,1.433,3.017,3.017,0,0,1,.643,1.117,4.438,4.438,0,0,1,.2,1.365,4.1,4.1,0,0,1-.316,1.659,3.647,3.647,0,0,1-.846,1.219,3.661,3.661,0,0,1-1.213.756,3.922,3.922,0,0,1-1.4.26,5.224,5.224,0,0,1-.575-.034q-.3-.034-.621-.073t-.626-.062a5.267,5.267,0,0,0-.592-.011,3.408,3.408,0,0,0-.677.124,1.912,1.912,0,0,0-.654.327.626.626,0,0,1-.525.158.843.843,0,0,1-.479-.237.736.736,0,0,1-.214-.48.73.73,0,0,1,.259-.57,2.12,2.12,0,0,1,.739-.4,6.728,6.728,0,0,1,.874-.231,5.931,5.931,0,0,1,1.314-.034q.649.056,1.292.056a3.075,3.075,0,0,0,2.053-.632,2.223,2.223,0,0,0,.745-1.794,2.67,2.67,0,0,0-.04-.491,2.669,2.669,0,0,0-.1-.372,1.407,1.407,0,0,0-.13-.282q-.073-.118-.152-.231a5.09,5.09,0,0,1-1.546.886,5.331,5.331,0,0,1-1.828.31,5.217,5.217,0,0,1-2.087-.423,5.5,5.5,0,0,1-1.715-1.151,5.384,5.384,0,0,1-1.156-1.709A5.217,5.217,0,0,1,108.334-63.566Zm1.467,0a3.757,3.757,0,0,0,.3,1.506,3.938,3.938,0,0,0,.835,1.235,3.982,3.982,0,0,0,1.247.841,3.805,3.805,0,0,0,1.529.31,3.793,3.793,0,0,0,1.534-.31,3.931,3.931,0,0,0,1.235-.841,3.906,3.906,0,0,0,.824-1.235,3.818,3.818,0,0,0,.3-1.506,3.929,3.929,0,0,0-.3-1.529,3.94,3.94,0,0,0-.824-1.252,3.81,3.81,0,0,0-1.235-.841,3.854,3.854,0,0,0-1.534-.3,3.866,3.866,0,0,0-1.529.3,3.858,3.858,0,0,0-1.247.841,3.971,3.971,0,0,0-.835,1.252A3.866,3.866,0,0,0,109.8-63.566Zm23.739-.35-4.66-6.036v10.9a.688.688,0,0,1-.214.513.717.717,0,0,1-.519.209.717.717,0,0,1-.519-.209.689.689,0,0,1-.214-.513v-13a.685.685,0,0,1,.209-.5.726.726,0,0,1,.5-.22h.079a.682.682,0,0,1,.5.237l5.45,7.086,5.427-7.063a.6.6,0,0,1,.429-.248.318.318,0,0,0,.062-.006.317.317,0,0,1,.062-.006.711.711,0,0,1,.525.209.7.7,0,0,1,.209.513v13a.689.689,0,0,1-.214.513.717.717,0,0,1-.519.209.722.722,0,0,1-.513-.209.68.68,0,0,1-.22-.513v-10.91L134.747-63.9l-.1.124-.023.023a.682.682,0,0,1-.372.2.662.662,0,0,1-.3-.023.662.662,0,0,1-.265-.169.02.02,0,0,1-.023-.023Zm11.046-7.232a.855.855,0,0,1,.26-.637.856.856,0,0,1,.621-.254.87.87,0,0,1,.632.254.855.855,0,0,1,.26.637.847.847,0,0,1-.26.621.86.86,0,0,1-.632.259.832.832,0,0,1-.344-.073.935.935,0,0,1-.282-.192.873.873,0,0,1-.186-.276A.849.849,0,0,1,144.585-71.147ZM146.2-59.075a.72.72,0,0,1-.214.53.694.694,0,0,1-.508.214.726.726,0,0,1-.525-.214.711.711,0,0,1-.22-.53v-9a.7.7,0,0,1,.22-.519.726.726,0,0,1,.525-.214A.684.684,0,0,1,146-68.6a.727.727,0,0,1,.2.519Zm3.588-9.026a.971.971,0,0,1,.13-.53.487.487,0,0,1,.446-.2.548.548,0,0,1,.457.209,1.833,1.833,0,0,1,.276.536l.09,1.376a5.053,5.053,0,0,1,.711-.908,4.663,4.663,0,0,1,.9-.711,4.32,4.32,0,0,1,1.061-.463,4.333,4.333,0,0,1,1.2-.164,4.256,4.256,0,0,1,1.884.4,3.96,3.96,0,0,1,1.382,1.1,4.977,4.977,0,0,1,.852,1.636,6.682,6.682,0,0,1,.293,2.008v4.761a.722.722,0,0,1-.2.525.693.693,0,0,1-.519.209.736.736,0,0,1-.525-.209.693.693,0,0,1-.22-.525v-4.716a4.876,4.876,0,0,0-.209-1.444,3.67,3.67,0,0,0-.6-1.185,2.815,2.815,0,0,0-.987-.8,3,3,0,0,0-1.348-.293,3.215,3.215,0,0,0-1.427.322,3.669,3.669,0,0,0-1.14.857,4.053,4.053,0,0,0-.756,1.247,4.073,4.073,0,0,0-.276,1.489V-59.1a.789.789,0,0,1-.2.547.671.671,0,0,1-.525.22.711.711,0,0,1-.53-.22.753.753,0,0,1-.214-.547Zm23.028,9.037a1.006,1.006,0,0,1-.124.53.485.485,0,0,1-.451.2.461.461,0,0,1-.4-.164,1.078,1.078,0,0,1-.152-.265l-.181-1.489a5.47,5.47,0,0,1-1.839,1.506,5.161,5.161,0,0,1-2.381.558,5.185,5.185,0,0,1-2.1-.429,5.462,5.462,0,0,1-1.709-1.162,5.42,5.42,0,0,1-1.145-1.715,5.306,5.306,0,0,1-.417-2.1,5.265,5.265,0,0,1,.417-2.093,5.37,5.37,0,0,1,1.145-1.7,5.432,5.432,0,0,1,1.709-1.151,5.245,5.245,0,0,1,2.1-.423,5.186,5.186,0,0,1,2.268.5,5.48,5.48,0,0,1,1.794,1.36v-5.021a.782.782,0,0,1,.2-.542.667.667,0,0,1,.519-.226.7.7,0,0,1,.536.226.77.77,0,0,1,.209.542ZM171.2-63.588a3.825,3.825,0,0,0-.3-1.523,3.92,3.92,0,0,0-.835-1.241,3.9,3.9,0,0,0-1.247-.835,3.866,3.866,0,0,0-1.529-.3,3.854,3.854,0,0,0-1.534.3,3.854,3.854,0,0,0-1.235.835,3.889,3.889,0,0,0-.824,1.241,3.888,3.888,0,0,0-.3,1.523,3.859,3.859,0,0,0,.3,1.512,3.957,3.957,0,0,0,.824,1.247,3.962,3.962,0,0,0,1.235.852,3.735,3.735,0,0,0,1.534.316,3.747,3.747,0,0,0,1.529-.316,4.012,4.012,0,0,0,1.247-.852,3.988,3.988,0,0,0,.835-1.247A3.8,3.8,0,0,0,171.2-63.588Zm7.593.361q-.508-.181-1.021-.412a4.223,4.223,0,0,1-.925-.564,2.732,2.732,0,0,1-.671-.8,2.226,2.226,0,0,1-.259-1.106,2.538,2.538,0,0,1,.288-1.23,2.708,2.708,0,0,1,.773-.891,3.509,3.509,0,0,1,1.123-.547,4.745,4.745,0,0,1,1.337-.186,5.541,5.541,0,0,1,.965.085,4,4,0,0,1,.9.265,3.088,3.088,0,0,1,.756.463,2.2,2.2,0,0,1,.542.666.765.765,0,0,1,.085.446.593.593,0,0,1-.164.355.671.671,0,0,1-.338.2.539.539,0,0,1-.395-.051,3.033,3.033,0,0,0-1-.773,3.033,3.033,0,0,0-1.241-.231,4.288,4.288,0,0,0-.8.073,2.294,2.294,0,0,0-.694.243,1.352,1.352,0,0,0-.485.446,1.222,1.222,0,0,0-.181.683,1.057,1.057,0,0,0,.175.615,1.554,1.554,0,0,0,.479.44,3.5,3.5,0,0,0,.705.322q.4.135.841.271.722.226,1.371.485a5.125,5.125,0,0,1,1.14.621,2.851,2.851,0,0,1,.784.863,2.342,2.342,0,0,1,.293,1.2,2.687,2.687,0,0,1-.282,1.219,3.061,3.061,0,0,1-.778.982,3.716,3.716,0,0,1-1.168.654,4.291,4.291,0,0,1-1.439.237,5.8,5.8,0,0,1-1.14-.113,4.969,4.969,0,0,1-1.066-.338,3.533,3.533,0,0,1-.9-.581,2.8,2.8,0,0,1-.649-.852.835.835,0,0,1-.107-.581.606.606,0,0,1,.265-.384.718.718,0,0,1,.5-.09,1.016,1.016,0,0,1,.564.3,2.353,2.353,0,0,0,1.01.9,3.45,3.45,0,0,0,1.529.322,2.908,2.908,0,0,0,.829-.118,2.314,2.314,0,0,0,.705-.338,1.737,1.737,0,0,0,.485-.525,1.3,1.3,0,0,0,.181-.677.991.991,0,0,0-.259-.677,2.619,2.619,0,0,0-.677-.53,5.664,5.664,0,0,0-.936-.417Q179.313-63.069,178.794-63.227Z" transform="translate(-21807.588 -10514.616)" fill="#fff"/>
    <g id="Group_1388" data-name="Group 1388" transform="translate(-21989.742 -10653)">
      <g id="Group_1369" data-name="Group 1369" transform="translate(0 0)">
        <path id="Path_2239" data-name="Path 2239" d="M73.77,24.612H93.14c.309,0,.619-.01.928,0,.528.015.784-.225.778-.762-.01-.889-.005-1.778-.005-2.668,0-.536-.284-.764-.8-.757-.348.005-.7,0-1.044,0q-12.875,0-25.75,0c-1.8,0-1.717.108-1.706-1.694,0-.5,0-1.005.012-1.508a.666.666,0,0,1,.73-.718c.27-.006.541,0,.812,0H77.532c.309,0,.619-.013.928-.009a.631.631,0,0,0,.715-.711c.006-.889.007-1.778,0-2.667-.007-.574-.311-.83-.889-.8-.463.022-.928,0-1.392,0H47.661c-1.549,0-1.564,0-1.549-1.509.026-2.636-.347-2.264,2.271-2.27,7.191-.017,14.382-.006,21.573-.008,1.482,0,1.552-.07,1.573-1.566.008-.618,0-1.237-.008-1.856a.692.692,0,0,0-.8-.766c-.889.006-1.779,0-2.668,0q-4.408,0-8.815,0c-1.17,0-1.172-.012-1.187-1.143-.007-.541-.006-1.083,0-1.624C58.062.39,58.066.388,59.191.379q.638,0,1.276,0C67.813.37,75.16.355,82.506.366A37.9,37.9,0,0,1,99.185,4.173a28.41,28.41,0,0,1,6.885,4.665c.9.829.9.844.176,1.775a30.454,30.454,0,0,0-4.453,7.821,28.971,28.971,0,0,0-1.822,14.532,16.619,16.619,0,0,1-2.007,11.283,47.019,47.019,0,0,0-3.1,6.2,6.049,6.049,0,0,0,1.245,7.058,6.513,6.513,0,0,0,2.616,1.43A1.256,1.256,0,0,1,99.7,60.3a7.287,7.287,0,0,0,1.2,4.273,2.43,2.43,0,0,1,.328,1.092,8.492,8.492,0,0,0,1.383,3.763,18.069,18.069,0,0,1,1.677,2.894A40.679,40.679,0,0,1,105.51,76.4c.093.329-.083.524-.41.553-.307.027-.618.018-.927.029-1.928.069-3.862.068-5.783.223a5.911,5.911,0,0,0-5.665,5.44c-.086.573-.174,1.146-.235,1.722a.672.672,0,0,1-.753.691c-.232,0-.464,0-.7,0H74.222c-.271,0-.542-.014-.812,0-.559.026-.747-.265-.736-.785.016-.734-.012-1.47.011-2.2.025-.79.09-.866.873-.884,1.159-.026,2.32-.007,3.48-.015s1.217-.06,1.229-1.263c.007-.657.019-1.315,0-1.972-.029-.821-.133-.938-.955-.948-1.7-.021-3.4-.008-5.1-.009-.657,0-1.315-.008-1.972,0-.525.007-.786-.227-.78-.765.01-.812.007-1.624,0-2.436a.573.573,0,0,1,.632-.652c.309-.007.618-.012.928-.012q6.786,0,13.571,0c1.416,0,1.417-.005,1.428-1.4,0-.619.016-1.238,0-1.856-.024-.834-.089-.894-.95-.928-.5-.02-1.005-.01-1.508-.01q-4.7,0-9.4-.006c-1.151,0-1.166-.023-1.182-1.162-.009-.657,0-1.315,0-1.972,0-.586.286-.827.864-.817q1.507.027,3.016,0c.972-.016,1.027-.083,1.038-1.079.008-.7.024-1.393,0-2.088-.031-.863-.161-1-1.04-1.008-2.822-.017-5.645-.008-8.467-.009-1.6,0-1.6,0-1.6-1.571,0-.348,0-.7,0-1.044.017-1.111.054-1.163,1.2-1.166C71.93,57,75.873,57,79.817,57c1.717,0,1.717,0,1.721-1.752,0-.5.017-1.006-.006-1.508-.034-.753-.154-.877-.878-.92-.424-.025-.85-.011-1.276-.011h-22.5c-.193,0-.387.005-.58,0-.95-.026-1-.064-1.026-.969-.019-.734.012-1.469-.006-2.2-.014-.548.236-.775.768-.748.27.014.541,0,.812,0H69.836c.309,0,.619-.008.928-.005a.657.657,0,0,0,.732-.714c.025-.927.027-1.855.016-2.782-.006-.469-.281-.691-.75-.684-.348.006-.7,0-1.044,0H52.55c-.271,0-.541-.006-.812-.007-.44,0-.62-.244-.619-.66,0-.85,0-1.7,0-2.552,0-.465.22-.721.71-.707.27.008.541,0,.812,0q18.849,0,37.7,0c2.4,0,2.045.144,2.062-2.042.018-2.419.152-2.142-2.092-2.145q-12.063-.016-24.126-.006c-1.556,0-1.557,0-1.561-1.518,0-.5.005-1.005,0-1.508a.712.712,0,0,1,.77-.808c.309-.016.618-.018.927-.018,2.784,0,5.568,0,8.351-.006,1.179,0,1.232-.065,1.249-1.254.011-.734-.007-1.469,0-2.2a.623.623,0,0,0-.7-.72c-.348,0-.7-.011-1.044-.011H54.691c-.348,0-.7.011-1.044-.009-.765-.043-.848-.1-.908-.881s-.058-1.54-.092-2.31a.587.587,0,0,1,.593-.7c.346-.027.7-.026,1.043-.026Q64.027,24.61,73.77,24.612Z" transform="translate(-39.726 -0.362)" fill="#fff"/>
        <path id="Path_2240" data-name="Path 2240" d="M199.589,469.224c-.013,2.3.215,1.985-1.949,1.972-1.991-.012-2.027.473-2.039-2.066-.009-1.877-.006-1.877,1.9-1.872.462,0,.924.014,1.384,0,.5-.017.7.238.7.7C199.592,468.378,199.589,468.8,199.589,469.224Z" transform="translate(-168.529 -402.64)" fill="#fff"/>
        <path id="Path_2241" data-name="Path 2241" d="M126.772,238.062c-2.091-.019-1.92.205-1.917-1.934s-.182-1.922,1.922-1.919,1.928-.214,1.925,1.924C128.7,238.186,128.917,238.061,126.772,238.062Z" transform="translate(-107.572 -201.84)" fill="#fff"/>
        <path id="Path_2242" data-name="Path 2242" d="M177.912,529.952c-2.012-.011-1.921.177-1.893-1.964.026-1.969-.34-1.914,1.928-1.908,2.29.006,2-.121,2.006,1.829C179.965,530.132,180.166,529.95,177.912,529.952Z" transform="translate(-151.651 -453.324)" fill="#fff"/>
        <path id="Path_2243" data-name="Path 2243" d="M49.139,177.521c0-.348-.011-.7,0-1.042.032-.82.076-.882.844-.9s1.544,0,2.316,0a.617.617,0,0,1,.707.706c-.007.772.028,1.546-.015,2.316-.041.72-.206.862-.927.888-.694.025-1.39-.012-2.084.012-.585.02-.862-.224-.841-.815.014-.386,0-.772,0-1.158Z" transform="translate(-42.335 -151.317)" fill="#fff"/>
        <path id="Path_2244" data-name="Path 2244" d="M133.418,120.817c-2.14-.018-1.91.259-1.929-1.886-.022-2.36.038-2.024,2.085-2.034,1.759-.008,1.759,0,1.767,1.8,0,.077,0,.154,0,.231C135.329,121.026,135.581,120.808,133.418,120.817Z" transform="translate(-113.289 -100.759)" fill="#fff"/>
        <path id="Path_2245" data-name="Path 2245" d="M28.236,294.431c0-.192.009-.385,0-.576-.081-1.485-.051-1.519,1.383-1.522.5,0,1-.013,1.5,0,.814.026.886.078.914.834s-.009,1.538.018,2.305c.021.614-.273.809-.843.789-.729-.025-1.461.014-2.19-.013-.766-.029-.844-.133-.813-.9.012-.307.038-.613.058-.919Z" transform="translate(-24.295 -251.922)" fill="#fff"/>
        <path id="Path_2246" data-name="Path 2246" d="M147.864,409.639c2.263-.034,1.905.047,1.919,1.965.013,1.832.2,1.838-1.833,1.814-.464-.005-.928-.012-1.392,0s-.723-.187-.717-.682c.008-.773.016-1.547,0-2.32-.012-.532.2-.793.749-.778C147.014,409.649,147.439,409.639,147.864,409.639Z" transform="translate(-125.656 -352.994)" fill="#fff"/>
        <path id="Path_2247" data-name="Path 2247" d="M1.965,59.313c2.255-.014,1.968-.086,1.978,2.013.008,1.773,0,1.783-1.778,1.771-2.475-.016-2.14.289-2.159-2.15-.014-1.792-.111-1.636,1.612-1.634Z" transform="translate(0 -51.151)" fill="#fff"/>
        <path id="Path_2248" data-name="Path 2248" d="M68.948,118.858c-.031-2.21-.069-1.991,2-1.984,1.583,0,1.813-.331,1.788,1.744-.031,2.514.245,2.146-2.126,2.171C68.686,120.81,68.962,120.868,68.948,118.858Z" transform="translate(-59.399 -100.735)" fill="#fff"/>
      </g>
      <g id="Group_1370" data-name="Group 1370" transform="translate(57.903 0.036)">
        <path id="Path_2249" data-name="Path 2249" d="M466.618.654H479.8a3.135,3.135,0,0,1,.921.038c.2.064.477.317.488.5.054.886.039,1.776.031,2.665a.6.6,0,0,1-.661.646c-.232.009-.464.016-.7.016q-5.914,0-11.829,0c-.232,0-.464,0-.7-.02-.375-.026-.6-.253-.512-.606a.844.844,0,0,1,.505-.466,2.617,2.617,0,0,1,.805-.03L478.6,3.385c.27,0,.541,0,.811-.013.546-.025.714-.358.709-.855a.629.629,0,0,0-.71-.711c-.271,0-.541-.008-.812-.008-7.46,0-14.921.01-22.382-.006a36.974,36.974,0,0,0-6.98.827,35.147,35.147,0,0,0-5.2,1.467,28.181,28.181,0,0,0-11.04,7c-.59.61-1.132,1.265-1.7,1.892-.406.445-.335.826-.027,1.335q1.343,2.214,2.548,4.509a22.861,22.861,0,0,1,1.761,5.214,20.837,20.837,0,0,1,.589,5.494c-.035,1.607-.358,3.207-.554,4.811a14.288,14.288,0,0,0,.219,6.279,44.648,44.648,0,0,0,3.1,6.687c.7,1.369,1.437,2.722,2.128,4.1a9.273,9.273,0,0,1,.577,1.5,1.9,1.9,0,0,1-1.007,2.428,19.123,19.123,0,0,1-2.446,1.008c-1.061.36-1.878.874-1.915,2.141-.021.726-.178,1.456-.128,2.174.092,1.313-.14,1.759-1.395,2.235-.774.293-1.009.549-.62,1.284.95,1.794.132,3.017-1,4.333a11.088,11.088,0,0,0-2.339,6.283.985.985,0,0,0,.755,1.141,3.984,3.984,0,0,0,1.136.14c2.281.018,4.562,0,6.842.033a10,10,0,0,1,4.485.954,7.141,7.141,0,0,1,3.82,5.467c.049.265.07.536.1.8a.709.709,0,0,0,.777.686c.733.027,1.467.076,2.2.074q6.375-.021,12.75-.063c.193,0,.387,0,.58-.01.444-.018.746-.185.725-.693a.688.688,0,0,0-.707-.754c-.965-.028-1.932-.022-2.9-.031a3.907,3.907,0,0,1-.922-.034c-.173-.045-.413-.282-.41-.428s.252-.312.41-.449c.047-.041.149-.026.226-.026,1.546,0,3.092,0,4.638-.005.579,0,.837.242.8.845-.04.655-.03,1.314-.011,1.97.014.477-.159.736-.658.729-.232,0-.464.006-.7.006l-16.235,0c-.232,0-.464-.011-.7,0-.475.016-.646-.213-.737-.681A19.782,19.782,0,0,0,446.223,81a5.661,5.661,0,0,0-4.708-3.609,40.162,40.162,0,0,0-8.546-.28,4.838,4.838,0,0,1-1.833-.163,2.734,2.734,0,0,1-1.3-1.032,4.608,4.608,0,0,1-.54-1.751,11.01,11.01,0,0,0-1.339-4.257,21.085,21.085,0,0,0-1.464-2.061c-.774-.966-1.264-1.944-.556-3.167a4.02,4.02,0,0,0,.219-.778.624.624,0,0,0-.414-.83c-.14-.066-.277-.14-.42-.2-1.1-.423-1.323-.818-1.285-1.965.027-.8-.076-1.607-.094-2.412-.029-1.277-.876-1.778-1.925-2.155a16.263,16.263,0,0,1-2.528-1.087,1.738,1.738,0,0,1-.849-2.525c.824-1.865,1.758-3.682,2.653-5.515.863-1.767,1.772-3.512,2.6-5.3a11.828,11.828,0,0,0,.623-7.708,23.38,23.38,0,0,1,.023-9.868,27.34,27.34,0,0,1,4.916-10.856A29.53,29.53,0,0,1,440.934,4.18a44.048,44.048,0,0,1,7.2-2.5,35.979,35.979,0,0,1,3.643-.6C457,.227,462.269.88,466.618.654Z" transform="translate(-418.397 -0.625)" fill="#fff"/>
        <path id="Path_2250" data-name="Path 2250" d="M621.016,176.4h20.169c.155,0,.31.011.464,0,.616-.055.94.179.947.839s.115,1.309.1,1.962c-.015.672-.243.866-.922.934a6.884,6.884,0,0,1-.695.012q-10.664-.006-21.329-.015a3.2,3.2,0,0,1-1.031-.068.84.84,0,0,1-.381-.607c-.016-.109.272-.348.451-.384a5.359,5.359,0,0,1,1.039-.034q10.027,0,20.054,0a7.611,7.611,0,0,0,1.154-.058.591.591,0,0,0,.519-.763.969.969,0,0,0-.54-.614,4.8,4.8,0,0,0-1.265-.068q-19.416,0-38.832,0a3.69,3.69,0,0,1-1.035-.044.728.728,0,0,1-.421-.549c0-.174.269-.442.465-.494a4.122,4.122,0,0,1,1.037-.038h20.054Z" transform="translate(-574.402 -152.068)" fill="#fff"/>
        <path id="Path_2251" data-name="Path 2251" d="M637.96,292.767h19.474c.309,0,.619.013.927,0,.465-.019.741.155.74.656,0,.85-.006,1.7,0,2.55,0,.449-.229.62-.649.61-.232-.005-.464.006-.7.006l-18.547,0c-.271,0-.541,0-.811-.011-.389-.012-.684-.127-.668-.6.014-.42.3-.5.628-.508.309-.01.618-.009.927-.009l16.924,0c.348,0,.7,0,1.043-.019.447-.021.729-.222.724-.713s-.139-.843-.709-.846c-.464,0-.927-.01-1.391-.01l-37.789-.005a5.128,5.128,0,0,1-.924-.032c-.158-.029-.406-.205-.406-.316a.73.73,0,0,1,.256-.574,2.093,2.093,0,0,1,.891-.171c1.043-.018,2.086-.006,3.129-.006Z" transform="translate(-589.308 -252.333)" fill="#fff"/>
        <path id="Path_2252" data-name="Path 2252" d="M729.942,63.4H714.517c-.271,0-.542.008-.812-.005-.342-.017-.77.025-.738-.494s.466-.421.8-.439c.308-.017.619-.005.928-.005h29.344c.348,0,.7.017,1.043-.014a.776.776,0,0,0,.8-.906c-.023-.5-.337-.652-.776-.658-.386-.005-.773-.01-1.16-.01l-22.037-.008a3.2,3.2,0,0,1-.918-.047.642.642,0,0,1-.342-.5.653.653,0,0,1,.334-.5,2.241,2.241,0,0,1,.8-.059q12,0,24.009,0c.193,0,.386.006.58.007.414,0,.657.184.657.623,0,.773,0,1.546,0,2.319a.592.592,0,0,1-.62.675c-.308.018-.618.015-.927.015Z" transform="translate(-672.199 -51.573)" fill="#fff"/>
        <path id="Path_2253" data-name="Path 2253" d="M614.353,121.866H600.68a2.981,2.981,0,0,1-.919-.036.544.544,0,0,1,0-1.065,3.8,3.8,0,0,1,1.035-.042h26.186c.309,0,.619.007.926-.021a.635.635,0,0,0,.656-.664.694.694,0,0,0-.525-.795,5.561,5.561,0,0,0-1.147-.092q-5.272-.008-10.544,0a4.383,4.383,0,0,1-.921-.047c-.146-.032-.371-.249-.356-.354a.745.745,0,0,1,.333-.5,1.592,1.592,0,0,1,.682-.063q6.141,0,12.282.006c1.235,0,1.288.075,1.3,1.328,0,.463.016.928,0,1.39-.033.841-.12.941-.94.957-1.081.021-2.163.006-3.244.006Z" transform="translate(-574.29 -101.906)" fill="#fff"/>
        <path id="Path_2254" data-name="Path 2254" d="M709.262,355.108q-6.147,0-12.293,0a4.24,4.24,0,0,1-1.029-.1.424.424,0,0,1,.034-.814,10.135,10.135,0,0,1,1.386-.065q11.307,0,22.615,0a10.429,10.429,0,0,0,1.043-.015c.581-.059.79-.344.769-.928-.019-.523-.342-.635-.778-.631-.387,0-.773,0-1.16,0q-6.378,0-12.757,0a4.126,4.126,0,0,1-1.035-.06.634.634,0,0,1-.329-.5.659.659,0,0,1,.311-.517,2.173,2.173,0,0,1,.8-.06q7.48,0,14.961,0c1.1,0,1.107.01,1.125,1.074.009.541.015,1.083,0,1.624-.025.9-.091.965-1.021.983s-1.856.006-2.783.007h-9.858Z" transform="translate(-657.281 -302.862)" fill="#fff"/>
        <path id="Path_2255" data-name="Path 2255" d="M630.885,238.8H617.793a3.423,3.423,0,0,1-.807-.023c-.187-.046-.339-.231-.506-.355.155-.189.279-.49.472-.543a4.391,4.391,0,0,1,1.149-.071q11.411,0,22.823.015c.657,0,1.314.014,1.969-.007a1.923,1.923,0,0,0,.892-.157.937.937,0,0,0,.443-.688c-.017-.206-.336-.477-.576-.555a3.478,3.478,0,0,0-1.034-.053c-2.626,0-5.252,0-7.878-.012a5.068,5.068,0,0,1-1.369-.166c-.179-.052-.276-.383-.411-.587a2.559,2.559,0,0,1,.537-.325,1.965,1.965,0,0,1,.576-.016q4.981,0,9.964,0c1.26,0,1.292.039,1.311,1.3.007.463-.012.928.007,1.39.024.569-.187.882-.8.85-.308-.016-.618,0-.927,0Z" transform="translate(-589.067 -202.775)" fill="#fff"/>
        <path id="Path_2256" data-name="Path 2256" d="M703.451,410.1h6.608c.232,0,.464,0,.7.012.4.023.659.193.657.637q0,1.159,0,2.318c0,.5-.283.677-.737.677-.85,0-1.7,0-2.55,0-2.589,0-5.178.013-7.767-.006-.415,0-1,.219-1.127-.475-.08-.445.265-.637,1.121-.637,2.7,0,5.41.009,8.115.01.386,0,.773-.01,1.158-.04a.61.61,0,0,0,.631-.677.707.707,0,0,0-.683-.784c-.342-.032-.693.029-1.039.029q-5.855,0-11.709,0a2,2,0,0,1-.8-.057.917.917,0,0,1-.427-.571c-.023-.1.259-.345.44-.4a2.908,2.908,0,0,1,.806-.036q3.3,0,6.608,0Z" transform="translate(-657.233 -353.427)" fill="#fff"/>
        <path id="Path_2257" data-name="Path 2257" d="M671.541,526.986c2.588,0,5.177-.006,7.765,0,1.028,0,1.062.019,1.042,1.029-.058,2.947.49,2.483-2.476,2.508q-3.187.027-6.374,0c-.388,0-.987.174-1-.456-.014-.65.594-.469.978-.472,2.241-.015,4.481-.009,6.722,0,.494,0,.952-.032,1.013-.669.043-.448-.1-.766-.61-.785-.309-.011-.618-.015-.927-.015l-13.56,0c-.309,0-.618-.006-.927-.009-.333,0-.482-.178-.5-.5-.014-.363.1-.6.506-.613.27-.007.541-.015.811-.015h7.533Z" transform="translate(-628.881 -454.137)" fill="#fff"/>
        <path id="Path_2258" data-name="Path 2258" d="M669.919,472q-2.9,0-5.792,0a2.144,2.144,0,0,1-.8-.038.745.745,0,0,1-.4-.548.719.719,0,0,1,.441-.511,3.988,3.988,0,0,1,1.036-.042q4.923,0,9.846,0c.347,0,.7,0,1.042-.021.366-.024.72-.127.741-.57a.8.8,0,0,0-.68-.934c-.648-.075-1.308-.044-1.963-.056-.577-.011-1.154-.014-1.73-.028-.346-.008-.663-.132-.567-.53a.736.736,0,0,1,.523-.455c1.582-.038,3.166-.024,4.748-.026a.571.571,0,0,1,.639.644c.005.772-.015,1.545.011,2.316.02.611-.261.807-.84.8-1.235-.023-2.471,0-3.707,0Z" transform="translate(-629.083 -403.526)" fill="#fff"/>
        <path id="Path_2259" data-name="Path 2259" d="M833.992,413.786c-2.137-.024-1.876.281-1.884-1.927-.005-1.682.021-1.684,1.749-1.7.5-.006,1-.008,1.5.007a.53.53,0,0,1,.573.583q0,1.215,0,2.43c0,.44-.255.612-.666.611S834.417,413.786,833.992,413.786Zm.721-1.838c-.014-.487-.237-.715-.691-.706a.7.7,0,0,0-.771.781c.035.493.371.62.789.632C834.521,412.668,834.73,412.413,834.713,411.948Z" transform="translate(-774.848 -353.475)" fill="#fff"/>
        <path id="Path_2260" data-name="Path 2260" d="M781.853,470.079c.037-2.046-.31-1.913,1.909-1.923,2.267-.01,1.943.078,1.957,1.932.014,1.878.163,1.84-1.8,1.831-.461,0-.922-.011-1.383,0-.483.013-.707-.2-.687-.689C781.866,470.848,781.853,470.463,781.853,470.079Zm1.816-.781c-.478-.017-.661.254-.65.719.013.549.235.771.777.758s.8-.279.762-.781C784.523,469.511,784.24,469.284,783.669,469.3Z" transform="translate(-731.55 -403.452)" fill="#fff"/>
        <path id="Path_2261" data-name="Path 2261" d="M980,59.784c2.14.015,1.837-.141,1.843,1.869.006,1.875.248,1.77-1.83,1.774-2.119,0-1.877.015-1.883-1.759C978.126,59.625,977.986,59.8,980,59.784Zm.708,1.773c-.015-.47-.256-.7-.727-.659-.423.039-.729.221-.729.7a.723.723,0,0,0,.829.732C980.578,62.307,980.713,61.988,980.71,61.557Z" transform="translate(-900.664 -51.597)" fill="#fff"/>
        <path id="Path_2262" data-name="Path 2262" d="M933.241,178.312c-.005,2.164.154,1.866-1.83,1.868-1.8,0-1.8-.013-1.818-1.845-.022-2.176-.137-1.89,1.81-1.888C933.474,176.45,933.216,176.212,933.241,178.312Zm-1.862.738c.426.017.67-.228.707-.71.033-.447-.119-.748-.62-.749-.414,0-.762.1-.794.606A.736.736,0,0,0,931.379,179.05Z" transform="translate(-858.84 -152.103)" fill="#fff"/>
        <path id="Path_2263" data-name="Path 2263" d="M850.912,119.96c0,2.088.12,1.829-1.877,1.829s-1.747.24-1.748-1.8c0-1.773-.356-1.946,1.965-1.888C851.142,118.147,850.895,118.143,850.912,119.96Zm-1.1.1a.859.859,0,0,0-.731-.926.809.809,0,0,0-.7.881c.017.43.285.6.669.612C849.481,120.641,849.79,120.485,849.811,120.057Z" transform="translate(-787.914 -101.834)" fill="#fff"/>
        <path id="Path_2264" data-name="Path 2264" d="M803.7,530.515c-2.17-.008-1.85.15-1.861-1.843-.01-1.837-.211-1.689,1.649-1.705.463,0,.927.023,1.389,0,.576-.03.865.17.829.795s.005,1.234-.01,1.851c-.021.812-.069.854-.838.9-.039,0-.077,0-.116,0Zm.075-2.391c-.538-.006-.772.178-.779.614a.77.77,0,1,0,1.537.032C804.531,528.256,804.206,528.125,803.771,528.124Z" transform="translate(-748.76 -454.121)" fill="#fff"/>
        <path id="Path_2265" data-name="Path 2265" d="M954.246,294.707c-.006,2.059.168,1.9-1.85,1.893-1.858-.011-1.694.216-1.683-1.665.015-2.517-.3-2.107,2.149-2.15.193,0,.386.008.579,0a.686.686,0,0,1,.8.759C954.25,293.934,954.246,294.32,954.246,294.707Zm-.962.011a.728.728,0,0,0-.758-.812c-.46-.013-.74.282-.76.811a.637.637,0,0,0,.691.726A.7.7,0,0,0,953.284,294.718Z" transform="translate(-877.037 -252.351)" fill="#fff"/>
        <path id="Path_2266" data-name="Path 2266" d="M855.809,238.859c-2.008-.02-1.811.2-1.813-1.777s-.193-1.769,1.818-1.765,1.81-.22,1.811,1.769S857.82,238.833,855.809,238.859Zm.723-1.584c-.043-.634-.377-.924-.787-.862-.431.066-.723.28-.658.768.059.442.342.763.769.653C856.15,237.759,856.374,237.413,856.531,237.275Z" transform="translate(-793.707 -202.831)" fill="#fff"/>
        <path id="Path_2267" data-name="Path 2267" d="M914,120.142c0,1.945.17,1.718-1.73,1.717-1.99,0-1.817.222-1.809-1.764.008-2.031-.3-1.919,1.911-1.917,1.845,0,1.625-.019,1.627,1.618Q914,119.969,914,120.142Zm-1.052-.046c-.118-.392-.13-.877-.7-.918-.392-.028-.845.513-.8.965.049.512.436.583.844.568C912.669,120.7,912.976,120.572,912.947,120.1Z" transform="translate(-842.353 -101.909)" fill="#fff"/>
      </g>
    </g>
    <path id="Path_2270" data-name="Path 2270" d="M9.241.282h.024l1.01,42.745L9.247,84.9h0L8.2,43.027Z" transform="translate(-21843.527 -10653.226)" fill="#fff"/>
  </g>
</svg>
