<svg xmlns="http://www.w3.org/2000/svg" width="217" height="139" viewBox="0 0 217 139">
  <g id="Group_1263" data-name="Group 1263" transform="translate(-765.999 -9046.646)">
    <g id="visa-light-large" transform="translate(765.999 9046.29)">
      <rect id="card_bg" width="97" height="66" rx="4" transform="translate(0 0.355)" fill="#dfe3e8"/>
      <path id="visa-logo" d="M34.162,19.116a14.311,14.311,0,0,1-5.228-.985l.864-4.015a10.077,10.077,0,0,0,4.772,1.206H34.7c1.429-.021,2.871-.593,2.871-1.827.019-.786-.655-1.412-2.49-2.309-1.8-.881-4.2-2.362-4.2-5.04,0-3.618,3.3-6.144,8.031-6.144a12.878,12.878,0,0,1,4.5.824l-.842,4.015a9.06,9.06,0,0,0-3.855-.868c-.294,0-.592.015-.885.044-1.387.184-2.008.909-2.008,1.547,0,.778.995,1.3,2.254,1.959,2,1.046,4.485,2.349,4.472,5.411l.1-.161c-.02,3.855-3.308,6.345-8.372,6.345Zm13.305-.16H42.407L49.616,1.747A2.182,2.182,0,0,1,51.624.381h4.015l3.894,18.571-4.456,0-.582-2.77H48.45l-.983,2.77ZM52.245,5.4l-2.53,6.966h4ZM25.5,18.9h-4.82L24.7.322h4.818L25.5,18.894Zm-10.541-.061H9.719L5.884,4A2.019,2.019,0,0,0,4.738,2.369,19.912,19.912,0,0,0,0,.8L.121.26H8.293a2.245,2.245,0,0,1,2.228,1.888L12.529,12.89l5-12.63H22.75L14.96,18.832Z" transform="translate(18.635 23.094)" fill="#2a2a6c"/>
    </g>
    <g id="mastercard-light-large" transform="translate(765.999 9120.001)">
      <rect id="card_bg-2" data-name="card_bg" width="97" height="66" rx="4" transform="translate(0 -0.356)" fill="#dfe3e8"/>
      <g id="mastercard" transform="translate(9.338 7.628)">
        <g id="Group" transform="translate(0)" opacity="0">
          <rect id="Rectangle" width="77.726" height="51.402" fill="#fff"/>
        </g>
        <rect id="Rectangle-2" data-name="Rectangle" width="20.501" height="33.492" transform="translate(28.613 8.955)" fill="#f26122"/>
        <path id="Path" d="M26.441,21.3A21.244,21.244,0,0,1,34.473,4.558a21.3,21.3,0,1,0,0,33.492A21.244,21.244,0,0,1,26.441,21.3Z" transform="translate(4.38 4.397)" fill="#ea1d25"/>
        <path id="Shape" d="M1,.826H1l-.139,0V0h.2l.26.582L1.567,0h.2V.822l-.141,0V.2l-.22.542H1.245L1,.2V.826Zm-.6,0H.282V.141H0V0H.7V.141H.4V.824Z" transform="translate(70.859 38.07)" fill="#f69e1e"/>
        <path id="Path-2" data-name="Path" d="M34.455,21.29A21.3,21.3,0,0,1,0,38.036a21.3,21.3,0,0,0,3.574-29.9A20.882,20.882,0,0,0,0,4.544,21.3,21.3,0,0,1,34.455,21.29Z" transform="translate(38.853 4.411)" fill="#f69e1e"/>
      </g>
    </g>
    <g id="americanexpress-light-large" transform="translate(885.999 9120.001)">
      <rect id="card_bg-3" data-name="card_bg" width="97" height="66" rx="4" transform="translate(0 -0.356)" fill="#dfe3e8"/>
      <g id="amex" transform="translate(0.618 15.66)">
        <path id="Path-3" data-name="Path" d="M2.55,1.767l1.084,2.65H0l1.1-2.65L1.827,0,2.55,1.767Z" transform="translate(4.78 4.939)" fill="#296db6"/>
        <path id="Shape-2" data-name="Shape" d="M62.166,16.467a7.99,7.99,0,0,1-4.658-1.488v1.485H47.85l-2.329-2.931v2.931H8.7l-.923-2.449H5.524l-.945,2.449H0V14.015H3.054l.963-2.371H9.3l.965,2.29h3.092L8.495,2.609H4.92L0,14.01,0,7.63,3.214,0H9.76l1.887,4.216V0h8.033l1.205,3.614L22.088.08H57.507V1.728A7.834,7.834,0,0,1,62.3.076c.075,0,.15,0,.225,0H73.249L75.257,4.3V.08h6.3L83.71,3.414V.08h7.209V16.465H84.133l-2.009-3.171v3.171H72.286L71.3,14.016h-2.25l-.923,2.449H62.366ZM77.425,2.609V14.016h2.691V6.385l.723,1.245,4.2,6.3h3.211l.1-11.4H85.537V9.919l-.763-1.285L80.759,2.609Zm-8.974,0L63.592,14.016h2.931l.963-2.371h5.362l.963,2.29H76.9L72.065,2.609ZM61.882,2.6a5.121,5.121,0,0,0-5.1,5.6v.161a5.02,5.02,0,0,0,4.985,5.59c.092,0,.184,0,.276-.008h.161l1.1-2.409h-.862q-.071,0-.141,0a2.812,2.812,0,0,1-2.792-3.177V8.192a2.813,2.813,0,0,1,2.792-3.135q.07,0,.141,0h2.991V2.609H62.245C62.125,2.6,62,2.6,61.882,2.6Zm-9.455.013V13.935h2.75V2.609Zm-8.674,7.31H45l3.374,4.015h3.493L48.09,9.758a3.5,3.5,0,0,0,3.092-3.574,3.555,3.555,0,0,0-4.015-3.574h-6.2V13.935h2.79V9.919ZM25.277,4.791h0v9.143h2.651V2.609H23.494L21.246,9.157,20.884,10.4l-.361-1.245-2.21-6.547H13.876V13.935h2.629V4.778l.562,1.728,2.572,7.429h2.449l2.671-7.429ZM30.12,2.609V13.855h9.036V11.444H32.79V9.437H39V7.028H32.79V5.02h6.366V2.609ZM72.085,9.357H68.514l1.042-2.651.723-1.767.683,1.688.4.972-.4-.972-.683-1.688L71,6.706l.414,1.012,0,0,.638,1.55,0,0L70.86,6.706l1.224,2.648ZM47.106,7.523a1.243,1.243,0,0,1-.179-.013H43.753V5.02h3.173a1.261,1.261,0,0,1,1.4,1.238V6.3a1.224,1.224,0,0,1-1.225,1.224Zm.813-.389a1.222,1.222,0,0,1-.8.308A1.221,1.221,0,0,0,47.919,7.134Z" transform="translate(0 0)" fill="#296db6"/>
        <path id="Shape-3" data-name="Shape" d="M41.162,16.387h0l-6.885,0V12.249a9.892,9.892,0,0,1-2.924.441H30.139v3.7H20l-1.688-2.45-1.726,2.45H0V0H16.625l1.686,2.409L20.039,0h58.51V2.53H72.666A3.493,3.493,0,0,0,68.771,6.1,3.151,3.151,0,0,0,72.3,9.437h2.59a1.025,1.025,0,0,1,1.054.436,1.023,1.023,0,0,1-1.054,1.572h-5.8v2.411h5.763c.109.01.219.015.327.015a3.568,3.568,0,0,0,3.327-2.3V15.38a6.721,6.721,0,0,1-3.54,1.006H43.492l-2.329-2.933v2.935ZM18.311,10.241l0,0,2.729,3.612,3.455.08-4.579-5.7,4.5-5.7H21.084L18.311,6.1,15.561,2.57H12.147L16.7,8.233l-4.417,5.622h3.193l2.828-3.612Zm40.318,1.2v2.411h5.864c.093.007.187.011.28.011a3.515,3.515,0,0,0,3.515-3.625,3.11,3.11,0,0,0-3.535-3.253H62.125a1.025,1.025,0,1,1,0-2.008H67L68.088,2.57H62.2A3.495,3.495,0,0,0,58.31,6.1a3.151,3.151,0,0,0,3.533,3.332h2.651a1.025,1.025,0,1,1,0,2.008ZM39.294,9.838h1.245l3.374,4.017h3.493L43.611,9.679a3.6,3.6,0,0,0-.842-7.149H36.625V13.855h2.669V9.838ZM24.978,2.53V13.855h2.691V10.12h3.473a3.715,3.715,0,0,0,4.1-3.815A3.634,3.634,0,0,0,31.223,2.53Zm23.071,0v11.2h9.135V11.325H50.819V9.317h6.206V6.947H50.819V4.939h6.305l.06-2.409Zm-45.44,0v11.2h9.1V11.325H5.342V9.317h6.244V6.947H5.342V4.939h6.365V2.53Zm75.835,6.3a3.251,3.251,0,0,0-3.289-1.88H72.525a1.024,1.024,0,1,1,0-2.008h4.941l.983-2.329V8.826ZM30.981,7.711H27.728V4.939h3.253a1.386,1.386,0,0,1,0,2.772Zm11.728-.268a1.228,1.228,0,0,1-.183-.014H39.355V4.939h3.171a1.265,1.265,0,0,1,.158-.01,1.246,1.246,0,0,1,1.248,1.255v.034a1.225,1.225,0,0,1-1.224,1.225Z" transform="translate(17.832 21.484)" fill="#296db6"/>
      </g>
    </g>
    <g id="paypal-light-large" transform="translate(885.999 9046.29)">
      <rect id="card_bg-4" data-name="card_bg" width="97" height="66" rx="4" transform="translate(0 0.355)" fill="#dfe3e8"/>
      <g id="paypal" transform="translate(31.55 12.593)">
        <path id="Path-4" data-name="Path" d="M8.252,37.427l.7-4.417H0L5.14.361A.422.422,0,0,1,5.281.1.482.482,0,0,1,5.562,0H18.031c4.156,0,7.008.863,8.513,2.57A5.522,5.522,0,0,1,27.89,5.12a8.875,8.875,0,0,1,0,3.514v1l.7.4A5,5,0,0,1,30.018,11.1a5.2,5.2,0,0,1,1.145,2.59A11.505,11.505,0,0,1,31,17.429a13.011,13.011,0,0,1-1.546,4.237,8.634,8.634,0,0,1-2.43,2.671A10.16,10.16,0,0,1,23.753,25.8a15.882,15.882,0,0,1-4.016.482h-.984a2.952,2.952,0,0,0-1.887.683,2.851,2.851,0,0,0-.984,1.767v.4l-1.225,7.791v.3a.3.3,0,0,1,0,.161h-.12Z" transform="translate(1.418 1.365)" fill="#253d80"/>
        <path id="Path-5" data-name="Path" d="M22.439,0l-.12.743C20.672,9.176,15.03,12.108,7.841,12.108H4.187A1.787,1.787,0,0,0,2.42,13.614L.553,25.5.011,28.874a.944.944,0,0,0,.924,1.084H7.44a1.566,1.566,0,0,0,1.546-1.325v-.321l1.225-7.771v-.422a1.546,1.546,0,0,1,1.526-1.325H12.8c6.285,0,11.224-2.55,12.65-10.039a8.513,8.513,0,0,0-1.285-7.489A6.486,6.486,0,0,0,22.439,0Z" transform="translate(8.234 10.2)" fill="#189bd7"/>
        <path id="Path-6" data-name="Path" d="M18.151.584l-.763-.2L16.545.222A20.2,20.2,0,0,0,13.332,0h-9.8a1.446,1.446,0,0,0-.663.141,1.526,1.526,0,0,0-.863,1.165L0,14.5v.382a1.787,1.787,0,0,1,1.767-1.506H5.421c7.188,0,12.83-2.932,14.477-11.365l.12-.743A9,9,0,0,0,18.673.7Z" transform="translate(10.794 8.934)" fill="#242e65"/>
        <path id="Path-7" data-name="Path" d="M12.8,10.24a1.526,1.526,0,0,1,.863-1.165,1.446,1.446,0,0,1,.663-.141h9.8a20.2,20.2,0,0,1,3.213.221l.843.161.763.2.382.12a9,9,0,0,1,1.345.562,8.032,8.032,0,0,0-1.606-7.168C27.058.9,23.765,0,19.468,0H6.979A1.787,1.787,0,0,0,5.212,1.506l-5.2,32.95A1.084,1.084,0,0,0,1.076,35.7h7.71l2.008-12.268Z" transform="translate(0 0)" fill="#253d80"/>
      </g>
    </g>
  </g>
</svg>
