<svg xmlns="http://www.w3.org/2000/svg" xmlns:xlink="http://www.w3.org/1999/xlink" width="64.931" height="64.931" viewBox="0 0 64.931 64.931">
  <defs>
    <filter id="Oval" x="0" y="0" width="64.931" height="64.931" filterUnits="userSpaceOnUse">
      <feOffset dy="3" input="SourceAlpha"/>
      <feGaussianBlur stdDeviation="3" result="blur"/>
      <feFlood flood-opacity="0.161"/>
      <feComposite operator="in" in2="blur"/>
      <feComposite in="SourceGraphic"/>
    </filter>
  </defs>
  <g id="Snapchat" transform="translate(9 6)">
    <g transform="matrix(1, 0, 0, 1, -9, -6)" filter="url(#Oval)">
      <circle id="Oval-2" data-name="Oval" cx="23.466" cy="23.466" r="23.466" transform="translate(9 6)" fill="#f1f1f1"/>
    </g>
    <g id="Snapchat-2" data-name="Snapchat" transform="translate(12.88 13.5)">
      <path id="Shape" d="M20.355,15.127c-2.635-.467-3.814-3.2-3.953-3.521V11.57a.857.857,0,0,1-.1-.683c.139-.323.728-.539,1.11-.647a2.339,2.339,0,0,0,.277-.108c.728-.323,1.11-.719,1.11-1.186a.972.972,0,0,0-.694-.862,1.075,1.075,0,0,0-.485-.108,1.317,1.317,0,0,0-.451.108,2.546,2.546,0,0,1-.832.252.426.426,0,0,1-.208-.036,1.146,1.146,0,0,0,.035-.359V7.869c.069-1.473.208-3.306-.277-4.384A5.642,5.642,0,0,0,10.645,0h-.416a5.574,5.574,0,0,0-5.2,3.485,10.563,10.563,0,0,0-.277,4.384,1.812,1.812,0,0,1,.035.431c-.069,0-.173.036-.277.036a1.9,1.9,0,0,1-.9-.252,1.2,1.2,0,0,0-1.526.755c-.069.359.069.862,1.11,1.294a1.575,1.575,0,0,0,.312.108c.347.108.936.323,1.075.647a.87.87,0,0,1-.1.683C4.4,11.678,3.19,14.588.451,15.055A.613.613,0,0,0,0,15.666a.533.533,0,0,0,.069.252c.208.575,1.11.934,2.739,1.222.035.108.069.323.1.431.035.144.069.323.1.5a.6.6,0,0,0,.624.467,2.629,2.629,0,0,0,.485-.072A4.127,4.127,0,0,1,5.2,18.325a3.044,3.044,0,0,1,.8.108,3.436,3.436,0,0,1,1.422.755,4.015,4.015,0,0,0,2.739.934H10.4a5.444,5.444,0,0,0,3.121-.934,3.917,3.917,0,0,1,1.422-.755,5.479,5.479,0,0,1,.763-.072,4.744,4.744,0,0,1,1.075.108,3.489,3.489,0,0,0,.52.072.6.6,0,0,0,.589-.467c.035-.18.069-.323.1-.5.035-.072.069-.287.1-.4,1.63-.252,2.427-.647,2.67-1.186a.685.685,0,0,0,.069-.252A.613.613,0,0,0,20.355,15.127Z" transform="translate(0 0)" fill="#202020"/>
      <path id="Path" d="M17.06,15.738c-.416.036-.485.467-.59.934-.035.108-.069.252-.1.4a1.539,1.539,0,0,1-.347-.036,5.658,5.658,0,0,0-1.214-.144,7.647,7.647,0,0,0-.867.072,4.123,4.123,0,0,0-1.7.9,4.242,4.242,0,0,1-2.67.826H9.4a3.546,3.546,0,0,1-2.358-.826,3.92,3.92,0,0,0-1.7-.9,7.053,7.053,0,0,0-.867-.072,4.9,4.9,0,0,0-1.214.144,1.48,1.48,0,0,1-.347.072l-.1-.431c-.1-.467-.173-.9-.589-.97A4.568,4.568,0,0,1,0,15.019c2.843-.611,4.161-3.485,4.334-3.881a1.63,1.63,0,0,0,.1-1.258A2.232,2.232,0,0,0,2.913,8.839a.488.488,0,0,1-.243-.072c-.59-.251-.694-.467-.694-.5,0-.108.243-.252.451-.252h.1a2.649,2.649,0,0,0,1.179.323,1.189,1.189,0,0,0,.867-.323.332.332,0,0,0,.1-.252c0-.216-.035-.431-.035-.647a10.177,10.177,0,0,1,.208-4.06A4.894,4.894,0,0,1,9.432,0h.381a4.987,4.987,0,0,1,4.612,2.982,11.633,11.633,0,0,1,.208,4.06v.072c0,.216-.035.4-.035.575a.417.417,0,0,0,.1.287,1.239,1.239,0,0,0,.832.323,3.759,3.759,0,0,0,1.11-.323.494.494,0,0,1,.381.036c.173.072.243.18.243.216,0,.072-.139.287-.694.5a2.338,2.338,0,0,1-.277.108,2.245,2.245,0,0,0-1.491,1.042,1.491,1.491,0,0,0,.1,1.258c.139.359,1.422,3.306,4.3,3.917A4.758,4.758,0,0,1,17.06,15.738Z" transform="translate(0.832 0.719)" fill="#202020"/>
    </g>
  </g>
</svg>
