<svg xmlns="http://www.w3.org/2000/svg" xmlns:xlink="http://www.w3.org/1999/xlink" width="64.931" height="64.931" viewBox="0 0 64.931 64.931">
  <defs>
    <filter id="Oval" x="0" y="0" width="64.931" height="64.931" filterUnits="userSpaceOnUse">
      <feOffset dy="3" input="SourceAlpha"/>
      <feGaussianBlur stdDeviation="3" result="blur"/>
      <feFlood flood-opacity="0.161"/>
      <feComposite operator="in" in2="blur"/>
      <feComposite in="SourceGraphic"/>
    </filter>
  </defs>
  <g id="Youtube" transform="translate(9 6)">
    <g transform="matrix(1, 0, 0, 1, -9, -6)" filter="url(#Oval)">
      <circle id="Oval-2" data-name="Oval" cx="23.466" cy="23.466" r="23.466" transform="translate(9 6)" fill="#f1f1f1"/>
    </g>
    <path id="Youtube-2" data-name="Youtube" d="M10.578,16.455h0c-.055,0-5.528-.04-7.186-.224-.089-.021-.2-.037-.323-.055a2.966,2.966,0,0,1-2.011-.955A5.627,5.627,0,0,1,.219,12.9,37.459,37.459,0,0,1,0,9.125V7.367c0-1.882.217-3.8.219-3.815a5.116,5.116,0,0,1,.839-2.319A2.882,2.882,0,0,1,3.11.268h0L3.174.262C6.093.04,10.534,0,10.578,0s4.485.04,7.4.262l.1.008a2.693,2.693,0,0,1,2.015.964,5.627,5.627,0,0,1,.839,2.319c0,.019.219,1.931.219,3.815V9.125c0,1.845-.217,3.758-.219,3.777a5.628,5.628,0,0,1-.839,2.319,2.882,2.882,0,0,1-2.052.966h0l-.059.005C15.062,16.452,10.623,16.455,10.578,16.455Zm-2.554-12v8.116L14.956,8.6Z" transform="translate(12.887 15.238)" fill="#202020"/>
  </g>
</svg>
